<svg width="270" height="332" viewBox="0 0 270 332" fill="none" xmlns="http://www.w3.org/2000/svg">
<g clip-path="url(#clip0_1_278)">
<path d="M0 332L270 332L270 0L2.90244e-05 -2.36041e-05L0 332Z" fill="white"/>
<path d="M270 166C270 74.321 195.737 -6.49225e-06 104.13 -1.45008e-05L104.13 332C195.737 332 270 257.679 270 166Z" fill="#1B4E65"/>
<path d="M52.0649 217.644C23.3103 217.644 6.81061e-05 240.973 6.55904e-05 269.75C6.30746e-05 298.527 23.3103 321.855 52.0649 321.855C80.8195 321.855 104.13 298.527 104.13 269.75C104.13 240.973 80.8195 217.644 52.0649 217.644Z" fill="#FFEC83"/>
<path d="M52.0649 10.1443C23.3103 10.1443 6.81061e-05 33.4728 6.55904e-05 62.2499C6.30746e-05 91.027 23.3103 114.355 52.0649 114.355C80.8195 114.355 104.13 91.027 104.13 62.2499C104.13 33.4728 80.8195 10.1443 52.0649 10.1443Z" fill="#F4BAB9"/>
<path d="M52.0649 114.356C23.3103 114.356 6.80436e-05 137.478 6.55501e-05 166C6.30565e-05 194.523 23.3103 217.645 52.0649 217.645C80.8195 217.645 104.13 194.523 104.13 166C104.13 137.478 80.8195 114.356 52.0649 114.356Z" fill="#FB7560"/>
</g>
<defs>
<clipPath id="clip0_1_278">
<rect width="270" height="332" fill="white" transform="translate(270 332) rotate(-180)"/>
</clipPath>
</defs>
</svg>
