<svg width="222" height="227" viewBox="0 0 222 227" fill="none" xmlns="http://www.w3.org/2000/svg">
<path d="M24.2266 197H22.8984V186.758H19.2812V185.578H27.8438V186.758H24.2266V197ZM34.6406 197L34.3828 195.781H34.3203C33.8932 196.318 33.4661 196.682 33.0391 196.875C32.6172 197.062 32.0885 197.156 31.4531 197.156C30.6042 197.156 29.9375 196.938 29.4531 196.5C28.974 196.062 28.7344 195.44 28.7344 194.633C28.7344 192.904 30.1172 191.997 32.8828 191.914L34.3359 191.867V191.336C34.3359 190.664 34.1901 190.169 33.8984 189.852C33.612 189.529 33.151 189.367 32.5156 189.367C31.8021 189.367 30.9948 189.586 30.0938 190.023L29.6953 189.031C30.1172 188.802 30.5781 188.622 31.0781 188.492C31.5833 188.362 32.0885 188.297 32.5938 188.297C33.6146 188.297 34.3698 188.523 34.8594 188.977C35.3542 189.43 35.6016 190.156 35.6016 191.156V197H34.6406ZM31.7109 196.086C32.5182 196.086 33.151 195.865 33.6094 195.422C34.0729 194.979 34.3047 194.359 34.3047 193.562V192.789L33.0078 192.844C31.9766 192.88 31.2318 193.042 30.7734 193.328C30.3203 193.609 30.0938 194.049 30.0938 194.648C30.0938 195.117 30.2344 195.474 30.5156 195.719C30.8021 195.964 31.2005 196.086 31.7109 196.086ZM39.5781 197H38.2812V184.844H39.5781V197ZM43.6094 192.617C43.8333 192.299 44.1745 191.883 44.6328 191.367L47.3984 188.438H48.9375L45.4688 192.086L49.1797 197H47.6094L44.5859 192.953L43.6094 193.797V197H42.3281V184.844H43.6094V191.289C43.6094 191.576 43.5885 192.018 43.5469 192.617H43.6094ZM52.0312 197H50.7344V188.438H52.0312V197ZM50.625 186.117C50.625 185.82 50.6979 185.604 50.8438 185.469C50.9896 185.328 51.1719 185.258 51.3906 185.258C51.599 185.258 51.7786 185.328 51.9297 185.469C52.0807 185.609 52.1562 185.826 52.1562 186.117C52.1562 186.409 52.0807 186.628 51.9297 186.773C51.7786 186.914 51.599 186.984 51.3906 186.984C51.1719 186.984 50.9896 186.914 50.8438 186.773C50.6979 186.628 50.625 186.409 50.625 186.117ZM60.6406 197V191.461C60.6406 190.763 60.4818 190.242 60.1641 189.898C59.8464 189.555 59.349 189.383 58.6719 189.383C57.776 189.383 57.1198 189.625 56.7031 190.109C56.2865 190.594 56.0781 191.393 56.0781 192.508V197H54.7812V188.438H55.8359L56.0469 189.609H56.1094C56.375 189.188 56.7474 188.862 57.2266 188.633C57.7057 188.398 58.2396 188.281 58.8281 188.281C59.8594 188.281 60.6354 188.531 61.1562 189.031C61.6771 189.526 61.9375 190.32 61.9375 191.414V197H60.6406ZM71.6172 188.438V189.258L70.0312 189.445C70.1771 189.628 70.3073 189.867 70.4219 190.164C70.5365 190.456 70.5938 190.786 70.5938 191.156C70.5938 191.995 70.3073 192.664 69.7344 193.164C69.1615 193.664 68.375 193.914 67.375 193.914C67.1198 193.914 66.8802 193.893 66.6562 193.852C66.1042 194.143 65.8281 194.51 65.8281 194.953C65.8281 195.188 65.9245 195.362 66.1172 195.477C66.3099 195.586 66.6406 195.641 67.1094 195.641H68.625C69.5521 195.641 70.263 195.836 70.7578 196.227C71.2578 196.617 71.5078 197.185 71.5078 197.93C71.5078 198.878 71.1276 199.599 70.3672 200.094C69.6068 200.594 68.4974 200.844 67.0391 200.844C65.9193 200.844 65.0547 200.635 64.4453 200.219C63.8411 199.802 63.5391 199.214 63.5391 198.453C63.5391 197.932 63.7057 197.482 64.0391 197.102C64.3724 196.721 64.8411 196.464 65.4453 196.328C65.2266 196.229 65.0417 196.076 64.8906 195.867C64.7448 195.659 64.6719 195.417 64.6719 195.141C64.6719 194.828 64.7552 194.555 64.9219 194.32C65.0885 194.086 65.3516 193.859 65.7109 193.641C65.2682 193.458 64.9062 193.148 64.625 192.711C64.349 192.273 64.2109 191.773 64.2109 191.211C64.2109 190.273 64.4922 189.552 65.0547 189.047C65.6172 188.536 66.4141 188.281 67.4453 188.281C67.8932 188.281 68.2969 188.333 68.6562 188.438H71.6172ZM64.7891 198.438C64.7891 198.901 64.9844 199.253 65.375 199.492C65.7656 199.732 66.3255 199.852 67.0547 199.852C68.1432 199.852 68.9479 199.688 69.4688 199.359C69.9948 199.036 70.2578 198.596 70.2578 198.039C70.2578 197.576 70.1146 197.253 69.8281 197.07C69.5417 196.893 69.0026 196.805 68.2109 196.805H66.6562C66.0677 196.805 65.6094 196.945 65.2812 197.227C64.9531 197.508 64.7891 197.911 64.7891 198.438ZM65.4922 191.18C65.4922 191.779 65.6615 192.232 66 192.539C66.3385 192.846 66.8099 193 67.4141 193C68.6797 193 69.3125 192.385 69.3125 191.156C69.3125 189.87 68.6719 189.227 67.3906 189.227C66.7812 189.227 66.3125 189.391 65.9844 189.719C65.6562 190.047 65.4922 190.534 65.4922 191.18ZM80.2969 196.086C80.526 196.086 80.7474 196.07 80.9609 196.039C81.1745 196.003 81.3438 195.966 81.4688 195.93V196.922C81.3281 196.99 81.1198 197.044 80.8438 197.086C80.5729 197.133 80.3281 197.156 80.1094 197.156C78.4531 197.156 77.625 196.284 77.625 194.539V189.445H76.3984V188.82L77.625 188.281L78.1719 186.453H78.9219V188.438H81.4062V189.445H78.9219V194.484C78.9219 195 79.0443 195.396 79.2891 195.672C79.5339 195.948 79.8698 196.086 80.2969 196.086ZM90.5781 192.711C90.5781 194.107 90.2266 195.198 89.5234 195.984C88.8203 196.766 87.849 197.156 86.6094 197.156C85.8438 197.156 85.1641 196.977 84.5703 196.617C83.9766 196.258 83.5182 195.742 83.1953 195.07C82.8724 194.398 82.7109 193.612 82.7109 192.711C82.7109 191.315 83.0599 190.229 83.7578 189.453C84.4557 188.672 85.4245 188.281 86.6641 188.281C87.862 188.281 88.8125 188.68 89.5156 189.477C90.224 190.273 90.5781 191.352 90.5781 192.711ZM84.0547 192.711C84.0547 193.805 84.2734 194.638 84.7109 195.211C85.1484 195.784 85.7917 196.07 86.6406 196.07C87.4896 196.07 88.1328 195.786 88.5703 195.219C89.013 194.646 89.2344 193.81 89.2344 192.711C89.2344 191.622 89.013 190.797 88.5703 190.234C88.1328 189.667 87.4844 189.383 86.625 189.383C85.776 189.383 85.1354 189.661 84.7031 190.219C84.2708 190.776 84.0547 191.607 84.0547 192.711ZM95.6562 188.438H97.0469L98.9219 193.32C99.3333 194.435 99.5885 195.24 99.6875 195.734H99.75C99.8177 195.469 99.9583 195.016 100.172 194.375C100.391 193.729 101.099 191.75 102.297 188.438H103.688L100.008 198.188C99.6432 199.151 99.2161 199.833 98.7266 200.234C98.2422 200.641 97.6458 200.844 96.9375 200.844C96.5417 200.844 96.151 200.799 95.7656 200.711V199.672C96.0521 199.734 96.3724 199.766 96.7266 199.766C97.6172 199.766 98.2526 199.266 98.6328 198.266L99.1094 197.047L95.6562 188.438ZM112.469 192.711C112.469 194.107 112.117 195.198 111.414 195.984C110.711 196.766 109.74 197.156 108.5 197.156C107.734 197.156 107.055 196.977 106.461 196.617C105.867 196.258 105.409 195.742 105.086 195.07C104.763 194.398 104.602 193.612 104.602 192.711C104.602 191.315 104.951 190.229 105.648 189.453C106.346 188.672 107.315 188.281 108.555 188.281C109.753 188.281 110.703 188.68 111.406 189.477C112.115 190.273 112.469 191.352 112.469 192.711ZM105.945 192.711C105.945 193.805 106.164 194.638 106.602 195.211C107.039 195.784 107.682 196.07 108.531 196.07C109.38 196.07 110.023 195.786 110.461 195.219C110.904 194.646 111.125 193.81 111.125 192.711C111.125 191.622 110.904 190.797 110.461 190.234C110.023 189.667 109.375 189.383 108.516 189.383C107.667 189.383 107.026 189.661 106.594 190.219C106.161 190.776 105.945 191.607 105.945 192.711ZM115.969 188.438V193.992C115.969 194.69 116.128 195.211 116.445 195.555C116.763 195.898 117.26 196.07 117.938 196.07C118.833 196.07 119.487 195.826 119.898 195.336C120.315 194.846 120.523 194.047 120.523 192.938V188.438H121.82V197H120.75L120.562 195.852H120.492C120.227 196.273 119.857 196.596 119.383 196.82C118.914 197.044 118.378 197.156 117.773 197.156C116.732 197.156 115.951 196.909 115.43 196.414C114.914 195.919 114.656 195.128 114.656 194.039V188.438H115.969ZM128.484 188.281C128.865 188.281 129.206 188.312 129.508 188.375L129.328 189.578C128.974 189.5 128.661 189.461 128.391 189.461C127.698 189.461 127.104 189.742 126.609 190.305C126.12 190.867 125.875 191.568 125.875 192.406V197H124.578V188.438H125.648L125.797 190.023H125.859C126.177 189.466 126.56 189.036 127.008 188.734C127.456 188.432 127.948 188.281 128.484 188.281ZM138.031 196.086C138.26 196.086 138.482 196.07 138.695 196.039C138.909 196.003 139.078 195.966 139.203 195.93V196.922C139.062 196.99 138.854 197.044 138.578 197.086C138.307 197.133 138.062 197.156 137.844 197.156C136.188 197.156 135.359 196.284 135.359 194.539V189.445H134.133V188.82L135.359 188.281L135.906 186.453H136.656V188.438H139.141V189.445H136.656V194.484C136.656 195 136.779 195.396 137.023 195.672C137.268 195.948 137.604 196.086 138.031 196.086ZM144.539 197.156C143.273 197.156 142.273 196.771 141.539 196C140.81 195.229 140.445 194.159 140.445 192.789C140.445 191.409 140.784 190.312 141.461 189.5C142.143 188.688 143.057 188.281 144.203 188.281C145.276 188.281 146.125 188.635 146.75 189.344C147.375 190.047 147.688 190.977 147.688 192.133V192.953H141.789C141.815 193.958 142.068 194.721 142.547 195.242C143.031 195.763 143.711 196.023 144.586 196.023C145.508 196.023 146.419 195.831 147.32 195.445V196.602C146.862 196.799 146.427 196.94 146.016 197.023C145.609 197.112 145.117 197.156 144.539 197.156ZM144.188 189.367C143.5 189.367 142.951 189.591 142.539 190.039C142.133 190.487 141.893 191.107 141.82 191.898H146.297C146.297 191.081 146.115 190.456 145.75 190.023C145.385 189.586 144.865 189.367 144.188 189.367ZM155.172 197L154.914 195.781H154.852C154.424 196.318 153.997 196.682 153.57 196.875C153.148 197.062 152.62 197.156 151.984 197.156C151.135 197.156 150.469 196.938 149.984 196.5C149.505 196.062 149.266 195.44 149.266 194.633C149.266 192.904 150.648 191.997 153.414 191.914L154.867 191.867V191.336C154.867 190.664 154.721 190.169 154.43 189.852C154.143 189.529 153.682 189.367 153.047 189.367C152.333 189.367 151.526 189.586 150.625 190.023L150.227 189.031C150.648 188.802 151.109 188.622 151.609 188.492C152.115 188.362 152.62 188.297 153.125 188.297C154.146 188.297 154.901 188.523 155.391 188.977C155.885 189.43 156.133 190.156 156.133 191.156V197H155.172ZM152.242 196.086C153.049 196.086 153.682 195.865 154.141 195.422C154.604 194.979 154.836 194.359 154.836 193.562V192.789L153.539 192.844C152.508 192.88 151.763 193.042 151.305 193.328C150.852 193.609 150.625 194.049 150.625 194.648C150.625 195.117 150.766 195.474 151.047 195.719C151.333 195.964 151.732 196.086 152.242 196.086ZM169.727 197V191.43C169.727 190.747 169.581 190.237 169.289 189.898C168.997 189.555 168.544 189.383 167.93 189.383C167.122 189.383 166.526 189.615 166.141 190.078C165.755 190.542 165.562 191.255 165.562 192.219V197H164.266V191.43C164.266 190.747 164.12 190.237 163.828 189.898C163.536 189.555 163.081 189.383 162.461 189.383C161.648 189.383 161.052 189.628 160.672 190.117C160.297 190.602 160.109 191.398 160.109 192.508V197H158.812V188.438H159.867L160.078 189.609H160.141C160.385 189.193 160.729 188.867 161.172 188.633C161.62 188.398 162.12 188.281 162.672 188.281C164.01 188.281 164.885 188.766 165.297 189.734H165.359C165.615 189.286 165.984 188.932 166.469 188.672C166.953 188.411 167.505 188.281 168.125 188.281C169.094 188.281 169.818 188.531 170.297 189.031C170.781 189.526 171.023 190.32 171.023 191.414V197H169.727ZM183.719 197V191.461C183.719 190.763 183.56 190.242 183.242 189.898C182.924 189.555 182.427 189.383 181.75 189.383C180.849 189.383 180.19 189.628 179.773 190.117C179.362 190.607 179.156 191.409 179.156 192.523V197H177.859V184.844H179.156V188.523C179.156 188.966 179.135 189.333 179.094 189.625H179.172C179.427 189.214 179.789 188.891 180.258 188.656C180.732 188.417 181.271 188.297 181.875 188.297C182.922 188.297 183.706 188.547 184.227 189.047C184.753 189.542 185.016 190.331 185.016 191.414V197H183.719ZM192.953 197L192.695 195.781H192.633C192.206 196.318 191.779 196.682 191.352 196.875C190.93 197.062 190.401 197.156 189.766 197.156C188.917 197.156 188.25 196.938 187.766 196.5C187.286 196.062 187.047 195.44 187.047 194.633C187.047 192.904 188.43 191.997 191.195 191.914L192.648 191.867V191.336C192.648 190.664 192.503 190.169 192.211 189.852C191.924 189.529 191.464 189.367 190.828 189.367C190.115 189.367 189.307 189.586 188.406 190.023L188.008 189.031C188.43 188.802 188.891 188.622 189.391 188.492C189.896 188.362 190.401 188.297 190.906 188.297C191.927 188.297 192.682 188.523 193.172 188.977C193.667 189.43 193.914 190.156 193.914 191.156V197H192.953ZM190.023 196.086C190.831 196.086 191.464 195.865 191.922 195.422C192.385 194.979 192.617 194.359 192.617 193.562V192.789L191.32 192.844C190.289 192.88 189.544 193.042 189.086 193.328C188.633 193.609 188.406 194.049 188.406 194.648C188.406 195.117 188.547 195.474 188.828 195.719C189.115 195.964 189.513 196.086 190.023 196.086ZM202.117 194.664C202.117 195.461 201.82 196.076 201.227 196.508C200.633 196.94 199.799 197.156 198.727 197.156C197.591 197.156 196.706 196.977 196.07 196.617V195.414C196.482 195.622 196.922 195.786 197.391 195.906C197.865 196.026 198.32 196.086 198.758 196.086C199.435 196.086 199.956 195.979 200.32 195.766C200.685 195.547 200.867 195.216 200.867 194.773C200.867 194.44 200.721 194.156 200.43 193.922C200.143 193.682 199.581 193.401 198.742 193.078C197.945 192.781 197.378 192.523 197.039 192.305C196.706 192.081 196.456 191.828 196.289 191.547C196.128 191.266 196.047 190.93 196.047 190.539C196.047 189.841 196.331 189.292 196.898 188.891C197.466 188.484 198.245 188.281 199.234 188.281C200.156 188.281 201.057 188.469 201.938 188.844L201.477 189.898C200.617 189.544 199.839 189.367 199.141 189.367C198.526 189.367 198.062 189.464 197.75 189.656C197.438 189.849 197.281 190.115 197.281 190.453C197.281 190.682 197.339 190.878 197.453 191.039C197.573 191.201 197.763 191.354 198.023 191.5C198.284 191.646 198.784 191.857 199.523 192.133C200.539 192.503 201.224 192.875 201.578 193.25C201.938 193.625 202.117 194.096 202.117 194.664ZM9.08594 221V215.461C9.08594 214.763 8.92708 214.242 8.60938 213.898C8.29167 213.555 7.79427 213.383 7.11719 213.383C6.22135 213.383 5.5651 213.625 5.14844 214.109C4.73177 214.594 4.52344 215.393 4.52344 216.508V221H3.22656V212.438H4.28125L4.49219 213.609H4.55469C4.82031 213.188 5.19271 212.862 5.67188 212.633C6.15104 212.398 6.6849 212.281 7.27344 212.281C8.30469 212.281 9.08073 212.531 9.60156 213.031C10.1224 213.526 10.3828 214.32 10.3828 215.414V221H9.08594ZM16.6719 221.156C15.4062 221.156 14.4062 220.771 13.6719 220C12.9427 219.229 12.5781 218.159 12.5781 216.789C12.5781 215.409 12.9167 214.312 13.5938 213.5C14.276 212.688 15.1901 212.281 16.3359 212.281C17.4089 212.281 18.2578 212.635 18.8828 213.344C19.5078 214.047 19.8203 214.977 19.8203 216.133V216.953H13.9219C13.9479 217.958 14.2005 218.721 14.6797 219.242C15.1641 219.763 15.8438 220.023 16.7188 220.023C17.6406 220.023 18.5521 219.831 19.4531 219.445V220.602C18.9948 220.799 18.5599 220.94 18.1484 221.023C17.7422 221.112 17.25 221.156 16.6719 221.156ZM16.3203 213.367C15.6328 213.367 15.0833 213.591 14.6719 214.039C14.2656 214.487 14.026 215.107 13.9531 215.898H18.4297C18.4297 215.081 18.2474 214.456 17.8828 214.023C17.5182 213.586 16.9974 213.367 16.3203 213.367ZM23.9141 221L20.6641 212.438H22.0547L23.8984 217.516C24.3151 218.703 24.5599 219.474 24.6328 219.828H24.6953C24.7526 219.552 24.9323 218.982 25.2344 218.117C25.5417 217.247 26.2266 215.354 27.2891 212.438H28.6797L25.4297 221H23.9141ZM33.6719 221.156C32.4062 221.156 31.4062 220.771 30.6719 220C29.9427 219.229 29.5781 218.159 29.5781 216.789C29.5781 215.409 29.9167 214.312 30.5938 213.5C31.276 212.688 32.1901 212.281 33.3359 212.281C34.4089 212.281 35.2578 212.635 35.8828 213.344C36.5078 214.047 36.8203 214.977 36.8203 216.133V216.953H30.9219C30.9479 217.958 31.2005 218.721 31.6797 219.242C32.1641 219.763 32.8438 220.023 33.7188 220.023C34.6406 220.023 35.5521 219.831 36.4531 219.445V220.602C35.9948 220.799 35.5599 220.94 35.1484 221.023C34.7422 221.112 34.25 221.156 33.6719 221.156ZM33.3203 213.367C32.6328 213.367 32.0833 213.591 31.6719 214.039C31.2656 214.487 31.026 215.107 30.9531 215.898H35.4297C35.4297 215.081 35.2474 214.456 34.8828 214.023C34.5182 213.586 33.9974 213.367 33.3203 213.367ZM42.9453 212.281C43.3255 212.281 43.6667 212.312 43.9688 212.375L43.7891 213.578C43.4349 213.5 43.1224 213.461 42.8516 213.461C42.1589 213.461 41.5651 213.742 41.0703 214.305C40.5807 214.867 40.3359 215.568 40.3359 216.406V221H39.0391V212.438H40.1094L40.2578 214.023H40.3203C40.638 213.466 41.0208 213.036 41.4688 212.734C41.9167 212.432 42.4089 212.281 42.9453 212.281ZM56.7344 212.438V213.258L55.1484 213.445C55.2943 213.628 55.4245 213.867 55.5391 214.164C55.6536 214.456 55.7109 214.786 55.7109 215.156C55.7109 215.995 55.4245 216.664 54.8516 217.164C54.2786 217.664 53.4922 217.914 52.4922 217.914C52.237 217.914 51.9974 217.893 51.7734 217.852C51.2214 218.143 50.9453 218.51 50.9453 218.953C50.9453 219.188 51.0417 219.362 51.2344 219.477C51.4271 219.586 51.7578 219.641 52.2266 219.641H53.7422C54.6693 219.641 55.3802 219.836 55.875 220.227C56.375 220.617 56.625 221.185 56.625 221.93C56.625 222.878 56.2448 223.599 55.4844 224.094C54.724 224.594 53.6146 224.844 52.1562 224.844C51.0365 224.844 50.1719 224.635 49.5625 224.219C48.9583 223.802 48.6562 223.214 48.6562 222.453C48.6562 221.932 48.8229 221.482 49.1562 221.102C49.4896 220.721 49.9583 220.464 50.5625 220.328C50.3438 220.229 50.1589 220.076 50.0078 219.867C49.862 219.659 49.7891 219.417 49.7891 219.141C49.7891 218.828 49.8724 218.555 50.0391 218.32C50.2057 218.086 50.4688 217.859 50.8281 217.641C50.3854 217.458 50.0234 217.148 49.7422 216.711C49.4661 216.273 49.3281 215.773 49.3281 215.211C49.3281 214.273 49.6094 213.552 50.1719 213.047C50.7344 212.536 51.5312 212.281 52.5625 212.281C53.0104 212.281 53.4141 212.333 53.7734 212.438H56.7344ZM49.9062 222.438C49.9062 222.901 50.1016 223.253 50.4922 223.492C50.8828 223.732 51.4427 223.852 52.1719 223.852C53.2604 223.852 54.0651 223.688 54.5859 223.359C55.112 223.036 55.375 222.596 55.375 222.039C55.375 221.576 55.2318 221.253 54.9453 221.07C54.6589 220.893 54.1198 220.805 53.3281 220.805H51.7734C51.1849 220.805 50.7266 220.945 50.3984 221.227C50.0703 221.508 49.9062 221.911 49.9062 222.438ZM50.6094 215.18C50.6094 215.779 50.7786 216.232 51.1172 216.539C51.4557 216.846 51.9271 217 52.5312 217C53.7969 217 54.4297 216.385 54.4297 215.156C54.4297 213.87 53.7891 213.227 52.5078 213.227C51.8984 213.227 51.4297 213.391 51.1016 213.719C50.7734 214.047 50.6094 214.534 50.6094 215.18ZM65.8828 216.711C65.8828 218.107 65.5312 219.198 64.8281 219.984C64.125 220.766 63.1536 221.156 61.9141 221.156C61.1484 221.156 60.4688 220.977 59.875 220.617C59.2812 220.258 58.8229 219.742 58.5 219.07C58.1771 218.398 58.0156 217.612 58.0156 216.711C58.0156 215.315 58.3646 214.229 59.0625 213.453C59.7604 212.672 60.7292 212.281 61.9688 212.281C63.1667 212.281 64.1172 212.68 64.8203 213.477C65.5286 214.273 65.8828 215.352 65.8828 216.711ZM59.3594 216.711C59.3594 217.805 59.5781 218.638 60.0156 219.211C60.4531 219.784 61.0964 220.07 61.9453 220.07C62.7943 220.07 63.4375 219.786 63.875 219.219C64.3177 218.646 64.5391 217.81 64.5391 216.711C64.5391 215.622 64.3177 214.797 63.875 214.234C63.4375 213.667 62.7891 213.383 61.9297 213.383C61.0807 213.383 60.4401 213.661 60.0078 214.219C59.5755 214.776 59.3594 215.607 59.3594 216.711ZM70.9297 220.086C71.1589 220.086 71.3802 220.07 71.5938 220.039C71.8073 220.003 71.9766 219.966 72.1016 219.93V220.922C71.9609 220.99 71.7526 221.044 71.4766 221.086C71.2057 221.133 70.9609 221.156 70.7422 221.156C69.0859 221.156 68.2578 220.284 68.2578 218.539V213.445H67.0312V212.82L68.2578 212.281L68.8047 210.453H69.5547V212.438H72.0391V213.445H69.5547V218.484C69.5547 219 69.6771 219.396 69.9219 219.672C70.1667 219.948 70.5026 220.086 70.9297 220.086ZM76.5859 220.086C76.8151 220.086 77.0365 220.07 77.25 220.039C77.4635 220.003 77.6328 219.966 77.7578 219.93V220.922C77.6172 220.99 77.4089 221.044 77.1328 221.086C76.862 221.133 76.6172 221.156 76.3984 221.156C74.7422 221.156 73.9141 220.284 73.9141 218.539V213.445H72.6875V212.82L73.9141 212.281L74.4609 210.453H75.2109V212.438H77.6953V213.445H75.2109V218.484C75.2109 219 75.3333 219.396 75.5781 219.672C75.8229 219.948 76.1589 220.086 76.5859 220.086ZM83.0938 221.156C81.8281 221.156 80.8281 220.771 80.0938 220C79.3646 219.229 79 218.159 79 216.789C79 215.409 79.3385 214.312 80.0156 213.5C80.6979 212.688 81.612 212.281 82.7578 212.281C83.8307 212.281 84.6797 212.635 85.3047 213.344C85.9297 214.047 86.2422 214.977 86.2422 216.133V216.953H80.3438C80.3698 217.958 80.6224 218.721 81.1016 219.242C81.5859 219.763 82.2656 220.023 83.1406 220.023C84.0625 220.023 84.974 219.831 85.875 219.445V220.602C85.4167 220.799 84.9818 220.94 84.5703 221.023C84.1641 221.112 83.6719 221.156 83.0938 221.156ZM82.7422 213.367C82.0547 213.367 81.5052 213.591 81.0938 214.039C80.6875 214.487 80.4479 215.107 80.375 215.898H84.8516C84.8516 215.081 84.6693 214.456 84.3047 214.023C83.9401 213.586 83.4193 213.367 82.7422 213.367ZM94.3203 221V215.461C94.3203 214.763 94.1615 214.242 93.8438 213.898C93.526 213.555 93.0286 213.383 92.3516 213.383C91.4557 213.383 90.7995 213.625 90.3828 214.109C89.9661 214.594 89.7578 215.393 89.7578 216.508V221H88.4609V212.438H89.5156L89.7266 213.609H89.7891C90.0547 213.188 90.4271 212.862 90.9062 212.633C91.3854 212.398 91.9193 212.281 92.5078 212.281C93.5391 212.281 94.3151 212.531 94.8359 213.031C95.3568 213.526 95.6172 214.32 95.6172 215.414V221H94.3203ZM106.062 221.156C104.797 221.156 103.797 220.771 103.062 220C102.333 219.229 101.969 218.159 101.969 216.789C101.969 215.409 102.307 214.312 102.984 213.5C103.667 212.688 104.581 212.281 105.727 212.281C106.799 212.281 107.648 212.635 108.273 213.344C108.898 214.047 109.211 214.977 109.211 216.133V216.953H103.312C103.339 217.958 103.591 218.721 104.07 219.242C104.555 219.763 105.234 220.023 106.109 220.023C107.031 220.023 107.943 219.831 108.844 219.445V220.602C108.385 220.799 107.951 220.94 107.539 221.023C107.133 221.112 106.641 221.156 106.062 221.156ZM105.711 213.367C105.023 213.367 104.474 213.591 104.062 214.039C103.656 214.487 103.417 215.107 103.344 215.898H107.82C107.82 215.081 107.638 214.456 107.273 214.023C106.909 213.586 106.388 213.367 105.711 213.367ZM116.695 221L116.438 219.781H116.375C115.948 220.318 115.521 220.682 115.094 220.875C114.672 221.062 114.143 221.156 113.508 221.156C112.659 221.156 111.992 220.938 111.508 220.5C111.029 220.062 110.789 219.44 110.789 218.633C110.789 216.904 112.172 215.997 114.938 215.914L116.391 215.867V215.336C116.391 214.664 116.245 214.169 115.953 213.852C115.667 213.529 115.206 213.367 114.57 213.367C113.857 213.367 113.049 213.586 112.148 214.023L111.75 213.031C112.172 212.802 112.633 212.622 113.133 212.492C113.638 212.362 114.143 212.297 114.648 212.297C115.669 212.297 116.424 212.523 116.914 212.977C117.409 213.43 117.656 214.156 117.656 215.156V221H116.695ZM113.766 220.086C114.573 220.086 115.206 219.865 115.664 219.422C116.128 218.979 116.359 218.359 116.359 217.562V216.789L115.062 216.844C114.031 216.88 113.286 217.042 112.828 217.328C112.375 217.609 112.148 218.049 112.148 218.648C112.148 219.117 112.289 219.474 112.57 219.719C112.857 219.964 113.255 220.086 113.766 220.086ZM125.859 218.664C125.859 219.461 125.562 220.076 124.969 220.508C124.375 220.94 123.542 221.156 122.469 221.156C121.333 221.156 120.448 220.977 119.812 220.617V219.414C120.224 219.622 120.664 219.786 121.133 219.906C121.607 220.026 122.062 220.086 122.5 220.086C123.177 220.086 123.698 219.979 124.062 219.766C124.427 219.547 124.609 219.216 124.609 218.773C124.609 218.44 124.464 218.156 124.172 217.922C123.885 217.682 123.323 217.401 122.484 217.078C121.688 216.781 121.12 216.523 120.781 216.305C120.448 216.081 120.198 215.828 120.031 215.547C119.87 215.266 119.789 214.93 119.789 214.539C119.789 213.841 120.073 213.292 120.641 212.891C121.208 212.484 121.987 212.281 122.977 212.281C123.898 212.281 124.799 212.469 125.68 212.844L125.219 213.898C124.359 213.544 123.581 213.367 122.883 213.367C122.268 213.367 121.805 213.464 121.492 213.656C121.18 213.849 121.023 214.115 121.023 214.453C121.023 214.682 121.081 214.878 121.195 215.039C121.315 215.201 121.505 215.354 121.766 215.5C122.026 215.646 122.526 215.857 123.266 216.133C124.281 216.503 124.966 216.875 125.32 217.25C125.68 217.625 125.859 218.096 125.859 218.664ZM129.273 221H127.977V212.438H129.273V221ZM127.867 210.117C127.867 209.82 127.94 209.604 128.086 209.469C128.232 209.328 128.414 209.258 128.633 209.258C128.841 209.258 129.021 209.328 129.172 209.469C129.323 209.609 129.398 209.826 129.398 210.117C129.398 210.409 129.323 210.628 129.172 210.773C129.021 210.914 128.841 210.984 128.633 210.984C128.414 210.984 128.232 210.914 128.086 210.773C127.94 210.628 127.867 210.409 127.867 210.117ZM135.641 221.156C134.375 221.156 133.375 220.771 132.641 220C131.911 219.229 131.547 218.159 131.547 216.789C131.547 215.409 131.885 214.312 132.562 213.5C133.245 212.688 134.159 212.281 135.305 212.281C136.378 212.281 137.227 212.635 137.852 213.344C138.477 214.047 138.789 214.977 138.789 216.133V216.953H132.891C132.917 217.958 133.169 218.721 133.648 219.242C134.133 219.763 134.812 220.023 135.688 220.023C136.609 220.023 137.521 219.831 138.422 219.445V220.602C137.964 220.799 137.529 220.94 137.117 221.023C136.711 221.112 136.219 221.156 135.641 221.156ZM135.289 213.367C134.602 213.367 134.052 213.591 133.641 214.039C133.234 214.487 132.995 215.107 132.922 215.898H137.398C137.398 215.081 137.216 214.456 136.852 214.023C136.487 213.586 135.966 213.367 135.289 213.367ZM144.914 212.281C145.294 212.281 145.635 212.312 145.938 212.375L145.758 213.578C145.404 213.5 145.091 213.461 144.82 213.461C144.128 213.461 143.534 213.742 143.039 214.305C142.549 214.867 142.305 215.568 142.305 216.406V221H141.008V212.438H142.078L142.227 214.023H142.289C142.607 213.466 142.99 213.036 143.438 212.734C143.885 212.432 144.378 212.281 144.914 212.281ZM154.461 220.086C154.69 220.086 154.911 220.07 155.125 220.039C155.339 220.003 155.508 219.966 155.633 219.93V220.922C155.492 220.99 155.284 221.044 155.008 221.086C154.737 221.133 154.492 221.156 154.273 221.156C152.617 221.156 151.789 220.284 151.789 218.539V213.445H150.562V212.82L151.789 212.281L152.336 210.453H153.086V212.438H155.57V213.445H153.086V218.484C153.086 219 153.208 219.396 153.453 219.672C153.698 219.948 154.034 220.086 154.461 220.086ZM163.211 221V215.461C163.211 214.763 163.052 214.242 162.734 213.898C162.417 213.555 161.919 213.383 161.242 213.383C160.341 213.383 159.682 213.628 159.266 214.117C158.854 214.607 158.648 215.409 158.648 216.523V221H157.352V208.844H158.648V212.523C158.648 212.966 158.628 213.333 158.586 213.625H158.664C158.919 213.214 159.281 212.891 159.75 212.656C160.224 212.417 160.763 212.297 161.367 212.297C162.414 212.297 163.198 212.547 163.719 213.047C164.245 213.542 164.508 214.331 164.508 215.414V221H163.211ZM172.445 221L172.188 219.781H172.125C171.698 220.318 171.271 220.682 170.844 220.875C170.422 221.062 169.893 221.156 169.258 221.156C168.409 221.156 167.742 220.938 167.258 220.5C166.779 220.062 166.539 219.44 166.539 218.633C166.539 216.904 167.922 215.997 170.688 215.914L172.141 215.867V215.336C172.141 214.664 171.995 214.169 171.703 213.852C171.417 213.529 170.956 213.367 170.32 213.367C169.607 213.367 168.799 213.586 167.898 214.023L167.5 213.031C167.922 212.802 168.383 212.622 168.883 212.492C169.388 212.362 169.893 212.297 170.398 212.297C171.419 212.297 172.174 212.523 172.664 212.977C173.159 213.43 173.406 214.156 173.406 215.156V221H172.445ZM169.516 220.086C170.323 220.086 170.956 219.865 171.414 219.422C171.878 218.979 172.109 218.359 172.109 217.562V216.789L170.812 216.844C169.781 216.88 169.036 217.042 168.578 217.328C168.125 217.609 167.898 218.049 167.898 218.648C167.898 219.117 168.039 219.474 168.32 219.719C168.607 219.964 169.005 220.086 169.516 220.086ZM181.945 221V215.461C181.945 214.763 181.786 214.242 181.469 213.898C181.151 213.555 180.654 213.383 179.977 213.383C179.081 213.383 178.424 213.625 178.008 214.109C177.591 214.594 177.383 215.393 177.383 216.508V221H176.086V212.438H177.141L177.352 213.609H177.414C177.68 213.188 178.052 212.862 178.531 212.633C179.01 212.398 179.544 212.281 180.133 212.281C181.164 212.281 181.94 212.531 182.461 213.031C182.982 213.526 183.242 214.32 183.242 215.414V221H181.945ZM192.836 220.086C193.065 220.086 193.286 220.07 193.5 220.039C193.714 220.003 193.883 219.966 194.008 219.93V220.922C193.867 220.99 193.659 221.044 193.383 221.086C193.112 221.133 192.867 221.156 192.648 221.156C190.992 221.156 190.164 220.284 190.164 218.539V213.445H188.938V212.82L190.164 212.281L190.711 210.453H191.461V212.438H193.945V213.445H191.461V218.484C191.461 219 191.583 219.396 191.828 219.672C192.073 219.948 192.409 220.086 192.836 220.086ZM201.586 221V215.461C201.586 214.763 201.427 214.242 201.109 213.898C200.792 213.555 200.294 213.383 199.617 213.383C198.716 213.383 198.057 213.628 197.641 214.117C197.229 214.607 197.023 215.409 197.023 216.523V221H195.727V208.844H197.023V212.523C197.023 212.966 197.003 213.333 196.961 213.625H197.039C197.294 213.214 197.656 212.891 198.125 212.656C198.599 212.417 199.138 212.297 199.742 212.297C200.789 212.297 201.573 212.547 202.094 213.047C202.62 213.542 202.883 214.331 202.883 215.414V221H201.586ZM206.852 221H205.555V212.438H206.852V221ZM205.445 210.117C205.445 209.82 205.518 209.604 205.664 209.469C205.81 209.328 205.992 209.258 206.211 209.258C206.419 209.258 206.599 209.328 206.75 209.469C206.901 209.609 206.977 209.826 206.977 210.117C206.977 210.409 206.901 210.628 206.75 210.773C206.599 210.914 206.419 210.984 206.211 210.984C205.992 210.984 205.81 210.914 205.664 210.773C205.518 210.628 205.445 210.409 205.445 210.117ZM215.125 218.664C215.125 219.461 214.828 220.076 214.234 220.508C213.641 220.94 212.807 221.156 211.734 221.156C210.599 221.156 209.714 220.977 209.078 220.617V219.414C209.49 219.622 209.93 219.786 210.398 219.906C210.872 220.026 211.328 220.086 211.766 220.086C212.443 220.086 212.964 219.979 213.328 219.766C213.693 219.547 213.875 219.216 213.875 218.773C213.875 218.44 213.729 218.156 213.438 217.922C213.151 217.682 212.589 217.401 211.75 217.078C210.953 216.781 210.385 216.523 210.047 216.305C209.714 216.081 209.464 215.828 209.297 215.547C209.135 215.266 209.055 214.93 209.055 214.539C209.055 213.841 209.339 213.292 209.906 212.891C210.474 212.484 211.253 212.281 212.242 212.281C213.164 212.281 214.065 212.469 214.945 212.844L214.484 213.898C213.625 213.544 212.846 213.367 212.148 213.367C211.534 213.367 211.07 213.464 210.758 213.656C210.445 213.849 210.289 214.115 210.289 214.453C210.289 214.682 210.346 214.878 210.461 215.039C210.581 215.201 210.771 215.354 211.031 215.5C211.292 215.646 211.792 215.857 212.531 216.133C213.547 216.503 214.232 216.875 214.586 217.25C214.945 217.625 215.125 218.096 215.125 218.664ZM218.414 217.852H217.594L217.195 209.578H218.812L218.414 217.852ZM217.055 220.172C217.055 219.464 217.367 219.109 217.992 219.109C218.294 219.109 218.526 219.201 218.688 219.383C218.854 219.565 218.938 219.828 218.938 220.172C218.938 220.505 218.854 220.766 218.688 220.953C218.521 221.135 218.289 221.227 217.992 221.227C217.721 221.227 217.497 221.146 217.32 220.984C217.143 220.818 217.055 220.547 217.055 220.172Z" fill="#414141"/>
<path d="M88.5017 142.672C89.5577 142.672 90.4217 142.832 91.0937 143.152C91.7817 143.456 92.3897 143.816 92.9177 144.232C93.2377 144.472 93.4777 144.504 93.6377 144.328C93.8137 144.136 93.9337 143.696 93.9977 143.008H94.5497C94.5177 143.6 94.4937 144.32 94.4777 145.168C94.4617 146.016 94.4537 147.136 94.4537 148.528H93.9017C93.7897 147.84 93.6857 147.296 93.5897 146.896C93.4937 146.48 93.3737 146.128 93.2297 145.84C93.1017 145.552 92.9257 145.264 92.7017 144.976C92.2057 144.32 91.5817 143.848 90.8297 143.56C90.0777 143.256 89.2857 143.104 88.4537 143.104C87.6697 143.104 86.9577 143.304 86.3177 143.704C85.6937 144.088 85.1497 144.648 84.6857 145.384C84.2377 146.12 83.8857 147.008 83.6297 148.048C83.3897 149.088 83.2697 150.256 83.2697 151.552C83.2697 152.896 83.4057 154.088 83.6777 155.128C83.9497 156.152 84.3257 157.016 84.8057 157.72C85.3017 158.424 85.8777 158.96 86.5337 159.328C87.2057 159.68 87.9257 159.856 88.6937 159.856C89.4137 159.856 90.1657 159.712 90.9497 159.424C91.7337 159.136 92.3497 158.672 92.7977 158.032C93.1497 157.568 93.3897 157.064 93.5177 156.52C93.6617 155.976 93.7897 155.216 93.9017 154.24H94.4537C94.4537 155.696 94.4617 156.872 94.4777 157.768C94.4937 158.648 94.5177 159.392 94.5497 160H93.9977C93.9337 159.312 93.8217 158.88 93.6617 158.704C93.5177 158.528 93.2697 158.552 92.9177 158.776C92.3257 159.192 91.6937 159.56 91.0217 159.88C90.3657 160.184 89.5177 160.336 88.4777 160.336C86.9577 160.336 85.6217 159.992 84.4697 159.304C83.3337 158.616 82.4457 157.624 81.8057 156.328C81.1817 155.032 80.8697 153.472 80.8697 151.648C80.8697 149.856 81.1977 148.288 81.8537 146.944C82.5097 145.6 83.4057 144.552 84.5417 143.8C85.6937 143.048 87.0137 142.672 88.5017 142.672ZM100.585 141.208V150.184C101.001 149.096 101.577 148.344 102.313 147.928C103.065 147.512 103.849 147.304 104.665 147.304C105.273 147.304 105.777 147.384 106.177 147.544C106.593 147.704 106.937 147.928 107.209 148.216C107.513 148.536 107.729 148.936 107.857 149.416C107.985 149.896 108.049 150.544 108.049 151.36V157.768C108.049 158.44 108.185 158.896 108.457 159.136C108.745 159.376 109.217 159.496 109.873 159.496V160C109.601 159.984 109.185 159.968 108.625 159.952C108.065 159.92 107.521 159.904 106.993 159.904C106.465 159.904 105.945 159.92 105.433 159.952C104.937 159.968 104.561 159.984 104.305 160V159.496C104.881 159.496 105.289 159.376 105.529 159.136C105.769 158.896 105.889 158.44 105.889 157.768V150.832C105.889 150.336 105.849 149.88 105.769 149.464C105.689 149.048 105.505 148.712 105.217 148.456C104.945 148.2 104.521 148.072 103.945 148.072C103.289 148.072 102.705 148.256 102.193 148.624C101.697 148.992 101.305 149.504 101.017 150.16C100.729 150.816 100.585 151.568 100.585 152.416V157.768C100.585 158.44 100.705 158.896 100.945 159.136C101.185 159.376 101.593 159.496 102.169 159.496V160C101.913 159.984 101.529 159.968 101.017 159.952C100.521 159.92 100.009 159.904 99.4811 159.904C98.9531 159.904 98.4091 159.92 97.8491 159.952C97.2891 159.968 96.8731 159.984 96.6011 160V159.496C97.2571 159.496 97.7211 159.376 97.9931 159.136C98.2811 158.896 98.4251 158.44 98.4251 157.768V144.088C98.4251 143.368 98.2971 142.84 98.0411 142.504C97.7851 142.152 97.3051 141.976 96.6011 141.976V141.472C97.1131 141.52 97.6091 141.544 98.0891 141.544C98.5531 141.544 98.9931 141.52 99.4091 141.472C99.8411 141.408 100.233 141.32 100.585 141.208ZM114.334 160.168C113.678 160.168 113.11 160.048 112.63 159.808C112.15 159.552 111.782 159.2 111.526 158.752C111.286 158.304 111.166 157.784 111.166 157.192C111.166 156.488 111.326 155.912 111.646 155.464C111.982 155.016 112.406 154.656 112.918 154.384C113.43 154.112 113.966 153.888 114.526 153.712C115.102 153.52 115.646 153.344 116.158 153.184C116.67 153.008 117.086 152.808 117.406 152.584C117.742 152.36 117.91 152.064 117.91 151.696V150.208C117.91 149.536 117.806 149.024 117.598 148.672C117.406 148.32 117.142 148.088 116.806 147.976C116.47 147.848 116.094 147.784 115.678 147.784C115.278 147.784 114.846 147.84 114.382 147.952C113.934 148.064 113.574 148.296 113.302 148.648C113.606 148.712 113.87 148.872 114.094 149.128C114.318 149.384 114.43 149.712 114.43 150.112C114.43 150.512 114.302 150.832 114.046 151.072C113.79 151.296 113.462 151.408 113.062 151.408C112.598 151.408 112.254 151.264 112.03 150.976C111.822 150.672 111.718 150.336 111.718 149.968C111.718 149.552 111.822 149.216 112.03 148.96C112.238 148.704 112.502 148.464 112.822 148.24C113.19 147.984 113.662 147.768 114.238 147.592C114.83 147.4 115.494 147.304 116.23 147.304C116.886 147.304 117.446 147.384 117.91 147.544C118.374 147.688 118.758 147.904 119.062 148.192C119.478 148.576 119.75 149.048 119.878 149.608C120.006 150.152 120.07 150.808 120.07 151.576V158.248C120.07 158.648 120.126 158.936 120.238 159.112C120.366 159.288 120.558 159.376 120.814 159.376C120.99 159.376 121.158 159.336 121.318 159.256C121.478 159.176 121.67 159.048 121.894 158.872L122.158 159.28C121.822 159.536 121.502 159.752 121.198 159.928C120.894 160.088 120.486 160.168 119.974 160.168C119.51 160.168 119.126 160.088 118.822 159.928C118.518 159.768 118.286 159.536 118.126 159.232C117.982 158.912 117.91 158.512 117.91 158.032C117.478 158.752 116.958 159.288 116.35 159.64C115.758 159.992 115.086 160.168 114.334 160.168ZM115.198 159.208C115.726 159.208 116.214 159.056 116.662 158.752C117.126 158.448 117.542 157.992 117.91 157.384V152.68C117.718 152.952 117.438 153.184 117.07 153.376C116.702 153.552 116.302 153.736 115.87 153.928C115.438 154.104 115.022 154.32 114.622 154.576C114.238 154.816 113.918 155.136 113.662 155.536C113.406 155.936 113.278 156.456 113.278 157.096C113.278 157.736 113.446 158.248 113.782 158.632C114.134 159.016 114.606 159.208 115.198 159.208ZM126.744 143.656V147.664H130.296V148.144H126.744V157.432C126.744 158.184 126.88 158.712 127.152 159.016C127.424 159.32 127.8 159.472 128.28 159.472C128.76 159.472 129.176 159.28 129.528 158.896C129.88 158.496 130.184 157.832 130.44 156.904L130.92 157.024C130.76 157.952 130.44 158.736 129.96 159.376C129.496 160.016 128.776 160.336 127.8 160.336C127.256 160.336 126.808 160.264 126.456 160.12C126.104 159.992 125.792 159.8 125.52 159.544C125.168 159.176 124.92 158.736 124.776 158.224C124.648 157.712 124.584 157.032 124.584 156.184V148.144H122.28V147.664H124.584V143.992C124.984 143.976 125.368 143.944 125.736 143.896C126.104 143.848 126.44 143.768 126.744 143.656ZM135.66 147.304C136.3 147.304 136.844 147.408 137.292 147.616C137.74 147.824 138.068 148.016 138.276 148.192C138.804 148.624 139.124 148.336 139.236 147.328H139.788C139.756 147.776 139.732 148.312 139.716 148.936C139.7 149.544 139.692 150.368 139.692 151.408H139.14C139.044 150.816 138.876 150.24 138.636 149.68C138.412 149.12 138.076 148.664 137.628 148.312C137.18 147.944 136.596 147.76 135.876 147.76C135.316 147.76 134.844 147.92 134.46 148.24C134.092 148.544 133.908 149 133.908 149.608C133.908 150.088 134.052 150.504 134.34 150.856C134.628 151.192 135.004 151.512 135.468 151.816C135.932 152.104 136.436 152.424 136.98 152.776C137.588 153.16 138.14 153.552 138.636 153.952C139.132 154.352 139.524 154.792 139.812 155.272C140.116 155.752 140.268 156.32 140.268 156.976C140.268 157.712 140.076 158.328 139.692 158.824C139.308 159.32 138.804 159.696 138.18 159.952C137.572 160.208 136.9 160.336 136.164 160.336C135.812 160.336 135.476 160.304 135.156 160.24C134.852 160.192 134.556 160.112 134.268 160C134.108 159.92 133.94 159.824 133.764 159.712C133.604 159.6 133.444 159.48 133.284 159.352C133.124 159.224 132.98 159.232 132.852 159.376C132.724 159.504 132.628 159.768 132.564 160.168H132.012C132.044 159.656 132.068 159.032 132.084 158.296C132.1 157.56 132.108 156.584 132.108 155.368H132.66C132.772 156.264 132.932 157.048 133.14 157.72C133.348 158.392 133.676 158.92 134.124 159.304C134.572 159.672 135.196 159.856 135.996 159.856C136.316 159.856 136.636 159.784 136.956 159.64C137.292 159.496 137.572 159.256 137.796 158.92C138.02 158.584 138.132 158.136 138.132 157.576C138.132 156.872 137.876 156.296 137.364 155.848C136.852 155.4 136.204 154.928 135.42 154.432C134.844 154.064 134.3 153.696 133.788 153.328C133.292 152.96 132.884 152.544 132.564 152.08C132.26 151.616 132.108 151.056 132.108 150.4C132.108 149.68 132.268 149.096 132.588 148.648C132.924 148.184 133.364 147.848 133.908 147.64C134.452 147.416 135.036 147.304 135.66 147.304Z" fill="#414141"/>
<path d="M22.0624 6.90854L20.695 4.9865C20.5412 5.00359 20.3817 5.01213 20.2164 5.01213H18.6098V6.90854H17.9774V0.928848H20.2164C20.9799 0.928848 21.5781 1.11109 22.0111 1.47556C22.4441 1.84004 22.6606 2.3412 22.6606 2.97903C22.6606 3.44601 22.541 3.84181 22.3017 4.16643C22.0681 4.48534 21.7319 4.71599 21.2932 4.85836L22.7546 6.90854H22.0624ZM20.1993 4.47395C20.7919 4.47395 21.2448 4.34297 21.5582 4.081C21.8715 3.81904 22.0282 3.45171 22.0282 2.97903C22.0282 2.49496 21.8715 2.12479 21.5582 1.86851C21.2448 1.60655 20.7919 1.47556 20.1993 1.47556H18.6098V4.47395H20.1993ZM27.9392 4.84982H24.1789C24.2131 5.31681 24.3925 5.69552 24.7173 5.98596C25.042 6.27069 25.4522 6.41311 25.948 6.41311C26.2271 6.41311 26.4835 6.36465 26.7171 6.26788C26.9507 6.16535 27.1529 6.01728 27.3238 5.82365L27.6657 6.21662C27.4663 6.45582 27.2156 6.638 26.9136 6.76331C26.6174 6.88863 26.2898 6.95125 25.9308 6.95125C25.4694 6.95125 25.0592 6.8544 24.7002 6.66079C24.3469 6.4615 24.0706 6.18813 23.8712 5.84074C23.6718 5.49334 23.5721 5.1004 23.5721 4.66189C23.5721 4.22338 23.6661 3.83043 23.8541 3.48303C24.0479 3.13564 24.3099 2.86513 24.6404 2.67151C24.9765 2.47788 25.3526 2.38106 25.7685 2.38106C26.1844 2.38106 26.5575 2.47788 26.888 2.67151C27.2185 2.86513 27.4777 3.13564 27.6657 3.48303C27.8537 3.82473 27.9477 4.21768 27.9477 4.66189L27.9392 4.84982ZM25.7685 2.90215C25.3355 2.90215 24.9708 3.04167 24.6746 3.32073C24.384 3.59408 24.2188 3.95286 24.1789 4.39707H27.3666C27.3267 3.95286 27.1586 3.59408 26.8624 3.32073C26.5718 3.04167 26.2072 2.90215 25.7685 2.90215ZM31.4731 2.38106C32.0372 2.38106 32.4844 2.54621 32.8149 2.87652C33.151 3.20113 33.3191 3.67666 33.3191 4.3031V6.90854H32.7123V4.3629C32.7123 3.89591 32.5956 3.53998 32.3619 3.2951C32.1283 3.05022 31.795 2.92778 31.362 2.92778C30.8777 2.92778 30.4932 3.073 30.2083 3.36344C29.9292 3.64818 29.7896 4.04398 29.7896 4.55083V6.90854H29.1828V0.570068H29.7896V3.20113C29.9548 2.93917 30.1827 2.737 30.4732 2.59462C30.7638 2.45225 31.0971 2.38106 31.4731 2.38106ZM36.5389 2.38106C37.1258 2.38106 37.5758 2.52913 37.8892 2.82527C38.2026 3.11571 38.3593 3.54852 38.3593 4.12372V6.90854H37.7781V6.20806C37.6414 6.44158 37.4391 6.62376 37.1713 6.75476C36.9093 6.88575 36.5959 6.95125 36.2312 6.95125C35.7299 6.95125 35.3311 6.83169 35.0348 6.59249C34.7385 6.35329 34.5904 6.03721 34.5904 5.64427C34.5904 5.2627 34.7272 4.95518 35.0006 4.72168C35.2798 4.48819 35.7213 4.37145 36.3252 4.37145H37.7525V4.09808C37.7525 3.71083 37.6442 3.41754 37.4277 3.21822C37.2112 3.0132 36.895 2.91069 36.4791 2.91069C36.1943 2.91069 35.9207 2.9591 35.6587 3.05591C35.3966 3.14703 35.1715 3.27517 34.9835 3.44032L34.7101 2.98757C34.9379 2.79394 35.2115 2.64588 35.5305 2.54337C35.8495 2.43517 36.1857 2.38106 36.5389 2.38106ZM36.3252 6.47286C36.6671 6.47286 36.9605 6.396 37.2055 6.24221C37.4505 6.08277 37.6328 5.85498 37.7525 5.55884V4.82419H36.3424C35.5732 4.82419 35.1887 5.09185 35.1887 5.62718C35.1887 5.88914 35.2883 6.09701 35.4877 6.25077C35.6872 6.39887 35.9663 6.47286 36.3252 6.47286ZM42.2977 2.38106C42.8617 2.38106 43.309 2.54621 43.6394 2.87652C43.9756 3.20113 44.1437 3.67666 44.1437 4.3031V6.90854H43.5369V4.3629C43.5369 3.89591 43.4201 3.53998 43.1865 3.2951C42.9528 3.05022 42.6195 2.92778 42.1865 2.92778C41.7023 2.92778 41.3177 3.073 41.0328 3.36344C40.7537 3.64818 40.6141 4.04398 40.6141 4.55083V6.90854H40.0073V2.41523H40.5885V3.24384C40.7537 2.97049 40.9816 2.75977 41.2721 2.6117C41.5684 2.45794 41.9103 2.38106 42.2977 2.38106Z" fill="#504F4F"/>
<path d="M189.775 70.2662V72.3334H189.151V70.2662L186.759 66.3538H187.434L189.484 69.7109L191.536 66.3538H192.168L189.775 70.2662ZM194.349 72.3759C193.916 72.3759 193.526 72.2795 193.178 72.0854C192.83 71.8863 192.557 71.6131 192.358 71.2658C192.158 70.9185 192.059 70.5253 192.059 70.0868C192.059 69.6483 192.158 69.2553 192.358 68.9079C192.557 68.5605 192.83 68.29 193.178 68.0964C193.526 67.9027 193.916 67.806 194.349 67.806C194.782 67.806 195.172 67.9027 195.519 68.0964C195.867 68.29 196.137 68.5605 196.332 68.9079C196.531 69.2553 196.631 69.6483 196.631 70.0868C196.631 70.5253 196.531 70.9185 196.332 71.2658C196.137 71.6131 195.867 71.8863 195.519 72.0854C195.172 72.2795 194.782 72.3759 194.349 72.3759ZM194.349 71.8381C194.668 71.8381 194.953 71.7669 195.203 71.6246C195.46 71.4765 195.659 71.2687 195.801 71.0005C195.944 70.7332 196.015 70.4285 196.015 70.0868C196.015 69.7451 195.944 69.4404 195.801 69.1728C195.659 68.9051 195.46 68.7001 195.203 68.5577C194.953 68.4096 194.668 68.3356 194.349 68.3356C194.03 68.3356 193.742 68.4096 193.486 68.5577C193.235 68.7001 193.035 68.9051 192.887 69.1728C192.745 69.4404 192.673 69.7451 192.673 70.0868C192.673 70.4285 192.745 70.7332 192.887 71.0005C193.035 71.2687 193.235 71.4765 193.486 71.6246C193.742 71.7669 194.03 71.8381 194.349 71.8381ZM201.92 67.8401V72.3334H201.339V71.5131C201.179 71.787 200.96 72.0006 200.681 72.1537C200.402 72.3018 200.082 72.3759 199.723 72.3759C199.137 72.3759 198.673 72.2141 198.33 71.8891C197.994 71.5591 197.826 71.0774 197.826 70.4455V67.8401H198.433V70.3858C198.433 70.8584 198.55 71.2169 198.783 71.4621C199.017 71.7072 199.35 71.8295 199.783 71.8295C200.256 71.8295 200.63 71.6871 200.903 71.4024C201.176 71.1119 201.313 70.7104 201.313 70.1979V67.8401H201.92Z" fill="#504F4F"/>
<path d="M17.0032 19.8497C17.0032 15.8791 20.2234 12.6602 24.1958 12.6602H196.222C200.194 12.6602 203.415 15.8791 203.415 19.8497V38.5425C203.415 42.5132 200.194 45.7321 196.222 45.7321H17.0032V19.8497Z" fill="#F7F7F4"/>
<path d="M36.1986 29.3252C36.1986 30.6808 35.8296 31.718 35.0915 32.4369C34.3573 33.1522 33.299 33.5098 31.9167 33.5098H29.6409V25.2979H32.1583C33.4358 25.2979 34.4285 25.6518 35.1365 26.3596C35.8445 27.0673 36.1986 28.0559 36.1986 29.3252ZM35.1871 29.359C35.1871 28.288 34.9173 27.4811 34.3779 26.9381C33.8422 26.3951 33.0443 26.1237 31.9841 26.1237H30.5961V32.6841H31.7593C32.8982 32.6841 33.7542 32.4051 34.3273 31.8472C34.9005 31.2855 35.1871 30.4561 35.1871 29.359ZM38.7722 27.3537V31.3473C38.7722 31.8491 38.8865 32.2235 39.115 32.4707C39.3435 32.7178 39.7012 32.8414 40.1883 32.8414C40.8326 32.8414 41.3028 32.6654 41.5987 32.3134C41.8984 31.9614 42.0482 31.3866 42.0482 30.589V27.3537H42.981V33.5098H42.2112L42.0763 32.6841H42.0258C41.8347 32.9874 41.5687 33.2196 41.2278 33.3806C40.8906 33.5416 40.5048 33.6221 40.0702 33.6221C39.321 33.6221 38.7591 33.4443 38.3845 33.0885C38.0136 32.7328 37.8281 32.1636 37.8281 31.381V27.3537H38.7722ZM49.1566 32.6841H49.106C48.6752 33.3095 48.0308 33.6221 47.173 33.6221C46.3675 33.6221 45.7401 33.3469 45.2905 32.7964C44.8447 32.246 44.6218 31.4633 44.6218 30.4486C44.6218 29.4338 44.8466 28.6456 45.2961 28.0839C45.7457 27.5222 46.3713 27.2414 47.173 27.2414C48.0084 27.2414 48.649 27.5447 49.0948 28.1513H49.1679L49.1285 27.7076L49.106 27.2751V24.77H50.0388V33.5098H49.2802L49.1566 32.6841ZM47.291 32.8414C47.9278 32.8414 48.3886 32.6691 48.6733 32.3246C48.9618 31.9764 49.106 31.4165 49.106 30.6452V30.4486C49.106 29.5761 48.9599 28.9545 48.6677 28.5838C48.3793 28.2094 47.9166 28.0221 47.2798 28.0221C46.7328 28.0221 46.3132 28.2356 46.0211 28.6624C45.7326 29.0856 45.5884 29.6847 45.5884 30.4598C45.5884 31.2462 45.7326 31.8397 46.0211 32.2404C46.3095 32.6411 46.7328 32.8414 47.291 32.8414ZM54.6241 33.6221C53.7138 33.6221 52.9946 33.345 52.4663 32.7908C51.9419 32.2366 51.6796 31.4672 51.6796 30.4823C51.6796 29.49 51.9232 28.7018 52.4102 28.1176C52.9009 27.5335 53.5583 27.2414 54.3825 27.2414C55.1542 27.2414 55.7648 27.496 56.2144 28.0053C56.6639 28.5108 56.8887 29.1792 56.8887 30.0105V30.6002H52.6462C52.6649 31.3229 52.8465 31.8716 53.1912 32.246C53.5396 32.6204 54.0285 32.8076 54.6579 32.8076C55.3209 32.8076 55.9765 32.6691 56.6246 32.392V33.2233C56.2949 33.3656 55.9821 33.4667 55.6861 33.5266C55.394 33.5903 55.0399 33.6221 54.6241 33.6221ZM54.3712 28.0221C53.8767 28.0221 53.4815 28.1831 53.1856 28.5052C52.8934 28.8272 52.7211 29.2728 52.6686 29.842H55.8885C55.8885 29.2541 55.7573 28.8047 55.4951 28.4939C55.2329 28.1794 54.8583 28.0221 54.3712 28.0221ZM59.4623 32.1729L59.5466 32.3021C59.4492 32.6766 59.3087 33.111 59.1252 33.6052C58.9416 34.1033 58.7506 34.5658 58.552 34.9926H57.8496C57.9507 34.6032 58.0612 34.122 58.1811 33.5491C58.3048 32.9762 58.3909 32.5175 58.4396 32.1729H59.4623ZM64.4354 25.2979H66.7561C67.8463 25.2979 68.6349 25.4609 69.1218 25.7866C69.6088 26.1124 69.8524 26.6273 69.8524 27.3312C69.8524 27.818 69.7156 28.2206 69.4421 28.5388C69.1724 28.8534 68.7772 29.0575 68.2565 29.1511V29.2073C69.504 29.4207 70.1277 30.076 70.1277 31.1732C70.1277 31.9071 69.8785 32.48 69.3803 32.8919C68.8858 33.3038 68.1928 33.5098 67.3012 33.5098H64.4354V25.2979ZM65.3906 28.8141H66.964C67.6383 28.8141 68.1235 28.7092 68.4194 28.4995C68.7153 28.2861 68.8634 27.9285 68.8634 27.4268C68.8634 26.9661 68.6985 26.6348 68.3689 26.4325C68.0392 26.2266 67.5148 26.1237 66.7955 26.1237H65.3906V28.8141ZM65.3906 29.623V32.6953H67.1045C67.7676 32.6953 68.2658 32.568 68.5993 32.3134C68.9364 32.055 69.105 31.6525 69.105 31.1057C69.105 30.5965 68.9326 30.2221 68.588 29.9824C68.2471 29.7427 67.7264 29.623 67.0259 29.623H65.3906ZM77.0731 30.4261C77.0731 31.4297 76.8203 32.2141 76.3145 32.7796C75.8088 33.3412 75.1101 33.6221 74.2185 33.6221C73.6678 33.6221 73.179 33.4929 72.7519 33.2346C72.3248 32.9762 71.9951 32.6055 71.7629 32.1224C71.5306 31.6393 71.4145 31.074 71.4145 30.4261C71.4145 29.4226 71.6655 28.6419 72.1675 28.0839C72.6694 27.5222 73.3663 27.2414 74.2579 27.2414C75.1195 27.2414 75.8031 27.5279 76.3089 28.1008C76.8184 28.6737 77.0731 29.4488 77.0731 30.4261ZM72.381 30.4261C72.381 31.2125 72.5383 31.8116 72.853 32.2235C73.1677 32.6354 73.6304 32.8414 74.241 32.8414C74.8516 32.8414 75.3143 32.6373 75.6289 32.2292C75.9473 31.8172 76.1066 31.2162 76.1066 30.4261C76.1066 29.6435 75.9473 29.05 75.6289 28.6456C75.3143 28.2375 74.8479 28.0334 74.2297 28.0334C73.6191 28.0334 73.1583 28.2337 72.8474 28.6344C72.5364 29.035 72.381 29.6323 72.381 30.4261ZM80.7031 32.8526C80.868 32.8526 81.0272 32.8414 81.1808 32.8189C81.3344 32.7927 81.4561 32.7664 81.546 32.7403V33.4536C81.4449 33.5023 81.295 33.5416 81.0965 33.5715C80.9017 33.6052 80.7257 33.6221 80.5683 33.6221C79.377 33.6221 78.7813 32.9949 78.7813 31.7405V28.0783H77.8992V27.6289L78.7813 27.2414L79.1747 25.927H79.7141V27.3537H81.5011V28.0783H79.7141V31.7012C79.7141 32.0719 79.8022 32.3564 79.9783 32.5549C80.1543 32.7534 80.3959 32.8526 80.7031 32.8526ZM84.7715 32.8526C84.9363 32.8526 85.0956 32.8414 85.2491 32.8189C85.4027 32.7927 85.5245 32.7664 85.6144 32.7403V33.4536C85.5132 33.5023 85.3634 33.5416 85.1648 33.5715C84.97 33.6052 84.794 33.6221 84.6366 33.6221C83.4453 33.6221 82.8497 32.9949 82.8497 31.7405V28.0783H81.9675V27.6289L82.8497 27.2414L83.2431 25.927H83.7825V27.3537H85.5694V28.0783H83.7825V31.7012C83.7825 32.0719 83.8705 32.3564 84.0466 32.5549C84.2226 32.7534 84.4643 32.8526 84.7715 32.8526ZM87.7834 33.5098H86.8506V24.77H87.7834V33.5098ZM92.3628 33.6221C91.4529 33.6221 90.7337 33.345 90.205 32.7908C89.6807 32.2366 89.4188 31.4672 89.4188 30.4823C89.4188 29.49 89.662 28.7018 90.1489 28.1176C90.6402 27.5335 91.2976 27.2414 92.1218 27.2414C92.8929 27.2414 93.5036 27.496 93.9531 28.0053C94.4026 28.5108 94.6278 29.1792 94.6278 30.0105V30.6002H90.3848C90.4035 31.3229 90.5855 31.8716 90.93 32.246C91.2789 32.6204 91.7672 32.8076 92.3966 32.8076C93.0598 32.8076 93.7157 32.6691 94.3638 32.392V33.2233C94.0337 33.3656 93.7208 33.4667 93.4252 33.5266C93.1331 33.5903 92.7793 33.6221 92.3628 33.6221ZM92.1103 28.0221C91.6155 28.0221 91.2206 28.1831 90.9243 28.5052C90.6322 28.8272 90.4603 29.2728 90.4078 29.842H93.6273C93.6273 29.2541 93.4964 28.8047 93.2338 28.4939C92.972 28.1794 92.5973 28.0221 92.1103 28.0221ZM100.146 33.5098H99.2131V27.3537H100.146V33.5098ZM99.1347 25.6855C99.1347 25.4721 99.1865 25.3167 99.2915 25.2194C99.3965 25.1182 99.5274 25.0677 99.6849 25.0677C99.8345 25.0677 99.964 25.1182 100.073 25.2194C100.181 25.3205 100.236 25.4758 100.236 25.6855C100.236 25.8953 100.181 26.0525 100.073 26.1573C99.964 26.2585 99.8345 26.309 99.6849 26.309C99.5274 26.309 99.3965 26.2585 99.2915 26.1573C99.1865 26.0525 99.1347 25.8953 99.1347 25.6855ZM106.096 31.8304C106.096 32.4032 105.883 32.8451 105.456 33.1559C105.029 33.4667 104.429 33.6221 103.658 33.6221C102.841 33.6221 102.205 33.4929 101.747 33.2346V32.3696C102.043 32.5193 102.36 32.6373 102.697 32.7234C103.038 32.8095 103.365 32.8526 103.68 32.8526C104.167 32.8526 104.542 32.7759 104.804 32.6223C105.066 32.4651 105.197 32.2272 105.197 31.9089C105.197 31.6693 105.092 31.4652 104.883 31.2968C104.677 31.1245 104.272 30.9223 103.669 30.6901C103.096 30.4766 102.688 30.2913 102.444 30.1341C102.205 29.973 102.025 29.7914 101.905 29.5892C101.789 29.387 101.731 29.1455 101.731 28.8647C101.731 28.3628 101.935 27.9679 102.343 27.6795C102.751 27.3874 103.311 27.2414 104.023 27.2414C104.686 27.2414 105.334 27.3762 105.968 27.6458L105.636 28.404C105.018 28.1495 104.458 28.0221 103.956 28.0221C103.514 28.0221 103.18 28.0914 102.955 28.2299C102.731 28.3685 102.618 28.5595 102.618 28.8028C102.618 28.9676 102.66 29.108 102.742 29.2242C102.828 29.3402 102.965 29.4507 103.152 29.5555C103.34 29.6603 103.699 29.812 104.231 30.0105C104.961 30.2763 105.454 30.5441 105.709 30.8137C105.968 31.0833 106.096 31.4222 106.096 31.8304ZM111.531 30.3587C111.692 30.1303 111.937 29.8307 112.266 29.46L114.256 27.3537H115.363L112.868 29.9768L115.537 33.5098H114.408L112.233 30.6002L111.531 31.2069V33.5098H110.609V24.77H111.531V29.4039C111.531 29.6098 111.515 29.9281 111.485 30.3587H111.531ZM117.588 33.5098H116.655V27.3537H117.588V33.5098ZM116.577 25.6855C116.577 25.4721 116.629 25.3167 116.734 25.2194C116.839 25.1182 116.97 25.0677 117.127 25.0677C117.277 25.0677 117.406 25.1182 117.515 25.2194C117.623 25.3205 117.678 25.4758 117.678 25.6855C117.678 25.8953 117.623 26.0525 117.515 26.1573C117.406 26.2585 117.277 26.309 117.127 26.309C116.97 26.309 116.839 26.2585 116.734 26.1573C116.629 26.0525 116.577 25.8953 116.577 25.6855ZM123.78 33.5098V29.5274C123.78 29.0257 123.666 28.6512 123.438 28.404C123.209 28.1569 122.851 28.0334 122.364 28.0334C121.72 28.0334 121.248 28.2075 120.949 28.5557C120.649 28.904 120.499 29.4787 120.499 30.2801V33.5098H119.566V27.3537H120.324L120.476 28.1963H120.521C120.713 27.8929 120.98 27.6589 121.325 27.4941C121.669 27.3256 122.053 27.2414 122.477 27.2414C123.219 27.2414 123.777 27.4211 124.151 27.7806C124.526 28.1363 124.713 28.7074 124.713 29.4938V33.5098H123.78ZM130.827 32.6841H130.777C130.346 33.3095 129.701 33.6221 128.843 33.6221C128.038 33.6221 127.41 33.3469 126.961 32.7964C126.515 32.246 126.292 31.4633 126.292 30.4486C126.292 29.4338 126.517 28.6456 126.967 28.0839C127.416 27.5222 128.042 27.2414 128.843 27.2414C129.679 27.2414 130.319 27.5447 130.765 28.1513H130.838L130.799 27.7076L130.777 27.2751V24.77H131.71V33.5098H130.951L130.827 32.6841ZM128.961 32.8414C129.598 32.8414 130.059 32.6691 130.344 32.3246C130.632 31.9764 130.777 31.4165 130.777 30.6452V30.4486C130.777 29.5761 130.631 28.9545 130.338 28.5838C130.049 28.2094 129.587 28.0221 128.95 28.0221C128.403 28.0221 127.984 28.2356 127.692 28.6624C127.403 29.0856 127.259 29.6847 127.259 30.4598C127.259 31.2462 127.403 31.8397 127.692 32.2404C127.98 32.6411 128.403 32.8414 128.961 32.8414ZM137.48 33.5098L137.295 32.6335H137.25C136.943 33.0192 136.636 33.2814 136.328 33.4199C136.025 33.5547 135.645 33.6221 135.187 33.6221C134.577 33.6221 134.097 33.4648 133.749 33.1503C133.404 32.8358 133.232 32.3883 133.232 31.8079C133.232 30.5646 134.227 29.9131 136.216 29.8532L137.261 29.8195V29.4375C137.261 28.9545 137.156 28.5988 136.946 28.3704C136.74 28.1382 136.408 28.0221 135.952 28.0221C135.438 28.0221 134.858 28.1794 134.21 28.4939L133.923 27.7806C134.227 27.6159 134.559 27.4867 134.918 27.3931C135.281 27.2994 135.645 27.2526 136.008 27.2526C136.742 27.2526 137.285 27.4155 137.638 27.7413C137.994 28.0671 138.171 28.5894 138.171 29.3083V33.5098H137.48ZM135.373 32.8526C135.954 32.8526 136.408 32.6935 136.739 32.3752C137.072 32.0569 137.239 31.6113 137.239 31.0384V30.4823L136.306 30.5217C135.564 30.5478 135.028 30.6639 134.699 30.8698C134.373 31.0721 134.21 31.3885 134.21 31.8191C134.21 32.1561 134.311 32.4126 134.513 32.5886C134.719 32.7646 135.006 32.8526 135.373 32.8526ZM145.55 33.6221C144.658 33.6221 143.967 33.3487 143.476 32.802C142.989 32.2516 142.745 31.4746 142.745 30.471C142.745 29.4413 142.993 28.6456 143.488 28.0839C143.985 27.5222 144.694 27.2414 145.611 27.2414C145.907 27.2414 146.203 27.2732 146.499 27.3369C146.795 27.4005 147.027 27.4754 147.196 27.5616L146.909 28.3535C146.703 28.2711 146.478 28.2037 146.235 28.1513C145.991 28.0952 145.776 28.0671 145.588 28.0671C144.338 28.0671 143.712 28.8647 143.712 30.4598C143.712 31.2162 143.864 31.7966 144.167 32.2011C144.474 32.6055 144.927 32.8076 145.527 32.8076C146.04 32.8076 146.567 32.6972 147.106 32.4763V33.3019C146.694 33.5154 146.175 33.6221 145.55 33.6221ZM153.888 30.4261C153.888 31.4297 153.636 32.2141 153.13 32.7796C152.624 33.3412 151.925 33.6221 151.034 33.6221C150.483 33.6221 149.994 33.4929 149.567 33.2346C149.14 32.9762 148.811 32.6055 148.578 32.1224C148.346 31.6393 148.23 31.074 148.23 30.4261C148.23 29.4226 148.481 28.6419 148.983 28.0839C149.485 27.5222 150.182 27.2414 151.073 27.2414C151.935 27.2414 152.619 27.5279 153.124 28.1008C153.633 28.6737 153.888 29.4488 153.888 30.4261ZM149.196 30.4261C149.196 31.2125 149.354 31.8116 149.668 32.2235C149.983 32.6354 150.446 32.8414 151.056 32.8414C151.667 32.8414 152.129 32.6373 152.445 32.2292C152.762 31.8172 152.922 31.2162 152.922 30.4261C152.922 29.6435 152.762 29.05 152.445 28.6456C152.129 28.2375 151.663 28.0334 151.045 28.0334C150.434 28.0334 149.974 28.2337 149.663 28.6344C149.352 29.035 149.196 29.6323 149.196 30.4261ZM160.845 30.4261C160.845 31.4297 160.592 32.2141 160.087 32.7796C159.581 33.3412 158.882 33.6221 157.991 33.6221C157.44 33.6221 156.951 33.4929 156.524 33.2346C156.097 32.9762 155.767 32.6055 155.535 32.1224C155.303 31.6393 155.186 31.074 155.186 30.4261C155.186 29.4226 155.437 28.6419 155.939 28.0839C156.441 27.5222 157.138 27.2414 158.03 27.2414C158.891 27.2414 159.575 27.5279 160.081 28.1008C160.59 28.6737 160.845 29.4488 160.845 30.4261ZM156.153 30.4261C156.153 31.2125 156.311 31.8116 156.625 32.2235C156.94 32.6354 157.402 32.8414 158.013 32.8414C158.624 32.8414 159.086 32.6373 159.401 32.2292C159.719 31.8172 159.879 31.2162 159.879 30.4261C159.879 29.6435 159.719 29.05 159.401 28.6456C159.086 28.2375 158.62 28.0334 158.002 28.0334C157.391 28.0334 156.931 28.2337 156.619 28.6344C156.308 29.035 156.153 29.6323 156.153 30.4261ZM163.418 33.5098H162.486V24.77H163.418V33.5098ZM166.239 31.2462H165.65L165.363 25.2979H166.526L166.239 31.2462ZM165.262 32.9144C165.262 32.4051 165.487 32.1505 165.936 32.1505C166.154 32.1505 166.32 32.216 166.436 32.3471C166.556 32.4781 166.616 32.6672 166.616 32.9144C166.616 33.154 166.556 33.3412 166.436 33.4761C166.316 33.6071 166.149 33.6727 165.936 33.6727C165.742 33.6727 165.58 33.6146 165.453 33.4986C165.326 33.3787 165.262 33.184 165.262 32.9144Z" fill="#504F4F"/>
<path d="M179.785 30.249V30.8436H180.866V35.0327H181.542V30.249H179.785ZM183.499 34.4382L184.962 33.0304C185.611 32.4085 185.748 31.9916 185.748 31.5269C185.748 30.7069 185.105 30.1943 184.107 30.1943C183.362 30.1943 182.726 30.4609 182.357 30.9187L182.822 31.3219C183.116 30.9666 183.532 30.8025 184.045 30.8025C184.716 30.8025 185.064 31.1032 185.064 31.5953C185.064 31.896 184.969 32.1966 184.462 32.6887L182.514 34.568V35.0327H185.953V34.4382H183.499ZM186.966 32.3128C187.212 32.3128 187.418 32.1147 187.418 31.8413C187.418 31.5679 187.212 31.3766 186.966 31.3766C186.714 31.3766 186.501 31.5679 186.501 31.8413C186.501 32.1147 186.714 32.3128 186.966 32.3128ZM186.966 35.0737C187.212 35.0737 187.418 34.8755 187.418 34.6022C187.418 34.3288 187.212 34.1375 186.966 34.1375C186.714 34.1375 186.501 34.3288 186.501 34.6022C186.501 34.8755 186.714 35.0737 186.966 35.0737ZM189.896 32.2582L191.147 30.7137V30.249H187.989V30.8436H190.293L189.089 32.3196V32.798H189.473C190.293 32.798 190.655 33.1261 190.655 33.6318C190.655 34.1512 190.245 34.4792 189.527 34.4792C188.939 34.4792 188.406 34.2674 188.084 33.9666L187.77 34.5065C188.174 34.8687 188.843 35.0874 189.527 35.0874C190.744 35.0874 191.339 34.4313 191.339 33.625C191.339 32.8869 190.854 32.347 189.896 32.2582ZM196.14 33.2696H195.231V32.2308H194.588V33.2696H192.749L195.093 30.249H194.355L191.908 33.3789V33.8573H194.568V35.0327H195.231V33.8573H196.14V33.2696Z" fill="#BEBEBE"/>
<path d="M114.823 83.1178C114.823 79.147 118.044 75.9282 122.016 75.9282H196.222C200.194 75.9282 203.415 79.147 203.415 83.1178V109H122.016C118.044 109 114.823 105.781 114.823 101.811V83.1178Z" fill="#69A08A"/>
<path d="M127.461 96.7778V88.5659H128.416V96.7778H127.461ZM137.497 95.0983C137.497 95.6713 137.284 96.1135 136.857 96.4241C136.429 96.7347 135.83 96.89 135.058 96.89C134.241 96.89 133.605 96.7613 133.148 96.5025V95.6376C133.444 95.7871 133.76 95.905 134.097 95.9913C134.438 96.0776 134.766 96.1207 135.081 96.1207C135.568 96.1207 135.942 96.0438 136.205 95.8906C136.467 95.7332 136.598 95.4952 136.598 95.1767C136.598 94.9373 136.493 94.7331 136.283 94.5649C136.077 94.3923 135.673 94.1903 135.069 93.9581C134.497 93.7445 134.088 93.559 133.844 93.4023C133.605 93.2413 133.425 93.0594 133.305 92.8574C133.189 92.6553 133.131 92.4138 133.131 92.1326C133.131 91.6308 133.335 91.2361 133.744 90.9478C134.151 90.6552 134.712 90.5092 135.424 90.5092C136.086 90.5092 136.735 90.6444 137.368 90.914L137.036 91.6718C136.418 91.4173 135.858 91.29 135.356 91.29C134.914 91.29 134.581 91.3598 134.356 91.4978C134.131 91.6366 134.019 91.8278 134.019 92.0708C134.019 92.2355 134.06 92.3764 134.142 92.4921C134.228 92.6086 134.365 92.7186 134.553 92.8236C134.74 92.9285 135.099 93.0802 135.632 93.2787C136.362 93.5447 136.854 93.8121 137.109 94.0817C137.368 94.3513 137.497 94.69 137.497 95.0983ZM144.049 96.7778L142.919 93.1665C142.849 92.9451 142.716 92.4432 142.521 91.661H142.475C142.326 92.316 142.195 92.8214 142.082 93.1773L140.919 96.7778H139.84L138.16 90.6221H139.138C139.535 92.1686 139.836 93.3462 140.042 94.1551C140.252 94.9639 140.372 95.5081 140.402 95.7892H140.447C140.488 95.5757 140.554 95.3004 140.644 94.9639C140.738 94.6231 140.818 94.3535 140.885 94.1551L142.015 90.6221H143.026L144.128 94.1551C144.338 94.7985 144.48 95.3399 144.555 95.7777H144.599C144.615 95.6433 144.654 95.4355 144.717 95.1544C144.785 94.874 145.177 93.3628 145.892 90.6221H146.859L145.156 96.7778H144.049ZM150.579 96.89C149.668 96.89 148.949 96.6132 148.421 96.0589C147.897 95.5045 147.634 94.7353 147.634 93.7503C147.634 92.7581 147.878 91.9694 148.365 91.3857C148.855 90.8019 149.513 90.5092 150.337 90.5092C151.109 90.5092 151.719 90.7638 152.169 91.2735C152.619 91.7789 152.843 92.4475 152.843 93.2787V93.8682H148.601C148.619 94.5908 148.801 95.1393 149.146 95.5139C149.494 95.8885 149.983 96.0754 150.613 96.0754C151.276 96.0754 151.931 95.9374 152.579 95.6598V96.4917C152.25 96.6333 151.937 96.7347 151.641 96.7943C151.348 96.8583 150.994 96.89 150.579 96.89ZM150.326 91.29C149.831 91.29 149.436 91.4511 149.14 91.7732C148.848 92.0953 148.676 92.541 148.623 93.1097H151.843C151.843 92.5223 151.712 92.073 151.45 91.7617C151.187 91.4475 150.812 91.29 150.326 91.29ZM158.227 96.7778L158.041 95.9014H157.996C157.689 96.2875 157.382 96.5492 157.074 96.6879C156.771 96.8224 156.391 96.89 155.934 96.89C155.323 96.89 154.844 96.7332 154.495 96.4183C154.151 96.1034 153.979 95.6562 153.979 95.076C153.979 93.833 154.973 93.1809 156.962 93.1212L158.007 93.0874V92.7057C158.007 92.2225 157.902 91.8666 157.693 91.6387C157.487 91.4065 157.155 91.29 156.698 91.29C156.185 91.29 155.604 91.4475 154.956 91.7617L154.669 91.0485C154.973 90.8838 155.304 90.7544 155.664 90.6609C156.027 90.5675 156.391 90.5208 156.754 90.5208C157.489 90.5208 158.032 90.6832 158.383 91.0096C158.74 91.3353 158.918 91.8573 158.918 92.5762V96.7778H158.227ZM156.119 96.1207C156.7 96.1207 157.155 95.9618 157.484 95.6433C157.818 95.3248 157.985 94.8791 157.985 94.306V93.7503L157.052 93.7898C156.311 93.8157 155.775 93.9322 155.445 94.1378C155.119 94.3398 154.956 94.6562 154.956 95.0868C154.956 95.424 155.058 95.6807 155.26 95.8568C155.465 96.033 155.752 96.1207 156.119 96.1207ZM163.655 90.5092C163.928 90.5092 164.174 90.5315 164.391 90.5768L164.261 91.4417C164.007 91.3857 163.782 91.3576 163.587 91.3576C163.089 91.3576 162.662 91.5596 162.306 91.9644C161.954 92.3685 161.778 92.8725 161.778 93.4749V96.7778H160.845V90.6221H161.615L161.722 91.7617H161.767C161.995 91.3612 162.27 91.0521 162.593 90.8349C162.915 90.6178 163.269 90.5092 163.655 90.5092ZM166.386 94.5145H165.796L165.509 88.5659H166.672L166.386 94.5145ZM165.408 96.1825C165.408 95.6735 165.633 95.4183 166.083 95.4183C166.3 95.4183 166.466 95.4844 166.582 95.6153C166.703 95.7461 166.762 95.9352 166.762 96.1825C166.762 96.4219 166.703 96.6096 166.582 96.744C166.462 96.8749 166.295 96.941 166.083 96.941C165.888 96.941 165.726 96.8828 165.599 96.7663C165.472 96.647 165.408 96.4521 165.408 96.1825Z" fill="white"/>
<path d="M179.785 93.5166V94.1111H180.866V98.3005H181.542V93.5166H179.785ZM183.499 97.7059L184.962 96.2982C185.611 95.6763 185.748 95.2593 185.748 94.7949C185.748 93.9745 185.105 93.4619 184.107 93.4619C183.362 93.4619 182.726 93.7286 182.357 94.1866L182.822 94.59C183.116 94.2341 183.532 94.0701 184.045 94.0701C184.716 94.0701 185.064 94.3714 185.064 94.8632C185.064 95.1637 184.969 95.4642 184.462 95.9567L182.514 97.836V98.3005H185.953V97.7059H183.499ZM186.966 95.5807C187.212 95.5807 187.418 95.3822 187.418 95.109C187.418 94.8358 187.212 94.6446 186.966 94.6446C186.714 94.6446 186.501 94.8358 186.501 95.109C186.501 95.3822 186.714 95.5807 186.966 95.5807ZM186.966 98.3415C187.212 98.3415 187.418 98.1437 187.418 97.8698C187.418 97.5966 187.212 97.4054 186.966 97.4054C186.714 97.4054 186.501 97.5966 186.501 97.8698C186.501 98.1437 186.714 98.3415 186.966 98.3415ZM189.896 95.526L191.147 93.9817V93.5166H187.989V94.1111H190.293L189.089 95.5879V96.066H189.473C190.293 96.066 190.655 96.3938 190.655 96.9C190.655 97.419 190.245 97.7469 189.527 97.7469C188.939 97.7469 188.406 97.5355 188.084 97.2343L187.77 97.7742C188.174 98.1366 188.843 98.3551 189.527 98.3551C190.744 98.3551 191.339 97.6994 191.339 96.8928C191.339 96.1544 190.854 95.6152 189.896 95.526ZM196.14 96.5376H195.231V95.4987H194.588V96.5376H192.749L195.093 93.5166H194.355L191.908 96.6469V97.125H194.568V98.3005H195.231V97.125H196.14V96.5376Z" fill="#F7F7F4"/>
</svg>
