<svg width="189" height="230" viewBox="0 0 189 230" fill="none" xmlns="http://www.w3.org/2000/svg">
<path d="M21.2734 176H19.7578L13.5156 166.414H13.4531C13.5365 167.539 13.5781 168.57 13.5781 169.508V176H12.3516V164.578H13.8516L20.0781 174.125H20.1406C20.1302 173.984 20.1068 173.534 20.0703 172.773C20.0339 172.008 20.0208 171.461 20.0312 171.133V164.578H21.2734V176ZM31.6094 171.711C31.6094 173.107 31.2578 174.198 30.5547 174.984C29.8516 175.766 28.8802 176.156 27.6406 176.156C26.875 176.156 26.1953 175.977 25.6016 175.617C25.0078 175.258 24.5495 174.742 24.2266 174.07C23.9036 173.398 23.7422 172.612 23.7422 171.711C23.7422 170.315 24.0911 169.229 24.7891 168.453C25.487 167.672 26.4557 167.281 27.6953 167.281C28.8932 167.281 29.8438 167.68 30.5469 168.477C31.2552 169.273 31.6094 170.352 31.6094 171.711ZM25.0859 171.711C25.0859 172.805 25.3047 173.638 25.7422 174.211C26.1797 174.784 26.8229 175.07 27.6719 175.07C28.5208 175.07 29.1641 174.786 29.6016 174.219C30.0443 173.646 30.2656 172.81 30.2656 171.711C30.2656 170.622 30.0443 169.797 29.6016 169.234C29.1641 168.667 28.5156 168.383 27.6562 168.383C26.8073 168.383 26.1667 168.661 25.7344 169.219C25.3021 169.776 25.0859 170.607 25.0859 171.711ZM45.4375 171.711C45.4375 173.107 45.0859 174.198 44.3828 174.984C43.6797 175.766 42.7083 176.156 41.4688 176.156C40.7031 176.156 40.0234 175.977 39.4297 175.617C38.8359 175.258 38.3776 174.742 38.0547 174.07C37.7318 173.398 37.5703 172.612 37.5703 171.711C37.5703 170.315 37.9193 169.229 38.6172 168.453C39.3151 167.672 40.2839 167.281 41.5234 167.281C42.7214 167.281 43.6719 167.68 44.375 168.477C45.0833 169.273 45.4375 170.352 45.4375 171.711ZM38.9141 171.711C38.9141 172.805 39.1328 173.638 39.5703 174.211C40.0078 174.784 40.651 175.07 41.5 175.07C42.349 175.07 42.9922 174.786 43.4297 174.219C43.8724 173.646 44.0938 172.81 44.0938 171.711C44.0938 170.622 43.8724 169.797 43.4297 169.234C42.9922 168.667 42.3438 168.383 41.4844 168.383C40.6354 168.383 39.9948 168.661 39.5625 169.219C39.1302 169.776 38.9141 170.607 38.9141 171.711ZM53.5781 176V170.461C53.5781 169.763 53.4193 169.242 53.1016 168.898C52.7839 168.555 52.2865 168.383 51.6094 168.383C50.7135 168.383 50.0573 168.625 49.6406 169.109C49.224 169.594 49.0156 170.393 49.0156 171.508V176H47.7188V167.438H48.7734L48.9844 168.609H49.0469C49.3125 168.188 49.6849 167.862 50.1641 167.633C50.6432 167.398 51.1771 167.281 51.7656 167.281C52.7969 167.281 53.5729 167.531 54.0938 168.031C54.6146 168.526 54.875 169.32 54.875 170.414V176H53.5781ZM61.1641 176.156C59.8984 176.156 58.8984 175.771 58.1641 175C57.4349 174.229 57.0703 173.159 57.0703 171.789C57.0703 170.409 57.4089 169.312 58.0859 168.5C58.7682 167.688 59.6823 167.281 60.8281 167.281C61.901 167.281 62.75 167.635 63.375 168.344C64 169.047 64.3125 169.977 64.3125 171.133V171.953H58.4141C58.4401 172.958 58.6927 173.721 59.1719 174.242C59.6562 174.763 60.3359 175.023 61.2109 175.023C62.1328 175.023 63.0443 174.831 63.9453 174.445V175.602C63.487 175.799 63.0521 175.94 62.6406 176.023C62.2344 176.112 61.7422 176.156 61.1641 176.156ZM60.8125 168.367C60.125 168.367 59.5755 168.591 59.1641 169.039C58.7578 169.487 58.5182 170.107 58.4453 170.898H62.9219C62.9219 170.081 62.7396 169.456 62.375 169.023C62.0104 168.586 61.4896 168.367 60.8125 168.367ZM77.6797 176L76.1094 170.977C76.0104 170.669 75.8255 169.971 75.5547 168.883H75.4922C75.2839 169.794 75.1016 170.497 74.9453 170.992L73.3281 176H71.8281L69.4922 167.438H70.8516C71.4036 169.589 71.8229 171.227 72.1094 172.352C72.401 173.477 72.5677 174.234 72.6094 174.625H72.6719C72.7292 174.328 72.8203 173.945 72.9453 173.477C73.0755 173.003 73.1875 172.628 73.2812 172.352L74.8516 167.438H76.2578L77.7891 172.352C78.0807 173.247 78.2786 174 78.3828 174.609H78.4453C78.4661 174.422 78.5208 174.133 78.6094 173.742C78.7031 173.352 79.2474 171.25 80.2422 167.438H81.5859L79.2188 176H77.6797ZM84.4375 176H83.1406V167.438H84.4375V176ZM83.0312 165.117C83.0312 164.82 83.1042 164.604 83.25 164.469C83.3958 164.328 83.5781 164.258 83.7969 164.258C84.0052 164.258 84.1849 164.328 84.3359 164.469C84.487 164.609 84.5625 164.826 84.5625 165.117C84.5625 165.409 84.487 165.628 84.3359 165.773C84.1849 165.914 84.0052 165.984 83.7969 165.984C83.5781 165.984 83.3958 165.914 83.25 165.773C83.1042 165.628 83.0312 165.409 83.0312 165.117ZM88.4844 176H87.1875V163.844H88.4844V176ZM92.5312 176H91.2344V163.844H92.5312V176ZM110.352 176V170.43C110.352 169.747 110.206 169.237 109.914 168.898C109.622 168.555 109.169 168.383 108.555 168.383C107.747 168.383 107.151 168.615 106.766 169.078C106.38 169.542 106.188 170.255 106.188 171.219V176H104.891V170.43C104.891 169.747 104.745 169.237 104.453 168.898C104.161 168.555 103.706 168.383 103.086 168.383C102.273 168.383 101.677 168.628 101.297 169.117C100.922 169.602 100.734 170.398 100.734 171.508V176H99.4375V167.438H100.492L100.703 168.609H100.766C101.01 168.193 101.354 167.867 101.797 167.633C102.245 167.398 102.745 167.281 103.297 167.281C104.635 167.281 105.51 167.766 105.922 168.734H105.984C106.24 168.286 106.609 167.932 107.094 167.672C107.578 167.411 108.13 167.281 108.75 167.281C109.719 167.281 110.443 167.531 110.922 168.031C111.406 168.526 111.648 169.32 111.648 170.414V176H110.352ZM115.625 176H114.328V167.438H115.625V176ZM114.219 165.117C114.219 164.82 114.292 164.604 114.438 164.469C114.583 164.328 114.766 164.258 114.984 164.258C115.193 164.258 115.372 164.328 115.523 164.469C115.674 164.609 115.75 164.826 115.75 165.117C115.75 165.409 115.674 165.628 115.523 165.773C115.372 165.914 115.193 165.984 114.984 165.984C114.766 165.984 114.583 165.914 114.438 165.773C114.292 165.628 114.219 165.409 114.219 165.117ZM123.898 173.664C123.898 174.461 123.602 175.076 123.008 175.508C122.414 175.94 121.581 176.156 120.508 176.156C119.372 176.156 118.487 175.977 117.852 175.617V174.414C118.263 174.622 118.703 174.786 119.172 174.906C119.646 175.026 120.102 175.086 120.539 175.086C121.216 175.086 121.737 174.979 122.102 174.766C122.466 174.547 122.648 174.216 122.648 173.773C122.648 173.44 122.503 173.156 122.211 172.922C121.924 172.682 121.362 172.401 120.523 172.078C119.727 171.781 119.159 171.523 118.82 171.305C118.487 171.081 118.237 170.828 118.07 170.547C117.909 170.266 117.828 169.93 117.828 169.539C117.828 168.841 118.112 168.292 118.68 167.891C119.247 167.484 120.026 167.281 121.016 167.281C121.938 167.281 122.839 167.469 123.719 167.844L123.258 168.898C122.398 168.544 121.62 168.367 120.922 168.367C120.307 168.367 119.844 168.464 119.531 168.656C119.219 168.849 119.062 169.115 119.062 169.453C119.062 169.682 119.12 169.878 119.234 170.039C119.354 170.201 119.544 170.354 119.805 170.5C120.065 170.646 120.565 170.857 121.305 171.133C122.32 171.503 123.005 171.875 123.359 172.25C123.719 172.625 123.898 173.096 123.898 173.664ZM131.539 173.664C131.539 174.461 131.242 175.076 130.648 175.508C130.055 175.94 129.221 176.156 128.148 176.156C127.013 176.156 126.128 175.977 125.492 175.617V174.414C125.904 174.622 126.344 174.786 126.812 174.906C127.286 175.026 127.742 175.086 128.18 175.086C128.857 175.086 129.378 174.979 129.742 174.766C130.107 174.547 130.289 174.216 130.289 173.773C130.289 173.44 130.143 173.156 129.852 172.922C129.565 172.682 129.003 172.401 128.164 172.078C127.367 171.781 126.799 171.523 126.461 171.305C126.128 171.081 125.878 170.828 125.711 170.547C125.549 170.266 125.469 169.93 125.469 169.539C125.469 168.841 125.753 168.292 126.32 167.891C126.888 167.484 127.667 167.281 128.656 167.281C129.578 167.281 130.479 167.469 131.359 167.844L130.898 168.898C130.039 168.544 129.26 168.367 128.562 168.367C127.948 168.367 127.484 168.464 127.172 168.656C126.859 168.849 126.703 169.115 126.703 169.453C126.703 169.682 126.76 169.878 126.875 170.039C126.995 170.201 127.185 170.354 127.445 170.5C127.706 170.646 128.206 170.857 128.945 171.133C129.961 171.503 130.646 171.875 131 172.25C131.359 172.625 131.539 173.096 131.539 173.664ZM140.578 175.086C140.807 175.086 141.029 175.07 141.242 175.039C141.456 175.003 141.625 174.966 141.75 174.93V175.922C141.609 175.99 141.401 176.044 141.125 176.086C140.854 176.133 140.609 176.156 140.391 176.156C138.734 176.156 137.906 175.284 137.906 173.539V168.445H136.68V167.82L137.906 167.281L138.453 165.453H139.203V167.438H141.688V168.445H139.203V173.484C139.203 174 139.326 174.396 139.57 174.672C139.815 174.948 140.151 175.086 140.578 175.086ZM149.328 176V170.461C149.328 169.763 149.169 169.242 148.852 168.898C148.534 168.555 148.036 168.383 147.359 168.383C146.458 168.383 145.799 168.628 145.383 169.117C144.971 169.607 144.766 170.409 144.766 171.523V176H143.469V163.844H144.766V167.523C144.766 167.966 144.745 168.333 144.703 168.625H144.781C145.036 168.214 145.398 167.891 145.867 167.656C146.341 167.417 146.88 167.297 147.484 167.297C148.531 167.297 149.315 167.547 149.836 168.047C150.362 168.542 150.625 169.331 150.625 170.414V176H149.328ZM160.688 171.711C160.688 173.107 160.336 174.198 159.633 174.984C158.93 175.766 157.958 176.156 156.719 176.156C155.953 176.156 155.273 175.977 154.68 175.617C154.086 175.258 153.628 174.742 153.305 174.07C152.982 173.398 152.82 172.612 152.82 171.711C152.82 170.315 153.169 169.229 153.867 168.453C154.565 167.672 155.534 167.281 156.773 167.281C157.971 167.281 158.922 167.68 159.625 168.477C160.333 169.273 160.688 170.352 160.688 171.711ZM154.164 171.711C154.164 172.805 154.383 173.638 154.82 174.211C155.258 174.784 155.901 175.07 156.75 175.07C157.599 175.07 158.242 174.786 158.68 174.219C159.122 173.646 159.344 172.81 159.344 171.711C159.344 170.622 159.122 169.797 158.68 169.234C158.242 168.667 157.594 168.383 156.734 168.383C155.885 168.383 155.245 168.661 154.812 169.219C154.38 169.776 154.164 170.607 154.164 171.711ZM168.492 173.664C168.492 174.461 168.195 175.076 167.602 175.508C167.008 175.94 166.174 176.156 165.102 176.156C163.966 176.156 163.081 175.977 162.445 175.617V174.414C162.857 174.622 163.297 174.786 163.766 174.906C164.24 175.026 164.695 175.086 165.133 175.086C165.81 175.086 166.331 174.979 166.695 174.766C167.06 174.547 167.242 174.216 167.242 173.773C167.242 173.44 167.096 173.156 166.805 172.922C166.518 172.682 165.956 172.401 165.117 172.078C164.32 171.781 163.753 171.523 163.414 171.305C163.081 171.081 162.831 170.828 162.664 170.547C162.503 170.266 162.422 169.93 162.422 169.539C162.422 168.841 162.706 168.292 163.273 167.891C163.841 167.484 164.62 167.281 165.609 167.281C166.531 167.281 167.432 167.469 168.312 167.844L167.852 168.898C166.992 168.544 166.214 168.367 165.516 168.367C164.901 168.367 164.438 168.464 164.125 168.656C163.812 168.849 163.656 169.115 163.656 169.453C163.656 169.682 163.714 169.878 163.828 170.039C163.948 170.201 164.138 170.354 164.398 170.5C164.659 170.646 165.159 170.857 165.898 171.133C166.914 171.503 167.599 171.875 167.953 172.25C168.312 172.625 168.492 173.096 168.492 173.664ZM174.227 176.156C172.961 176.156 171.961 175.771 171.227 175C170.497 174.229 170.133 173.159 170.133 171.789C170.133 170.409 170.471 169.312 171.148 168.5C171.831 167.688 172.745 167.281 173.891 167.281C174.964 167.281 175.812 167.635 176.438 168.344C177.062 169.047 177.375 169.977 177.375 171.133V171.953H171.477C171.503 172.958 171.755 173.721 172.234 174.242C172.719 174.763 173.398 175.023 174.273 175.023C175.195 175.023 176.107 174.831 177.008 174.445V175.602C176.549 175.799 176.115 175.94 175.703 176.023C175.297 176.112 174.805 176.156 174.227 176.156ZM173.875 168.367C173.188 168.367 172.638 168.591 172.227 169.039C171.82 169.487 171.581 170.107 171.508 170.898H175.984C175.984 170.081 175.802 169.456 175.438 169.023C175.073 168.586 174.552 168.367 173.875 168.367ZM20.8672 200H19.5703V191.438H20.8672V200ZM19.4609 189.117C19.4609 188.82 19.5339 188.604 19.6797 188.469C19.8255 188.328 20.0078 188.258 20.2266 188.258C20.4349 188.258 20.6146 188.328 20.7656 188.469C20.9167 188.609 20.9922 188.826 20.9922 189.117C20.9922 189.409 20.9167 189.628 20.7656 189.773C20.6146 189.914 20.4349 189.984 20.2266 189.984C20.0078 189.984 19.8255 189.914 19.6797 189.773C19.5339 189.628 19.4609 189.409 19.4609 189.117ZM34.5312 200V194.43C34.5312 193.747 34.3854 193.237 34.0938 192.898C33.8021 192.555 33.349 192.383 32.7344 192.383C31.9271 192.383 31.3307 192.615 30.9453 193.078C30.5599 193.542 30.3672 194.255 30.3672 195.219V200H29.0703V194.43C29.0703 193.747 28.9245 193.237 28.6328 192.898C28.3411 192.555 27.8854 192.383 27.2656 192.383C26.4531 192.383 25.8568 192.628 25.4766 193.117C25.1016 193.602 24.9141 194.398 24.9141 195.508V200H23.6172V191.438H24.6719L24.8828 192.609H24.9453C25.1901 192.193 25.5339 191.867 25.9766 191.633C26.4245 191.398 26.9245 191.281 27.4766 191.281C28.8151 191.281 29.6901 191.766 30.1016 192.734H30.1641C30.4193 192.286 30.7891 191.932 31.2734 191.672C31.7578 191.411 32.3099 191.281 32.9297 191.281C33.8984 191.281 34.6224 191.531 35.1016 192.031C35.5859 192.526 35.8281 193.32 35.8281 194.414V200H34.5312ZM42.4922 200.156C41.9349 200.156 41.4245 200.055 40.9609 199.852C40.5026 199.643 40.1172 199.326 39.8047 198.898H39.7109C39.7734 199.398 39.8047 199.872 39.8047 200.32V203.844H38.5078V191.438H39.5625L39.7422 192.609H39.8047C40.138 192.141 40.526 191.802 40.9688 191.594C41.4115 191.385 41.9193 191.281 42.4922 191.281C43.6276 191.281 44.5026 191.669 45.1172 192.445C45.737 193.221 46.0469 194.31 46.0469 195.711C46.0469 197.117 45.7318 198.211 45.1016 198.992C44.4766 199.768 43.6068 200.156 42.4922 200.156ZM42.3047 192.383C41.4297 192.383 40.7969 192.625 40.4062 193.109C40.0156 193.594 39.8151 194.365 39.8047 195.422V195.711C39.8047 196.914 40.0052 197.776 40.4062 198.297C40.8073 198.812 41.4505 199.07 42.3359 199.07C43.0755 199.07 43.6536 198.771 44.0703 198.172C44.4922 197.573 44.7031 196.747 44.7031 195.695C44.7031 194.628 44.4922 193.81 44.0703 193.242C43.6536 192.669 43.0651 192.383 42.3047 192.383ZM55.7109 195.711C55.7109 197.107 55.3594 198.198 54.6562 198.984C53.9531 199.766 52.9818 200.156 51.7422 200.156C50.9766 200.156 50.2969 199.977 49.7031 199.617C49.1094 199.258 48.651 198.742 48.3281 198.07C48.0052 197.398 47.8438 196.612 47.8438 195.711C47.8438 194.315 48.1927 193.229 48.8906 192.453C49.5885 191.672 50.5573 191.281 51.7969 191.281C52.9948 191.281 53.9453 191.68 54.6484 192.477C55.3568 193.273 55.7109 194.352 55.7109 195.711ZM49.1875 195.711C49.1875 196.805 49.4062 197.638 49.8438 198.211C50.2812 198.784 50.9245 199.07 51.7734 199.07C52.6224 199.07 53.2656 198.786 53.7031 198.219C54.1458 197.646 54.3672 196.81 54.3672 195.711C54.3672 194.622 54.1458 193.797 53.7031 193.234C53.2656 192.667 52.6172 192.383 51.7578 192.383C50.9089 192.383 50.2682 192.661 49.8359 193.219C49.4036 193.776 49.1875 194.607 49.1875 195.711ZM61.8984 191.281C62.2786 191.281 62.6198 191.312 62.9219 191.375L62.7422 192.578C62.388 192.5 62.0755 192.461 61.8047 192.461C61.112 192.461 60.5182 192.742 60.0234 193.305C59.5339 193.867 59.2891 194.568 59.2891 195.406V200H57.9922V191.438H59.0625L59.2109 193.023H59.2734C59.5911 192.466 59.974 192.036 60.4219 191.734C60.8698 191.432 61.362 191.281 61.8984 191.281ZM67.2891 199.086C67.5182 199.086 67.7396 199.07 67.9531 199.039C68.1667 199.003 68.3359 198.966 68.4609 198.93V199.922C68.3203 199.99 68.112 200.044 67.8359 200.086C67.5651 200.133 67.3203 200.156 67.1016 200.156C65.4453 200.156 64.6172 199.284 64.6172 197.539V192.445H63.3906V191.82L64.6172 191.281L65.1641 189.453H65.9141V191.438H68.3984V192.445H65.9141V197.484C65.9141 198 66.0365 198.396 66.2812 198.672C66.526 198.948 66.862 199.086 67.2891 199.086ZM75.4453 200L75.1875 198.781H75.125C74.6979 199.318 74.2708 199.682 73.8438 199.875C73.4219 200.062 72.8932 200.156 72.2578 200.156C71.4089 200.156 70.7422 199.938 70.2578 199.5C69.7786 199.062 69.5391 198.44 69.5391 197.633C69.5391 195.904 70.9219 194.997 73.6875 194.914L75.1406 194.867V194.336C75.1406 193.664 74.9948 193.169 74.7031 192.852C74.4167 192.529 73.9557 192.367 73.3203 192.367C72.6068 192.367 71.7995 192.586 70.8984 193.023L70.5 192.031C70.9219 191.802 71.3828 191.622 71.8828 191.492C72.388 191.362 72.8932 191.297 73.3984 191.297C74.4193 191.297 75.1745 191.523 75.6641 191.977C76.1589 192.43 76.4062 193.156 76.4062 194.156V200H75.4453ZM72.5156 199.086C73.3229 199.086 73.9557 198.865 74.4141 198.422C74.8776 197.979 75.1094 197.359 75.1094 196.562V195.789L73.8125 195.844C72.7812 195.88 72.0365 196.042 71.5781 196.328C71.125 196.609 70.8984 197.049 70.8984 197.648C70.8984 198.117 71.0391 198.474 71.3203 198.719C71.6068 198.964 72.0052 199.086 72.5156 199.086ZM84.9453 200V194.461C84.9453 193.763 84.7865 193.242 84.4688 192.898C84.151 192.555 83.6536 192.383 82.9766 192.383C82.0807 192.383 81.4245 192.625 81.0078 193.109C80.5911 193.594 80.3828 194.393 80.3828 195.508V200H79.0859V191.438H80.1406L80.3516 192.609H80.4141C80.6797 192.188 81.0521 191.862 81.5312 191.633C82.0104 191.398 82.5443 191.281 83.1328 191.281C84.1641 191.281 84.9401 191.531 85.4609 192.031C85.9818 192.526 86.2422 193.32 86.2422 194.414V200H84.9453ZM91.6797 199.086C91.9089 199.086 92.1302 199.07 92.3438 199.039C92.5573 199.003 92.7266 198.966 92.8516 198.93V199.922C92.7109 199.99 92.5026 200.044 92.2266 200.086C91.9557 200.133 91.7109 200.156 91.4922 200.156C89.8359 200.156 89.0078 199.284 89.0078 197.539V192.445H87.7812V191.82L89.0078 191.281L89.5547 189.453H90.3047V191.438H92.7891V192.445H90.3047V197.484C90.3047 198 90.4271 198.396 90.6719 198.672C90.9167 198.948 91.2526 199.086 91.6797 199.086ZM109.641 200V194.43C109.641 193.747 109.495 193.237 109.203 192.898C108.911 192.555 108.458 192.383 107.844 192.383C107.036 192.383 106.44 192.615 106.055 193.078C105.669 193.542 105.477 194.255 105.477 195.219V200H104.18V194.43C104.18 193.747 104.034 193.237 103.742 192.898C103.451 192.555 102.995 192.383 102.375 192.383C101.562 192.383 100.966 192.628 100.586 193.117C100.211 193.602 100.023 194.398 100.023 195.508V200H98.7266V191.438H99.7812L99.9922 192.609H100.055C100.299 192.193 100.643 191.867 101.086 191.633C101.534 191.398 102.034 191.281 102.586 191.281C103.924 191.281 104.799 191.766 105.211 192.734H105.273C105.529 192.286 105.898 191.932 106.383 191.672C106.867 191.411 107.419 191.281 108.039 191.281C109.008 191.281 109.732 191.531 110.211 192.031C110.695 192.526 110.938 193.32 110.938 194.414V200H109.641ZM117.234 200.156C115.969 200.156 114.969 199.771 114.234 199C113.505 198.229 113.141 197.159 113.141 195.789C113.141 194.409 113.479 193.312 114.156 192.5C114.839 191.688 115.753 191.281 116.898 191.281C117.971 191.281 118.82 191.635 119.445 192.344C120.07 193.047 120.383 193.977 120.383 195.133V195.953H114.484C114.51 196.958 114.763 197.721 115.242 198.242C115.727 198.763 116.406 199.023 117.281 199.023C118.203 199.023 119.115 198.831 120.016 198.445V199.602C119.557 199.799 119.122 199.94 118.711 200.023C118.305 200.112 117.812 200.156 117.234 200.156ZM116.883 192.367C116.195 192.367 115.646 192.591 115.234 193.039C114.828 193.487 114.589 194.107 114.516 194.898H118.992C118.992 194.081 118.81 193.456 118.445 193.023C118.081 192.586 117.56 192.367 116.883 192.367ZM128.125 197.664C128.125 198.461 127.828 199.076 127.234 199.508C126.641 199.94 125.807 200.156 124.734 200.156C123.599 200.156 122.714 199.977 122.078 199.617V198.414C122.49 198.622 122.93 198.786 123.398 198.906C123.872 199.026 124.328 199.086 124.766 199.086C125.443 199.086 125.964 198.979 126.328 198.766C126.693 198.547 126.875 198.216 126.875 197.773C126.875 197.44 126.729 197.156 126.438 196.922C126.151 196.682 125.589 196.401 124.75 196.078C123.953 195.781 123.385 195.523 123.047 195.305C122.714 195.081 122.464 194.828 122.297 194.547C122.135 194.266 122.055 193.93 122.055 193.539C122.055 192.841 122.339 192.292 122.906 191.891C123.474 191.484 124.253 191.281 125.242 191.281C126.164 191.281 127.065 191.469 127.945 191.844L127.484 192.898C126.625 192.544 125.846 192.367 125.148 192.367C124.534 192.367 124.07 192.464 123.758 192.656C123.445 192.849 123.289 193.115 123.289 193.453C123.289 193.682 123.346 193.878 123.461 194.039C123.581 194.201 123.771 194.354 124.031 194.5C124.292 194.646 124.792 194.857 125.531 195.133C126.547 195.503 127.232 195.875 127.586 196.25C127.945 196.625 128.125 197.096 128.125 197.664ZM135.766 197.664C135.766 198.461 135.469 199.076 134.875 199.508C134.281 199.94 133.448 200.156 132.375 200.156C131.24 200.156 130.354 199.977 129.719 199.617V198.414C130.13 198.622 130.57 198.786 131.039 198.906C131.513 199.026 131.969 199.086 132.406 199.086C133.083 199.086 133.604 198.979 133.969 198.766C134.333 198.547 134.516 198.216 134.516 197.773C134.516 197.44 134.37 197.156 134.078 196.922C133.792 196.682 133.229 196.401 132.391 196.078C131.594 195.781 131.026 195.523 130.688 195.305C130.354 195.081 130.104 194.828 129.938 194.547C129.776 194.266 129.695 193.93 129.695 193.539C129.695 192.841 129.979 192.292 130.547 191.891C131.115 191.484 131.893 191.281 132.883 191.281C133.805 191.281 134.706 191.469 135.586 191.844L135.125 192.898C134.266 192.544 133.487 192.367 132.789 192.367C132.174 192.367 131.711 192.464 131.398 192.656C131.086 192.849 130.93 193.115 130.93 193.453C130.93 193.682 130.987 193.878 131.102 194.039C131.221 194.201 131.411 194.354 131.672 194.5C131.932 194.646 132.432 194.857 133.172 195.133C134.188 195.503 134.872 195.875 135.227 196.25C135.586 196.625 135.766 197.096 135.766 197.664ZM143.148 200L142.891 198.781H142.828C142.401 199.318 141.974 199.682 141.547 199.875C141.125 200.062 140.596 200.156 139.961 200.156C139.112 200.156 138.445 199.938 137.961 199.5C137.482 199.062 137.242 198.44 137.242 197.633C137.242 195.904 138.625 194.997 141.391 194.914L142.844 194.867V194.336C142.844 193.664 142.698 193.169 142.406 192.852C142.12 192.529 141.659 192.367 141.023 192.367C140.31 192.367 139.503 192.586 138.602 193.023L138.203 192.031C138.625 191.802 139.086 191.622 139.586 191.492C140.091 191.362 140.596 191.297 141.102 191.297C142.122 191.297 142.878 191.523 143.367 191.977C143.862 192.43 144.109 193.156 144.109 194.156V200H143.148ZM140.219 199.086C141.026 199.086 141.659 198.865 142.117 198.422C142.581 197.979 142.812 197.359 142.812 196.562V195.789L141.516 195.844C140.484 195.88 139.74 196.042 139.281 196.328C138.828 196.609 138.602 197.049 138.602 197.648C138.602 198.117 138.742 198.474 139.023 198.719C139.31 198.964 139.708 199.086 140.219 199.086ZM153.797 191.438V192.258L152.211 192.445C152.357 192.628 152.487 192.867 152.602 193.164C152.716 193.456 152.773 193.786 152.773 194.156C152.773 194.995 152.487 195.664 151.914 196.164C151.341 196.664 150.555 196.914 149.555 196.914C149.299 196.914 149.06 196.893 148.836 196.852C148.284 197.143 148.008 197.51 148.008 197.953C148.008 198.188 148.104 198.362 148.297 198.477C148.49 198.586 148.82 198.641 149.289 198.641H150.805C151.732 198.641 152.443 198.836 152.938 199.227C153.438 199.617 153.688 200.185 153.688 200.93C153.688 201.878 153.307 202.599 152.547 203.094C151.786 203.594 150.677 203.844 149.219 203.844C148.099 203.844 147.234 203.635 146.625 203.219C146.021 202.802 145.719 202.214 145.719 201.453C145.719 200.932 145.885 200.482 146.219 200.102C146.552 199.721 147.021 199.464 147.625 199.328C147.406 199.229 147.221 199.076 147.07 198.867C146.924 198.659 146.852 198.417 146.852 198.141C146.852 197.828 146.935 197.555 147.102 197.32C147.268 197.086 147.531 196.859 147.891 196.641C147.448 196.458 147.086 196.148 146.805 195.711C146.529 195.273 146.391 194.773 146.391 194.211C146.391 193.273 146.672 192.552 147.234 192.047C147.797 191.536 148.594 191.281 149.625 191.281C150.073 191.281 150.477 191.333 150.836 191.438H153.797ZM146.969 201.438C146.969 201.901 147.164 202.253 147.555 202.492C147.945 202.732 148.505 202.852 149.234 202.852C150.323 202.852 151.128 202.688 151.648 202.359C152.174 202.036 152.438 201.596 152.438 201.039C152.438 200.576 152.294 200.253 152.008 200.07C151.721 199.893 151.182 199.805 150.391 199.805H148.836C148.247 199.805 147.789 199.945 147.461 200.227C147.133 200.508 146.969 200.911 146.969 201.438ZM147.672 194.18C147.672 194.779 147.841 195.232 148.18 195.539C148.518 195.846 148.99 196 149.594 196C150.859 196 151.492 195.385 151.492 194.156C151.492 192.87 150.852 192.227 149.57 192.227C148.961 192.227 148.492 192.391 148.164 192.719C147.836 193.047 147.672 193.534 147.672 194.18ZM159.172 200.156C157.906 200.156 156.906 199.771 156.172 199C155.443 198.229 155.078 197.159 155.078 195.789C155.078 194.409 155.417 193.312 156.094 192.5C156.776 191.688 157.69 191.281 158.836 191.281C159.909 191.281 160.758 191.635 161.383 192.344C162.008 193.047 162.32 193.977 162.32 195.133V195.953H156.422C156.448 196.958 156.701 197.721 157.18 198.242C157.664 198.763 158.344 199.023 159.219 199.023C160.141 199.023 161.052 198.831 161.953 198.445V199.602C161.495 199.799 161.06 199.94 160.648 200.023C160.242 200.112 159.75 200.156 159.172 200.156ZM158.82 192.367C158.133 192.367 157.583 192.591 157.172 193.039C156.766 193.487 156.526 194.107 156.453 194.898H160.93C160.93 194.081 160.747 193.456 160.383 193.023C160.018 192.586 159.497 192.367 158.82 192.367ZM170.062 197.664C170.062 198.461 169.766 199.076 169.172 199.508C168.578 199.94 167.745 200.156 166.672 200.156C165.536 200.156 164.651 199.977 164.016 199.617V198.414C164.427 198.622 164.867 198.786 165.336 198.906C165.81 199.026 166.266 199.086 166.703 199.086C167.38 199.086 167.901 198.979 168.266 198.766C168.63 198.547 168.812 198.216 168.812 197.773C168.812 197.44 168.667 197.156 168.375 196.922C168.089 196.682 167.526 196.401 166.688 196.078C165.891 195.781 165.323 195.523 164.984 195.305C164.651 195.081 164.401 194.828 164.234 194.547C164.073 194.266 163.992 193.93 163.992 193.539C163.992 192.841 164.276 192.292 164.844 191.891C165.411 191.484 166.19 191.281 167.18 191.281C168.102 191.281 169.003 191.469 169.883 191.844L169.422 192.898C168.562 192.544 167.784 192.367 167.086 192.367C166.471 192.367 166.008 192.464 165.695 192.656C165.383 192.849 165.227 193.115 165.227 193.453C165.227 193.682 165.284 193.878 165.398 194.039C165.518 194.201 165.708 194.354 165.969 194.5C166.229 194.646 166.729 194.857 167.469 195.133C168.484 195.503 169.169 195.875 169.523 196.25C169.883 196.625 170.062 197.096 170.062 197.664ZM65.5625 224L65.3047 222.781H65.2422C64.8151 223.318 64.388 223.682 63.9609 223.875C63.5391 224.062 63.0104 224.156 62.375 224.156C61.526 224.156 60.8594 223.938 60.375 223.5C59.8958 223.062 59.6562 222.44 59.6562 221.633C59.6562 219.904 61.0391 218.997 63.8047 218.914L65.2578 218.867V218.336C65.2578 217.664 65.112 217.169 64.8203 216.852C64.5339 216.529 64.0729 216.367 63.4375 216.367C62.724 216.367 61.9167 216.586 61.0156 217.023L60.6172 216.031C61.0391 215.802 61.5 215.622 62 215.492C62.5052 215.362 63.0104 215.297 63.5156 215.297C64.5365 215.297 65.2917 215.523 65.7812 215.977C66.276 216.43 66.5234 217.156 66.5234 218.156V224H65.5625ZM62.6328 223.086C63.4401 223.086 64.0729 222.865 64.5312 222.422C64.9948 221.979 65.2266 221.359 65.2266 220.562V219.789L63.9297 219.844C62.8984 219.88 62.1536 220.042 61.6953 220.328C61.2422 220.609 61.0156 221.049 61.0156 221.648C61.0156 222.117 61.1562 222.474 61.4375 222.719C61.724 222.964 62.1224 223.086 62.6328 223.086ZM75.0625 224V218.461C75.0625 217.763 74.9036 217.242 74.5859 216.898C74.2682 216.555 73.7708 216.383 73.0938 216.383C72.1979 216.383 71.5417 216.625 71.125 217.109C70.7083 217.594 70.5 218.393 70.5 219.508V224H69.2031V215.438H70.2578L70.4688 216.609H70.5312C70.7969 216.188 71.1693 215.862 71.6484 215.633C72.1276 215.398 72.6615 215.281 73.25 215.281C74.2812 215.281 75.0573 215.531 75.5781 216.031C76.099 216.526 76.3594 217.32 76.3594 218.414V224H75.0625ZM77.6719 215.438H79.0625L80.9375 220.32C81.349 221.435 81.6042 222.24 81.7031 222.734H81.7656C81.8333 222.469 81.974 222.016 82.1875 221.375C82.4062 220.729 83.1146 218.75 84.3125 215.438H85.7031L82.0234 225.188C81.6589 226.151 81.2318 226.833 80.7422 227.234C80.2578 227.641 79.6615 227.844 78.9531 227.844C78.5573 227.844 78.1667 227.799 77.7812 227.711V226.672C78.0677 226.734 78.388 226.766 78.7422 226.766C79.6328 226.766 80.2682 226.266 80.6484 225.266L81.125 224.047L77.6719 215.438ZM98.0078 224V218.43C98.0078 217.747 97.862 217.237 97.5703 216.898C97.2786 216.555 96.8255 216.383 96.2109 216.383C95.4036 216.383 94.8073 216.615 94.4219 217.078C94.0365 217.542 93.8438 218.255 93.8438 219.219V224H92.5469V218.43C92.5469 217.747 92.401 217.237 92.1094 216.898C91.8177 216.555 91.362 216.383 90.7422 216.383C89.9297 216.383 89.3333 216.628 88.9531 217.117C88.5781 217.602 88.3906 218.398 88.3906 219.508V224H87.0938V215.438H88.1484L88.3594 216.609H88.4219C88.6667 216.193 89.0104 215.867 89.4531 215.633C89.901 215.398 90.401 215.281 90.9531 215.281C92.2917 215.281 93.1667 215.766 93.5781 216.734H93.6406C93.8958 216.286 94.2656 215.932 94.75 215.672C95.2344 215.411 95.7865 215.281 96.4062 215.281C97.375 215.281 98.099 215.531 98.5781 216.031C99.0625 216.526 99.3047 217.32 99.3047 218.414V224H98.0078ZM109.375 219.711C109.375 221.107 109.023 222.198 108.32 222.984C107.617 223.766 106.646 224.156 105.406 224.156C104.641 224.156 103.961 223.977 103.367 223.617C102.773 223.258 102.315 222.742 101.992 222.07C101.669 221.398 101.508 220.612 101.508 219.711C101.508 218.315 101.857 217.229 102.555 216.453C103.253 215.672 104.221 215.281 105.461 215.281C106.659 215.281 107.609 215.68 108.312 216.477C109.021 217.273 109.375 218.352 109.375 219.711ZM102.852 219.711C102.852 220.805 103.07 221.638 103.508 222.211C103.945 222.784 104.589 223.07 105.438 223.07C106.286 223.07 106.93 222.786 107.367 222.219C107.81 221.646 108.031 220.81 108.031 219.711C108.031 218.622 107.81 217.797 107.367 217.234C106.93 216.667 106.281 216.383 105.422 216.383C104.573 216.383 103.932 216.661 103.5 217.219C103.068 217.776 102.852 218.607 102.852 219.711ZM115.562 215.281C115.943 215.281 116.284 215.312 116.586 215.375L116.406 216.578C116.052 216.5 115.74 216.461 115.469 216.461C114.776 216.461 114.182 216.742 113.688 217.305C113.198 217.867 112.953 218.568 112.953 219.406V224H111.656V215.438H112.727L112.875 217.023H112.938C113.255 216.466 113.638 216.036 114.086 215.734C114.534 215.432 115.026 215.281 115.562 215.281ZM121.805 224.156C120.539 224.156 119.539 223.771 118.805 223C118.076 222.229 117.711 221.159 117.711 219.789C117.711 218.409 118.049 217.312 118.727 216.5C119.409 215.688 120.323 215.281 121.469 215.281C122.542 215.281 123.391 215.635 124.016 216.344C124.641 217.047 124.953 217.977 124.953 219.133V219.953H119.055C119.081 220.958 119.333 221.721 119.812 222.242C120.297 222.763 120.977 223.023 121.852 223.023C122.773 223.023 123.685 222.831 124.586 222.445V223.602C124.128 223.799 123.693 223.94 123.281 224.023C122.875 224.112 122.383 224.156 121.805 224.156ZM121.453 216.367C120.766 216.367 120.216 216.591 119.805 217.039C119.398 217.487 119.159 218.107 119.086 218.898H123.562C123.562 218.081 123.38 217.456 123.016 217.023C122.651 216.586 122.13 216.367 121.453 216.367ZM128.344 220.852H127.523L127.125 212.578H128.742L128.344 220.852ZM126.984 223.172C126.984 222.464 127.297 222.109 127.922 222.109C128.224 222.109 128.456 222.201 128.617 222.383C128.784 222.565 128.867 222.828 128.867 223.172C128.867 223.505 128.784 223.766 128.617 223.953C128.451 224.135 128.219 224.227 127.922 224.227C127.651 224.227 127.427 224.146 127.25 223.984C127.073 223.818 126.984 223.547 126.984 223.172Z" fill="#414141"/>
<path d="M3.93769 122.008C4.27369 122.024 4.71369 122.04 5.25769 122.056C5.80169 122.072 6.33769 122.08 6.86569 122.08C7.61769 122.08 8.33769 122.072 9.02569 122.056C9.71369 122.04 10.2017 122.032 10.4897 122.032C12.4257 122.032 13.8737 122.472 14.8337 123.352C15.7937 124.232 16.2737 125.368 16.2737 126.76C16.2737 127.336 16.1777 127.944 15.9857 128.584C15.7937 129.208 15.4577 129.792 14.9777 130.336C14.5137 130.864 13.8737 131.296 13.0577 131.632C12.2417 131.968 11.2097 132.136 9.96169 132.136H7.65769V131.656H9.72169C10.8577 131.656 11.7217 131.44 12.3137 131.008C12.9217 130.576 13.3297 130.008 13.5377 129.304C13.7617 128.6 13.8737 127.84 13.8737 127.024C13.8737 125.504 13.5697 124.368 12.9617 123.616C12.3697 122.864 11.3457 122.488 9.88969 122.488C9.15369 122.488 8.67369 122.624 8.44969 122.896C8.22569 123.168 8.11369 123.72 8.11369 124.552V136.456C8.11369 137.032 8.16969 137.464 8.28169 137.752C8.40969 138.04 8.64969 138.232 9.00169 138.328C9.35369 138.424 9.86569 138.488 10.5377 138.52V139C10.1217 138.968 9.59369 138.952 8.95369 138.952C8.31369 138.936 7.66569 138.928 7.00969 138.928C6.38569 138.928 5.80169 138.936 5.25769 138.952C4.71369 138.952 4.27369 138.968 3.93769 139V138.52C4.48169 138.488 4.88969 138.424 5.16169 138.328C5.44969 138.232 5.64169 138.04 5.73769 137.752C5.83369 137.464 5.88169 137.032 5.88169 136.456V124.552C5.88169 123.96 5.83369 123.528 5.73769 123.256C5.64169 122.968 5.44969 122.776 5.16169 122.68C4.88969 122.568 4.48169 122.504 3.93769 122.488V122.008ZM20.4008 120.64C20.8168 120.64 21.1768 120.792 21.4808 121.096C21.7848 121.4 21.9368 121.76 21.9368 122.176C21.9368 122.592 21.7848 122.952 21.4808 123.256C21.1768 123.56 20.8168 123.712 20.4008 123.712C19.9848 123.712 19.6248 123.56 19.3208 123.256C19.0168 122.952 18.8648 122.592 18.8648 122.176C18.8648 121.76 19.0168 121.4 19.3208 121.096C19.6248 120.792 19.9848 120.64 20.4008 120.64ZM21.6488 126.376V136.768C21.6488 137.44 21.7848 137.896 22.0568 138.136C22.3448 138.376 22.8168 138.496 23.4728 138.496V139C23.2008 138.984 22.7848 138.968 22.2248 138.952C21.6808 138.92 21.1288 138.904 20.5688 138.904C20.0248 138.904 19.4728 138.92 18.9128 138.952C18.3528 138.968 17.9368 138.984 17.6648 139V138.496C18.3208 138.496 18.7848 138.376 19.0568 138.136C19.3448 137.896 19.4888 137.44 19.4888 136.768V129.256C19.4888 128.536 19.3608 128.008 19.1048 127.672C18.8488 127.32 18.3688 127.144 17.6648 127.144V126.64C18.1768 126.688 18.6728 126.712 19.1528 126.712C19.6168 126.712 20.0568 126.688 20.4728 126.64C20.9048 126.576 21.2968 126.488 21.6488 126.376ZM32.76 126.304C33.368 126.304 33.872 126.384 34.272 126.544C34.688 126.704 35.032 126.928 35.304 127.216C35.608 127.536 35.824 127.936 35.952 128.416C36.08 128.896 36.144 129.544 36.144 130.36V136.768C36.144 137.44 36.28 137.896 36.552 138.136C36.84 138.376 37.312 138.496 37.968 138.496V139C37.696 138.984 37.28 138.968 36.72 138.952C36.16 138.92 35.616 138.904 35.088 138.904C34.56 138.904 34.04 138.92 33.528 138.952C33.032 138.968 32.656 138.984 32.4 139V138.496C32.976 138.496 33.384 138.376 33.624 138.136C33.864 137.896 33.984 137.44 33.984 136.768V129.832C33.984 129.336 33.944 128.88 33.864 128.464C33.784 128.048 33.6 127.712 33.312 127.456C33.04 127.2 32.616 127.072 32.04 127.072C31.368 127.072 30.776 127.264 30.264 127.648C29.768 128.032 29.376 128.56 29.088 129.232C28.816 129.888 28.68 130.624 28.68 131.44V136.768C28.68 137.44 28.8 137.896 29.04 138.136C29.28 138.376 29.688 138.496 30.264 138.496V139C30.008 138.984 29.624 138.968 29.112 138.952C28.616 138.92 28.104 138.904 27.576 138.904C27.048 138.904 26.504 138.92 25.944 138.952C25.384 138.968 24.968 138.984 24.696 139V138.496C25.352 138.496 25.816 138.376 26.088 138.136C26.376 137.896 26.52 137.44 26.52 136.768V129.256C26.52 128.536 26.392 128.008 26.136 127.672C25.88 127.32 25.4 127.144 24.696 127.144V126.64C25.208 126.688 25.704 126.712 26.184 126.712C26.648 126.712 27.088 126.688 27.504 126.64C27.936 126.576 28.328 126.488 28.68 126.376V129.208C29.096 128.12 29.672 127.368 30.408 126.952C31.16 126.52 31.944 126.304 32.76 126.304ZM47.0803 126.304C47.6883 126.304 48.1923 126.384 48.5923 126.544C49.0083 126.704 49.3523 126.928 49.6243 127.216C49.9283 127.536 50.1443 127.936 50.2723 128.416C50.4003 128.896 50.4643 129.544 50.4643 130.36V136.768C50.4643 137.44 50.6003 137.896 50.8723 138.136C51.1603 138.376 51.6323 138.496 52.2883 138.496V139C52.0163 138.984 51.6003 138.968 51.0403 138.952C50.4803 138.92 49.9363 138.904 49.4083 138.904C48.8803 138.904 48.3603 138.92 47.8483 138.952C47.3523 138.968 46.9763 138.984 46.7203 139V138.496C47.2963 138.496 47.7043 138.376 47.9443 138.136C48.1843 137.896 48.3043 137.44 48.3043 136.768V129.832C48.3043 129.336 48.2643 128.88 48.1843 128.464C48.1043 128.048 47.9203 127.712 47.6323 127.456C47.3603 127.2 46.9363 127.072 46.3603 127.072C45.6883 127.072 45.0963 127.264 44.5843 127.648C44.0883 128.032 43.6963 128.56 43.4083 129.232C43.1363 129.888 43.0003 130.624 43.0003 131.44V136.768C43.0003 137.44 43.1203 137.896 43.3603 138.136C43.6003 138.376 44.0083 138.496 44.5843 138.496V139C44.3283 138.984 43.9443 138.968 43.4323 138.952C42.9363 138.92 42.4243 138.904 41.8963 138.904C41.3683 138.904 40.8243 138.92 40.2643 138.952C39.7043 138.968 39.2883 138.984 39.0163 139V138.496C39.6723 138.496 40.1363 138.376 40.4083 138.136C40.6963 137.896 40.8403 137.44 40.8403 136.768V129.256C40.8403 128.536 40.7123 128.008 40.4563 127.672C40.2003 127.32 39.7203 127.144 39.0163 127.144V126.64C39.5283 126.688 40.0243 126.712 40.5043 126.712C40.9683 126.712 41.4083 126.688 41.8243 126.64C42.2563 126.576 42.6483 126.488 43.0003 126.376V129.208C43.4163 128.12 43.9923 127.368 44.7283 126.952C45.4803 126.52 46.2643 126.304 47.0803 126.304ZM59.1686 126.304C60.5766 126.304 61.6726 126.736 62.4566 127.6C63.2566 128.448 63.6566 129.776 63.6566 131.584H55.1846L55.1606 131.128H61.3526C61.3846 130.344 61.3206 129.624 61.1606 128.968C61.0006 128.296 60.7446 127.76 60.3926 127.36C60.0566 126.96 59.6166 126.76 59.0726 126.76C58.3366 126.76 57.6806 127.128 57.1046 127.864C56.5446 128.6 56.2086 129.768 56.0966 131.368L56.1686 131.464C56.1366 131.704 56.1126 131.968 56.0966 132.256C56.0806 132.544 56.0726 132.832 56.0726 133.12C56.0726 134.208 56.2486 135.144 56.6006 135.928C56.9526 136.712 57.4086 137.312 57.9686 137.728C58.5446 138.128 59.1366 138.328 59.7446 138.328C60.2246 138.328 60.6806 138.256 61.1126 138.112C61.5446 137.952 61.9446 137.696 62.3126 137.344C62.6806 136.992 63.0006 136.52 63.2726 135.928L63.7526 136.12C63.5766 136.648 63.2886 137.16 62.8886 137.656C62.4886 138.152 61.9846 138.56 61.3766 138.88C60.7686 139.184 60.0646 139.336 59.2646 139.336C58.1126 139.336 57.1206 139.072 56.2886 138.544C55.4726 138.016 54.8406 137.288 54.3926 136.36C53.9606 135.416 53.7446 134.336 53.7446 133.12C53.7446 131.712 53.9686 130.504 54.4166 129.496C54.8646 128.472 55.4966 127.688 56.3126 127.144C57.1286 126.584 58.0806 126.304 59.1686 126.304ZM76.3973 120.184V136.384C76.3973 137.104 76.5253 137.64 76.7812 137.992C77.0533 138.328 77.5333 138.496 78.2213 138.496V139C77.7253 138.952 77.2293 138.928 76.7333 138.928C76.2693 138.928 75.8213 138.952 75.3893 139C74.9733 139.048 74.5893 139.136 74.2373 139.264V123.064C74.2373 122.344 74.1093 121.816 73.8533 121.48C73.5973 121.128 73.1173 120.952 72.4133 120.952V120.448C72.9253 120.496 73.4213 120.52 73.9013 120.52C74.3653 120.52 74.8053 120.496 75.2213 120.448C75.6533 120.384 76.0453 120.296 76.3973 120.184ZM71.3573 126.304C72.0613 126.304 72.7173 126.472 73.3253 126.808C73.9493 127.144 74.3653 127.72 74.5733 128.536L74.2613 128.776C74.0373 128.104 73.6853 127.616 73.2053 127.312C72.7413 127.008 72.1893 126.856 71.5493 126.856C70.6053 126.856 69.8133 127.344 69.1733 128.32C68.5493 129.296 68.2453 130.8 68.2613 132.832C68.2613 134.128 68.3813 135.208 68.6213 136.072C68.8773 136.92 69.2453 137.56 69.7253 137.992C70.2213 138.408 70.8213 138.616 71.5253 138.616C72.1973 138.616 72.8053 138.328 73.3493 137.752C73.8933 137.176 74.2213 136.328 74.3333 135.208L74.6213 135.544C74.4933 136.76 74.1013 137.696 73.4453 138.352C72.8053 139.008 71.9333 139.336 70.8293 139.336C69.8373 139.336 68.9653 139.096 68.2133 138.616C67.4773 138.136 66.9093 137.416 66.5093 136.456C66.1253 135.496 65.9333 134.288 65.9333 132.832C65.9333 131.376 66.1813 130.168 66.6773 129.208C67.1893 128.232 67.8533 127.504 68.6693 127.024C69.5013 126.544 70.3973 126.304 71.3573 126.304ZM104.599 122.008V122.488C104.055 122.504 103.639 122.568 103.351 122.68C103.079 122.776 102.895 122.968 102.799 123.256C102.703 123.528 102.655 123.96 102.655 124.552V136.456C102.655 137.032 102.703 137.464 102.799 137.752C102.895 138.04 103.079 138.232 103.351 138.328C103.639 138.424 104.055 138.488 104.599 138.52V139C104.231 138.968 103.767 138.952 103.207 138.952C102.663 138.936 102.111 138.928 101.551 138.928C100.927 138.928 100.343 138.936 99.7991 138.952C99.2551 138.952 98.8151 138.968 98.4791 139V138.52C99.0231 138.488 99.4311 138.424 99.7031 138.328C99.9911 138.232 100.183 138.04 100.279 137.752C100.375 137.464 100.423 137.032 100.423 136.456V123.256L100.519 123.328L94.6391 139.12H94.2551L88.2071 123.544V136.216C88.2071 136.792 88.2551 137.248 88.3511 137.584C88.4631 137.904 88.6711 138.136 88.9751 138.28C89.2951 138.408 89.7671 138.488 90.3911 138.52V139C90.1031 138.968 89.7271 138.952 89.2631 138.952C88.7991 138.936 88.3591 138.928 87.9431 138.928C87.5431 138.928 87.1351 138.936 86.7191 138.952C86.3191 138.952 85.9831 138.968 85.7111 139V138.52C86.2551 138.488 86.6631 138.408 86.9351 138.28C87.2231 138.136 87.4151 137.904 87.5111 137.584C87.6071 137.248 87.6551 136.792 87.6551 136.216V124.552C87.6551 123.96 87.6071 123.528 87.5111 123.256C87.4151 122.968 87.2231 122.776 86.9351 122.68C86.6631 122.568 86.2551 122.504 85.7111 122.488V122.008C85.9831 122.024 86.3191 122.04 86.7191 122.056C87.1351 122.072 87.5431 122.08 87.9431 122.08C88.2951 122.08 88.6551 122.072 89.0231 122.056C89.4071 122.04 89.7271 122.024 89.9831 122.008L95.4311 136.36L95.0231 136.552L100.423 122.08C100.615 122.08 100.799 122.08 100.975 122.08C101.167 122.08 101.359 122.08 101.551 122.08C102.111 122.08 102.663 122.072 103.207 122.056C103.767 122.04 104.231 122.024 104.599 122.008ZM111.716 126.304C113.124 126.304 114.22 126.736 115.004 127.6C115.804 128.448 116.204 129.776 116.204 131.584H107.732L107.708 131.128H113.9C113.932 130.344 113.868 129.624 113.708 128.968C113.548 128.296 113.292 127.76 112.94 127.36C112.604 126.96 112.164 126.76 111.62 126.76C110.884 126.76 110.228 127.128 109.652 127.864C109.092 128.6 108.756 129.768 108.644 131.368L108.715 131.464C108.684 131.704 108.66 131.968 108.644 132.256C108.628 132.544 108.62 132.832 108.62 133.12C108.62 134.208 108.796 135.144 109.148 135.928C109.5 136.712 109.956 137.312 110.516 137.728C111.092 138.128 111.684 138.328 112.292 138.328C112.772 138.328 113.228 138.256 113.66 138.112C114.092 137.952 114.492 137.696 114.86 137.344C115.228 136.992 115.548 136.52 115.82 135.928L116.3 136.12C116.124 136.648 115.836 137.16 115.436 137.656C115.036 138.152 114.532 138.56 113.924 138.88C113.316 139.184 112.612 139.336 111.812 139.336C110.66 139.336 109.668 139.072 108.836 138.544C108.02 138.016 107.388 137.288 106.94 136.36C106.508 135.416 106.292 134.336 106.292 133.12C106.292 131.712 106.516 130.504 106.964 129.496C107.412 128.472 108.044 127.688 108.86 127.144C109.676 126.584 110.628 126.304 111.716 126.304ZM122.32 126.304C122.96 126.304 123.504 126.408 123.952 126.616C124.4 126.824 124.728 127.016 124.936 127.192C125.464 127.624 125.784 127.336 125.896 126.328H126.448C126.416 126.776 126.392 127.312 126.376 127.936C126.36 128.544 126.352 129.368 126.352 130.408H125.8C125.704 129.816 125.536 129.24 125.296 128.68C125.072 128.12 124.736 127.664 124.288 127.312C123.84 126.944 123.256 126.76 122.536 126.76C121.976 126.76 121.504 126.92 121.12 127.24C120.752 127.544 120.568 128 120.568 128.608C120.568 129.088 120.712 129.504 121 129.856C121.288 130.192 121.664 130.512 122.128 130.816C122.592 131.104 123.096 131.424 123.64 131.776C124.248 132.16 124.8 132.552 125.296 132.952C125.792 133.352 126.184 133.792 126.472 134.272C126.776 134.752 126.928 135.32 126.928 135.976C126.928 136.712 126.736 137.328 126.352 137.824C125.968 138.32 125.464 138.696 124.84 138.952C124.232 139.208 123.56 139.336 122.824 139.336C122.472 139.336 122.136 139.304 121.816 139.24C121.512 139.192 121.216 139.112 120.928 139C120.768 138.92 120.6 138.824 120.424 138.712C120.264 138.6 120.104 138.48 119.944 138.352C119.784 138.224 119.64 138.232 119.512 138.376C119.384 138.504 119.288 138.768 119.224 139.168H118.672C118.704 138.656 118.728 138.032 118.744 137.296C118.76 136.56 118.768 135.584 118.768 134.368H119.32C119.432 135.264 119.592 136.048 119.8 136.72C120.008 137.392 120.336 137.92 120.784 138.304C121.232 138.672 121.856 138.856 122.656 138.856C122.976 138.856 123.296 138.784 123.616 138.64C123.952 138.496 124.232 138.256 124.456 137.92C124.68 137.584 124.792 137.136 124.792 136.576C124.792 135.872 124.536 135.296 124.024 134.848C123.512 134.4 122.864 133.928 122.08 133.432C121.504 133.064 120.96 132.696 120.448 132.328C119.952 131.96 119.544 131.544 119.224 131.08C118.92 130.616 118.768 130.056 118.768 129.4C118.768 128.68 118.928 128.096 119.248 127.648C119.584 127.184 120.024 126.848 120.568 126.64C121.112 126.416 121.696 126.304 122.32 126.304ZM133.055 126.304C133.695 126.304 134.239 126.408 134.687 126.616C135.135 126.824 135.463 127.016 135.671 127.192C136.199 127.624 136.519 127.336 136.631 126.328H137.183C137.151 126.776 137.127 127.312 137.111 127.936C137.095 128.544 137.087 129.368 137.087 130.408H136.535C136.439 129.816 136.271 129.24 136.031 128.68C135.807 128.12 135.471 127.664 135.023 127.312C134.575 126.944 133.991 126.76 133.271 126.76C132.711 126.76 132.239 126.92 131.855 127.24C131.487 127.544 131.303 128 131.303 128.608C131.303 129.088 131.447 129.504 131.735 129.856C132.023 130.192 132.399 130.512 132.863 130.816C133.327 131.104 133.831 131.424 134.375 131.776C134.983 132.16 135.535 132.552 136.031 132.952C136.527 133.352 136.919 133.792 137.207 134.272C137.511 134.752 137.663 135.32 137.663 135.976C137.663 136.712 137.471 137.328 137.087 137.824C136.703 138.32 136.199 138.696 135.575 138.952C134.967 139.208 134.295 139.336 133.559 139.336C133.207 139.336 132.871 139.304 132.551 139.24C132.247 139.192 131.951 139.112 131.663 139C131.503 138.92 131.335 138.824 131.159 138.712C130.999 138.6 130.839 138.48 130.679 138.352C130.519 138.224 130.375 138.232 130.247 138.376C130.119 138.504 130.023 138.768 129.959 139.168H129.407C129.439 138.656 129.463 138.032 129.479 137.296C129.495 136.56 129.503 135.584 129.503 134.368H130.055C130.167 135.264 130.327 136.048 130.535 136.72C130.743 137.392 131.071 137.92 131.519 138.304C131.967 138.672 132.591 138.856 133.391 138.856C133.711 138.856 134.031 138.784 134.351 138.64C134.687 138.496 134.967 138.256 135.191 137.92C135.415 137.584 135.527 137.136 135.527 136.576C135.527 135.872 135.271 135.296 134.759 134.848C134.247 134.4 133.599 133.928 132.815 133.432C132.239 133.064 131.695 132.696 131.183 132.328C130.687 131.96 130.279 131.544 129.959 131.08C129.655 130.616 129.503 130.056 129.503 129.4C129.503 128.68 129.663 128.096 129.983 127.648C130.319 127.184 130.759 126.848 131.303 126.64C131.847 126.416 132.431 126.304 133.055 126.304ZM142.901 139.168C142.245 139.168 141.677 139.048 141.197 138.808C140.717 138.552 140.349 138.2 140.093 137.752C139.853 137.304 139.733 136.784 139.733 136.192C139.733 135.488 139.893 134.912 140.213 134.464C140.549 134.016 140.973 133.656 141.485 133.384C141.997 133.112 142.533 132.888 143.093 132.712C143.669 132.52 144.213 132.344 144.725 132.184C145.237 132.008 145.653 131.808 145.973 131.584C146.309 131.36 146.477 131.064 146.477 130.696V129.208C146.477 128.536 146.373 128.024 146.165 127.672C145.973 127.32 145.709 127.088 145.373 126.976C145.037 126.848 144.661 126.784 144.245 126.784C143.845 126.784 143.413 126.84 142.949 126.952C142.501 127.064 142.141 127.296 141.869 127.648C142.173 127.712 142.437 127.872 142.661 128.128C142.885 128.384 142.997 128.712 142.997 129.112C142.997 129.512 142.869 129.832 142.613 130.072C142.357 130.296 142.029 130.408 141.629 130.408C141.165 130.408 140.821 130.264 140.597 129.976C140.389 129.672 140.285 129.336 140.285 128.968C140.285 128.552 140.389 128.216 140.597 127.96C140.805 127.704 141.069 127.464 141.389 127.24C141.757 126.984 142.229 126.768 142.805 126.592C143.397 126.4 144.061 126.304 144.797 126.304C145.453 126.304 146.013 126.384 146.477 126.544C146.941 126.688 147.325 126.904 147.629 127.192C148.045 127.576 148.317 128.048 148.445 128.608C148.573 129.152 148.637 129.808 148.637 130.576V137.248C148.637 137.648 148.693 137.936 148.805 138.112C148.933 138.288 149.125 138.376 149.381 138.376C149.557 138.376 149.725 138.336 149.885 138.256C150.045 138.176 150.237 138.048 150.461 137.872L150.725 138.28C150.389 138.536 150.069 138.752 149.765 138.928C149.461 139.088 149.053 139.168 148.541 139.168C148.077 139.168 147.693 139.088 147.389 138.928C147.085 138.768 146.853 138.536 146.693 138.232C146.549 137.912 146.477 137.512 146.477 137.032C146.045 137.752 145.525 138.288 144.917 138.64C144.325 138.992 143.653 139.168 142.901 139.168ZM143.765 138.208C144.293 138.208 144.781 138.056 145.229 137.752C145.693 137.448 146.109 136.992 146.477 136.384V131.68C146.285 131.952 146.005 132.184 145.637 132.376C145.269 132.552 144.869 132.736 144.437 132.928C144.005 133.104 143.589 133.32 143.189 133.576C142.805 133.816 142.485 134.136 142.229 134.536C141.973 134.936 141.845 135.456 141.845 136.096C141.845 136.736 142.013 137.248 142.349 137.632C142.701 138.016 143.173 138.208 143.765 138.208ZM155.862 143.512C155.014 143.512 154.214 143.424 153.462 143.248C152.71 143.072 152.102 142.792 151.638 142.408C151.19 142.04 150.966 141.568 150.966 140.992C150.966 140.432 151.19 139.952 151.638 139.552C152.086 139.152 152.694 138.848 153.462 138.64L153.606 139.024C153.254 139.136 152.974 139.36 152.766 139.696C152.558 140.032 152.454 140.408 152.454 140.824C152.454 141.56 152.79 142.12 153.462 142.504C154.15 142.904 155.038 143.104 156.126 143.104C156.846 143.104 157.55 143.008 158.238 142.816C158.926 142.64 159.494 142.336 159.942 141.904C160.39 141.472 160.614 140.904 160.614 140.2C160.614 139.672 160.422 139.24 160.038 138.904C159.67 138.552 158.934 138.376 157.83 138.376H156.054C155.542 138.376 155.046 138.336 154.566 138.256C154.086 138.176 153.694 138.008 153.39 137.752C153.086 137.496 152.934 137.104 152.934 136.576C152.934 136.032 153.158 135.512 153.606 135.016C154.054 134.504 154.878 133.984 156.078 133.456L156.366 133.672C155.822 133.96 155.35 134.256 154.95 134.56C154.55 134.848 154.35 135.192 154.35 135.592C154.35 136.104 154.734 136.36 155.502 136.36H158.502C159.174 136.36 159.79 136.456 160.35 136.648C160.926 136.84 161.39 137.144 161.742 137.56C162.094 137.976 162.27 138.52 162.27 139.192C162.27 139.944 162.03 140.648 161.55 141.304C161.07 141.96 160.35 142.488 159.39 142.888C158.446 143.304 157.27 143.512 155.862 143.512ZM155.982 133.888C155.198 133.888 154.486 133.76 153.846 133.504C153.206 133.232 152.702 132.816 152.334 132.256C151.966 131.696 151.782 130.976 151.782 130.096C151.782 129.216 151.966 128.496 152.334 127.936C152.702 127.376 153.206 126.968 153.846 126.712C154.486 126.44 155.198 126.304 155.982 126.304C156.782 126.304 157.494 126.44 158.118 126.712C158.758 126.968 159.262 127.376 159.63 127.936C159.998 128.496 160.182 129.216 160.182 130.096C160.182 130.976 159.998 131.696 159.63 132.256C159.262 132.816 158.758 133.232 158.118 133.504C157.494 133.76 156.782 133.888 155.982 133.888ZM155.982 133.456C156.59 133.456 157.062 133.216 157.398 132.736C157.75 132.256 157.926 131.376 157.926 130.096C157.926 128.816 157.75 127.936 157.398 127.456C157.062 126.976 156.59 126.736 155.982 126.736C155.39 126.736 154.918 126.976 154.566 127.456C154.214 127.936 154.038 128.816 154.038 130.096C154.038 131.376 154.214 132.256 154.566 132.736C154.918 133.216 155.39 133.456 155.982 133.456ZM159.438 128.296L159.006 128.128C159.23 127.584 159.614 127.104 160.158 126.688C160.702 126.272 161.27 126.064 161.862 126.064C162.278 126.064 162.614 126.184 162.87 126.424C163.126 126.648 163.254 126.992 163.254 127.456C163.254 127.952 163.118 128.304 162.846 128.512C162.59 128.704 162.326 128.8 162.054 128.8C161.814 128.8 161.59 128.72 161.382 128.56C161.174 128.384 161.054 128.112 161.022 127.744C160.99 127.376 161.102 126.904 161.358 126.328L161.67 126.4C160.998 126.656 160.518 126.928 160.23 127.216C159.942 127.488 159.678 127.848 159.438 128.296ZM169.723 126.304C171.131 126.304 172.227 126.736 173.011 127.6C173.811 128.448 174.211 129.776 174.211 131.584H165.739L165.715 131.128H171.907C171.939 130.344 171.875 129.624 171.715 128.968C171.555 128.296 171.299 127.76 170.947 127.36C170.611 126.96 170.171 126.76 169.627 126.76C168.891 126.76 168.235 127.128 167.659 127.864C167.099 128.6 166.763 129.768 166.651 131.368L166.723 131.464C166.691 131.704 166.667 131.968 166.651 132.256C166.635 132.544 166.627 132.832 166.627 133.12C166.627 134.208 166.803 135.144 167.155 135.928C167.507 136.712 167.963 137.312 168.523 137.728C169.099 138.128 169.691 138.328 170.299 138.328C170.779 138.328 171.235 138.256 171.667 138.112C172.099 137.952 172.499 137.696 172.867 137.344C173.235 136.992 173.555 136.52 173.827 135.928L174.307 136.12C174.131 136.648 173.843 137.16 173.443 137.656C173.043 138.152 172.539 138.56 171.931 138.88C171.323 139.184 170.619 139.336 169.819 139.336C168.667 139.336 167.675 139.072 166.843 138.544C166.027 138.016 165.395 137.288 164.947 136.36C164.515 135.416 164.299 134.336 164.299 133.12C164.299 131.712 164.523 130.504 164.971 129.496C165.419 128.472 166.051 127.688 166.867 127.144C167.683 126.584 168.635 126.304 169.723 126.304ZM180.328 126.304C180.968 126.304 181.512 126.408 181.96 126.616C182.408 126.824 182.736 127.016 182.944 127.192C183.472 127.624 183.792 127.336 183.904 126.328H184.456C184.424 126.776 184.4 127.312 184.384 127.936C184.368 128.544 184.36 129.368 184.36 130.408H183.808C183.712 129.816 183.544 129.24 183.304 128.68C183.08 128.12 182.744 127.664 182.296 127.312C181.848 126.944 181.264 126.76 180.544 126.76C179.984 126.76 179.512 126.92 179.128 127.24C178.76 127.544 178.576 128 178.576 128.608C178.576 129.088 178.72 129.504 179.008 129.856C179.296 130.192 179.672 130.512 180.136 130.816C180.6 131.104 181.104 131.424 181.648 131.776C182.256 132.16 182.808 132.552 183.304 132.952C183.8 133.352 184.192 133.792 184.48 134.272C184.784 134.752 184.936 135.32 184.936 135.976C184.936 136.712 184.744 137.328 184.36 137.824C183.976 138.32 183.472 138.696 182.848 138.952C182.24 139.208 181.568 139.336 180.832 139.336C180.48 139.336 180.144 139.304 179.824 139.24C179.52 139.192 179.224 139.112 178.936 139C178.776 138.92 178.608 138.824 178.432 138.712C178.272 138.6 178.112 138.48 177.952 138.352C177.792 138.224 177.648 138.232 177.52 138.376C177.392 138.504 177.296 138.768 177.232 139.168H176.68C176.712 138.656 176.736 138.032 176.752 137.296C176.768 136.56 176.776 135.584 176.776 134.368H177.328C177.44 135.264 177.6 136.048 177.808 136.72C178.016 137.392 178.344 137.92 178.792 138.304C179.24 138.672 179.864 138.856 180.664 138.856C180.984 138.856 181.304 138.784 181.624 138.64C181.96 138.496 182.24 138.256 182.464 137.92C182.688 137.584 182.8 137.136 182.8 136.576C182.8 135.872 182.544 135.296 182.032 134.848C181.52 134.4 180.872 133.928 180.088 133.432C179.512 133.064 178.968 132.696 178.456 132.328C177.96 131.96 177.552 131.544 177.232 131.08C176.928 130.616 176.776 130.056 176.776 129.4C176.776 128.68 176.936 128.096 177.256 127.648C177.592 127.184 178.032 126.848 178.576 126.64C179.12 126.416 179.704 126.304 180.328 126.304Z" fill="#414141"/>
<path d="M180.28 0H9.0036V86H180.28V0Z" fill="white"/>
<path d="M9.13281 52.8868C9.13281 47.2042 13.7592 42.5977 19.4663 42.5977H170.151C175.857 42.5977 180.484 47.2042 180.484 52.8868V75.5752C180.484 81.2577 175.857 85.8638 170.151 85.8638H9.13281V52.8868Z" fill="#F7F7F4"/>
<path d="M154.545 58.0091C157.715 58.0091 160.284 56.967 160.284 55.6815C160.284 54.3961 157.715 53.354 154.545 53.354C151.376 53.354 148.806 54.3961 148.806 55.6815C148.806 56.967 151.376 58.0091 154.545 58.0091Z" fill="#D9D6D6"/>
<path d="M34.4155 59.6219H33.1111L30.1467 64.4627L27.1955 59.6219H25.7858L29.4484 65.604V68.8049H30.7528V65.6302L34.4155 59.6219ZM37.7737 68.8836C39.8685 68.8836 41.3968 67.4012 41.3968 65.3285C41.3968 63.2557 39.8685 61.7865 37.7737 61.7865C35.6788 61.7865 34.1373 63.2557 34.1373 65.3285C34.1373 67.4012 35.6788 68.8836 37.7737 68.8836ZM37.7737 67.7817C36.4298 67.7817 35.4153 66.8109 35.4153 65.3285C35.4153 63.8461 36.4298 62.8884 37.7737 62.8884C39.1175 62.8884 40.1188 63.8461 40.1188 65.3285C40.1188 66.8109 39.1175 67.7817 37.7737 67.7817ZM48.3897 61.8521V65.4466C48.3897 66.9421 47.5465 67.7554 46.229 67.7554C45.0301 67.7554 44.345 67.0733 44.345 65.7089V61.8521H43.0802V65.8532C43.0802 67.8997 44.2791 68.8836 46.0841 68.8836C47.0722 68.8836 47.9418 68.477 48.4556 67.7554V68.8049H49.6545V61.8521H48.3897ZM52.3786 58.9922C51.878 58.9922 51.4959 59.3595 51.4959 59.8843C51.4959 60.2778 51.7199 60.5795 52.0493 60.6976L51.5618 62.6523H52.3918L53.0242 60.8157C53.1955 60.3303 53.235 60.1335 53.235 59.8843C53.235 59.3726 52.8793 58.9922 52.3786 58.9922ZM56.2595 63.0196V61.8521H55.0474V68.8049H56.3122V65.3416C56.3122 63.8198 57.1554 62.9934 58.5124 62.9934C58.6047 62.9934 58.6969 62.9934 58.8023 63.0065V61.7865C57.577 61.7865 56.7075 62.2063 56.2595 63.0196ZM66.6077 65.3678C66.6077 63.2295 65.1717 61.7865 63.1559 61.7865C61.1401 61.7865 59.6513 63.2689 59.6513 65.3285C59.6513 67.4012 61.1533 68.8836 63.4062 68.8836C64.5656 68.8836 65.5274 68.4901 66.1598 67.7554L65.4615 66.9421C64.9477 67.5062 64.2626 67.7817 63.4457 67.7817C62.0623 67.7817 61.0742 66.9683 60.9161 65.7483H66.5814C66.5946 65.6302 66.6077 65.4728 66.6077 65.3678ZM63.1559 62.8491C64.3812 62.8491 65.2639 63.6755 65.3956 64.8431H60.9161C61.0479 63.6624 61.9438 62.8491 63.1559 62.8491ZM74.445 61.7865C73.3251 61.7865 72.2843 62.1013 71.5597 62.6785L72.0867 63.6231C72.6269 63.1639 73.4701 62.8753 74.3001 62.8753C75.5517 62.8753 76.171 63.4919 76.171 64.5545V64.8037H74.1684C72.0867 64.8037 71.3621 65.7221 71.3621 66.8371C71.3621 68.0441 72.3634 68.8836 73.9444 68.8836C75.0379 68.8836 75.8152 68.5163 76.2368 67.8866V68.8049H77.4358V64.607C77.4358 62.7048 76.3554 61.7865 74.445 61.7865ZM74.1552 67.9129C73.1934 67.9129 72.6137 67.4799 72.6137 66.7847C72.6137 66.1943 72.9694 65.7089 74.2211 65.7089H76.171V66.6797C75.8548 67.48 75.1038 67.9129 74.1552 67.9129ZM89.0812 61.8521L86.9995 67.4144L84.931 61.8521H83.8638L81.7558 67.3881L79.7269 61.8521H78.5279L81.1234 68.8049H82.3355L84.3777 63.5312L86.3935 68.8049H87.6056L90.2142 61.8521H89.0812ZM97.6157 65.3678C97.6157 63.2295 96.1796 61.7865 94.1639 61.7865C92.1481 61.7865 90.6593 63.2689 90.6593 65.3285C90.6593 67.4012 92.1612 68.8836 94.4142 68.8836C95.5736 68.8836 96.5354 68.4901 97.1678 67.7554L96.4695 66.9421C95.9557 67.5062 95.2706 67.7817 94.4537 67.7817C93.0703 67.7817 92.0822 66.9683 91.9241 65.7483H97.5894C97.6026 65.6302 97.6157 65.4728 97.6157 65.3678ZM94.1639 62.8491C95.3891 62.8491 96.2719 63.6755 96.4036 64.8431H91.9241C92.0558 63.6624 92.9517 62.8491 94.1639 62.8491ZM101.374 68.8836C103.232 68.8836 104.391 68.0834 104.391 66.824C104.391 64.1216 99.9646 65.4597 99.9646 63.8199C99.9646 63.2689 100.505 62.8622 101.611 62.8622C102.297 62.8622 102.995 63.0065 103.627 63.4132L104.167 62.4162C103.561 62.0226 102.534 61.7865 101.625 61.7865C99.8328 61.7865 98.7129 62.6261 98.7129 63.8723C98.7129 66.6404 103.127 65.2891 103.127 66.8503C103.127 67.4406 102.639 67.7948 101.467 67.7948C100.557 67.7948 99.6088 67.4931 99.016 67.0733L98.489 68.0703C99.0687 68.5294 100.215 68.8836 101.374 68.8836ZM108.963 68.8836C111.058 68.8836 112.586 67.4012 112.586 65.3285C112.586 63.2557 111.058 61.7865 108.963 61.7865C106.868 61.7865 105.327 63.2557 105.327 65.3285C105.327 67.4012 106.868 68.8836 108.963 68.8836ZM108.963 67.7817C107.619 67.7817 106.605 66.8109 106.605 65.3285C106.605 63.8461 107.619 62.8884 108.963 62.8884C110.307 62.8884 111.308 63.8461 111.308 65.3285C111.308 66.8109 110.307 67.7817 108.963 67.7817ZM123.071 61.7865C121.885 61.7865 120.91 62.285 120.383 63.0721C119.922 62.2063 119.026 61.7865 117.959 61.7865C116.905 61.7865 116.048 62.18 115.548 62.8884V61.8521H114.336V68.8049H115.6V65.2235C115.6 63.7149 116.431 62.9147 117.695 62.9147C118.842 62.9147 119.5 63.5837 119.5 64.9481V68.8049H120.765V65.2235C120.765 63.7149 121.595 62.9147 122.86 62.9147C124.006 62.9147 124.665 63.5837 124.665 64.9481V68.8049H125.93V64.8037C125.93 62.7572 124.77 61.7865 123.071 61.7865ZM134.606 65.3678C134.606 63.2295 133.17 61.7865 131.154 61.7865C129.139 61.7865 127.65 63.2689 127.65 65.3285C127.65 67.4012 129.152 68.8836 131.405 68.8836C132.564 68.8836 133.526 68.4901 134.158 67.7554L133.46 66.9421C132.946 67.5062 132.261 67.7817 131.444 67.7817C130.061 67.7817 129.073 66.9683 128.915 65.7483H134.58C134.593 65.6302 134.606 65.4728 134.606 65.3678ZM131.154 62.8491C132.38 62.8491 133.262 63.6755 133.394 64.8431H128.915C129.046 63.6624 129.942 62.8491 131.154 62.8491ZM136.428 65.9057H137.429L137.68 59.6219H136.191L136.428 65.9057ZM136.942 68.8836C137.429 68.8836 137.785 68.5032 137.785 68.0441C137.785 67.5718 137.429 67.2045 136.942 67.2045C136.441 67.2045 136.072 67.5718 136.072 68.0441C136.072 68.5032 136.441 68.8836 136.942 68.8836Z" fill="#504F4F"/>
<path d="M14.718 34.813H10.688L9.81996 36.7371H9.02429L12.331 29.5347H13.0853L16.392 36.7371H15.586L14.718 34.813ZM14.439 34.1957L12.703 30.3269L10.967 34.1957H14.439ZM30.2235 29.5347L27.7847 36.7371H26.9788L24.8605 30.5945L22.7317 36.7371H21.9361L19.4974 29.5347H20.2827L22.3701 35.7288L24.5298 29.5347H25.2428L27.3714 35.7597L29.4898 29.5347H30.2235ZM35.7894 34.2574H31.2428C31.2841 34.8199 31.5011 35.276 31.8938 35.6259C32.2865 35.9688 32.7824 36.1403 33.3818 36.1403C33.7193 36.1403 34.0293 36.082 34.3118 35.9654C34.5942 35.8419 34.8388 35.6636 35.0455 35.4304L35.4588 35.9037C35.2177 36.1918 34.9146 36.4113 34.5494 36.5622C34.1912 36.7131 33.7951 36.7885 33.3611 36.7885C32.8031 36.7885 32.3071 36.6719 31.8731 36.4387C31.446 36.1986 31.1119 35.8694 30.8707 35.4509C30.6296 35.0325 30.5091 34.5592 30.5091 34.0311C30.5091 33.5029 30.6227 33.0296 30.8501 32.6112C31.0843 32.1927 31.4012 31.8669 31.8007 31.6337C32.2072 31.4005 32.6619 31.2839 33.1648 31.2839C33.6677 31.2839 34.1189 31.4005 34.5185 31.6337C34.918 31.8669 35.2315 32.1927 35.4588 32.6112C35.6861 33.0228 35.7998 33.496 35.7998 34.0311L35.7894 34.2574ZM33.1648 31.9115C32.6412 31.9115 32.2003 32.0795 31.8421 32.4157C31.4908 32.7449 31.291 33.177 31.2428 33.7121H35.0972C35.0489 33.177 34.8457 32.7449 34.4874 32.4157C34.1361 32.0795 33.6952 31.9115 33.1648 31.9115ZM37.2931 29.1025H38.0268V36.7371H37.2931V29.1025ZM40.0682 29.1025H40.8019V36.7371H40.0682V29.1025ZM55.6332 29.5347L53.1945 36.7371H52.3885L50.2701 30.5945L48.1415 36.7371H47.3458L44.9071 29.5347H45.6924L47.7798 35.7288L49.9395 29.5347H50.6525L52.7811 35.7597L54.8995 29.5347H55.6332ZM56.8499 31.3251H57.5836V36.7371H56.8499V31.3251ZM57.222 30.1418C57.0704 30.1418 56.943 30.0903 56.8396 29.9875C56.7362 29.8846 56.6846 29.7611 56.6846 29.617C56.6846 29.4798 56.7362 29.3598 56.8396 29.2569C56.943 29.154 57.0704 29.1025 57.222 29.1025C57.3735 29.1025 57.5009 29.154 57.6043 29.2569C57.7076 29.353 57.7593 29.4696 57.7593 29.6067C57.7593 29.7577 57.7076 29.8846 57.6043 29.9875C57.5009 30.0903 57.3735 30.1418 57.222 30.1418ZM61.0821 36.7885C60.6411 36.7885 60.2175 36.7268 59.811 36.6033C59.4114 36.473 59.098 36.3118 58.8707 36.1198L59.2014 35.5436C59.4287 35.7219 59.7146 35.8694 60.059 35.986C60.4035 36.0957 60.7617 36.1506 61.1337 36.1506C61.6297 36.1506 61.9948 36.0752 62.229 35.9242C62.4702 35.7665 62.5908 35.547 62.5908 35.2657C62.5908 35.0669 62.5252 34.9125 62.3944 34.8027C62.2635 34.6861 62.0982 34.6004 61.8984 34.5455C61.6986 34.4838 61.4334 34.4255 61.1027 34.3706C60.6618 34.2883 60.3071 34.206 60.0384 34.1237C59.7697 34.0345 59.5389 33.887 59.346 33.6812C59.16 33.4754 59.067 33.1908 59.067 32.8272C59.067 32.3745 59.2565 32.0041 59.6354 31.716C60.0143 31.4279 60.5413 31.2839 61.2164 31.2839C61.5677 31.2839 61.919 31.3319 62.2704 31.4279C62.6217 31.5171 62.9111 31.6371 63.1384 31.788L62.818 32.3745C62.3703 32.0658 61.8364 31.9115 61.2164 31.9115C60.7479 31.9115 60.3931 31.9938 60.152 32.1585C59.9178 32.3231 59.8007 32.5391 59.8007 32.8067C59.8007 33.0124 59.8661 33.177 59.997 33.3005C60.1348 33.424 60.3036 33.5166 60.5034 33.5783C60.7031 33.6332 60.9787 33.6915 61.33 33.7532C61.764 33.8356 62.1119 33.9179 62.3737 34.0002C62.6355 34.0825 62.8594 34.2231 63.0454 34.4221C63.2314 34.621 63.3244 34.8954 63.3244 35.2452C63.3244 35.7185 63.1246 36.0957 62.7251 36.377C62.3324 36.6514 61.7847 36.7885 61.0821 36.7885ZM67.4501 31.2839C68.1321 31.2839 68.6729 31.4828 69.0725 31.8806C69.4789 32.2716 69.6821 32.8444 69.6821 33.599V36.7371H68.9485V33.671C68.9485 33.1085 68.8072 32.6798 68.5247 32.3848C68.2424 32.0899 67.8394 31.9424 67.3158 31.9424C66.7302 31.9424 66.2652 32.1173 65.9208 32.4671C65.5832 32.8101 65.4144 33.2868 65.4144 33.8973V36.7371H64.6808V29.1025H65.4144V32.2716C65.6142 31.9561 65.8897 31.7126 66.2411 31.5411C66.5924 31.3696 66.9954 31.2839 67.4501 31.2839ZM76.4268 34.2574H71.8802C71.9215 34.8199 72.1385 35.276 72.5312 35.6259C72.9238 35.9688 73.4198 36.1403 74.0191 36.1403C74.3567 36.1403 74.6667 36.082 74.9492 35.9654C75.2316 35.8419 75.4762 35.6636 75.6829 35.4304L76.0962 35.9037C75.8551 36.1918 75.552 36.4113 75.1868 36.5622C74.8286 36.7131 74.4325 36.7885 73.9985 36.7885C73.4405 36.7885 72.9445 36.6719 72.5105 36.4387C72.0833 36.1986 71.7493 35.8694 71.5081 35.4509C71.267 35.0325 71.1464 34.5592 71.1464 34.0311C71.1464 33.5029 71.2601 33.0296 71.4875 32.6112C71.7217 32.1927 72.0386 31.8669 72.4381 31.6337C72.8446 31.4005 73.2993 31.2839 73.8022 31.2839C74.305 31.2839 74.7563 31.4005 75.1559 31.6337C75.5554 31.8669 75.8688 32.1927 76.0962 32.6112C76.3235 33.0228 76.4372 33.496 76.4372 34.0311L76.4268 34.2574ZM73.8022 31.9115C73.2786 31.9115 72.8377 32.0795 72.4795 32.4157C72.1281 32.7449 71.9284 33.177 71.8802 33.7121H75.7345C75.6863 33.177 75.483 32.7449 75.1248 32.4157C74.7735 32.0795 74.3326 31.9115 73.8022 31.9115ZM78.6332 32.3848C78.8054 32.0212 79.0603 31.7469 79.3979 31.5617C79.7423 31.3764 80.166 31.2839 80.6689 31.2839V31.9938L80.4932 31.9835C79.9214 31.9835 79.4736 32.1585 79.1499 32.5083C78.8261 32.8581 78.6642 33.3485 78.6642 33.9796V36.7371H77.9305V31.3251H78.6332V32.3848Z" fill="#504F4F"/>
<path d="M155.781 69.966V75.0677H155.056V70.6001H153.9V69.966H155.781ZM160.502 74.4336V75.0677H156.821V74.5721L158.907 72.5679C159.161 72.325 159.331 72.116 159.419 71.9411C159.507 71.7613 159.551 71.5816 159.551 71.4018C159.551 71.1345 159.456 70.9281 159.265 70.7823C159.08 70.6316 158.812 70.5564 158.46 70.5564C157.895 70.5564 157.458 70.741 157.15 71.1103L156.653 70.6803C156.852 70.4373 157.114 70.2479 157.436 70.1118C157.763 69.9757 158.126 69.9077 158.526 69.9077C159.063 69.9077 159.49 70.0365 159.807 70.294C160.124 70.5467 160.283 70.8916 160.283 71.3289C160.283 71.601 160.224 71.8585 160.107 72.1014C159.99 72.3444 159.768 72.6213 159.441 72.9323L157.875 74.4336H160.502ZM161.587 72.167C161.451 72.167 161.334 72.1209 161.236 72.0286C161.138 71.9314 161.089 71.8099 161.089 71.6642C161.089 71.5233 161.138 71.4067 161.236 71.3143C161.334 71.2172 161.451 71.1686 161.587 71.1686C161.724 71.1686 161.839 71.2147 161.931 71.307C162.024 71.3994 162.07 71.5184 162.07 71.6642C162.07 71.8099 162.022 71.9314 161.924 72.0286C161.832 72.1209 161.719 72.167 161.587 72.167ZM161.587 75.1114C161.451 75.1114 161.334 75.0655 161.236 74.973C161.138 74.876 161.089 74.7543 161.089 74.6086C161.089 74.4679 161.138 74.3513 161.236 74.2587C161.334 74.1618 161.451 74.113 161.587 74.113C161.724 74.113 161.839 74.1589 161.931 74.2514C162.024 74.344 162.07 74.4628 162.07 74.6086C162.07 74.7543 162.022 74.876 161.924 74.973C161.832 75.0655 161.719 75.1114 161.587 75.1114ZM164.724 72.1087C165.227 72.1573 165.61 72.3128 165.873 72.5752C166.137 72.8327 166.268 73.1633 166.268 73.5664C166.268 73.8579 166.195 74.1224 166.049 74.3608C165.902 74.594 165.683 74.7813 165.39 74.922C165.102 75.0582 164.748 75.126 164.329 75.126C163.963 75.126 163.612 75.0728 163.275 74.9657C162.938 74.8542 162.662 74.7011 162.448 74.5065L162.785 73.9308C162.96 74.0962 163.185 74.2296 163.458 74.3316C163.731 74.4285 164.021 74.4774 164.329 74.4774C164.709 74.4774 165.004 74.3972 165.214 74.2369C165.429 74.0765 165.536 73.8557 165.536 73.5736C165.536 73.2916 165.432 73.073 165.222 72.9177C165.012 72.7623 164.695 72.6845 164.27 72.6845H163.86V72.1743L165.149 70.6001H162.682V69.966H166.063V70.4616L164.724 72.1087ZM171.409 73.8142H170.435V75.0677H169.725V73.8142H166.878V73.304L169.498 69.966H170.289L167.778 73.1874H169.747V72.0796H170.435V73.1874H171.409V73.8142Z" fill="#BEBEBE"/>
<path d="M154.248 27.4075V55.5715" stroke="#556080" stroke-width="3.52941" stroke-miterlimit="10"/>
<path d="M154.043 27.4074C161.628 27.4074 167.776 21.2855 167.776 13.7337C167.776 6.18179 161.628 0.0598145 154.043 0.0598145C146.459 0.0598145 140.31 6.18179 140.31 13.7337C140.31 21.2855 146.459 27.4074 154.043 27.4074Z" fill="#DD352E"/>
<path d="M149.124 12.7134C150.822 12.7134 152.198 11.3428 152.198 9.65214C152.198 7.96143 150.822 6.59082 149.124 6.59082C147.426 6.59082 146.05 7.96143 146.05 9.65214C146.05 11.3428 147.426 12.7134 149.124 12.7134Z" fill="#F76363"/>
</svg>
