<svg width="223" height="262" viewBox="0 0 223 262" fill="none" xmlns="http://www.w3.org/2000/svg">
<path d="M3.10938 208V196.578H4.4375V208H3.10938ZM10.1484 207.086C10.3776 207.086 10.599 207.07 10.8125 207.039C11.026 207.003 11.1953 206.966 11.3203 206.93V207.922C11.1797 207.99 10.9714 208.044 10.6953 208.086C10.4245 208.133 10.1797 208.156 9.96094 208.156C8.30469 208.156 7.47656 207.284 7.47656 205.539V200.445H6.25V199.82L7.47656 199.281L8.02344 197.453H8.77344V199.438H11.2578V200.445H8.77344V205.484C8.77344 206 8.89583 206.396 9.14062 206.672C9.38542 206.948 9.72135 207.086 10.1484 207.086ZM14.0781 196.578L14.1953 196.75C14.0599 197.271 13.8646 197.878 13.6094 198.57C13.3542 199.258 13.0885 199.898 12.8125 200.492H11.8594C12.224 199.008 12.4896 197.703 12.6562 196.578H14.0781ZM21.2812 205.664C21.2812 206.461 20.9844 207.076 20.3906 207.508C19.7969 207.94 18.9635 208.156 17.8906 208.156C16.7552 208.156 15.8698 207.977 15.2344 207.617V206.414C15.6458 206.622 16.0859 206.786 16.5547 206.906C17.0286 207.026 17.4844 207.086 17.9219 207.086C18.599 207.086 19.1198 206.979 19.4844 206.766C19.849 206.547 20.0312 206.216 20.0312 205.773C20.0312 205.44 19.8854 205.156 19.5938 204.922C19.3073 204.682 18.7448 204.401 17.9062 204.078C17.1094 203.781 16.5417 203.523 16.2031 203.305C15.8698 203.081 15.6198 202.828 15.4531 202.547C15.2917 202.266 15.2109 201.93 15.2109 201.539C15.2109 200.841 15.4948 200.292 16.0625 199.891C16.6302 199.484 17.4089 199.281 18.3984 199.281C19.3203 199.281 20.2214 199.469 21.1016 199.844L20.6406 200.898C19.7812 200.544 19.0026 200.367 18.3047 200.367C17.6901 200.367 17.2266 200.464 16.9141 200.656C16.6016 200.849 16.4453 201.115 16.4453 201.453C16.4453 201.682 16.5026 201.878 16.6172 202.039C16.737 202.201 16.9271 202.354 17.1875 202.5C17.4479 202.646 17.9479 202.857 18.6875 203.133C19.7031 203.503 20.388 203.875 20.7422 204.25C21.1016 204.625 21.2812 205.096 21.2812 205.664ZM31.1719 208.156C29.9062 208.156 28.9062 207.771 28.1719 207C27.4427 206.229 27.0781 205.159 27.0781 203.789C27.0781 202.409 27.4167 201.312 28.0938 200.5C28.776 199.688 29.6901 199.281 30.8359 199.281C31.9089 199.281 32.7578 199.635 33.3828 200.344C34.0078 201.047 34.3203 201.977 34.3203 203.133V203.953H28.4219C28.4479 204.958 28.7005 205.721 29.1797 206.242C29.6641 206.763 30.3438 207.023 31.2188 207.023C32.1406 207.023 33.0521 206.831 33.9531 206.445V207.602C33.4948 207.799 33.0599 207.94 32.6484 208.023C32.2422 208.112 31.75 208.156 31.1719 208.156ZM30.8203 200.367C30.1328 200.367 29.5833 200.591 29.1719 201.039C28.7656 201.487 28.526 202.107 28.4531 202.898H32.9297C32.9297 202.081 32.7474 201.456 32.3828 201.023C32.0182 200.586 31.4974 200.367 30.8203 200.367ZM41.8047 208L41.5469 206.781H41.4844C41.0573 207.318 40.6302 207.682 40.2031 207.875C39.7812 208.062 39.2526 208.156 38.6172 208.156C37.7682 208.156 37.1016 207.938 36.6172 207.5C36.138 207.062 35.8984 206.44 35.8984 205.633C35.8984 203.904 37.2812 202.997 40.0469 202.914L41.5 202.867V202.336C41.5 201.664 41.3542 201.169 41.0625 200.852C40.776 200.529 40.3151 200.367 39.6797 200.367C38.9661 200.367 38.1589 200.586 37.2578 201.023L36.8594 200.031C37.2812 199.802 37.7422 199.622 38.2422 199.492C38.7474 199.362 39.2526 199.297 39.7578 199.297C40.7786 199.297 41.5339 199.523 42.0234 199.977C42.5182 200.43 42.7656 201.156 42.7656 202.156V208H41.8047ZM38.875 207.086C39.6823 207.086 40.3151 206.865 40.7734 206.422C41.237 205.979 41.4688 205.359 41.4688 204.562V203.789L40.1719 203.844C39.1406 203.88 38.3958 204.042 37.9375 204.328C37.4844 204.609 37.2578 205.049 37.2578 205.648C37.2578 206.117 37.3984 206.474 37.6797 206.719C37.9661 206.964 38.3646 207.086 38.875 207.086ZM50.9688 205.664C50.9688 206.461 50.6719 207.076 50.0781 207.508C49.4844 207.94 48.651 208.156 47.5781 208.156C46.4427 208.156 45.5573 207.977 44.9219 207.617V206.414C45.3333 206.622 45.7734 206.786 46.2422 206.906C46.7161 207.026 47.1719 207.086 47.6094 207.086C48.2865 207.086 48.8073 206.979 49.1719 206.766C49.5365 206.547 49.7188 206.216 49.7188 205.773C49.7188 205.44 49.5729 205.156 49.2812 204.922C48.9948 204.682 48.4323 204.401 47.5938 204.078C46.7969 203.781 46.2292 203.523 45.8906 203.305C45.5573 203.081 45.3073 202.828 45.1406 202.547C44.9792 202.266 44.8984 201.93 44.8984 201.539C44.8984 200.841 45.1823 200.292 45.75 199.891C46.3177 199.484 47.0964 199.281 48.0859 199.281C49.0078 199.281 49.9089 199.469 50.7891 199.844L50.3281 200.898C49.4688 200.544 48.6901 200.367 47.9922 200.367C47.3776 200.367 46.9141 200.464 46.6016 200.656C46.2891 200.849 46.1328 201.115 46.1328 201.453C46.1328 201.682 46.1901 201.878 46.3047 202.039C46.4245 202.201 46.6146 202.354 46.875 202.5C47.1354 202.646 47.6354 202.857 48.375 203.133C49.3906 203.503 50.0755 203.875 50.4297 204.25C50.7891 204.625 50.9688 205.096 50.9688 205.664ZM54.3828 208H53.0859V199.438H54.3828V208ZM52.9766 197.117C52.9766 196.82 53.0495 196.604 53.1953 196.469C53.3411 196.328 53.5234 196.258 53.7422 196.258C53.9505 196.258 54.1302 196.328 54.2812 196.469C54.4323 196.609 54.5078 196.826 54.5078 197.117C54.5078 197.409 54.4323 197.628 54.2812 197.773C54.1302 197.914 53.9505 197.984 53.7422 197.984C53.5234 197.984 53.3411 197.914 53.1953 197.773C53.0495 197.628 52.9766 197.409 52.9766 197.117ZM60.75 208.156C59.4844 208.156 58.4844 207.771 57.75 207C57.0208 206.229 56.6562 205.159 56.6562 203.789C56.6562 202.409 56.9948 201.312 57.6719 200.5C58.3542 199.688 59.2682 199.281 60.4141 199.281C61.487 199.281 62.3359 199.635 62.9609 200.344C63.5859 201.047 63.8984 201.977 63.8984 203.133V203.953H58C58.026 204.958 58.2786 205.721 58.7578 206.242C59.2422 206.763 59.9219 207.023 60.7969 207.023C61.7188 207.023 62.6302 206.831 63.5312 206.445V207.602C63.0729 207.799 62.638 207.94 62.2266 208.023C61.8203 208.112 61.3281 208.156 60.75 208.156ZM60.3984 200.367C59.7109 200.367 59.1615 200.591 58.75 201.039C58.3438 201.487 58.1042 202.107 58.0312 202.898H62.5078C62.5078 202.081 62.3255 201.456 61.9609 201.023C61.5964 200.586 61.0755 200.367 60.3984 200.367ZM70.0234 199.281C70.4036 199.281 70.7448 199.312 71.0469 199.375L70.8672 200.578C70.513 200.5 70.2005 200.461 69.9297 200.461C69.237 200.461 68.6432 200.742 68.1484 201.305C67.6589 201.867 67.4141 202.568 67.4141 203.406V208H66.1172V199.438H67.1875L67.3359 201.023H67.3984C67.7161 200.466 68.099 200.036 68.5469 199.734C68.9948 199.432 69.487 199.281 70.0234 199.281ZM79.5703 207.086C79.7995 207.086 80.0208 207.07 80.2344 207.039C80.4479 207.003 80.6172 206.966 80.7422 206.93V207.922C80.6016 207.99 80.3932 208.044 80.1172 208.086C79.8464 208.133 79.6016 208.156 79.3828 208.156C77.7266 208.156 76.8984 207.284 76.8984 205.539V200.445H75.6719V199.82L76.8984 199.281L77.4453 197.453H78.1953V199.438H80.6797V200.445H78.1953V205.484C78.1953 206 78.3177 206.396 78.5625 206.672C78.8073 206.948 79.1432 207.086 79.5703 207.086ZM89.8516 203.711C89.8516 205.107 89.5 206.198 88.7969 206.984C88.0938 207.766 87.1224 208.156 85.8828 208.156C85.1172 208.156 84.4375 207.977 83.8438 207.617C83.25 207.258 82.7917 206.742 82.4688 206.07C82.1458 205.398 81.9844 204.612 81.9844 203.711C81.9844 202.315 82.3333 201.229 83.0312 200.453C83.7292 199.672 84.6979 199.281 85.9375 199.281C87.1354 199.281 88.0859 199.68 88.7891 200.477C89.4974 201.273 89.8516 202.352 89.8516 203.711ZM83.3281 203.711C83.3281 204.805 83.5469 205.638 83.9844 206.211C84.4219 206.784 85.0651 207.07 85.9141 207.07C86.763 207.07 87.4062 206.786 87.8438 206.219C88.2865 205.646 88.5078 204.81 88.5078 203.711C88.5078 202.622 88.2865 201.797 87.8438 201.234C87.4062 200.667 86.7578 200.383 85.8984 200.383C85.0495 200.383 84.4089 200.661 83.9766 201.219C83.5443 201.776 83.3281 202.607 83.3281 203.711ZM100.273 208.156C99.7161 208.156 99.2057 208.055 98.7422 207.852C98.2839 207.643 97.8984 207.326 97.5859 206.898H97.4922C97.5547 207.398 97.5859 207.872 97.5859 208.32V211.844H96.2891V199.438H97.3438L97.5234 200.609H97.5859C97.9193 200.141 98.3073 199.802 98.75 199.594C99.1927 199.385 99.7005 199.281 100.273 199.281C101.409 199.281 102.284 199.669 102.898 200.445C103.518 201.221 103.828 202.31 103.828 203.711C103.828 205.117 103.513 206.211 102.883 206.992C102.258 207.768 101.388 208.156 100.273 208.156ZM100.086 200.383C99.2109 200.383 98.5781 200.625 98.1875 201.109C97.7969 201.594 97.5964 202.365 97.5859 203.422V203.711C97.5859 204.914 97.7865 205.776 98.1875 206.297C98.5885 206.812 99.2318 207.07 100.117 207.07C100.857 207.07 101.435 206.771 101.852 206.172C102.273 205.573 102.484 204.747 102.484 203.695C102.484 202.628 102.273 201.81 101.852 201.242C101.435 200.669 100.846 200.383 100.086 200.383ZM107.398 208H106.102V195.844H107.398V208ZM115.414 208L115.156 206.781H115.094C114.667 207.318 114.24 207.682 113.812 207.875C113.391 208.062 112.862 208.156 112.227 208.156C111.378 208.156 110.711 207.938 110.227 207.5C109.747 207.062 109.508 206.44 109.508 205.633C109.508 203.904 110.891 202.997 113.656 202.914L115.109 202.867V202.336C115.109 201.664 114.964 201.169 114.672 200.852C114.385 200.529 113.924 200.367 113.289 200.367C112.576 200.367 111.768 200.586 110.867 201.023L110.469 200.031C110.891 199.802 111.352 199.622 111.852 199.492C112.357 199.362 112.862 199.297 113.367 199.297C114.388 199.297 115.143 199.523 115.633 199.977C116.128 200.43 116.375 201.156 116.375 202.156V208H115.414ZM112.484 207.086C113.292 207.086 113.924 206.865 114.383 206.422C114.846 205.979 115.078 205.359 115.078 204.562V203.789L113.781 203.844C112.75 203.88 112.005 204.042 111.547 204.328C111.094 204.609 110.867 205.049 110.867 205.648C110.867 206.117 111.008 206.474 111.289 206.719C111.576 206.964 111.974 207.086 112.484 207.086ZM124.914 208V202.461C124.914 201.763 124.755 201.242 124.438 200.898C124.12 200.555 123.622 200.383 122.945 200.383C122.049 200.383 121.393 200.625 120.977 201.109C120.56 201.594 120.352 202.393 120.352 203.508V208H119.055V199.438H120.109L120.32 200.609H120.383C120.648 200.188 121.021 199.862 121.5 199.633C121.979 199.398 122.513 199.281 123.102 199.281C124.133 199.281 124.909 199.531 125.43 200.031C125.951 200.526 126.211 201.32 126.211 202.414V208H124.914ZM140.43 203.711C140.43 205.107 140.078 206.198 139.375 206.984C138.672 207.766 137.701 208.156 136.461 208.156C135.695 208.156 135.016 207.977 134.422 207.617C133.828 207.258 133.37 206.742 133.047 206.07C132.724 205.398 132.562 204.612 132.562 203.711C132.562 202.315 132.911 201.229 133.609 200.453C134.307 199.672 135.276 199.281 136.516 199.281C137.714 199.281 138.664 199.68 139.367 200.477C140.076 201.273 140.43 202.352 140.43 203.711ZM133.906 203.711C133.906 204.805 134.125 205.638 134.562 206.211C135 206.784 135.643 207.07 136.492 207.07C137.341 207.07 137.984 206.786 138.422 206.219C138.865 205.646 139.086 204.81 139.086 203.711C139.086 202.622 138.865 201.797 138.422 201.234C137.984 200.667 137.336 200.383 136.477 200.383C135.628 200.383 134.987 200.661 134.555 201.219C134.122 201.776 133.906 202.607 133.906 203.711ZM143.93 199.438V204.992C143.93 205.69 144.089 206.211 144.406 206.555C144.724 206.898 145.221 207.07 145.898 207.07C146.794 207.07 147.448 206.826 147.859 206.336C148.276 205.846 148.484 205.047 148.484 203.938V199.438H149.781V208H148.711L148.523 206.852H148.453C148.188 207.273 147.818 207.596 147.344 207.82C146.875 208.044 146.339 208.156 145.734 208.156C144.693 208.156 143.911 207.909 143.391 207.414C142.875 206.919 142.617 206.128 142.617 205.039V199.438H143.93ZM155.305 207.086C155.534 207.086 155.755 207.07 155.969 207.039C156.182 207.003 156.352 206.966 156.477 206.93V207.922C156.336 207.99 156.128 208.044 155.852 208.086C155.581 208.133 155.336 208.156 155.117 208.156C153.461 208.156 152.633 207.284 152.633 205.539V200.445H151.406V199.82L152.633 199.281L153.18 197.453H153.93V199.438H156.414V200.445H153.93V205.484C153.93 206 154.052 206.396 154.297 206.672C154.542 206.948 154.878 207.086 155.305 207.086ZM169.344 208L167.773 202.977C167.674 202.669 167.49 201.971 167.219 200.883H167.156C166.948 201.794 166.766 202.497 166.609 202.992L164.992 208H163.492L161.156 199.438H162.516C163.068 201.589 163.487 203.227 163.773 204.352C164.065 205.477 164.232 206.234 164.273 206.625H164.336C164.393 206.328 164.484 205.945 164.609 205.477C164.74 205.003 164.852 204.628 164.945 204.352L166.516 199.438H167.922L169.453 204.352C169.745 205.247 169.943 206 170.047 206.609H170.109C170.13 206.422 170.185 206.133 170.273 205.742C170.367 205.352 170.911 203.25 171.906 199.438H173.25L170.883 208H169.344ZM180.664 208V202.461C180.664 201.763 180.505 201.242 180.188 200.898C179.87 200.555 179.372 200.383 178.695 200.383C177.794 200.383 177.135 200.628 176.719 201.117C176.307 201.607 176.102 202.409 176.102 203.523V208H174.805V195.844H176.102V199.523C176.102 199.966 176.081 200.333 176.039 200.625H176.117C176.372 200.214 176.734 199.891 177.203 199.656C177.677 199.417 178.216 199.297 178.82 199.297C179.867 199.297 180.651 199.547 181.172 200.047C181.698 200.542 181.961 201.331 181.961 202.414V208H180.664ZM189.898 208L189.641 206.781H189.578C189.151 207.318 188.724 207.682 188.297 207.875C187.875 208.062 187.346 208.156 186.711 208.156C185.862 208.156 185.195 207.938 184.711 207.5C184.232 207.062 183.992 206.44 183.992 205.633C183.992 203.904 185.375 202.997 188.141 202.914L189.594 202.867V202.336C189.594 201.664 189.448 201.169 189.156 200.852C188.87 200.529 188.409 200.367 187.773 200.367C187.06 200.367 186.253 200.586 185.352 201.023L184.953 200.031C185.375 199.802 185.836 199.622 186.336 199.492C186.841 199.362 187.346 199.297 187.852 199.297C188.872 199.297 189.628 199.523 190.117 199.977C190.612 200.43 190.859 201.156 190.859 202.156V208H189.898ZM186.969 207.086C187.776 207.086 188.409 206.865 188.867 206.422C189.331 205.979 189.562 205.359 189.562 204.562V203.789L188.266 203.844C187.234 203.88 186.49 204.042 186.031 204.328C185.578 204.609 185.352 205.049 185.352 205.648C185.352 206.117 185.492 206.474 185.773 206.719C186.06 206.964 186.458 207.086 186.969 207.086ZM196.305 207.086C196.534 207.086 196.755 207.07 196.969 207.039C197.182 207.003 197.352 206.966 197.477 206.93V207.922C197.336 207.99 197.128 208.044 196.852 208.086C196.581 208.133 196.336 208.156 196.117 208.156C194.461 208.156 193.633 207.284 193.633 205.539V200.445H192.406V199.82L193.633 199.281L194.18 197.453H194.93V199.438H197.414V200.445H194.93V205.484C194.93 206 195.052 206.396 195.297 206.672C195.542 206.948 195.878 207.086 196.305 207.086ZM209.18 206.852H209.109C208.51 207.721 207.615 208.156 206.422 208.156C205.302 208.156 204.43 207.773 203.805 207.008C203.185 206.242 202.875 205.154 202.875 203.742C202.875 202.331 203.188 201.234 203.812 200.453C204.438 199.672 205.307 199.281 206.422 199.281C207.583 199.281 208.474 199.703 209.094 200.547H209.195L209.141 199.93L209.109 199.328V195.844H210.406V208H209.352L209.18 206.852ZM206.586 207.07C207.471 207.07 208.112 206.831 208.508 206.352C208.909 205.867 209.109 205.089 209.109 204.016V203.742C209.109 202.529 208.906 201.664 208.5 201.148C208.099 200.628 207.456 200.367 206.57 200.367C205.81 200.367 205.227 200.664 204.82 201.258C204.419 201.846 204.219 202.68 204.219 203.758C204.219 204.852 204.419 205.677 204.82 206.234C205.221 206.792 205.81 207.07 206.586 207.07ZM220.555 203.711C220.555 205.107 220.203 206.198 219.5 206.984C218.797 207.766 217.826 208.156 216.586 208.156C215.82 208.156 215.141 207.977 214.547 207.617C213.953 207.258 213.495 206.742 213.172 206.07C212.849 205.398 212.688 204.612 212.688 203.711C212.688 202.315 213.036 201.229 213.734 200.453C214.432 199.672 215.401 199.281 216.641 199.281C217.839 199.281 218.789 199.68 219.492 200.477C220.201 201.273 220.555 202.352 220.555 203.711ZM214.031 203.711C214.031 204.805 214.25 205.638 214.688 206.211C215.125 206.784 215.768 207.07 216.617 207.07C217.466 207.07 218.109 206.786 218.547 206.219C218.99 205.646 219.211 204.81 219.211 203.711C219.211 202.622 218.99 201.797 218.547 201.234C218.109 200.667 217.461 200.383 216.602 200.383C215.753 200.383 215.112 200.661 214.68 201.219C214.247 201.776 214.031 202.607 214.031 203.711ZM20.3984 223.438H21.7891L23.6641 228.32C24.0755 229.435 24.3307 230.24 24.4297 230.734H24.4922C24.5599 230.469 24.7005 230.016 24.9141 229.375C25.1328 228.729 25.8411 226.75 27.0391 223.438H28.4297L24.75 233.188C24.3854 234.151 23.9583 234.833 23.4688 235.234C22.9844 235.641 22.388 235.844 21.6797 235.844C21.2839 235.844 20.8932 235.799 20.5078 235.711V234.672C20.7943 234.734 21.1146 234.766 21.4688 234.766C22.3594 234.766 22.9948 234.266 23.375 233.266L23.8516 232.047L20.3984 223.438ZM37.2109 227.711C37.2109 229.107 36.8594 230.198 36.1562 230.984C35.4531 231.766 34.4818 232.156 33.2422 232.156C32.4766 232.156 31.7969 231.977 31.2031 231.617C30.6094 231.258 30.151 230.742 29.8281 230.07C29.5052 229.398 29.3438 228.612 29.3438 227.711C29.3438 226.315 29.6927 225.229 30.3906 224.453C31.0885 223.672 32.0573 223.281 33.2969 223.281C34.4948 223.281 35.4453 223.68 36.1484 224.477C36.8568 225.273 37.2109 226.352 37.2109 227.711ZM30.6875 227.711C30.6875 228.805 30.9062 229.638 31.3438 230.211C31.7812 230.784 32.4245 231.07 33.2734 231.07C34.1224 231.07 34.7656 230.786 35.2031 230.219C35.6458 229.646 35.8672 228.81 35.8672 227.711C35.8672 226.622 35.6458 225.797 35.2031 225.234C34.7656 224.667 34.1172 224.383 33.2578 224.383C32.4089 224.383 31.7682 224.661 31.3359 225.219C30.9036 225.776 30.6875 226.607 30.6875 227.711ZM40.7109 223.438V228.992C40.7109 229.69 40.8698 230.211 41.1875 230.555C41.5052 230.898 42.0026 231.07 42.6797 231.07C43.5755 231.07 44.2292 230.826 44.6406 230.336C45.0573 229.846 45.2656 229.047 45.2656 227.938V223.438H46.5625V232H45.4922L45.3047 230.852H45.2344C44.9688 231.273 44.599 231.596 44.125 231.82C43.6562 232.044 43.1198 232.156 42.5156 232.156C41.474 232.156 40.6927 231.909 40.1719 231.414C39.6562 230.919 39.3984 230.128 39.3984 229.039V223.438H40.7109ZM60.4688 232L58.8984 226.977C58.7995 226.669 58.6146 225.971 58.3438 224.883H58.2812C58.0729 225.794 57.8906 226.497 57.7344 226.992L56.1172 232H54.6172L52.2812 223.438H53.6406C54.1927 225.589 54.612 227.227 54.8984 228.352C55.1901 229.477 55.3568 230.234 55.3984 230.625H55.4609C55.5182 230.328 55.6094 229.945 55.7344 229.477C55.8646 229.003 55.9766 228.628 56.0703 228.352L57.6406 223.438H59.0469L60.5781 228.352C60.8698 229.247 61.0677 230 61.1719 230.609H61.2344C61.2552 230.422 61.3099 230.133 61.3984 229.742C61.4922 229.352 62.0365 227.25 63.0312 223.438H64.375L62.0078 232H60.4688ZM71.1953 232L70.9375 230.781H70.875C70.4479 231.318 70.0208 231.682 69.5938 231.875C69.1719 232.062 68.6432 232.156 68.0078 232.156C67.1589 232.156 66.4922 231.938 66.0078 231.5C65.5286 231.062 65.2891 230.44 65.2891 229.633C65.2891 227.904 66.6719 226.997 69.4375 226.914L70.8906 226.867V226.336C70.8906 225.664 70.7448 225.169 70.4531 224.852C70.1667 224.529 69.7057 224.367 69.0703 224.367C68.3568 224.367 67.5495 224.586 66.6484 225.023L66.25 224.031C66.6719 223.802 67.1328 223.622 67.6328 223.492C68.138 223.362 68.6432 223.297 69.1484 223.297C70.1693 223.297 70.9245 223.523 71.4141 223.977C71.9089 224.43 72.1562 225.156 72.1562 226.156V232H71.1953ZM68.2656 231.086C69.0729 231.086 69.7057 230.865 70.1641 230.422C70.6276 229.979 70.8594 229.359 70.8594 228.562V227.789L69.5625 227.844C68.5312 227.88 67.7865 228.042 67.3281 228.328C66.875 228.609 66.6484 229.049 66.6484 229.648C66.6484 230.117 66.7891 230.474 67.0703 230.719C67.3568 230.964 67.7552 231.086 68.2656 231.086ZM80.6953 232V226.461C80.6953 225.763 80.5365 225.242 80.2188 224.898C79.901 224.555 79.4036 224.383 78.7266 224.383C77.8307 224.383 77.1745 224.625 76.7578 225.109C76.3411 225.594 76.1328 226.393 76.1328 227.508V232H74.8359V223.438H75.8906L76.1016 224.609H76.1641C76.4297 224.188 76.8021 223.862 77.2812 223.633C77.7604 223.398 78.2943 223.281 78.8828 223.281C79.9141 223.281 80.6901 223.531 81.2109 224.031C81.7318 224.526 81.9922 225.32 81.9922 226.414V232H80.6953ZM87.4297 231.086C87.6589 231.086 87.8802 231.07 88.0938 231.039C88.3073 231.003 88.4766 230.966 88.6016 230.93V231.922C88.4609 231.99 88.2526 232.044 87.9766 232.086C87.7057 232.133 87.4609 232.156 87.2422 232.156C85.5859 232.156 84.7578 231.284 84.7578 229.539V224.445H83.5312V223.82L84.7578 223.281L85.3047 221.453H86.0547V223.438H88.5391V224.445H86.0547V229.484C86.0547 230 86.1771 230.396 86.4219 230.672C86.6667 230.948 87.0026 231.086 87.4297 231.086ZM97.2422 231.086C97.4714 231.086 97.6927 231.07 97.9062 231.039C98.1198 231.003 98.2891 230.966 98.4141 230.93V231.922C98.2734 231.99 98.0651 232.044 97.7891 232.086C97.5182 232.133 97.2734 232.156 97.0547 232.156C95.3984 232.156 94.5703 231.284 94.5703 229.539V224.445H93.3438V223.82L94.5703 223.281L95.1172 221.453H95.8672V223.438H98.3516V224.445H95.8672V229.484C95.8672 230 95.9896 230.396 96.2344 230.672C96.4792 230.948 96.8151 231.086 97.2422 231.086ZM107.523 227.711C107.523 229.107 107.172 230.198 106.469 230.984C105.766 231.766 104.794 232.156 103.555 232.156C102.789 232.156 102.109 231.977 101.516 231.617C100.922 231.258 100.464 230.742 100.141 230.07C99.8177 229.398 99.6562 228.612 99.6562 227.711C99.6562 226.315 100.005 225.229 100.703 224.453C101.401 223.672 102.37 223.281 103.609 223.281C104.807 223.281 105.758 223.68 106.461 224.477C107.169 225.273 107.523 226.352 107.523 227.711ZM101 227.711C101 228.805 101.219 229.638 101.656 230.211C102.094 230.784 102.737 231.07 103.586 231.07C104.435 231.07 105.078 230.786 105.516 230.219C105.958 229.646 106.18 228.81 106.18 227.711C106.18 226.622 105.958 225.797 105.516 225.234C105.078 224.667 104.43 224.383 103.57 224.383C102.721 224.383 102.081 224.661 101.648 225.219C101.216 225.776 101 226.607 101 227.711ZM120.953 232L119.383 226.977C119.284 226.669 119.099 225.971 118.828 224.883H118.766C118.557 225.794 118.375 226.497 118.219 226.992L116.602 232H115.102L112.766 223.438H114.125C114.677 225.589 115.096 227.227 115.383 228.352C115.674 229.477 115.841 230.234 115.883 230.625H115.945C116.003 230.328 116.094 229.945 116.219 229.477C116.349 229.003 116.461 228.628 116.555 228.352L118.125 223.438H119.531L121.062 228.352C121.354 229.247 121.552 230 121.656 230.609H121.719C121.74 230.422 121.794 230.133 121.883 229.742C121.977 229.352 122.521 227.25 123.516 223.438H124.859L122.492 232H120.953ZM133.805 227.711C133.805 229.107 133.453 230.198 132.75 230.984C132.047 231.766 131.076 232.156 129.836 232.156C129.07 232.156 128.391 231.977 127.797 231.617C127.203 231.258 126.745 230.742 126.422 230.07C126.099 229.398 125.938 228.612 125.938 227.711C125.938 226.315 126.286 225.229 126.984 224.453C127.682 223.672 128.651 223.281 129.891 223.281C131.089 223.281 132.039 223.68 132.742 224.477C133.451 225.273 133.805 226.352 133.805 227.711ZM127.281 227.711C127.281 228.805 127.5 229.638 127.938 230.211C128.375 230.784 129.018 231.07 129.867 231.07C130.716 231.07 131.359 230.786 131.797 230.219C132.24 229.646 132.461 228.81 132.461 227.711C132.461 226.622 132.24 225.797 131.797 225.234C131.359 224.667 130.711 224.383 129.852 224.383C129.003 224.383 128.362 224.661 127.93 225.219C127.497 225.776 127.281 226.607 127.281 227.711ZM139.992 223.281C140.372 223.281 140.714 223.312 141.016 223.375L140.836 224.578C140.482 224.5 140.169 224.461 139.898 224.461C139.206 224.461 138.612 224.742 138.117 225.305C137.628 225.867 137.383 226.568 137.383 227.406V232H136.086V223.438H137.156L137.305 225.023H137.367C137.685 224.466 138.068 224.036 138.516 223.734C138.964 223.432 139.456 223.281 139.992 223.281ZM143.898 227.617C144.122 227.299 144.464 226.883 144.922 226.367L147.688 223.438H149.227L145.758 227.086L149.469 232H147.898L144.875 227.953L143.898 228.797V232H142.617V219.844H143.898V226.289C143.898 226.576 143.878 227.018 143.836 227.617H143.898ZM162.57 227.711C162.57 229.107 162.219 230.198 161.516 230.984C160.812 231.766 159.841 232.156 158.602 232.156C157.836 232.156 157.156 231.977 156.562 231.617C155.969 231.258 155.51 230.742 155.188 230.07C154.865 229.398 154.703 228.612 154.703 227.711C154.703 226.315 155.052 225.229 155.75 224.453C156.448 223.672 157.417 223.281 158.656 223.281C159.854 223.281 160.805 223.68 161.508 224.477C162.216 225.273 162.57 226.352 162.57 227.711ZM156.047 227.711C156.047 228.805 156.266 229.638 156.703 230.211C157.141 230.784 157.784 231.07 158.633 231.07C159.482 231.07 160.125 230.786 160.562 230.219C161.005 229.646 161.227 228.81 161.227 227.711C161.227 226.622 161.005 225.797 160.562 225.234C160.125 224.667 159.477 224.383 158.617 224.383C157.768 224.383 157.128 224.661 156.695 225.219C156.263 225.776 156.047 226.607 156.047 227.711ZM166.07 223.438V228.992C166.07 229.69 166.229 230.211 166.547 230.555C166.865 230.898 167.362 231.07 168.039 231.07C168.935 231.07 169.589 230.826 170 230.336C170.417 229.846 170.625 229.047 170.625 227.938V223.438H171.922V232H170.852L170.664 230.852H170.594C170.328 231.273 169.958 231.596 169.484 231.82C169.016 232.044 168.479 232.156 167.875 232.156C166.833 232.156 166.052 231.909 165.531 231.414C165.016 230.919 164.758 230.128 164.758 229.039V223.438H166.07ZM177.445 231.086C177.674 231.086 177.896 231.07 178.109 231.039C178.323 231.003 178.492 230.966 178.617 230.93V231.922C178.477 231.99 178.268 232.044 177.992 232.086C177.721 232.133 177.477 232.156 177.258 232.156C175.602 232.156 174.773 231.284 174.773 229.539V224.445H173.547V223.82L174.773 223.281L175.32 221.453H176.07V223.438H178.555V224.445H176.07V229.484C176.07 230 176.193 230.396 176.438 230.672C176.682 230.948 177.018 231.086 177.445 231.086ZM191.883 227.711C191.883 229.107 191.531 230.198 190.828 230.984C190.125 231.766 189.154 232.156 187.914 232.156C187.148 232.156 186.469 231.977 185.875 231.617C185.281 231.258 184.823 230.742 184.5 230.07C184.177 229.398 184.016 228.612 184.016 227.711C184.016 226.315 184.365 225.229 185.062 224.453C185.76 223.672 186.729 223.281 187.969 223.281C189.167 223.281 190.117 223.68 190.82 224.477C191.529 225.273 191.883 226.352 191.883 227.711ZM185.359 227.711C185.359 228.805 185.578 229.638 186.016 230.211C186.453 230.784 187.096 231.07 187.945 231.07C188.794 231.07 189.438 230.786 189.875 230.219C190.318 229.646 190.539 228.81 190.539 227.711C190.539 226.622 190.318 225.797 189.875 225.234C189.438 224.667 188.789 224.383 187.93 224.383C187.081 224.383 186.44 224.661 186.008 225.219C185.576 225.776 185.359 226.607 185.359 227.711ZM200.023 232V226.461C200.023 225.763 199.865 225.242 199.547 224.898C199.229 224.555 198.732 224.383 198.055 224.383C197.159 224.383 196.503 224.625 196.086 225.109C195.669 225.594 195.461 226.393 195.461 227.508V232H194.164V223.438H195.219L195.43 224.609H195.492C195.758 224.188 196.13 223.862 196.609 223.633C197.089 223.398 197.622 223.281 198.211 223.281C199.242 223.281 200.018 223.531 200.539 224.031C201.06 224.526 201.32 225.32 201.32 226.414V232H200.023ZM80.6719 256.156C79.4062 256.156 78.4062 255.771 77.6719 255C76.9427 254.229 76.5781 253.159 76.5781 251.789C76.5781 250.409 76.9167 249.312 77.5938 248.5C78.276 247.688 79.1901 247.281 80.3359 247.281C81.4089 247.281 82.2578 247.635 82.8828 248.344C83.5078 249.047 83.8203 249.977 83.8203 251.133V251.953H77.9219C77.9479 252.958 78.2005 253.721 78.6797 254.242C79.1641 254.763 79.8438 255.023 80.7188 255.023C81.6406 255.023 82.5521 254.831 83.4531 254.445V255.602C82.9948 255.799 82.5599 255.94 82.1484 256.023C81.7422 256.112 81.25 256.156 80.6719 256.156ZM80.3203 248.367C79.6328 248.367 79.0833 248.591 78.6719 249.039C78.2656 249.487 78.026 250.107 77.9531 250.898H82.4297C82.4297 250.081 82.2474 249.456 81.8828 249.023C81.5182 248.586 80.9974 248.367 80.3203 248.367ZM87.9141 256L84.6641 247.438H86.0547L87.8984 252.516C88.3151 253.703 88.5599 254.474 88.6328 254.828H88.6953C88.7526 254.552 88.9323 253.982 89.2344 253.117C89.5417 252.247 90.2266 250.354 91.2891 247.438H92.6797L89.4297 256H87.9141ZM97.6719 256.156C96.4062 256.156 95.4062 255.771 94.6719 255C93.9427 254.229 93.5781 253.159 93.5781 251.789C93.5781 250.409 93.9167 249.312 94.5938 248.5C95.276 247.688 96.1901 247.281 97.3359 247.281C98.4089 247.281 99.2578 247.635 99.8828 248.344C100.508 249.047 100.82 249.977 100.82 251.133V251.953H94.9219C94.9479 252.958 95.2005 253.721 95.6797 254.242C96.1641 254.763 96.8438 255.023 97.7188 255.023C98.6406 255.023 99.5521 254.831 100.453 254.445V255.602C99.9948 255.799 99.5599 255.94 99.1484 256.023C98.7422 256.112 98.25 256.156 97.6719 256.156ZM97.3203 248.367C96.6328 248.367 96.0833 248.591 95.6719 249.039C95.2656 249.487 95.026 250.107 94.9531 250.898H99.4297C99.4297 250.081 99.2474 249.456 98.8828 249.023C98.5182 248.586 97.9974 248.367 97.3203 248.367ZM106.945 247.281C107.326 247.281 107.667 247.312 107.969 247.375L107.789 248.578C107.435 248.5 107.122 248.461 106.852 248.461C106.159 248.461 105.565 248.742 105.07 249.305C104.581 249.867 104.336 250.568 104.336 251.406V256H103.039V247.438H104.109L104.258 249.023H104.32C104.638 248.466 105.021 248.036 105.469 247.734C105.917 247.432 106.409 247.281 106.945 247.281ZM108.211 247.438H109.602L111.477 252.32C111.888 253.435 112.143 254.24 112.242 254.734H112.305C112.372 254.469 112.513 254.016 112.727 253.375C112.945 252.729 113.654 250.75 114.852 247.438H116.242L112.562 257.188C112.198 258.151 111.771 258.833 111.281 259.234C110.797 259.641 110.201 259.844 109.492 259.844C109.096 259.844 108.706 259.799 108.32 259.711V258.672C108.607 258.734 108.927 258.766 109.281 258.766C110.172 258.766 110.807 258.266 111.188 257.266L111.664 256.047L108.211 247.438ZM123.461 254.852H123.391C122.792 255.721 121.896 256.156 120.703 256.156C119.583 256.156 118.711 255.773 118.086 255.008C117.466 254.242 117.156 253.154 117.156 251.742C117.156 250.331 117.469 249.234 118.094 248.453C118.719 247.672 119.589 247.281 120.703 247.281C121.865 247.281 122.755 247.703 123.375 248.547H123.477L123.422 247.93L123.391 247.328V243.844H124.688V256H123.633L123.461 254.852ZM120.867 255.07C121.753 255.07 122.393 254.831 122.789 254.352C123.19 253.867 123.391 253.089 123.391 252.016V251.742C123.391 250.529 123.188 249.664 122.781 249.148C122.38 248.628 121.737 248.367 120.852 248.367C120.091 248.367 119.508 248.664 119.102 249.258C118.701 249.846 118.5 250.68 118.5 251.758C118.5 252.852 118.701 253.677 119.102 254.234C119.503 254.792 120.091 255.07 120.867 255.07ZM132.711 256L132.453 254.781H132.391C131.964 255.318 131.536 255.682 131.109 255.875C130.688 256.062 130.159 256.156 129.523 256.156C128.674 256.156 128.008 255.938 127.523 255.5C127.044 255.062 126.805 254.44 126.805 253.633C126.805 251.904 128.188 250.997 130.953 250.914L132.406 250.867V250.336C132.406 249.664 132.26 249.169 131.969 248.852C131.682 248.529 131.221 248.367 130.586 248.367C129.872 248.367 129.065 248.586 128.164 249.023L127.766 248.031C128.188 247.802 128.648 247.622 129.148 247.492C129.654 247.362 130.159 247.297 130.664 247.297C131.685 247.297 132.44 247.523 132.93 247.977C133.424 248.43 133.672 249.156 133.672 250.156V256H132.711ZM129.781 255.086C130.589 255.086 131.221 254.865 131.68 254.422C132.143 253.979 132.375 253.359 132.375 252.562V251.789L131.078 251.844C130.047 251.88 129.302 252.042 128.844 252.328C128.391 252.609 128.164 253.049 128.164 253.648C128.164 254.117 128.305 254.474 128.586 254.719C128.872 254.964 129.271 255.086 129.781 255.086ZM134.992 247.438H136.383L138.258 252.32C138.669 253.435 138.924 254.24 139.023 254.734H139.086C139.154 254.469 139.294 254.016 139.508 253.375C139.727 252.729 140.435 250.75 141.633 247.438H143.023L139.344 257.188C138.979 258.151 138.552 258.833 138.062 259.234C137.578 259.641 136.982 259.844 136.273 259.844C135.878 259.844 135.487 259.799 135.102 259.711V258.672C135.388 258.734 135.708 258.766 136.062 258.766C136.953 258.766 137.589 258.266 137.969 257.266L138.445 256.047L134.992 247.438ZM145.586 252.852H144.766L144.367 244.578H145.984L145.586 252.852ZM144.227 255.172C144.227 254.464 144.539 254.109 145.164 254.109C145.466 254.109 145.698 254.201 145.859 254.383C146.026 254.565 146.109 254.828 146.109 255.172C146.109 255.505 146.026 255.766 145.859 255.953C145.693 256.135 145.461 256.227 145.164 256.227C144.893 256.227 144.669 256.146 144.492 255.984C144.315 255.818 144.227 255.547 144.227 255.172Z" fill="#414141"/>
<path d="M51.8804 154.008C55.0324 154.008 57.3764 154.728 58.9124 156.168C60.4484 157.592 61.2164 159.64 61.2164 162.312C61.2164 164.056 60.8404 165.584 60.0884 166.896C59.3364 168.192 58.2404 169.2 56.8004 169.92C55.3764 170.64 53.6644 171 51.6644 171C51.4084 171 51.0724 170.992 50.6564 170.976C50.2404 170.96 49.8084 170.952 49.3604 170.952C48.9124 170.936 48.5124 170.928 48.1604 170.928C47.4564 170.928 46.7604 170.936 46.0724 170.952C45.4004 170.952 44.8644 170.968 44.4644 171V170.52C44.9764 170.488 45.3604 170.424 45.6164 170.328C45.8724 170.232 46.0404 170.04 46.1204 169.752C46.2164 169.464 46.2644 169.032 46.2644 168.456V156.552C46.2644 155.96 46.2164 155.528 46.1204 155.256C46.0404 154.968 45.8644 154.776 45.5924 154.68C45.3364 154.568 44.9604 154.504 44.4644 154.488V154.008C44.8644 154.024 45.4004 154.048 46.0724 154.08C46.7604 154.096 47.4404 154.096 48.1124 154.08C48.6884 154.064 49.3364 154.048 50.0564 154.032C50.7924 154.016 51.4004 154.008 51.8804 154.008ZM51.8564 154.44C51.1204 154.44 50.6404 154.576 50.4164 154.848C50.1924 155.12 50.0804 155.672 50.0804 156.504V168.504C50.0804 169.336 50.1924 169.888 50.4164 170.16C50.6564 170.432 51.1444 170.568 51.8804 170.568C53.2244 170.568 54.2804 170.256 55.0484 169.632C55.8324 168.992 56.3924 168.064 56.7284 166.848C57.0644 165.632 57.2324 164.152 57.2324 162.408C57.2324 160.616 57.0484 159.136 56.6804 157.968C56.3284 156.784 55.7604 155.904 54.9764 155.328C54.1924 154.736 53.1524 154.44 51.8564 154.44ZM66.0052 171.168C65.2852 171.168 64.6852 171.032 64.2052 170.76C63.7252 170.488 63.3732 170.128 63.1492 169.68C62.9252 169.216 62.8132 168.712 62.8132 168.168C62.8132 167.48 62.9652 166.92 63.2692 166.488C63.5892 166.056 63.9972 165.704 64.4932 165.432C64.9892 165.16 65.5092 164.936 66.0532 164.76C66.6132 164.584 67.1412 164.416 67.6372 164.256C68.1492 164.08 68.5572 163.88 68.8612 163.656C69.1812 163.416 69.3412 163.112 69.3412 162.744V160.872C69.3412 160.456 69.2692 160.088 69.1252 159.768C68.9972 159.432 68.7892 159.176 68.5012 159C68.2292 158.824 67.8692 158.736 67.4212 158.736C67.1012 158.736 66.7812 158.784 66.4612 158.88C66.1412 158.96 65.8772 159.104 65.6692 159.312C66.1172 159.472 66.4612 159.72 66.7012 160.056C66.9572 160.376 67.0852 160.744 67.0852 161.16C67.0852 161.704 66.8932 162.136 66.5092 162.456C66.1412 162.776 65.7012 162.936 65.1892 162.936C64.6132 162.936 64.1732 162.76 63.8692 162.408C63.5812 162.04 63.4372 161.6 63.4372 161.088C63.4372 160.624 63.5492 160.24 63.7732 159.936C64.0132 159.632 64.3412 159.344 64.7572 159.072C65.2052 158.816 65.7412 158.616 66.3652 158.472C67.0052 158.328 67.6932 158.256 68.4292 158.256C69.1652 158.256 69.8292 158.336 70.4212 158.496C71.0132 158.64 71.5092 158.912 71.9092 159.312C72.2772 159.68 72.5172 160.136 72.6292 160.68C72.7412 161.208 72.7972 161.88 72.7972 162.696V169.224C72.7972 169.624 72.8372 169.904 72.9172 170.064C72.9972 170.208 73.1332 170.28 73.3252 170.28C73.4692 170.28 73.6052 170.24 73.7332 170.16C73.8772 170.08 74.0292 169.984 74.1892 169.872L74.4292 170.28C74.0932 170.568 73.7012 170.792 73.2532 170.952C72.8212 171.096 72.3332 171.168 71.7892 171.168C71.1972 171.168 70.7252 171.088 70.3732 170.928C70.0212 170.752 69.7652 170.52 69.6052 170.232C69.4612 169.944 69.3892 169.608 69.3892 169.224C69.0052 169.832 68.5412 170.312 67.9972 170.664C67.4532 171 66.7892 171.168 66.0052 171.168ZM67.7092 169.632C68.0292 169.632 68.3172 169.56 68.5732 169.416C68.8452 169.256 69.1012 169 69.3412 168.648V163.728C69.1972 163.968 68.9972 164.184 68.7412 164.376C68.4852 164.568 68.2132 164.768 67.9252 164.976C67.6372 165.168 67.3572 165.384 67.0852 165.624C66.8292 165.864 66.6212 166.16 66.4612 166.512C66.3012 166.864 66.2212 167.288 66.2212 167.784C66.2212 168.408 66.3572 168.872 66.6292 169.176C66.9012 169.48 67.2612 169.632 67.7092 169.632ZM86.6401 158.592V159.072C86.3361 159.152 86.0481 159.344 85.7761 159.648C85.5041 159.936 85.2401 160.432 84.9841 161.136L81.6001 170.64L80.7121 172.32L75.4801 160.44C75.2081 159.816 74.9361 159.44 74.6641 159.312C74.4081 159.168 74.1841 159.096 73.9921 159.096V158.592C74.5201 158.64 75.0641 158.68 75.6241 158.712C76.2001 158.728 76.7521 158.736 77.2801 158.736C77.9361 158.736 78.5361 158.72 79.0801 158.688C79.6241 158.656 80.1361 158.624 80.6161 158.592V159.096C80.2961 159.096 79.9921 159.12 79.7041 159.168C79.4321 159.2 79.2401 159.312 79.1281 159.504C79.0321 159.68 79.0801 159.992 79.2721 160.44L82.2961 167.736L82.0801 167.88L83.8561 162.912C84.1601 162.048 84.2881 161.344 84.2401 160.8C84.1921 160.24 84.0161 159.824 83.7121 159.552C83.4081 159.264 82.9921 159.104 82.4641 159.072V158.592C82.7201 158.608 82.9841 158.624 83.2561 158.64C83.5281 158.64 83.8001 158.648 84.0721 158.664C84.3441 158.664 84.5841 158.664 84.7921 158.664C85.1121 158.664 85.4481 158.656 85.8001 158.64C86.1521 158.624 86.4321 158.608 86.6401 158.592ZM81.6001 170.64L80.6881 173.208C80.5281 173.608 80.3601 173.944 80.1841 174.216C80.0241 174.504 79.8401 174.736 79.6321 174.912C79.4081 175.104 79.1201 175.248 78.7681 175.344C78.4161 175.456 78.0081 175.512 77.5441 175.512C77.1601 175.512 76.7601 175.448 76.3441 175.32C75.9441 175.192 75.6081 174.984 75.3361 174.696C75.0641 174.408 74.9281 174.04 74.9281 173.592C74.9281 173.096 75.1041 172.696 75.4561 172.392C75.8081 172.104 76.2721 171.96 76.8481 171.96C77.3761 171.96 77.8081 172.088 78.1441 172.344C78.4801 172.6 78.6481 172.976 78.6481 173.472C78.6481 173.792 78.5441 174.096 78.3361 174.384C78.1441 174.672 77.8481 174.888 77.4481 175.032C77.5281 175.048 77.6241 175.056 77.7361 175.056C77.8481 175.056 77.9361 175.056 78.0001 175.056C78.4801 175.056 78.9041 174.904 79.2721 174.6C79.6401 174.296 79.9441 173.816 80.1841 173.16L81.0241 170.688L81.6001 170.64ZM92.5113 154.008C92.9113 154.024 93.4473 154.04 94.1193 154.056C94.8073 154.072 95.4873 154.08 96.1593 154.08C96.9273 154.08 97.6713 154.072 98.3913 154.056C99.1113 154.04 99.6233 154.032 99.9273 154.032C102.151 154.032 103.815 154.472 104.919 155.352C106.023 156.232 106.575 157.368 106.575 158.76C106.575 159.336 106.463 159.944 106.239 160.584C106.015 161.208 105.631 161.792 105.087 162.336C104.559 162.864 103.831 163.296 102.903 163.632C101.975 163.968 100.807 164.136 99.3993 164.136H96.9513V163.656H99.1593C100.103 163.656 100.815 163.44 101.295 163.008C101.791 162.576 102.127 162.008 102.303 161.304C102.495 160.6 102.591 159.84 102.591 159.024C102.591 157.504 102.367 156.368 101.919 155.616C101.471 154.864 100.703 154.488 99.6153 154.488C98.9913 154.488 98.5833 154.624 98.3913 154.896C98.2153 155.168 98.1273 155.72 98.1273 156.552V168.312C98.1273 168.936 98.1913 169.4 98.3193 169.704C98.4473 170.008 98.6953 170.208 99.0633 170.304C99.4313 170.4 99.9753 170.456 100.695 170.472V171C100.199 170.984 99.5593 170.968 98.7753 170.952C97.9913 170.936 97.1673 170.928 96.3033 170.928C95.6153 170.928 94.9433 170.936 94.2873 170.952C93.6313 170.968 93.0393 170.984 92.5113 171V170.52C93.0233 170.488 93.4073 170.424 93.6633 170.328C93.9193 170.232 94.0873 170.04 94.1673 169.752C94.2633 169.464 94.3113 169.032 94.3113 168.456V156.552C94.3113 155.96 94.2633 155.528 94.1673 155.256C94.0873 154.968 93.9113 154.776 93.6393 154.68C93.3833 154.568 93.0073 154.504 92.5113 154.488V154.008ZM112.308 152.208V168.768C112.308 169.44 112.42 169.896 112.644 170.136C112.884 170.376 113.284 170.496 113.844 170.496V171C113.54 170.984 113.084 170.968 112.476 170.952C111.868 170.92 111.252 170.904 110.628 170.904C110.004 170.904 109.372 170.92 108.732 170.952C108.108 170.968 107.636 170.984 107.316 171V170.496C107.876 170.496 108.268 170.376 108.492 170.136C108.732 169.896 108.852 169.44 108.852 168.768V155.088C108.852 154.368 108.74 153.84 108.516 153.504C108.308 153.152 107.908 152.976 107.316 152.976V152.472C107.828 152.52 108.324 152.544 108.804 152.544C109.46 152.544 110.084 152.52 110.676 152.472C111.268 152.408 111.812 152.32 112.308 152.208ZM118.177 171.168C117.457 171.168 116.857 171.032 116.377 170.76C115.897 170.488 115.545 170.128 115.321 169.68C115.097 169.216 114.985 168.712 114.985 168.168C114.985 167.48 115.137 166.92 115.441 166.488C115.761 166.056 116.169 165.704 116.665 165.432C117.161 165.16 117.681 164.936 118.225 164.76C118.785 164.584 119.313 164.416 119.809 164.256C120.321 164.08 120.729 163.88 121.033 163.656C121.353 163.416 121.513 163.112 121.513 162.744V160.872C121.513 160.456 121.441 160.088 121.297 159.768C121.169 159.432 120.961 159.176 120.673 159C120.401 158.824 120.041 158.736 119.593 158.736C119.273 158.736 118.953 158.784 118.633 158.88C118.313 158.96 118.049 159.104 117.841 159.312C118.289 159.472 118.633 159.72 118.873 160.056C119.129 160.376 119.257 160.744 119.257 161.16C119.257 161.704 119.065 162.136 118.681 162.456C118.313 162.776 117.873 162.936 117.361 162.936C116.785 162.936 116.345 162.76 116.041 162.408C115.753 162.04 115.609 161.6 115.609 161.088C115.609 160.624 115.721 160.24 115.945 159.936C116.185 159.632 116.513 159.344 116.929 159.072C117.377 158.816 117.913 158.616 118.537 158.472C119.177 158.328 119.865 158.256 120.601 158.256C121.337 158.256 122.001 158.336 122.593 158.496C123.185 158.64 123.681 158.912 124.081 159.312C124.449 159.68 124.689 160.136 124.801 160.68C124.913 161.208 124.969 161.88 124.969 162.696V169.224C124.969 169.624 125.009 169.904 125.089 170.064C125.169 170.208 125.305 170.28 125.497 170.28C125.641 170.28 125.777 170.24 125.905 170.16C126.049 170.08 126.201 169.984 126.361 169.872L126.601 170.28C126.265 170.568 125.873 170.792 125.425 170.952C124.993 171.096 124.505 171.168 123.961 171.168C123.369 171.168 122.897 171.088 122.545 170.928C122.193 170.752 121.937 170.52 121.777 170.232C121.633 169.944 121.561 169.608 121.561 169.224C121.177 169.832 120.713 170.312 120.169 170.664C119.625 171 118.961 171.168 118.177 171.168ZM119.881 169.632C120.201 169.632 120.489 169.56 120.745 169.416C121.017 169.256 121.273 169 121.513 168.648V163.728C121.369 163.968 121.169 164.184 120.913 164.376C120.657 164.568 120.385 164.768 120.097 164.976C119.809 165.168 119.529 165.384 119.257 165.624C119.001 165.864 118.793 166.16 118.633 166.512C118.473 166.864 118.393 167.288 118.393 167.784C118.393 168.408 118.529 168.872 118.801 169.176C119.073 169.48 119.433 169.632 119.881 169.632ZM136.215 158.256C136.887 158.256 137.431 158.344 137.847 158.52C138.279 158.68 138.615 158.904 138.855 159.192C139.111 159.496 139.295 159.888 139.407 160.368C139.535 160.848 139.599 161.496 139.599 162.312V168.768C139.599 169.44 139.711 169.896 139.935 170.136C140.175 170.376 140.575 170.496 141.135 170.496V171C140.831 170.984 140.375 170.968 139.767 170.952C139.159 170.92 138.559 170.904 137.967 170.904C137.359 170.904 136.759 170.92 136.167 170.952C135.591 170.968 135.151 170.984 134.847 171V170.496C135.327 170.496 135.663 170.376 135.855 170.136C136.047 169.896 136.143 169.44 136.143 168.768V161.304C136.143 160.904 136.103 160.56 136.023 160.272C135.943 159.968 135.799 159.736 135.591 159.576C135.383 159.4 135.071 159.312 134.655 159.312C134.223 159.312 133.823 159.432 133.455 159.672C133.103 159.912 132.815 160.248 132.591 160.68C132.383 161.096 132.279 161.568 132.279 162.096V168.768C132.279 169.44 132.375 169.896 132.567 170.136C132.775 170.376 133.111 170.496 133.575 170.496V171C133.287 170.984 132.863 170.968 132.303 170.952C131.759 170.92 131.191 170.904 130.599 170.904C129.991 170.904 129.367 170.92 128.727 170.952C128.087 170.968 127.607 170.984 127.287 171V170.496C127.847 170.496 128.239 170.376 128.463 170.136C128.703 169.896 128.823 169.44 128.823 168.768V161.208C128.823 160.488 128.711 159.96 128.487 159.624C128.279 159.272 127.879 159.096 127.287 159.096V158.592C127.799 158.64 128.295 158.664 128.775 158.664C129.447 158.664 130.071 158.64 130.647 158.592C131.239 158.528 131.783 158.44 132.279 158.328V160.488C132.679 159.672 133.223 159.096 133.911 158.76C134.599 158.424 135.367 158.256 136.215 158.256ZM150.957 158.256C151.629 158.256 152.173 158.344 152.589 158.52C153.021 158.68 153.357 158.904 153.597 159.192C153.853 159.496 154.037 159.888 154.149 160.368C154.277 160.848 154.341 161.496 154.341 162.312V168.768C154.341 169.44 154.453 169.896 154.677 170.136C154.917 170.376 155.317 170.496 155.877 170.496V171C155.573 170.984 155.117 170.968 154.509 170.952C153.901 170.92 153.301 170.904 152.709 170.904C152.101 170.904 151.501 170.92 150.909 170.952C150.333 170.968 149.893 170.984 149.589 171V170.496C150.069 170.496 150.405 170.376 150.597 170.136C150.789 169.896 150.885 169.44 150.885 168.768V161.304C150.885 160.904 150.845 160.56 150.765 160.272C150.685 159.968 150.541 159.736 150.333 159.576C150.125 159.4 149.813 159.312 149.397 159.312C148.965 159.312 148.565 159.432 148.197 159.672C147.845 159.912 147.557 160.248 147.333 160.68C147.125 161.096 147.021 161.568 147.021 162.096V168.768C147.021 169.44 147.117 169.896 147.309 170.136C147.517 170.376 147.853 170.496 148.317 170.496V171C148.029 170.984 147.605 170.968 147.045 170.952C146.501 170.92 145.933 170.904 145.341 170.904C144.733 170.904 144.109 170.92 143.469 170.952C142.829 170.968 142.349 170.984 142.029 171V170.496C142.589 170.496 142.981 170.376 143.205 170.136C143.445 169.896 143.565 169.44 143.565 168.768V161.208C143.565 160.488 143.453 159.96 143.229 159.624C143.021 159.272 142.621 159.096 142.029 159.096V158.592C142.541 158.64 143.037 158.664 143.517 158.664C144.189 158.664 144.813 158.64 145.389 158.592C145.981 158.528 146.525 158.44 147.021 158.328V160.488C147.421 159.672 147.965 159.096 148.653 158.76C149.341 158.424 150.109 158.256 150.957 158.256ZM162.963 158.256C164.371 158.256 165.475 158.672 166.275 159.504C167.075 160.336 167.475 161.696 167.475 163.584H159.579L159.531 163.128H164.451C164.467 162.344 164.419 161.624 164.307 160.968C164.195 160.296 164.019 159.76 163.779 159.36C163.539 158.96 163.219 158.76 162.819 158.76C162.259 158.76 161.779 159.112 161.379 159.816C160.995 160.52 160.763 161.688 160.683 163.32L160.755 163.464C160.739 163.656 160.723 163.856 160.707 164.064C160.707 164.272 160.707 164.488 160.707 164.712C160.707 165.816 160.859 166.712 161.163 167.4C161.483 168.088 161.883 168.592 162.363 168.912C162.843 169.216 163.331 169.368 163.827 169.368C164.163 169.368 164.507 169.32 164.859 169.224C165.227 169.112 165.595 168.92 165.963 168.648C166.331 168.36 166.675 167.96 166.995 167.448L167.427 167.592C167.235 168.2 166.931 168.792 166.515 169.368C166.099 169.944 165.571 170.416 164.931 170.784C164.291 171.152 163.523 171.336 162.627 171.336C161.539 171.336 160.579 171.104 159.747 170.64C158.915 170.176 158.259 169.472 157.779 168.528C157.315 167.584 157.083 166.384 157.083 164.928C157.083 163.44 157.331 162.2 157.827 161.208C158.339 160.216 159.035 159.48 159.915 159C160.811 158.504 161.827 158.256 162.963 158.256ZM176.98 158.256C177.492 158.256 177.908 158.368 178.228 158.592C178.548 158.8 178.78 159.072 178.924 159.408C179.084 159.744 179.164 160.096 179.164 160.464C179.164 161.056 178.988 161.544 178.636 161.928C178.3 162.296 177.852 162.48 177.292 162.48C176.732 162.48 176.292 162.344 175.972 162.072C175.668 161.784 175.516 161.408 175.516 160.944C175.516 160.496 175.612 160.128 175.804 159.84C176.012 159.536 176.268 159.28 176.572 159.072C176.348 159.008 176.124 159.016 175.9 159.096C175.596 159.144 175.308 159.272 175.036 159.48C174.764 159.672 174.532 159.92 174.34 160.224C174.148 160.512 173.996 160.832 173.884 161.184C173.772 161.52 173.716 161.848 173.716 162.168V168.528C173.716 169.296 173.9 169.816 174.268 170.088C174.652 170.36 175.22 170.496 175.972 170.496V171C175.604 170.984 175.068 170.968 174.364 170.952C173.66 170.92 172.924 170.904 172.156 170.904C171.516 170.904 170.868 170.92 170.212 170.952C169.556 170.968 169.06 170.984 168.724 171V170.496C169.284 170.496 169.676 170.376 169.9 170.136C170.14 169.896 170.26 169.44 170.26 168.768V161.208C170.26 160.488 170.148 159.96 169.924 159.624C169.716 159.272 169.316 159.096 168.724 159.096V158.592C169.236 158.64 169.732 158.664 170.212 158.664C170.884 158.664 171.508 158.64 172.084 158.592C172.676 158.528 173.22 158.44 173.716 158.328V160.56C173.908 160.128 174.164 159.736 174.484 159.384C174.804 159.032 175.172 158.76 175.588 158.568C176.004 158.36 176.468 158.256 176.98 158.256Z" fill="#414141"/>
<g clip-path="url(#clip0_1_157)">
<path d="M162 0H62V113H162V0Z" fill="white"/>
<path d="M147.672 13.0439H76.2787C68.4373 13.0439 62.0806 19.4061 62.0806 27.2542V98.7089C62.0806 106.557 68.4373 112.919 76.2787 112.919H147.672C155.514 112.919 161.87 106.557 161.87 98.7089V27.2542C161.87 19.4061 155.514 13.0439 147.672 13.0439Z" fill="white" stroke="#BDB9B9" stroke-width="0.25"/>
<path d="M62 27.2541C62 19.3615 68.3928 12.9631 76.2787 12.9631H147.672C155.558 12.9631 161.951 19.3615 161.951 27.2541V35.8287H62V27.2541Z" fill="#1B4E65"/>
<path d="M81.0936 28.1585V24.6086H85.2444V23.0008H81.0936V21.1873H85.3344V19.5796H79.2687V28.1585H81.0936ZM92.6759 28.1585V26.5507H88.4351V24.6086H92.586V23.0008H88.4351V21.1873H92.6759V19.5796H86.6103V28.1585H92.6759ZM98.7544 28.1585C100.386 28.1585 101.248 27.1295 101.248 25.8433C101.248 24.7629 100.515 23.8755 99.6026 23.734C100.412 23.5667 101.08 22.8465 101.08 21.7661C101.08 20.6214 100.245 19.5796 98.6131 19.5796H94.1024V28.1585H98.7544ZM98.2147 23.0137H95.9273V21.1487H98.2147C98.8316 21.1487 99.2171 21.5475 99.2171 22.0877C99.2171 22.6279 98.8316 23.0137 98.2147 23.0137ZM98.279 26.5764H95.9273V24.5828H98.279C98.9986 24.5828 99.3842 25.0459 99.3842 25.5861C99.3842 26.2035 98.9729 26.5764 98.279 26.5764ZM109.563 28.1585L107.636 24.8916C108.561 24.6729 109.512 23.8626 109.512 22.3449C109.512 20.75 108.419 19.5796 106.633 19.5796H102.624V28.1585H104.448V25.1102H105.785L107.468 28.1585H109.563ZM106.363 23.5024H104.448V21.1873H106.363C107.096 21.1873 107.648 21.6246 107.648 22.3449C107.648 23.0652 107.096 23.5024 106.363 23.5024ZM114.749 28.3128C117.358 28.3128 118.618 26.8594 118.618 24.7243V19.5796H116.754V24.6729C116.754 25.869 116.073 26.6922 114.749 26.6922C113.426 26.6922 112.732 25.869 112.732 24.6729V19.5796H110.881V24.7372C110.881 26.8465 112.141 28.3128 114.749 28.3128ZM127.873 28.1585L124.57 19.5796H122.283L118.967 28.1585H121.049L121.589 26.705H125.264L125.791 28.1585H127.873ZM124.763 25.0973H122.09L123.426 21.406L124.763 25.0973ZM135.604 28.1585L133.676 24.8916C134.601 24.6729 135.552 23.8626 135.552 22.3449C135.552 20.75 134.46 19.5796 132.674 19.5796H128.664V28.1585H130.489V25.1102H131.826L133.509 28.1585H135.604ZM132.404 23.5024H130.489V21.1873H132.404C133.136 21.1873 133.689 21.6246 133.689 22.3449C133.689 23.0652 133.136 23.5024 132.404 23.5024ZM140.911 28.1585V24.6472L144.188 19.5796H142.106L139.999 23.0265L137.865 19.5796H135.784L139.086 24.6472V28.1585H140.911Z" fill="#F7F7F4"/>
<path d="M73.0659 100.853V44.4038" stroke="#8AD0DA" stroke-width="1.1066"/>
<path d="M84.4889 100.853V44.4038" stroke="#8AD0DA" stroke-width="1.1066"/>
<path d="M95.1979 100.853V44.4038" stroke="#8AD0DA" stroke-width="1.1066"/>
<path d="M106.621 100.853V44.4038" stroke="#8AD0DA" stroke-width="1.1066"/>
<path d="M118.044 100.853V44.4038" stroke="#8AD0DA" stroke-width="1.1066"/>
<path d="M129.824 100.853V44.4038" stroke="#8AD0DA" stroke-width="1.1066"/>
<path d="M140.533 100.853V44.4038" stroke="#8AD0DA" stroke-width="1.1066"/>
<path d="M151.956 100.853V44.4038" stroke="#8AD0DA" stroke-width="1.1066"/>
<path d="M68.4253 47.6189H156.239" stroke="#8AD0DA" stroke-width="1.1066"/>
<path d="M68.4253 60.481H154.812" stroke="#8AD0DA" stroke-width="1.1066"/>
<path d="M68.4253 72.6279H154.812" stroke="#8AD0DA" stroke-width="1.1066"/>
<path d="M68.4253 85.49H154.812" stroke="#8AD0DA" stroke-width="1.1066"/>
<path d="M69.1392 97.6372H155.526" stroke="#8AD0DA" stroke-width="1.1066"/>
<path d="M81.2763 62.981C79.8068 64.5935 77.9637 66.3686 76.834 68.2353C76.4057 68.943 75.5648 69.2943 75.5648 70.1266" stroke="#F47575" stroke-width="2.2132" stroke-linecap="round" stroke-linejoin="round"/>
<path d="M76.2787 63.6956C77.8546 65.2429 79.7662 66.3168 81.093 68.0847C81.4035 68.4986 81.6149 69.1527 81.9902 69.4117" stroke="#F47575" stroke-width="2.2132" stroke-linecap="round" stroke-linejoin="round"/>
<path d="M92.6993 50.1208C91.2299 51.7335 89.3867 53.5081 88.257 55.3749C87.8288 56.0827 86.9878 56.4339 86.9878 57.2663" stroke="#F47575" stroke-width="2.2132" stroke-linecap="round" stroke-linejoin="round"/>
<path d="M87.7017 50.8354C89.2777 52.3831 91.1893 53.4566 92.516 55.2248C92.8265 55.6387 93.038 56.2926 93.4132 56.5519" stroke="#F47575" stroke-width="2.2132" stroke-linecap="round" stroke-linejoin="round"/>
<path d="M103.408 50.8342C101.939 52.4468 100.096 54.2215 98.9661 56.0883C98.5378 56.796 97.6968 57.1473 97.6968 57.9797" stroke="#F47575" stroke-width="2.2132" stroke-linecap="round" stroke-linejoin="round"/>
<path d="M98.4108 51.5486C99.9868 53.0962 101.898 54.1697 103.225 55.938C103.536 56.3517 103.747 57.0056 104.122 57.265" stroke="#F47575" stroke-width="2.2132" stroke-linecap="round" stroke-linejoin="round"/>
<path d="M81.2763 50.1208C79.8068 51.7335 77.9637 53.5081 76.834 55.3749C76.4057 56.0827 75.5648 56.4339 75.5648 57.2663" stroke="#F47575" stroke-width="2.2132" stroke-linecap="round" stroke-linejoin="round"/>
<path d="M76.2787 50.8354C77.8546 52.3831 79.7662 53.4566 81.093 55.2248C81.4035 55.6387 81.6149 56.2926 81.9902 56.5519" stroke="#F47575" stroke-width="2.2132" stroke-linecap="round" stroke-linejoin="round"/>
<path d="M72.7527 0.611572H69.5758C68.5635 0.611572 67.7429 1.43287 67.7429 2.44599V22.9914C67.7429 24.0046 68.5635 24.8259 69.5758 24.8259H72.7527C73.765 24.8259 74.5856 24.0046 74.5856 22.9914V2.44599C74.5856 1.43287 73.765 0.611572 72.7527 0.611572Z" fill="#1B4E65" stroke="white" stroke-width="1.89394"/>
<path d="M153.642 0.611572H150.465C149.453 0.611572 148.632 1.43287 148.632 2.44599V22.9914C148.632 24.0046 149.453 24.8259 150.465 24.8259H153.642C154.654 24.8259 155.475 24.0046 155.475 22.9914V2.44599C155.475 1.43287 154.654 0.611572 153.642 0.611572Z" fill="#1B4E65" stroke="white" stroke-width="1.89394"/>
</g>
<defs>
<clipPath id="clip0_1_157">
<rect width="100" height="113" fill="white" transform="translate(62)"/>
</clipPath>
</defs>
</svg>
