<svg width="229" height="227" viewBox="0 0 229 227" fill="none" xmlns="http://www.w3.org/2000/svg">
<path d="M14.8438 173H13.3281L7.08594 163.414H7.02344C7.10677 164.539 7.14844 165.57 7.14844 166.508V173H5.92188V161.578H7.42188L13.6484 171.125H13.7109C13.7005 170.984 13.6771 170.534 13.6406 169.773C13.6042 169.008 13.5911 168.461 13.6016 168.133V161.578H14.8438V173ZM21.4062 173.156C20.1406 173.156 19.1406 172.771 18.4062 172C17.6771 171.229 17.3125 170.159 17.3125 168.789C17.3125 167.409 17.651 166.312 18.3281 165.5C19.0104 164.688 19.9245 164.281 21.0703 164.281C22.1432 164.281 22.9922 164.635 23.6172 165.344C24.2422 166.047 24.5547 166.977 24.5547 168.133V168.953H18.6562C18.6823 169.958 18.9349 170.721 19.4141 171.242C19.8984 171.763 20.5781 172.023 21.4531 172.023C22.375 172.023 23.2865 171.831 24.1875 171.445V172.602C23.7292 172.799 23.2943 172.94 22.8828 173.023C22.4766 173.112 21.9844 173.156 21.4062 173.156ZM21.0547 165.367C20.3672 165.367 19.8177 165.591 19.4062 166.039C19 166.487 18.7604 167.107 18.6875 167.898H23.1641C23.1641 167.081 22.9818 166.456 22.6172 166.023C22.2526 165.586 21.7318 165.367 21.0547 165.367ZM28.8359 168.617L25.8594 164.438H27.3359L29.5938 167.719L31.8438 164.438H33.3047L30.3281 168.617L33.4609 173H31.9922L29.5938 169.531L27.1719 173H25.7031L28.8359 168.617ZM37.9297 172.086C38.1589 172.086 38.3802 172.07 38.5938 172.039C38.8073 172.003 38.9766 171.966 39.1016 171.93V172.922C38.9609 172.99 38.7526 173.044 38.4766 173.086C38.2057 173.133 37.9609 173.156 37.7422 173.156C36.0859 173.156 35.2578 172.284 35.2578 170.539V165.445H34.0312V164.82L35.2578 164.281L35.8047 162.453H36.5547V164.438H39.0391V165.445H36.5547V170.484C36.5547 171 36.6771 171.396 36.9219 171.672C37.1667 171.948 37.5026 172.086 37.9297 172.086ZM47.7422 172.086C47.9714 172.086 48.1927 172.07 48.4062 172.039C48.6198 172.003 48.7891 171.966 48.9141 171.93V172.922C48.7734 172.99 48.5651 173.044 48.2891 173.086C48.0182 173.133 47.7734 173.156 47.5547 173.156C45.8984 173.156 45.0703 172.284 45.0703 170.539V165.445H43.8438V164.82L45.0703 164.281L45.6172 162.453H46.3672V164.438H48.8516V165.445H46.3672V170.484C46.3672 171 46.4896 171.396 46.7344 171.672C46.9792 171.948 47.3151 172.086 47.7422 172.086ZM51.9297 173H50.6328V164.438H51.9297V173ZM50.5234 162.117C50.5234 161.82 50.5964 161.604 50.7422 161.469C50.888 161.328 51.0703 161.258 51.2891 161.258C51.4974 161.258 51.6771 161.328 51.8281 161.469C51.9792 161.609 52.0547 161.826 52.0547 162.117C52.0547 162.409 51.9792 162.628 51.8281 162.773C51.6771 162.914 51.4974 162.984 51.2891 162.984C51.0703 162.984 50.888 162.914 50.7422 162.773C50.5964 162.628 50.5234 162.409 50.5234 162.117ZM65.5938 173V167.43C65.5938 166.747 65.4479 166.237 65.1562 165.898C64.8646 165.555 64.4115 165.383 63.7969 165.383C62.9896 165.383 62.3932 165.615 62.0078 166.078C61.6224 166.542 61.4297 167.255 61.4297 168.219V173H60.1328V167.43C60.1328 166.747 59.987 166.237 59.6953 165.898C59.4036 165.555 58.9479 165.383 58.3281 165.383C57.5156 165.383 56.9193 165.628 56.5391 166.117C56.1641 166.602 55.9766 167.398 55.9766 168.508V173H54.6797V164.438H55.7344L55.9453 165.609H56.0078C56.2526 165.193 56.5964 164.867 57.0391 164.633C57.487 164.398 57.987 164.281 58.5391 164.281C59.8776 164.281 60.7526 164.766 61.1641 165.734H61.2266C61.4818 165.286 61.8516 164.932 62.3359 164.672C62.8203 164.411 63.3724 164.281 63.9922 164.281C64.9609 164.281 65.6849 164.531 66.1641 165.031C66.6484 165.526 66.8906 166.32 66.8906 167.414V173H65.5938ZM73.1875 173.156C71.9219 173.156 70.9219 172.771 70.1875 172C69.4583 171.229 69.0938 170.159 69.0938 168.789C69.0938 167.409 69.4323 166.312 70.1094 165.5C70.7917 164.688 71.7057 164.281 72.8516 164.281C73.9245 164.281 74.7734 164.635 75.3984 165.344C76.0234 166.047 76.3359 166.977 76.3359 168.133V168.953H70.4375C70.4635 169.958 70.7161 170.721 71.1953 171.242C71.6797 171.763 72.3594 172.023 73.2344 172.023C74.1562 172.023 75.0677 171.831 75.9688 171.445V172.602C75.5104 172.799 75.0755 172.94 74.6641 173.023C74.2578 173.112 73.7656 173.156 73.1875 173.156ZM72.8359 165.367C72.1484 165.367 71.599 165.591 71.1875 166.039C70.7812 166.487 70.5417 167.107 70.4688 167.898H74.9453C74.9453 167.081 74.763 166.456 74.3984 166.023C74.0339 165.586 73.513 165.367 72.8359 165.367ZM88.2344 170.664C88.2344 171.461 87.9375 172.076 87.3438 172.508C86.75 172.94 85.9167 173.156 84.8438 173.156C83.7083 173.156 82.8229 172.977 82.1875 172.617V171.414C82.599 171.622 83.0391 171.786 83.5078 171.906C83.9818 172.026 84.4375 172.086 84.875 172.086C85.5521 172.086 86.0729 171.979 86.4375 171.766C86.8021 171.547 86.9844 171.216 86.9844 170.773C86.9844 170.44 86.8385 170.156 86.5469 169.922C86.2604 169.682 85.6979 169.401 84.8594 169.078C84.0625 168.781 83.4948 168.523 83.1562 168.305C82.8229 168.081 82.5729 167.828 82.4062 167.547C82.2448 167.266 82.1641 166.93 82.1641 166.539C82.1641 165.841 82.4479 165.292 83.0156 164.891C83.5833 164.484 84.362 164.281 85.3516 164.281C86.2734 164.281 87.1745 164.469 88.0547 164.844L87.5938 165.898C86.7344 165.544 85.9557 165.367 85.2578 165.367C84.6432 165.367 84.1797 165.464 83.8672 165.656C83.5547 165.849 83.3984 166.115 83.3984 166.453C83.3984 166.682 83.4557 166.878 83.5703 167.039C83.6901 167.201 83.8802 167.354 84.1406 167.5C84.401 167.646 84.901 167.857 85.6406 168.133C86.6562 168.503 87.3411 168.875 87.6953 169.25C88.0547 169.625 88.2344 170.096 88.2344 170.664ZM97.7422 168.711C97.7422 170.107 97.3906 171.198 96.6875 171.984C95.9844 172.766 95.013 173.156 93.7734 173.156C93.0078 173.156 92.3281 172.977 91.7344 172.617C91.1406 172.258 90.6823 171.742 90.3594 171.07C90.0365 170.398 89.875 169.612 89.875 168.711C89.875 167.315 90.224 166.229 90.9219 165.453C91.6198 164.672 92.5885 164.281 93.8281 164.281C95.026 164.281 95.9766 164.68 96.6797 165.477C97.388 166.273 97.7422 167.352 97.7422 168.711ZM91.2188 168.711C91.2188 169.805 91.4375 170.638 91.875 171.211C92.3125 171.784 92.9557 172.07 93.8047 172.07C94.6536 172.07 95.2969 171.786 95.7344 171.219C96.1771 170.646 96.3984 169.81 96.3984 168.711C96.3984 167.622 96.1771 166.797 95.7344 166.234C95.2969 165.667 94.6484 165.383 93.7891 165.383C92.9401 165.383 92.2995 165.661 91.8672 166.219C91.4349 166.776 91.2188 167.607 91.2188 168.711ZM110.938 173V167.43C110.938 166.747 110.792 166.237 110.5 165.898C110.208 165.555 109.755 165.383 109.141 165.383C108.333 165.383 107.737 165.615 107.352 166.078C106.966 166.542 106.773 167.255 106.773 168.219V173H105.477V167.43C105.477 166.747 105.331 166.237 105.039 165.898C104.747 165.555 104.292 165.383 103.672 165.383C102.859 165.383 102.263 165.628 101.883 166.117C101.508 166.602 101.32 167.398 101.32 168.508V173H100.023V164.438H101.078L101.289 165.609H101.352C101.596 165.193 101.94 164.867 102.383 164.633C102.831 164.398 103.331 164.281 103.883 164.281C105.221 164.281 106.096 164.766 106.508 165.734H106.57C106.826 165.286 107.195 164.932 107.68 164.672C108.164 164.411 108.716 164.281 109.336 164.281C110.305 164.281 111.029 164.531 111.508 165.031C111.992 165.526 112.234 166.32 112.234 167.414V173H110.938ZM118.531 173.156C117.266 173.156 116.266 172.771 115.531 172C114.802 171.229 114.438 170.159 114.438 168.789C114.438 167.409 114.776 166.312 115.453 165.5C116.135 164.688 117.049 164.281 118.195 164.281C119.268 164.281 120.117 164.635 120.742 165.344C121.367 166.047 121.68 166.977 121.68 168.133V168.953H115.781C115.807 169.958 116.06 170.721 116.539 171.242C117.023 171.763 117.703 172.023 118.578 172.023C119.5 172.023 120.411 171.831 121.312 171.445V172.602C120.854 172.799 120.419 172.94 120.008 173.023C119.602 173.112 119.109 173.156 118.531 173.156ZM118.18 165.367C117.492 165.367 116.943 165.591 116.531 166.039C116.125 166.487 115.885 167.107 115.812 167.898H120.289C120.289 167.081 120.107 166.456 119.742 166.023C119.378 165.586 118.857 165.367 118.18 165.367ZM131.289 168.711C131.289 170.107 130.938 171.198 130.234 171.984C129.531 172.766 128.56 173.156 127.32 173.156C126.555 173.156 125.875 172.977 125.281 172.617C124.688 172.258 124.229 171.742 123.906 171.07C123.583 170.398 123.422 169.612 123.422 168.711C123.422 167.315 123.771 166.229 124.469 165.453C125.167 164.672 126.135 164.281 127.375 164.281C128.573 164.281 129.523 164.68 130.227 165.477C130.935 166.273 131.289 167.352 131.289 168.711ZM124.766 168.711C124.766 169.805 124.984 170.638 125.422 171.211C125.859 171.784 126.503 172.07 127.352 172.07C128.201 172.07 128.844 171.786 129.281 171.219C129.724 170.646 129.945 169.81 129.945 168.711C129.945 167.622 129.724 166.797 129.281 166.234C128.844 165.667 128.195 165.383 127.336 165.383C126.487 165.383 125.846 165.661 125.414 166.219C124.982 166.776 124.766 167.607 124.766 168.711ZM139.43 173V167.461C139.43 166.763 139.271 166.242 138.953 165.898C138.635 165.555 138.138 165.383 137.461 165.383C136.565 165.383 135.909 165.625 135.492 166.109C135.076 166.594 134.867 167.393 134.867 168.508V173H133.57V164.438H134.625L134.836 165.609H134.898C135.164 165.188 135.536 164.862 136.016 164.633C136.495 164.398 137.029 164.281 137.617 164.281C138.648 164.281 139.424 164.531 139.945 165.031C140.466 165.526 140.727 166.32 140.727 167.414V173H139.43ZM147.016 173.156C145.75 173.156 144.75 172.771 144.016 172C143.286 171.229 142.922 170.159 142.922 168.789C142.922 167.409 143.26 166.312 143.938 165.5C144.62 164.688 145.534 164.281 146.68 164.281C147.753 164.281 148.602 164.635 149.227 165.344C149.852 166.047 150.164 166.977 150.164 168.133V168.953H144.266C144.292 169.958 144.544 170.721 145.023 171.242C145.508 171.763 146.188 172.023 147.062 172.023C147.984 172.023 148.896 171.831 149.797 171.445V172.602C149.339 172.799 148.904 172.94 148.492 173.023C148.086 173.112 147.594 173.156 147.016 173.156ZM146.664 165.367C145.977 165.367 145.427 165.591 145.016 166.039C144.609 166.487 144.37 167.107 144.297 167.898H148.773C148.773 167.081 148.591 166.456 148.227 166.023C147.862 165.586 147.341 165.367 146.664 165.367ZM160.523 173.156C159.966 173.156 159.456 173.055 158.992 172.852C158.534 172.643 158.148 172.326 157.836 171.898H157.742C157.805 172.398 157.836 172.872 157.836 173.32V176.844H156.539V164.438H157.594L157.773 165.609H157.836C158.169 165.141 158.557 164.802 159 164.594C159.443 164.385 159.951 164.281 160.523 164.281C161.659 164.281 162.534 164.669 163.148 165.445C163.768 166.221 164.078 167.31 164.078 168.711C164.078 170.117 163.763 171.211 163.133 171.992C162.508 172.768 161.638 173.156 160.523 173.156ZM160.336 165.383C159.461 165.383 158.828 165.625 158.438 166.109C158.047 166.594 157.846 167.365 157.836 168.422V168.711C157.836 169.914 158.036 170.776 158.438 171.297C158.839 171.812 159.482 172.07 160.367 172.07C161.107 172.07 161.685 171.771 162.102 171.172C162.523 170.573 162.734 169.747 162.734 168.695C162.734 167.628 162.523 166.81 162.102 166.242C161.685 165.669 161.096 165.383 160.336 165.383ZM169.969 173.156C168.703 173.156 167.703 172.771 166.969 172C166.24 171.229 165.875 170.159 165.875 168.789C165.875 167.409 166.214 166.312 166.891 165.5C167.573 164.688 168.487 164.281 169.633 164.281C170.706 164.281 171.555 164.635 172.18 165.344C172.805 166.047 173.117 166.977 173.117 168.133V168.953H167.219C167.245 169.958 167.497 170.721 167.977 171.242C168.461 171.763 169.141 172.023 170.016 172.023C170.938 172.023 171.849 171.831 172.75 171.445V172.602C172.292 172.799 171.857 172.94 171.445 173.023C171.039 173.112 170.547 173.156 169.969 173.156ZM169.617 165.367C168.93 165.367 168.38 165.591 167.969 166.039C167.562 166.487 167.323 167.107 167.25 167.898H171.727C171.727 167.081 171.544 166.456 171.18 166.023C170.815 165.586 170.294 165.367 169.617 165.367ZM179.242 164.281C179.622 164.281 179.964 164.312 180.266 164.375L180.086 165.578C179.732 165.5 179.419 165.461 179.148 165.461C178.456 165.461 177.862 165.742 177.367 166.305C176.878 166.867 176.633 167.568 176.633 168.406V173H175.336V164.438H176.406L176.555 166.023H176.617C176.935 165.466 177.318 165.036 177.766 164.734C178.214 164.432 178.706 164.281 179.242 164.281ZM185.727 165.445H183.547V173H182.25V165.445H180.719V164.859L182.25 164.391V163.914C182.25 161.81 183.169 160.758 185.008 160.758C185.461 160.758 185.992 160.849 186.602 161.031L186.266 162.07C185.766 161.909 185.339 161.828 184.984 161.828C184.495 161.828 184.133 161.992 183.898 162.32C183.664 162.643 183.547 163.164 183.547 163.883V164.438H185.727V165.445ZM194.68 168.711C194.68 170.107 194.328 171.198 193.625 171.984C192.922 172.766 191.951 173.156 190.711 173.156C189.945 173.156 189.266 172.977 188.672 172.617C188.078 172.258 187.62 171.742 187.297 171.07C186.974 170.398 186.812 169.612 186.812 168.711C186.812 167.315 187.161 166.229 187.859 165.453C188.557 164.672 189.526 164.281 190.766 164.281C191.964 164.281 192.914 164.68 193.617 165.477C194.326 166.273 194.68 167.352 194.68 168.711ZM188.156 168.711C188.156 169.805 188.375 170.638 188.812 171.211C189.25 171.784 189.893 172.07 190.742 172.07C191.591 172.07 192.234 171.786 192.672 171.219C193.115 170.646 193.336 169.81 193.336 168.711C193.336 167.622 193.115 166.797 192.672 166.234C192.234 165.667 191.586 165.383 190.727 165.383C189.878 165.383 189.237 165.661 188.805 166.219C188.372 166.776 188.156 167.607 188.156 168.711ZM200.867 164.281C201.247 164.281 201.589 164.312 201.891 164.375L201.711 165.578C201.357 165.5 201.044 165.461 200.773 165.461C200.081 165.461 199.487 165.742 198.992 166.305C198.503 166.867 198.258 167.568 198.258 168.406V173H196.961V164.438H198.031L198.18 166.023H198.242C198.56 165.466 198.943 165.036 199.391 164.734C199.839 164.432 200.331 164.281 200.867 164.281ZM214.406 173V167.43C214.406 166.747 214.26 166.237 213.969 165.898C213.677 165.555 213.224 165.383 212.609 165.383C211.802 165.383 211.206 165.615 210.82 166.078C210.435 166.542 210.242 167.255 210.242 168.219V173H208.945V167.43C208.945 166.747 208.799 166.237 208.508 165.898C208.216 165.555 207.76 165.383 207.141 165.383C206.328 165.383 205.732 165.628 205.352 166.117C204.977 166.602 204.789 167.398 204.789 168.508V173H203.492V164.438H204.547L204.758 165.609H204.82C205.065 165.193 205.409 164.867 205.852 164.633C206.299 164.398 206.799 164.281 207.352 164.281C208.69 164.281 209.565 164.766 209.977 165.734H210.039C210.294 165.286 210.664 164.932 211.148 164.672C211.633 164.411 212.185 164.281 212.805 164.281C213.773 164.281 214.497 164.531 214.977 165.031C215.461 165.526 215.703 166.32 215.703 167.414V173H214.406ZM223.906 170.664C223.906 171.461 223.609 172.076 223.016 172.508C222.422 172.94 221.589 173.156 220.516 173.156C219.38 173.156 218.495 172.977 217.859 172.617V171.414C218.271 171.622 218.711 171.786 219.18 171.906C219.654 172.026 220.109 172.086 220.547 172.086C221.224 172.086 221.745 171.979 222.109 171.766C222.474 171.547 222.656 171.216 222.656 170.773C222.656 170.44 222.51 170.156 222.219 169.922C221.932 169.682 221.37 169.401 220.531 169.078C219.734 168.781 219.167 168.523 218.828 168.305C218.495 168.081 218.245 167.828 218.078 167.547C217.917 167.266 217.836 166.93 217.836 166.539C217.836 165.841 218.12 165.292 218.688 164.891C219.255 164.484 220.034 164.281 221.023 164.281C221.945 164.281 222.846 164.469 223.727 164.844L223.266 165.898C222.406 165.544 221.628 165.367 220.93 165.367C220.315 165.367 219.852 165.464 219.539 165.656C219.227 165.849 219.07 166.115 219.07 166.453C219.07 166.682 219.128 166.878 219.242 167.039C219.362 167.201 219.552 167.354 219.812 167.5C220.073 167.646 220.573 167.857 221.312 168.133C222.328 168.503 223.013 168.875 223.367 169.25C223.727 169.625 223.906 170.096 223.906 170.664ZM9.50781 197L7.9375 191.977C7.83854 191.669 7.65365 190.971 7.38281 189.883H7.32031C7.11198 190.794 6.92969 191.497 6.77344 191.992L5.15625 197H3.65625L1.32031 188.438H2.67969C3.23177 190.589 3.65104 192.227 3.9375 193.352C4.22917 194.477 4.39583 195.234 4.4375 195.625H4.5C4.55729 195.328 4.64844 194.945 4.77344 194.477C4.90365 194.003 5.01562 193.628 5.10938 193.352L6.67969 188.438H8.08594L9.61719 193.352C9.90885 194.247 10.1068 195 10.2109 195.609H10.2734C10.2943 195.422 10.349 195.133 10.4375 194.742C10.5312 194.352 11.0755 192.25 12.0703 188.438H13.4141L11.0469 197H9.50781ZM18.5859 197.156C17.3203 197.156 16.3203 196.771 15.5859 196C14.8568 195.229 14.4922 194.159 14.4922 192.789C14.4922 191.409 14.8307 190.312 15.5078 189.5C16.1901 188.688 17.1042 188.281 18.25 188.281C19.3229 188.281 20.1719 188.635 20.7969 189.344C21.4219 190.047 21.7344 190.977 21.7344 192.133V192.953H15.8359C15.862 193.958 16.1146 194.721 16.5938 195.242C17.0781 195.763 17.7578 196.023 18.6328 196.023C19.5547 196.023 20.4661 195.831 21.3672 195.445V196.602C20.9089 196.799 20.474 196.94 20.0625 197.023C19.6562 197.112 19.1641 197.156 18.5859 197.156ZM18.2344 189.367C17.5469 189.367 16.9974 189.591 16.5859 190.039C16.1797 190.487 15.9401 191.107 15.8672 191.898H20.3438C20.3438 191.081 20.1615 190.456 19.7969 190.023C19.4323 189.586 18.9115 189.367 18.2344 189.367ZM25.25 197H23.9531V184.844H25.25V197ZM29.2969 197H28V184.844H29.2969V197ZM33.4062 195.141L33.5234 195.32C33.388 195.841 33.1927 196.445 32.9375 197.133C32.6823 197.826 32.4167 198.469 32.1406 199.062H31.1641C31.3047 198.521 31.4583 197.852 31.625 197.055C31.7969 196.258 31.9167 195.62 31.9844 195.141H33.4062ZM45.3906 197L45.1328 195.781H45.0703C44.6432 196.318 44.2161 196.682 43.7891 196.875C43.3672 197.062 42.8385 197.156 42.2031 197.156C41.3542 197.156 40.6875 196.938 40.2031 196.5C39.724 196.062 39.4844 195.44 39.4844 194.633C39.4844 192.904 40.8672 191.997 43.6328 191.914L45.0859 191.867V191.336C45.0859 190.664 44.9401 190.169 44.6484 189.852C44.362 189.529 43.901 189.367 43.2656 189.367C42.5521 189.367 41.7448 189.586 40.8438 190.023L40.4453 189.031C40.8672 188.802 41.3281 188.622 41.8281 188.492C42.3333 188.362 42.8385 188.297 43.3438 188.297C44.3646 188.297 45.1198 188.523 45.6094 188.977C46.1042 189.43 46.3516 190.156 46.3516 191.156V197H45.3906ZM42.4609 196.086C43.2682 196.086 43.901 195.865 44.3594 195.422C44.8229 194.979 45.0547 194.359 45.0547 193.562V192.789L43.7578 192.844C42.7266 192.88 41.9818 193.042 41.5234 193.328C41.0703 193.609 40.8438 194.049 40.8438 194.648C40.8438 195.117 40.9844 195.474 41.2656 195.719C41.5521 195.964 41.9505 196.086 42.4609 196.086ZM53.0156 197.156C52.4583 197.156 51.9479 197.055 51.4844 196.852C51.026 196.643 50.6406 196.326 50.3281 195.898H50.2344C50.2969 196.398 50.3281 196.872 50.3281 197.32V200.844H49.0312V188.438H50.0859L50.2656 189.609H50.3281C50.6615 189.141 51.0495 188.802 51.4922 188.594C51.9349 188.385 52.4427 188.281 53.0156 188.281C54.151 188.281 55.026 188.669 55.6406 189.445C56.2604 190.221 56.5703 191.31 56.5703 192.711C56.5703 194.117 56.2552 195.211 55.625 195.992C55 196.768 54.1302 197.156 53.0156 197.156ZM52.8281 189.383C51.9531 189.383 51.3203 189.625 50.9297 190.109C50.5391 190.594 50.3385 191.365 50.3281 192.422V192.711C50.3281 193.914 50.5286 194.776 50.9297 195.297C51.3307 195.812 51.974 196.07 52.8594 196.07C53.599 196.07 54.1771 195.771 54.5938 195.172C55.0156 194.573 55.2266 193.747 55.2266 192.695C55.2266 191.628 55.0156 190.81 54.5938 190.242C54.1771 189.669 53.5885 189.383 52.8281 189.383ZM62.8281 197.156C62.2708 197.156 61.7604 197.055 61.2969 196.852C60.8385 196.643 60.4531 196.326 60.1406 195.898H60.0469C60.1094 196.398 60.1406 196.872 60.1406 197.32V200.844H58.8438V188.438H59.8984L60.0781 189.609H60.1406C60.474 189.141 60.862 188.802 61.3047 188.594C61.7474 188.385 62.2552 188.281 62.8281 188.281C63.9635 188.281 64.8385 188.669 65.4531 189.445C66.0729 190.221 66.3828 191.31 66.3828 192.711C66.3828 194.117 66.0677 195.211 65.4375 195.992C64.8125 196.768 63.9427 197.156 62.8281 197.156ZM62.6406 189.383C61.7656 189.383 61.1328 189.625 60.7422 190.109C60.3516 190.594 60.151 191.365 60.1406 192.422V192.711C60.1406 193.914 60.3411 194.776 60.7422 195.297C61.1432 195.812 61.7865 196.07 62.6719 196.07C63.4115 196.07 63.9896 195.771 64.4062 195.172C64.8281 194.573 65.0391 193.747 65.0391 192.695C65.0391 191.628 64.8281 190.81 64.4062 190.242C63.9896 189.669 63.401 189.383 62.6406 189.383ZM72.5625 188.281C72.9427 188.281 73.2839 188.312 73.5859 188.375L73.4062 189.578C73.0521 189.5 72.7396 189.461 72.4688 189.461C71.776 189.461 71.1823 189.742 70.6875 190.305C70.1979 190.867 69.9531 191.568 69.9531 192.406V197H68.6562V188.438H69.7266L69.875 190.023H69.9375C70.2552 189.466 70.638 189.036 71.0859 188.734C71.5339 188.432 72.026 188.281 72.5625 188.281ZM78.8047 197.156C77.5391 197.156 76.5391 196.771 75.8047 196C75.0755 195.229 74.7109 194.159 74.7109 192.789C74.7109 191.409 75.0495 190.312 75.7266 189.5C76.4089 188.688 77.3229 188.281 78.4688 188.281C79.5417 188.281 80.3906 188.635 81.0156 189.344C81.6406 190.047 81.9531 190.977 81.9531 192.133V192.953H76.0547C76.0807 193.958 76.3333 194.721 76.8125 195.242C77.2969 195.763 77.9766 196.023 78.8516 196.023C79.7734 196.023 80.6849 195.831 81.5859 195.445V196.602C81.1276 196.799 80.6927 196.94 80.2812 197.023C79.875 197.112 79.3828 197.156 78.8047 197.156ZM78.4531 189.367C77.7656 189.367 77.2161 189.591 76.8047 190.039C76.3984 190.487 76.1589 191.107 76.0859 191.898H80.5625C80.5625 191.081 80.3802 190.456 80.0156 190.023C79.651 189.586 79.1302 189.367 78.4531 189.367ZM87.5938 197.156C86.3542 197.156 85.3932 196.776 84.7109 196.016C84.0339 195.25 83.6953 194.169 83.6953 192.773C83.6953 191.341 84.0391 190.234 84.7266 189.453C85.4193 188.672 86.4036 188.281 87.6797 188.281C88.0911 188.281 88.5026 188.326 88.9141 188.414C89.3255 188.503 89.6484 188.607 89.8828 188.727L89.4844 189.828C89.1979 189.714 88.8854 189.62 88.5469 189.547C88.2083 189.469 87.9089 189.43 87.6484 189.43C85.9089 189.43 85.0391 190.539 85.0391 192.758C85.0391 193.81 85.25 194.617 85.6719 195.18C86.099 195.742 86.7292 196.023 87.5625 196.023C88.276 196.023 89.0078 195.87 89.7578 195.562V196.711C89.1849 197.008 88.4635 197.156 87.5938 197.156ZM93.0938 197H91.7969V188.438H93.0938V197ZM91.6875 186.117C91.6875 185.82 91.7604 185.604 91.9062 185.469C92.0521 185.328 92.2344 185.258 92.4531 185.258C92.6615 185.258 92.8411 185.328 92.9922 185.469C93.1432 185.609 93.2188 185.826 93.2188 186.117C93.2188 186.409 93.1432 186.628 92.9922 186.773C92.8411 186.914 92.6615 186.984 92.4531 186.984C92.2344 186.984 92.0521 186.914 91.9062 186.773C91.7604 186.628 91.6875 186.409 91.6875 186.117ZM101.109 197L100.852 195.781H100.789C100.362 196.318 99.9349 196.682 99.5078 196.875C99.0859 197.062 98.5573 197.156 97.9219 197.156C97.0729 197.156 96.4062 196.938 95.9219 196.5C95.4427 196.062 95.2031 195.44 95.2031 194.633C95.2031 192.904 96.5859 191.997 99.3516 191.914L100.805 191.867V191.336C100.805 190.664 100.659 190.169 100.367 189.852C100.081 189.529 99.6198 189.367 98.9844 189.367C98.2708 189.367 97.4635 189.586 96.5625 190.023L96.1641 189.031C96.5859 188.802 97.0469 188.622 97.5469 188.492C98.0521 188.362 98.5573 188.297 99.0625 188.297C100.083 188.297 100.839 188.523 101.328 188.977C101.823 189.43 102.07 190.156 102.07 191.156V197H101.109ZM98.1797 196.086C98.987 196.086 99.6198 195.865 100.078 195.422C100.542 194.979 100.773 194.359 100.773 193.562V192.789L99.4766 192.844C98.4453 192.88 97.7005 193.042 97.2422 193.328C96.7891 193.609 96.5625 194.049 96.5625 194.648C96.5625 195.117 96.7031 195.474 96.9844 195.719C97.2708 195.964 97.6693 196.086 98.1797 196.086ZM107.516 196.086C107.745 196.086 107.966 196.07 108.18 196.039C108.393 196.003 108.562 195.966 108.688 195.93V196.922C108.547 196.99 108.339 197.044 108.062 197.086C107.792 197.133 107.547 197.156 107.328 197.156C105.672 197.156 104.844 196.284 104.844 194.539V189.445H103.617V188.82L104.844 188.281L105.391 186.453H106.141V188.438H108.625V189.445H106.141V194.484C106.141 195 106.263 195.396 106.508 195.672C106.753 195.948 107.089 196.086 107.516 196.086ZM114.023 197.156C112.758 197.156 111.758 196.771 111.023 196C110.294 195.229 109.93 194.159 109.93 192.789C109.93 191.409 110.268 190.312 110.945 189.5C111.628 188.688 112.542 188.281 113.688 188.281C114.76 188.281 115.609 188.635 116.234 189.344C116.859 190.047 117.172 190.977 117.172 192.133V192.953H111.273C111.299 193.958 111.552 194.721 112.031 195.242C112.516 195.763 113.195 196.023 114.07 196.023C114.992 196.023 115.904 195.831 116.805 195.445V196.602C116.346 196.799 115.911 196.94 115.5 197.023C115.094 197.112 114.602 197.156 114.023 197.156ZM113.672 189.367C112.984 189.367 112.435 189.591 112.023 190.039C111.617 190.487 111.378 191.107 111.305 191.898H115.781C115.781 191.081 115.599 190.456 115.234 190.023C114.87 189.586 114.349 189.367 113.672 189.367ZM126.312 196.086C126.542 196.086 126.763 196.07 126.977 196.039C127.19 196.003 127.359 195.966 127.484 195.93V196.922C127.344 196.99 127.135 197.044 126.859 197.086C126.589 197.133 126.344 197.156 126.125 197.156C124.469 197.156 123.641 196.284 123.641 194.539V189.445H122.414V188.82L123.641 188.281L124.188 186.453H124.938V188.438H127.422V189.445H124.938V194.484C124.938 195 125.06 195.396 125.305 195.672C125.549 195.948 125.885 196.086 126.312 196.086ZM135.062 197V191.461C135.062 190.763 134.904 190.242 134.586 189.898C134.268 189.555 133.771 189.383 133.094 189.383C132.193 189.383 131.534 189.628 131.117 190.117C130.706 190.607 130.5 191.409 130.5 192.523V197H129.203V184.844H130.5V188.523C130.5 188.966 130.479 189.333 130.438 189.625H130.516C130.771 189.214 131.133 188.891 131.602 188.656C132.076 188.417 132.615 188.297 133.219 188.297C134.266 188.297 135.049 188.547 135.57 189.047C136.096 189.542 136.359 190.331 136.359 191.414V197H135.062ZM142.648 197.156C141.383 197.156 140.383 196.771 139.648 196C138.919 195.229 138.555 194.159 138.555 192.789C138.555 191.409 138.893 190.312 139.57 189.5C140.253 188.688 141.167 188.281 142.312 188.281C143.385 188.281 144.234 188.635 144.859 189.344C145.484 190.047 145.797 190.977 145.797 192.133V192.953H139.898C139.924 193.958 140.177 194.721 140.656 195.242C141.141 195.763 141.82 196.023 142.695 196.023C143.617 196.023 144.529 195.831 145.43 195.445V196.602C144.971 196.799 144.536 196.94 144.125 197.023C143.719 197.112 143.227 197.156 142.648 197.156ZM142.297 189.367C141.609 189.367 141.06 189.591 140.648 190.039C140.242 190.487 140.003 191.107 139.93 191.898H144.406C144.406 191.081 144.224 190.456 143.859 190.023C143.495 189.586 142.974 189.367 142.297 189.367ZM158.93 197V191.43C158.93 190.747 158.784 190.237 158.492 189.898C158.201 189.555 157.747 189.383 157.133 189.383C156.326 189.383 155.729 189.615 155.344 190.078C154.958 190.542 154.766 191.255 154.766 192.219V197H153.469V191.43C153.469 190.747 153.323 190.237 153.031 189.898C152.74 189.555 152.284 189.383 151.664 189.383C150.852 189.383 150.255 189.628 149.875 190.117C149.5 190.602 149.312 191.398 149.312 192.508V197H148.016V188.438H149.07L149.281 189.609H149.344C149.589 189.193 149.932 188.867 150.375 188.633C150.823 188.398 151.323 188.281 151.875 188.281C153.214 188.281 154.089 188.766 154.5 189.734H154.562C154.818 189.286 155.188 188.932 155.672 188.672C156.156 188.411 156.708 188.281 157.328 188.281C158.297 188.281 159.021 188.531 159.5 189.031C159.984 189.526 160.227 190.32 160.227 191.414V197H158.93ZM174.055 197L172.484 191.977C172.385 191.669 172.201 190.971 171.93 189.883H171.867C171.659 190.794 171.477 191.497 171.32 191.992L169.703 197H168.203L165.867 188.438H167.227C167.779 190.589 168.198 192.227 168.484 193.352C168.776 194.477 168.943 195.234 168.984 195.625H169.047C169.104 195.328 169.195 194.945 169.32 194.477C169.451 194.003 169.562 193.628 169.656 193.352L171.227 188.438H172.633L174.164 193.352C174.456 194.247 174.654 195 174.758 195.609H174.82C174.841 195.422 174.896 195.133 174.984 194.742C175.078 194.352 175.622 192.25 176.617 188.438H177.961L175.594 197H174.055ZM180.812 197H179.516V188.438H180.812V197ZM179.406 186.117C179.406 185.82 179.479 185.604 179.625 185.469C179.771 185.328 179.953 185.258 180.172 185.258C180.38 185.258 180.56 185.328 180.711 185.469C180.862 185.609 180.938 185.826 180.938 186.117C180.938 186.409 180.862 186.628 180.711 186.773C180.56 186.914 180.38 186.984 180.172 186.984C179.953 186.984 179.771 186.914 179.625 186.773C179.479 186.628 179.406 186.409 179.406 186.117ZM186.328 196.086C186.557 196.086 186.779 196.07 186.992 196.039C187.206 196.003 187.375 195.966 187.5 195.93V196.922C187.359 196.99 187.151 197.044 186.875 197.086C186.604 197.133 186.359 197.156 186.141 197.156C184.484 197.156 183.656 196.284 183.656 194.539V189.445H182.43V188.82L183.656 188.281L184.203 186.453H184.953V188.438H187.438V189.445H184.953V194.484C184.953 195 185.076 195.396 185.32 195.672C185.565 195.948 185.901 196.086 186.328 196.086ZM195.078 197V191.461C195.078 190.763 194.919 190.242 194.602 189.898C194.284 189.555 193.786 189.383 193.109 189.383C192.208 189.383 191.549 189.628 191.133 190.117C190.721 190.607 190.516 191.409 190.516 192.523V197H189.219V184.844H190.516V188.523C190.516 188.966 190.495 189.333 190.453 189.625H190.531C190.786 189.214 191.148 188.891 191.617 188.656C192.091 188.417 192.63 188.297 193.234 188.297C194.281 188.297 195.065 188.547 195.586 189.047C196.112 189.542 196.375 190.331 196.375 191.414V197H195.078ZM210.594 192.711C210.594 194.107 210.242 195.198 209.539 195.984C208.836 196.766 207.865 197.156 206.625 197.156C205.859 197.156 205.18 196.977 204.586 196.617C203.992 196.258 203.534 195.742 203.211 195.07C202.888 194.398 202.727 193.612 202.727 192.711C202.727 191.315 203.076 190.229 203.773 189.453C204.471 188.672 205.44 188.281 206.68 188.281C207.878 188.281 208.828 188.68 209.531 189.477C210.24 190.273 210.594 191.352 210.594 192.711ZM204.07 192.711C204.07 193.805 204.289 194.638 204.727 195.211C205.164 195.784 205.807 196.07 206.656 196.07C207.505 196.07 208.148 195.786 208.586 195.219C209.029 194.646 209.25 193.81 209.25 192.711C209.25 191.622 209.029 190.797 208.586 190.234C208.148 189.667 207.5 189.383 206.641 189.383C205.792 189.383 205.151 189.661 204.719 190.219C204.286 190.776 204.07 191.607 204.07 192.711ZM214.094 188.438V193.992C214.094 194.69 214.253 195.211 214.57 195.555C214.888 195.898 215.385 196.07 216.062 196.07C216.958 196.07 217.612 195.826 218.023 195.336C218.44 194.846 218.648 194.047 218.648 192.938V188.438H219.945V197H218.875L218.688 195.852H218.617C218.352 196.273 217.982 196.596 217.508 196.82C217.039 197.044 216.503 197.156 215.898 197.156C214.857 197.156 214.076 196.909 213.555 196.414C213.039 195.919 212.781 195.128 212.781 194.039V188.438H214.094ZM226.609 188.281C226.99 188.281 227.331 188.312 227.633 188.375L227.453 189.578C227.099 189.5 226.786 189.461 226.516 189.461C225.823 189.461 225.229 189.742 224.734 190.305C224.245 190.867 224 191.568 224 192.406V197H222.703V188.438H223.773L223.922 190.023H223.984C224.302 189.466 224.685 189.036 225.133 188.734C225.581 188.432 226.073 188.281 226.609 188.281ZM91.4062 220.086C91.6354 220.086 91.8568 220.07 92.0703 220.039C92.2839 220.003 92.4531 219.966 92.5781 219.93V220.922C92.4375 220.99 92.2292 221.044 91.9531 221.086C91.6823 221.133 91.4375 221.156 91.2188 221.156C89.5625 221.156 88.7344 220.284 88.7344 218.539V213.445H87.5078V212.82L88.7344 212.281L89.2812 210.453H90.0312V212.438H92.5156V213.445H90.0312V218.484C90.0312 219 90.1536 219.396 90.3984 219.672C90.6432 219.948 90.9792 220.086 91.4062 220.086ZM101.688 216.711C101.688 218.107 101.336 219.198 100.633 219.984C99.9297 220.766 98.9583 221.156 97.7188 221.156C96.9531 221.156 96.2734 220.977 95.6797 220.617C95.0859 220.258 94.6276 219.742 94.3047 219.07C93.9818 218.398 93.8203 217.612 93.8203 216.711C93.8203 215.315 94.1693 214.229 94.8672 213.453C95.5651 212.672 96.5339 212.281 97.7734 212.281C98.9714 212.281 99.9219 212.68 100.625 213.477C101.333 214.273 101.688 215.352 101.688 216.711ZM95.1641 216.711C95.1641 217.805 95.3828 218.638 95.8203 219.211C96.2578 219.784 96.901 220.07 97.75 220.07C98.599 220.07 99.2422 219.786 99.6797 219.219C100.122 218.646 100.344 217.81 100.344 216.711C100.344 215.622 100.122 214.797 99.6797 214.234C99.2422 213.667 98.5938 213.383 97.7344 213.383C96.8854 213.383 96.2448 213.661 95.8125 214.219C95.3802 214.776 95.1641 215.607 95.1641 216.711ZM105.25 216.617C105.474 216.299 105.815 215.883 106.273 215.367L109.039 212.438H110.578L107.109 216.086L110.82 221H109.25L106.227 216.953L105.25 217.797V221H103.969V208.844H105.25V215.289C105.25 215.576 105.229 216.018 105.188 216.617H105.25ZM115.992 221.156C114.727 221.156 113.727 220.771 112.992 220C112.263 219.229 111.898 218.159 111.898 216.789C111.898 215.409 112.237 214.312 112.914 213.5C113.596 212.688 114.51 212.281 115.656 212.281C116.729 212.281 117.578 212.635 118.203 213.344C118.828 214.047 119.141 214.977 119.141 216.133V216.953H113.242C113.268 217.958 113.521 218.721 114 219.242C114.484 219.763 115.164 220.023 116.039 220.023C116.961 220.023 117.872 219.831 118.773 219.445V220.602C118.315 220.799 117.88 220.94 117.469 221.023C117.062 221.112 116.57 221.156 115.992 221.156ZM115.641 213.367C114.953 213.367 114.404 213.591 113.992 214.039C113.586 214.487 113.346 215.107 113.273 215.898H117.75C117.75 215.081 117.568 214.456 117.203 214.023C116.839 213.586 116.318 213.367 115.641 213.367ZM127.219 221V215.461C127.219 214.763 127.06 214.242 126.742 213.898C126.424 213.555 125.927 213.383 125.25 213.383C124.354 213.383 123.698 213.625 123.281 214.109C122.865 214.594 122.656 215.393 122.656 216.508V221H121.359V212.438H122.414L122.625 213.609H122.688C122.953 213.188 123.326 212.862 123.805 212.633C124.284 212.398 124.818 212.281 125.406 212.281C126.438 212.281 127.214 212.531 127.734 213.031C128.255 213.526 128.516 214.32 128.516 215.414V221H127.219ZM136.711 218.664C136.711 219.461 136.414 220.076 135.82 220.508C135.227 220.94 134.393 221.156 133.32 221.156C132.185 221.156 131.299 220.977 130.664 220.617V219.414C131.076 219.622 131.516 219.786 131.984 219.906C132.458 220.026 132.914 220.086 133.352 220.086C134.029 220.086 134.549 219.979 134.914 219.766C135.279 219.547 135.461 219.216 135.461 218.773C135.461 218.44 135.315 218.156 135.023 217.922C134.737 217.682 134.174 217.401 133.336 217.078C132.539 216.781 131.971 216.523 131.633 216.305C131.299 216.081 131.049 215.828 130.883 215.547C130.721 215.266 130.641 214.93 130.641 214.539C130.641 213.841 130.924 213.292 131.492 212.891C132.06 212.484 132.839 212.281 133.828 212.281C134.75 212.281 135.651 212.469 136.531 212.844L136.07 213.898C135.211 213.544 134.432 213.367 133.734 213.367C133.12 213.367 132.656 213.464 132.344 213.656C132.031 213.849 131.875 214.115 131.875 214.453C131.875 214.682 131.932 214.878 132.047 215.039C132.167 215.201 132.357 215.354 132.617 215.5C132.878 215.646 133.378 215.857 134.117 216.133C135.133 216.503 135.818 216.875 136.172 217.25C136.531 217.625 136.711 218.096 136.711 218.664ZM140 217.852H139.18L138.781 209.578H140.398L140 217.852ZM138.641 220.172C138.641 219.464 138.953 219.109 139.578 219.109C139.88 219.109 140.112 219.201 140.273 219.383C140.44 219.565 140.523 219.828 140.523 220.172C140.523 220.505 140.44 220.766 140.273 220.953C140.107 221.135 139.875 221.227 139.578 221.227C139.307 221.227 139.083 221.146 138.906 220.984C138.729 220.818 138.641 220.547 138.641 220.172Z" fill="#414141"/>
<path d="M51.8437 118.96L57.6757 133.984C57.8997 134.56 58.1477 134.96 58.4197 135.184C58.7077 135.392 58.9637 135.504 59.1877 135.52V136C58.7077 135.968 58.1397 135.952 57.4837 135.952C56.8437 135.936 56.1957 135.928 55.5397 135.928C54.8037 135.928 54.1077 135.936 53.4517 135.952C52.7957 135.952 52.2757 135.968 51.8917 136V135.52C52.7077 135.488 53.2197 135.352 53.4277 135.112C53.6517 134.856 53.6037 134.32 53.2837 133.504L49.2037 122.344L49.6357 121.72L45.9877 131.224C45.6357 132.104 45.4197 132.824 45.3397 133.384C45.2757 133.944 45.3157 134.376 45.4597 134.68C45.6197 134.984 45.8677 135.2 46.2037 135.328C46.5557 135.44 46.9717 135.504 47.4517 135.52V136C46.9237 135.968 46.4197 135.952 45.9397 135.952C45.4597 135.936 44.9717 135.928 44.4757 135.928C44.1237 135.928 43.7877 135.936 43.4677 135.952C43.1637 135.952 42.8917 135.968 42.6517 136V135.52C42.9877 135.456 43.3317 135.24 43.6837 134.872C44.0357 134.504 44.3797 133.88 44.7157 133L50.1877 118.96C50.4437 118.976 50.7157 118.984 51.0037 118.984C51.3077 118.984 51.5877 118.976 51.8437 118.96ZM53.5237 129.088V129.568H46.3717L46.6117 129.088H53.5237ZM64.4915 123.328V137.968C64.4915 138.72 64.6835 139.216 65.0675 139.456C65.4515 139.712 65.9795 139.84 66.6515 139.84V140.344C66.2355 140.328 65.6595 140.304 64.9235 140.272C64.2035 140.256 63.4355 140.248 62.6195 140.248C62.0275 140.248 61.4435 140.256 60.8675 140.272C60.3075 140.304 59.8835 140.328 59.5955 140.344V139.84C60.1235 139.84 60.4915 139.728 60.6995 139.504C60.9235 139.28 61.0355 138.848 61.0355 138.208V126.208C61.0355 125.488 60.9235 124.96 60.6995 124.624C60.4755 124.272 60.0755 124.096 59.4995 124.096V123.592C60.0115 123.64 60.5075 123.664 60.9875 123.664C61.6435 123.664 62.2675 123.64 62.8595 123.592C63.4515 123.528 63.9955 123.44 64.4915 123.328ZM68.2115 123.256C69.0275 123.256 69.7555 123.48 70.3955 123.928C71.0355 124.36 71.5475 125.024 71.9315 125.92C72.3155 126.8 72.5075 127.904 72.5075 129.232C72.5075 130.4 72.3715 131.424 72.0995 132.304C71.8435 133.184 71.4675 133.928 70.9715 134.536C70.4915 135.128 69.9075 135.576 69.2195 135.88C68.5475 136.184 67.7875 136.336 66.9395 136.336C66.3155 136.336 65.7475 136.224 65.2355 136C64.7235 135.792 64.3315 135.488 64.0595 135.088L64.2995 134.776C64.4595 135.064 64.6835 135.288 64.9715 135.448C65.2755 135.608 65.6195 135.688 66.0035 135.688C66.7235 135.688 67.2915 135.448 67.7075 134.968C68.1235 134.472 68.4195 133.784 68.5955 132.904C68.7875 132.008 68.8835 130.944 68.8835 129.712C68.8835 128.336 68.7955 127.256 68.6195 126.472C68.4435 125.688 68.2035 125.128 67.8995 124.792C67.5955 124.456 67.2275 124.288 66.7955 124.288C66.2195 124.288 65.6915 124.512 65.2115 124.96C64.7475 125.408 64.4835 126.048 64.4195 126.88L64.2995 126.04C64.5875 125.128 65.0755 124.44 65.7635 123.976C66.4675 123.496 67.2835 123.256 68.2115 123.256ZM78.8822 123.328V137.968C78.8822 138.72 79.0742 139.216 79.4582 139.456C79.8422 139.712 80.3702 139.84 81.0422 139.84V140.344C80.6262 140.328 80.0502 140.304 79.3142 140.272C78.5942 140.256 77.8262 140.248 77.0102 140.248C76.4182 140.248 75.8342 140.256 75.2582 140.272C74.6982 140.304 74.2742 140.328 73.9862 140.344V139.84C74.5142 139.84 74.8822 139.728 75.0902 139.504C75.3142 139.28 75.4262 138.848 75.4262 138.208V126.208C75.4262 125.488 75.3142 124.96 75.0902 124.624C74.8662 124.272 74.4662 124.096 73.8902 124.096V123.592C74.4022 123.64 74.8982 123.664 75.3782 123.664C76.0342 123.664 76.6582 123.64 77.2502 123.592C77.8422 123.528 78.3862 123.44 78.8822 123.328ZM82.6022 123.256C83.4182 123.256 84.1462 123.48 84.7862 123.928C85.4262 124.36 85.9382 125.024 86.3222 125.92C86.7062 126.8 86.8982 127.904 86.8982 129.232C86.8982 130.4 86.7622 131.424 86.4902 132.304C86.2342 133.184 85.8582 133.928 85.3622 134.536C84.8822 135.128 84.2982 135.576 83.6102 135.88C82.9382 136.184 82.1782 136.336 81.3302 136.336C80.7062 136.336 80.1382 136.224 79.6262 136C79.1142 135.792 78.7222 135.488 78.4502 135.088L78.6902 134.776C78.8502 135.064 79.0742 135.288 79.3622 135.448C79.6662 135.608 80.0102 135.688 80.3942 135.688C81.1142 135.688 81.6822 135.448 82.0982 134.968C82.5142 134.472 82.8102 133.784 82.9862 132.904C83.1782 132.008 83.2742 130.944 83.2742 129.712C83.2742 128.336 83.1862 127.256 83.0102 126.472C82.8342 125.688 82.5942 125.128 82.2902 124.792C81.9862 124.456 81.6182 124.288 81.1862 124.288C80.6102 124.288 80.0822 124.512 79.6022 124.96C79.1382 125.408 78.8742 126.048 78.8102 126.88L78.6902 126.04C78.9782 125.128 79.4662 124.44 80.1542 123.976C80.8582 123.496 81.6742 123.256 82.6022 123.256ZM96.6328 123.256C97.1448 123.256 97.5608 123.368 97.8808 123.592C98.2008 123.8 98.4328 124.072 98.5768 124.408C98.7368 124.744 98.8168 125.096 98.8168 125.464C98.8168 126.056 98.6408 126.544 98.2888 126.928C97.9528 127.296 97.5048 127.48 96.9448 127.48C96.3848 127.48 95.9448 127.344 95.6248 127.072C95.3208 126.784 95.1688 126.408 95.1688 125.944C95.1688 125.496 95.2648 125.128 95.4568 124.84C95.6648 124.536 95.9208 124.28 96.2248 124.072C96.0008 124.008 95.7768 124.016 95.5528 124.096C95.2488 124.144 94.9608 124.272 94.6888 124.48C94.4168 124.672 94.1848 124.92 93.9928 125.224C93.8008 125.512 93.6488 125.832 93.5368 126.184C93.4248 126.52 93.3688 126.848 93.3688 127.168V133.528C93.3688 134.296 93.5528 134.816 93.9208 135.088C94.3048 135.36 94.8728 135.496 95.6248 135.496V136C95.2568 135.984 94.7208 135.968 94.0168 135.952C93.3128 135.92 92.5768 135.904 91.8088 135.904C91.1688 135.904 90.5208 135.92 89.8648 135.952C89.2088 135.968 88.7128 135.984 88.3768 136V135.496C88.9368 135.496 89.3288 135.376 89.5528 135.136C89.7928 134.896 89.9128 134.44 89.9128 133.768V126.208C89.9128 125.488 89.8008 124.96 89.5768 124.624C89.3688 124.272 88.9688 124.096 88.3768 124.096V123.592C88.8888 123.64 89.3848 123.664 89.8648 123.664C90.5368 123.664 91.1608 123.64 91.7368 123.592C92.3288 123.528 92.8728 123.44 93.3688 123.328V125.56C93.5608 125.128 93.8168 124.736 94.1368 124.384C94.4568 124.032 94.8248 123.76 95.2408 123.568C95.6568 123.36 96.1208 123.256 96.6328 123.256ZM105.444 123.256C106.852 123.256 107.956 123.672 108.756 124.504C109.556 125.336 109.956 126.696 109.956 128.584H102.06L102.012 128.128H106.932C106.948 127.344 106.9 126.624 106.788 125.968C106.676 125.296 106.5 124.76 106.26 124.36C106.02 123.96 105.7 123.76 105.3 123.76C104.74 123.76 104.26 124.112 103.86 124.816C103.476 125.52 103.244 126.688 103.164 128.32L103.236 128.464C103.22 128.656 103.204 128.856 103.188 129.064C103.188 129.272 103.188 129.488 103.188 129.712C103.188 130.816 103.34 131.712 103.644 132.4C103.964 133.088 104.364 133.592 104.844 133.912C105.324 134.216 105.812 134.368 106.308 134.368C106.644 134.368 106.988 134.32 107.34 134.224C107.708 134.112 108.076 133.92 108.444 133.648C108.812 133.36 109.156 132.96 109.476 132.448L109.908 132.592C109.716 133.2 109.412 133.792 108.996 134.368C108.58 134.944 108.052 135.416 107.412 135.784C106.772 136.152 106.004 136.336 105.108 136.336C104.02 136.336 103.06 136.104 102.228 135.64C101.396 135.176 100.74 134.472 100.26 133.528C99.7958 132.584 99.5638 131.384 99.5638 129.928C99.5638 128.44 99.8118 127.2 100.308 126.208C100.82 125.216 101.516 124.48 102.396 124C103.292 123.504 104.308 123.256 105.444 123.256ZM117.586 123.256C118.21 123.256 118.778 123.328 119.29 123.472C119.818 123.6 120.25 123.768 120.586 123.976C121.002 124.232 121.322 124.552 121.546 124.936C121.786 125.304 121.906 125.736 121.906 126.232C121.906 126.792 121.73 127.256 121.378 127.624C121.026 127.976 120.57 128.152 120.01 128.152C119.45 128.152 119.002 127.992 118.666 127.672C118.33 127.352 118.162 126.92 118.162 126.376C118.162 125.864 118.322 125.44 118.642 125.104C118.962 124.752 119.33 124.52 119.746 124.408C119.618 124.248 119.426 124.112 119.17 124C118.914 123.888 118.626 123.832 118.306 123.832C117.81 123.832 117.37 123.976 116.986 124.264C116.618 124.552 116.306 124.952 116.05 125.464C115.794 125.976 115.594 126.576 115.45 127.264C115.322 127.952 115.258 128.704 115.258 129.52C115.258 130.752 115.41 131.72 115.714 132.424C116.034 133.128 116.434 133.624 116.914 133.912C117.41 134.2 117.922 134.344 118.45 134.344C118.754 134.344 119.082 134.296 119.434 134.2C119.802 134.104 120.17 133.912 120.538 133.624C120.922 133.336 121.274 132.928 121.594 132.4L122.002 132.544C121.826 133.136 121.538 133.728 121.138 134.32C120.738 134.912 120.218 135.4 119.578 135.784C118.938 136.152 118.154 136.336 117.226 136.336C116.186 136.336 115.242 136.112 114.394 135.664C113.562 135.2 112.89 134.496 112.378 133.552C111.882 132.592 111.634 131.36 111.634 129.856C111.634 128.416 111.89 127.208 112.402 126.232C112.93 125.24 113.642 124.496 114.538 124C115.434 123.504 116.45 123.256 117.586 123.256ZM126.372 117.4C127.044 117.4 127.572 117.568 127.956 117.904C128.356 118.224 128.556 118.672 128.556 119.248C128.556 119.824 128.356 120.28 127.956 120.616C127.572 120.936 127.044 121.096 126.372 121.096C125.7 121.096 125.164 120.936 124.764 120.616C124.38 120.28 124.188 119.824 124.188 119.248C124.188 118.672 124.38 118.224 124.764 117.904C125.164 117.568 125.7 117.4 126.372 117.4ZM128.244 123.328V133.768C128.244 134.44 128.356 134.896 128.58 135.136C128.82 135.376 129.22 135.496 129.78 135.496V136C129.492 135.984 129.044 135.968 128.436 135.952C127.828 135.92 127.212 135.904 126.588 135.904C125.964 135.904 125.332 135.92 124.692 135.952C124.052 135.968 123.572 135.984 123.252 136V135.496C123.812 135.496 124.204 135.376 124.428 135.136C124.668 134.896 124.788 134.44 124.788 133.768V126.208C124.788 125.488 124.676 124.96 124.452 124.624C124.244 124.272 123.844 124.096 123.252 124.096V123.592C123.764 123.64 124.26 123.664 124.74 123.664C125.412 123.664 126.036 123.64 126.612 123.592C127.204 123.528 127.748 123.44 128.244 123.328ZM134.134 136.168C133.414 136.168 132.814 136.032 132.334 135.76C131.854 135.488 131.502 135.128 131.278 134.68C131.054 134.216 130.942 133.712 130.942 133.168C130.942 132.48 131.094 131.92 131.398 131.488C131.718 131.056 132.126 130.704 132.622 130.432C133.118 130.16 133.638 129.936 134.182 129.76C134.742 129.584 135.27 129.416 135.766 129.256C136.278 129.08 136.686 128.88 136.99 128.656C137.31 128.416 137.47 128.112 137.47 127.744V125.872C137.47 125.456 137.398 125.088 137.254 124.768C137.126 124.432 136.918 124.176 136.63 124C136.358 123.824 135.998 123.736 135.55 123.736C135.23 123.736 134.91 123.784 134.59 123.88C134.27 123.96 134.006 124.104 133.798 124.312C134.246 124.472 134.59 124.72 134.83 125.056C135.086 125.376 135.214 125.744 135.214 126.16C135.214 126.704 135.022 127.136 134.638 127.456C134.27 127.776 133.83 127.936 133.318 127.936C132.742 127.936 132.302 127.76 131.998 127.408C131.71 127.04 131.566 126.6 131.566 126.088C131.566 125.624 131.678 125.24 131.902 124.936C132.142 124.632 132.47 124.344 132.886 124.072C133.334 123.816 133.87 123.616 134.494 123.472C135.134 123.328 135.822 123.256 136.558 123.256C137.294 123.256 137.958 123.336 138.55 123.496C139.142 123.64 139.638 123.912 140.038 124.312C140.406 124.68 140.646 125.136 140.758 125.68C140.87 126.208 140.926 126.88 140.926 127.696V134.224C140.926 134.624 140.966 134.904 141.046 135.064C141.126 135.208 141.262 135.28 141.454 135.28C141.598 135.28 141.734 135.24 141.862 135.16C142.006 135.08 142.158 134.984 142.318 134.872L142.558 135.28C142.222 135.568 141.83 135.792 141.382 135.952C140.95 136.096 140.462 136.168 139.918 136.168C139.326 136.168 138.854 136.088 138.502 135.928C138.15 135.752 137.894 135.52 137.734 135.232C137.59 134.944 137.518 134.608 137.518 134.224C137.134 134.832 136.67 135.312 136.126 135.664C135.582 136 134.918 136.168 134.134 136.168ZM135.838 134.632C136.158 134.632 136.446 134.56 136.702 134.416C136.974 134.256 137.23 134 137.47 133.648V128.728C137.326 128.968 137.126 129.184 136.87 129.376C136.614 129.568 136.342 129.768 136.054 129.976C135.766 130.168 135.486 130.384 135.214 130.624C134.958 130.864 134.75 131.16 134.59 131.512C134.43 131.864 134.35 132.288 134.35 132.784C134.35 133.408 134.486 133.872 134.758 134.176C135.03 134.48 135.39 134.632 135.838 134.632ZM148.116 119.656V123.592H150.948V124.072H148.116V133.768C148.116 134.248 148.204 134.592 148.38 134.8C148.556 134.992 148.82 135.088 149.172 135.088C149.46 135.088 149.748 134.984 150.036 134.776C150.324 134.552 150.58 134.176 150.804 133.648L151.212 133.864C150.956 134.584 150.564 135.176 150.036 135.64C149.524 136.104 148.82 136.336 147.924 136.336C147.396 136.336 146.932 136.264 146.532 136.12C146.132 135.992 145.796 135.792 145.524 135.52C145.172 135.168 144.94 134.736 144.828 134.224C144.716 133.696 144.66 133.016 144.66 132.184V124.072H142.644V123.592H144.66V120.424C145.332 120.424 145.948 120.368 146.508 120.256C147.084 120.128 147.62 119.928 148.116 119.656ZM154.801 117.4C155.473 117.4 156.001 117.568 156.385 117.904C156.785 118.224 156.985 118.672 156.985 119.248C156.985 119.824 156.785 120.28 156.385 120.616C156.001 120.936 155.473 121.096 154.801 121.096C154.129 121.096 153.593 120.936 153.193 120.616C152.809 120.28 152.617 119.824 152.617 119.248C152.617 118.672 152.809 118.224 153.193 117.904C153.593 117.568 154.129 117.4 154.801 117.4ZM156.673 123.328V133.768C156.673 134.44 156.785 134.896 157.009 135.136C157.249 135.376 157.649 135.496 158.209 135.496V136C157.921 135.984 157.473 135.968 156.865 135.952C156.257 135.92 155.641 135.904 155.017 135.904C154.393 135.904 153.761 135.92 153.121 135.952C152.481 135.968 152.001 135.984 151.681 136V135.496C152.241 135.496 152.633 135.376 152.857 135.136C153.097 134.896 153.217 134.44 153.217 133.768V126.208C153.217 125.488 153.105 124.96 152.881 124.624C152.673 124.272 152.273 124.096 151.681 124.096V123.592C152.193 123.64 152.689 123.664 153.169 123.664C153.841 123.664 154.465 123.64 155.041 123.592C155.633 123.528 156.177 123.44 156.673 123.328ZM165.444 123.256C166.612 123.256 167.636 123.472 168.516 123.904C169.396 124.336 170.084 125.032 170.58 125.992C171.076 126.952 171.324 128.224 171.324 129.808C171.324 131.392 171.076 132.664 170.58 133.624C170.084 134.568 169.396 135.256 168.516 135.688C167.636 136.12 166.612 136.336 165.444 136.336C164.308 136.336 163.292 136.12 162.396 135.688C161.516 135.256 160.82 134.568 160.308 133.624C159.812 132.664 159.564 131.392 159.564 129.808C159.564 128.224 159.812 126.952 160.308 125.992C160.82 125.032 161.516 124.336 162.396 123.904C163.292 123.472 164.308 123.256 165.444 123.256ZM165.444 123.736C164.804 123.736 164.268 124.216 163.836 125.176C163.404 126.12 163.188 127.664 163.188 129.808C163.188 131.952 163.404 133.496 163.836 134.44C164.268 135.384 164.804 135.856 165.444 135.856C166.1 135.856 166.636 135.384 167.052 134.44C167.484 133.496 167.7 131.952 167.7 129.808C167.7 127.664 167.484 126.12 167.052 125.176C166.636 124.216 166.1 123.736 165.444 123.736ZM181.75 123.256C182.422 123.256 182.966 123.344 183.382 123.52C183.814 123.68 184.15 123.904 184.39 124.192C184.646 124.496 184.83 124.888 184.942 125.368C185.07 125.848 185.134 126.496 185.134 127.312V133.768C185.134 134.44 185.246 134.896 185.47 135.136C185.71 135.376 186.11 135.496 186.67 135.496V136C186.366 135.984 185.91 135.968 185.302 135.952C184.694 135.92 184.094 135.904 183.502 135.904C182.894 135.904 182.294 135.92 181.702 135.952C181.126 135.968 180.686 135.984 180.382 136V135.496C180.862 135.496 181.198 135.376 181.39 135.136C181.582 134.896 181.678 134.44 181.678 133.768V126.304C181.678 125.904 181.638 125.56 181.558 125.272C181.478 124.968 181.334 124.736 181.126 124.576C180.918 124.4 180.606 124.312 180.19 124.312C179.758 124.312 179.358 124.432 178.99 124.672C178.638 124.912 178.35 125.248 178.126 125.68C177.918 126.096 177.814 126.568 177.814 127.096V133.768C177.814 134.44 177.91 134.896 178.102 135.136C178.31 135.376 178.646 135.496 179.11 135.496V136C178.822 135.984 178.398 135.968 177.838 135.952C177.294 135.92 176.726 135.904 176.134 135.904C175.526 135.904 174.902 135.92 174.262 135.952C173.622 135.968 173.142 135.984 172.822 136V135.496C173.382 135.496 173.774 135.376 173.998 135.136C174.238 134.896 174.358 134.44 174.358 133.768V126.208C174.358 125.488 174.246 124.96 174.022 124.624C173.814 124.272 173.414 124.096 172.822 124.096V123.592C173.334 123.64 173.83 123.664 174.31 123.664C174.982 123.664 175.606 123.64 176.182 123.592C176.774 123.528 177.318 123.44 177.814 123.328V125.488C178.214 124.672 178.758 124.096 179.446 123.76C180.134 123.424 180.902 123.256 181.75 123.256Z" fill="#414141"/>
<g clip-path="url(#clip0_1_249)">
<path d="M159 0H71V88H159V0Z" fill="white"/>
<path d="M97.026 38.0444L77.8082 74.2514L95.2597 72.6392L103.706 87.9967L122.924 51.7899L97.026 38.0444Z" fill="#E95454"/>
<path d="M99.227 77.454C99.7662 76.2957 99.2022 74.9117 98.0742 74.312L96.9682 73.7232C95.8621 73.0932 95.4412 71.6928 96.0437 70.5593C96.6545 69.4065 98.0906 68.9662 99.2434 69.577L102.369 71.2361C103.335 71.7478 104.545 71.3764 105.043 70.4052L105.12 70.2566C105.692 69.3404 105.354 68.1298 104.402 67.6264L95.0532 62.6657C93.9142 62.0605 93.3557 60.6821 93.8867 59.521C94.4727 58.2857 95.9529 57.7988 97.1442 58.4316L105.816 63.0345C106.782 63.5462 107.993 63.1748 108.504 62.2091L108.554 62.0825L108.568 62.055C109.121 61.0425 108.733 59.7714 107.712 59.2294L102.848 56.6487C101.709 56.0434 101.15 54.665 101.689 53.4902C102.27 52.2686 103.756 51.7679 104.947 52.4007L110.32 55.2538C111.324 55.7876 112.524 55.3418 113.044 54.3293C113.052 54.3156 113.052 54.3156 113.058 54.3018C113.066 54.2881 113.066 54.2881 113.071 54.2744C113.619 53.2757 113.316 52.0321 112.309 51.501L106.512 48.4251C105.387 47.8281 104.829 46.4497 105.36 45.2886C105.946 44.0533 107.426 43.5663 108.617 44.1991L122.918 51.7899L103.701 87.9966L98.4043 78.3701C98.7454 78.139 99.0426 77.8529 99.227 77.454Z" fill="#ED6362"/>
<path d="M132.975 38.0444L152.192 74.2514L134.741 72.6392L126.294 87.9967L107.077 51.7899L132.975 38.0444Z" fill="#ED6362"/>
<path d="M130.773 77.4541C130.234 76.2959 130.798 74.9119 131.926 74.3122L133.032 73.7234C134.138 73.0933 134.559 71.6929 133.957 70.5594C133.346 69.4066 131.91 68.9664 130.757 69.5772L127.631 71.2362C126.666 71.7479 125.455 71.3765 124.957 70.4053L124.88 70.2567C124.308 69.3406 124.646 68.13 125.598 67.6265L134.95 62.6632C136.089 62.0579 136.647 60.6795 136.116 59.5185C135.53 58.2831 134.05 57.7962 132.859 58.429L124.187 63.0319C123.221 63.5436 122.011 63.1722 121.499 62.2065L121.449 62.0799L121.435 62.0524C120.882 61.0399 121.27 59.7688 122.291 59.2268L127.155 56.6461C128.294 56.0408 128.853 54.6624 128.314 53.4876C127.733 52.2661 126.247 51.7654 125.056 52.3982L119.677 55.2567C118.673 55.7905 117.474 55.3447 116.954 54.3323C116.945 54.3186 116.945 54.3186 116.94 54.3048C116.932 54.2911 116.932 54.2911 116.926 54.2773C116.379 53.2786 116.681 52.035 117.688 51.5039L123.485 48.428C124.61 47.831 125.169 46.4526 124.638 45.2915C124.052 44.0563 122.572 43.5692 121.38 44.202L107.079 51.7929L126.297 88L131.593 78.3731C131.255 78.1392 130.958 77.8531 130.773 77.4541Z" fill="#E95454"/>
<path d="M115 64.2206C132.734 64.2206 147.11 49.8443 147.11 32.1103C147.11 14.3762 132.734 0 115 0C97.266 0 82.8896 14.3762 82.8896 32.1103C82.8896 49.8443 97.266 64.2206 115 64.2206Z" fill="#FFCC5B"/>
<path d="M119.355 28.4263H99.0065C97.4245 28.4263 96.1259 27.1278 96.1259 25.5458L96.1479 25.3477V25.3036C96.1259 23.6336 97.4878 22.269 99.1606 22.269H113.264C115.132 22.269 116.783 20.885 116.893 19.0142C116.981 17.058 115.421 15.4073 113.462 15.4073H98.5223C96.8743 15.4073 95.6417 14.0234 95.6637 12.3726C95.6637 12.3506 95.6637 12.3506 95.6637 12.3286C95.6637 12.3066 95.6637 12.3066 95.6637 12.2846C95.6417 10.6365 96.8715 9.24984 98.5223 9.24984H114.155C116.001 9.24984 117.652 7.86596 117.762 6.01709C117.85 4.03892 116.29 2.41016 114.331 2.41016H102.883C91.2093 7.22216 82.983 18.7006 82.983 32.1103C82.983 45.5201 91.2093 56.9958 102.886 61.8022H117.421C119.267 61.8022 120.918 60.4183 121.028 58.5694C121.116 56.5913 119.556 54.9653 117.597 54.9653L101.062 54.9626C99.1111 54.9626 97.54 53.331 97.6446 51.3556C97.7409 49.5067 99.4027 48.1174 101.254 48.1174H107.665C109.508 48.065 110.997 46.5546 110.997 44.6974C110.997 42.8074 109.459 41.2666 107.566 41.2666H97.8482C96.2662 41.2666 94.9676 39.9707 94.9896 38.386V38.1439C94.8795 36.5839 96.1342 35.2633 97.6941 35.2633H119.157C121.025 35.2633 122.676 33.8794 122.786 32.0306C122.874 30.0551 121.311 28.4263 119.355 28.4263Z" fill="#FDBC4B"/>
<path d="M115 55.0287C102.361 55.0287 92.0793 44.7443 92.0793 32.1077C92.0793 19.471 102.361 9.18945 115 9.18945C127.64 9.18945 137.921 19.4738 137.921 32.1104C137.921 44.7471 127.64 55.0287 115 55.0287Z" fill="#FFDB70"/>
<path opacity="0.2" d="M137.921 32.1098C137.921 19.9162 128.341 9.94272 116.315 9.25488H114.18C112.772 9.25488 111.514 10.3114 111.429 11.7201C111.363 13.2278 112.551 14.4714 114.045 14.4714L126.657 14.4741C128.146 14.4741 129.343 15.7177 129.263 17.2254C129.189 18.6368 127.923 19.6961 126.509 19.6961H121.62C120.214 19.7374 119.078 20.8874 119.078 22.3043C119.078 23.746 120.252 24.9207 121.694 24.9207H129.106C130.314 24.9207 131.302 25.9112 131.285 27.1163V27.2978C131.368 28.4892 130.413 29.4934 129.222 29.4934H112.854C111.429 29.4934 110.172 30.5499 110.086 31.9586C110.02 33.4662 111.209 34.7098 112.703 34.7098H128.22C129.428 34.7098 130.416 35.7003 130.416 36.9054L130.399 37.0567V37.0897C130.416 38.3636 129.376 39.4035 128.102 39.4035H117.344C115.919 39.4035 114.662 40.4601 114.576 41.8852C114.51 43.3764 115.699 44.6365 117.193 44.6365H128.586C129.843 44.6365 130.782 45.693 130.765 46.9503C130.765 46.9669 130.765 46.9669 130.765 46.9834C130.765 46.9998 130.765 46.9998 130.765 47.0164C130.782 48.2737 129.843 49.3302 128.586 49.3302H116.665C115.256 49.3302 113.999 50.3867 113.913 51.7954C113.847 53.3058 115.036 54.5466 116.53 54.5466H119.675C130.083 52.3787 137.921 43.1426 137.921 32.1098Z" fill="white"/>
<path d="M131.001 27.0341H119.853L116.406 16.4306C115.963 15.0687 114.034 15.0687 113.591 16.4306L110.147 27.0341H98.9984C97.5649 27.0341 96.9679 28.8692 98.1289 29.7111L107.148 36.2647L103.703 46.8681C103.26 48.2301 104.82 49.3636 105.981 48.5217L115 41.9681L124.019 48.5217C125.18 49.3636 126.74 48.2301 126.297 46.8681L122.852 36.2647L131.871 29.7111C133.029 28.8692 132.435 27.0341 131.001 27.0341Z" fill="white"/>
</g>
<defs>
<clipPath id="clip0_1_249">
<rect width="88" height="88" fill="white" transform="translate(71)"/>
</clipPath>
</defs>
</svg>
