<svg width="234" height="260" viewBox="0 0 234 260" fill="none" xmlns="http://www.w3.org/2000/svg">
<path d="M3.64844 206H2.32031V194.578H8.6875V195.758H3.64844V199.938H8.38281V201.117H3.64844V206ZM11.6875 206H10.3906V197.438H11.6875V206ZM10.2812 195.117C10.2812 194.82 10.3542 194.604 10.5 194.469C10.6458 194.328 10.8281 194.258 11.0469 194.258C11.2552 194.258 11.4349 194.328 11.5859 194.469C11.737 194.609 11.8125 194.826 11.8125 195.117C11.8125 195.409 11.737 195.628 11.5859 195.773C11.4349 195.914 11.2552 195.984 11.0469 195.984C10.8281 195.984 10.6458 195.914 10.5 195.773C10.3542 195.628 10.2812 195.409 10.2812 195.117ZM20.2969 206V200.461C20.2969 199.763 20.138 199.242 19.8203 198.898C19.5026 198.555 19.0052 198.383 18.3281 198.383C17.4323 198.383 16.776 198.625 16.3594 199.109C15.9427 199.594 15.7344 200.393 15.7344 201.508V206H14.4375V197.438H15.4922L15.7031 198.609H15.7656C16.0312 198.188 16.4036 197.862 16.8828 197.633C17.362 197.398 17.8958 197.281 18.4844 197.281C19.5156 197.281 20.2917 197.531 20.8125 198.031C21.3333 198.526 21.5938 199.32 21.5938 200.414V206H20.2969ZM30.0938 204.852H30.0234C29.4245 205.721 28.5286 206.156 27.3359 206.156C26.2161 206.156 25.3438 205.773 24.7188 205.008C24.099 204.242 23.7891 203.154 23.7891 201.742C23.7891 200.331 24.1016 199.234 24.7266 198.453C25.3516 197.672 26.2214 197.281 27.3359 197.281C28.4974 197.281 29.388 197.703 30.0078 198.547H30.1094L30.0547 197.93L30.0234 197.328V193.844H31.3203V206H30.2656L30.0938 204.852ZM27.5 205.07C28.3854 205.07 29.026 204.831 29.4219 204.352C29.8229 203.867 30.0234 203.089 30.0234 202.016V201.742C30.0234 200.529 29.8203 199.664 29.4141 199.148C29.013 198.628 28.3698 198.367 27.4844 198.367C26.724 198.367 26.1406 198.664 25.7344 199.258C25.3333 199.846 25.1328 200.68 25.1328 201.758C25.1328 202.852 25.3333 203.677 25.7344 204.234C26.1354 204.792 26.724 205.07 27.5 205.07ZM45.625 201.711C45.625 203.107 45.2734 204.198 44.5703 204.984C43.8672 205.766 42.8958 206.156 41.6562 206.156C40.8906 206.156 40.2109 205.977 39.6172 205.617C39.0234 205.258 38.5651 204.742 38.2422 204.07C37.9193 203.398 37.7578 202.612 37.7578 201.711C37.7578 200.315 38.1068 199.229 38.8047 198.453C39.5026 197.672 40.4714 197.281 41.7109 197.281C42.9089 197.281 43.8594 197.68 44.5625 198.477C45.2708 199.273 45.625 200.352 45.625 201.711ZM39.1016 201.711C39.1016 202.805 39.3203 203.638 39.7578 204.211C40.1953 204.784 40.8385 205.07 41.6875 205.07C42.5365 205.07 43.1797 204.786 43.6172 204.219C44.0599 203.646 44.2812 202.81 44.2812 201.711C44.2812 200.622 44.0599 199.797 43.6172 199.234C43.1797 198.667 42.5312 198.383 41.6719 198.383C40.8229 198.383 40.1823 198.661 39.75 199.219C39.3177 199.776 39.1016 200.607 39.1016 201.711ZM49.125 197.438V202.992C49.125 203.69 49.2839 204.211 49.6016 204.555C49.9193 204.898 50.4167 205.07 51.0938 205.07C51.9896 205.07 52.6432 204.826 53.0547 204.336C53.4714 203.846 53.6797 203.047 53.6797 201.938V197.438H54.9766V206H53.9062L53.7188 204.852H53.6484C53.3828 205.273 53.013 205.596 52.5391 205.82C52.0703 206.044 51.5339 206.156 50.9297 206.156C49.888 206.156 49.1068 205.909 48.5859 205.414C48.0703 204.919 47.8125 204.128 47.8125 203.039V197.438H49.125ZM60.5 205.086C60.7292 205.086 60.9505 205.07 61.1641 205.039C61.3776 205.003 61.5469 204.966 61.6719 204.93V205.922C61.5312 205.99 61.3229 206.044 61.0469 206.086C60.776 206.133 60.5312 206.156 60.3125 206.156C58.6562 206.156 57.8281 205.284 57.8281 203.539V198.445H56.6016V197.82L57.8281 197.281L58.375 195.453H59.125V197.438H61.6094V198.445H59.125V203.484C59.125 204 59.2474 204.396 59.4922 204.672C59.737 204.948 60.0729 205.086 60.5 205.086ZM73.4062 206V200.461C73.4062 199.763 73.2474 199.242 72.9297 198.898C72.612 198.555 72.1146 198.383 71.4375 198.383C70.5365 198.383 69.8776 198.628 69.4609 199.117C69.0495 199.607 68.8438 200.409 68.8438 201.523V206H67.5469V193.844H68.8438V197.523C68.8438 197.966 68.8229 198.333 68.7812 198.625H68.8594C69.1146 198.214 69.4766 197.891 69.9453 197.656C70.4193 197.417 70.9583 197.297 71.5625 197.297C72.6094 197.297 73.3932 197.547 73.9141 198.047C74.4401 198.542 74.7031 199.331 74.7031 200.414V206H73.4062ZM84.7656 201.711C84.7656 203.107 84.4141 204.198 83.7109 204.984C83.0078 205.766 82.0365 206.156 80.7969 206.156C80.0312 206.156 79.3516 205.977 78.7578 205.617C78.1641 205.258 77.7057 204.742 77.3828 204.07C77.0599 203.398 76.8984 202.612 76.8984 201.711C76.8984 200.315 77.2474 199.229 77.9453 198.453C78.6432 197.672 79.612 197.281 80.8516 197.281C82.0495 197.281 83 197.68 83.7031 198.477C84.4115 199.273 84.7656 200.352 84.7656 201.711ZM78.2422 201.711C78.2422 202.805 78.4609 203.638 78.8984 204.211C79.3359 204.784 79.9792 205.07 80.8281 205.07C81.6771 205.07 82.3203 204.786 82.7578 204.219C83.2005 203.646 83.4219 202.81 83.4219 201.711C83.4219 200.622 83.2005 199.797 82.7578 199.234C82.3203 198.667 81.6719 198.383 80.8125 198.383C79.9635 198.383 79.3229 198.661 78.8906 199.219C78.4583 199.776 78.2422 200.607 78.2422 201.711ZM94.0391 206L92.4688 200.977C92.3698 200.669 92.1849 199.971 91.9141 198.883H91.8516C91.6432 199.794 91.4609 200.497 91.3047 200.992L89.6875 206H88.1875L85.8516 197.438H87.2109C87.763 199.589 88.1823 201.227 88.4688 202.352C88.7604 203.477 88.9271 204.234 88.9688 204.625H89.0312C89.0885 204.328 89.1797 203.945 89.3047 203.477C89.4349 203.003 89.5469 202.628 89.6406 202.352L91.2109 197.438H92.6172L94.1484 202.352C94.4401 203.247 94.638 204 94.7422 204.609H94.8047C94.8255 204.422 94.8802 204.133 94.9688 203.742C95.0625 203.352 95.6068 201.25 96.6016 197.438H97.9453L95.5781 206H94.0391ZM114.57 206V200.43C114.57 199.747 114.424 199.237 114.133 198.898C113.841 198.555 113.388 198.383 112.773 198.383C111.966 198.383 111.37 198.615 110.984 199.078C110.599 199.542 110.406 200.255 110.406 201.219V206H109.109V200.43C109.109 199.747 108.964 199.237 108.672 198.898C108.38 198.555 107.924 198.383 107.305 198.383C106.492 198.383 105.896 198.628 105.516 199.117C105.141 199.602 104.953 200.398 104.953 201.508V206H103.656V197.438H104.711L104.922 198.609H104.984C105.229 198.193 105.573 197.867 106.016 197.633C106.464 197.398 106.964 197.281 107.516 197.281C108.854 197.281 109.729 197.766 110.141 198.734H110.203C110.458 198.286 110.828 197.932 111.312 197.672C111.797 197.411 112.349 197.281 112.969 197.281C113.938 197.281 114.661 197.531 115.141 198.031C115.625 198.526 115.867 199.32 115.867 200.414V206H114.57ZM123.812 206L123.555 204.781H123.492C123.065 205.318 122.638 205.682 122.211 205.875C121.789 206.062 121.26 206.156 120.625 206.156C119.776 206.156 119.109 205.938 118.625 205.5C118.146 205.062 117.906 204.44 117.906 203.633C117.906 201.904 119.289 200.997 122.055 200.914L123.508 200.867V200.336C123.508 199.664 123.362 199.169 123.07 198.852C122.784 198.529 122.323 198.367 121.688 198.367C120.974 198.367 120.167 198.586 119.266 199.023L118.867 198.031C119.289 197.802 119.75 197.622 120.25 197.492C120.755 197.362 121.26 197.297 121.766 197.297C122.786 197.297 123.542 197.523 124.031 197.977C124.526 198.43 124.773 199.156 124.773 200.156V206H123.812ZM120.883 205.086C121.69 205.086 122.323 204.865 122.781 204.422C123.245 203.979 123.477 203.359 123.477 202.562V201.789L122.18 201.844C121.148 201.88 120.404 202.042 119.945 202.328C119.492 202.609 119.266 203.049 119.266 203.648C119.266 204.117 119.406 204.474 119.688 204.719C119.974 204.964 120.372 205.086 120.883 205.086ZM133.312 206V200.461C133.312 199.763 133.154 199.242 132.836 198.898C132.518 198.555 132.021 198.383 131.344 198.383C130.448 198.383 129.792 198.625 129.375 199.109C128.958 199.594 128.75 200.393 128.75 201.508V206H127.453V197.438H128.508L128.719 198.609H128.781C129.047 198.188 129.419 197.862 129.898 197.633C130.378 197.398 130.911 197.281 131.5 197.281C132.531 197.281 133.307 197.531 133.828 198.031C134.349 198.526 134.609 199.32 134.609 200.414V206H133.312ZM135.922 197.438H137.312L139.188 202.32C139.599 203.435 139.854 204.24 139.953 204.734H140.016C140.083 204.469 140.224 204.016 140.438 203.375C140.656 202.729 141.365 200.75 142.562 197.438H143.953L140.273 207.188C139.909 208.151 139.482 208.833 138.992 209.234C138.508 209.641 137.911 209.844 137.203 209.844C136.807 209.844 136.417 209.799 136.031 209.711V208.672C136.318 208.734 136.638 208.766 136.992 208.766C137.883 208.766 138.518 208.266 138.898 207.266L139.375 206.047L135.922 197.438ZM155.328 204.852H155.258C154.659 205.721 153.763 206.156 152.57 206.156C151.451 206.156 150.578 205.773 149.953 205.008C149.333 204.242 149.023 203.154 149.023 201.742C149.023 200.331 149.336 199.234 149.961 198.453C150.586 197.672 151.456 197.281 152.57 197.281C153.732 197.281 154.622 197.703 155.242 198.547H155.344L155.289 197.93L155.258 197.328V193.844H156.555V206H155.5L155.328 204.852ZM152.734 205.07C153.62 205.07 154.26 204.831 154.656 204.352C155.057 203.867 155.258 203.089 155.258 202.016V201.742C155.258 200.529 155.055 199.664 154.648 199.148C154.247 198.628 153.604 198.367 152.719 198.367C151.958 198.367 151.375 198.664 150.969 199.258C150.568 199.846 150.367 200.68 150.367 201.758C150.367 202.852 150.568 203.677 150.969 204.234C151.37 204.792 151.958 205.07 152.734 205.07ZM162.93 206.156C161.664 206.156 160.664 205.771 159.93 205C159.201 204.229 158.836 203.159 158.836 201.789C158.836 200.409 159.174 199.312 159.852 198.5C160.534 197.688 161.448 197.281 162.594 197.281C163.667 197.281 164.516 197.635 165.141 198.344C165.766 199.047 166.078 199.977 166.078 201.133V201.953H160.18C160.206 202.958 160.458 203.721 160.938 204.242C161.422 204.763 162.102 205.023 162.977 205.023C163.898 205.023 164.81 204.831 165.711 204.445V205.602C165.253 205.799 164.818 205.94 164.406 206.023C164 206.112 163.508 206.156 162.93 206.156ZM162.578 198.367C161.891 198.367 161.341 198.591 160.93 199.039C160.523 199.487 160.284 200.107 160.211 200.898H164.688C164.688 200.081 164.505 199.456 164.141 199.023C163.776 198.586 163.255 198.367 162.578 198.367ZM173.562 206L173.305 204.781H173.242C172.815 205.318 172.388 205.682 171.961 205.875C171.539 206.062 171.01 206.156 170.375 206.156C169.526 206.156 168.859 205.938 168.375 205.5C167.896 205.062 167.656 204.44 167.656 203.633C167.656 201.904 169.039 200.997 171.805 200.914L173.258 200.867V200.336C173.258 199.664 173.112 199.169 172.82 198.852C172.534 198.529 172.073 198.367 171.438 198.367C170.724 198.367 169.917 198.586 169.016 199.023L168.617 198.031C169.039 197.802 169.5 197.622 170 197.492C170.505 197.362 171.01 197.297 171.516 197.297C172.536 197.297 173.292 197.523 173.781 197.977C174.276 198.43 174.523 199.156 174.523 200.156V206H173.562ZM170.633 205.086C171.44 205.086 172.073 204.865 172.531 204.422C172.995 203.979 173.227 203.359 173.227 202.562V201.789L171.93 201.844C170.898 201.88 170.154 202.042 169.695 202.328C169.242 202.609 169.016 203.049 169.016 203.648C169.016 204.117 169.156 204.474 169.438 204.719C169.724 204.964 170.122 205.086 170.633 205.086ZM183.031 204.852H182.961C182.362 205.721 181.466 206.156 180.273 206.156C179.154 206.156 178.281 205.773 177.656 205.008C177.036 204.242 176.727 203.154 176.727 201.742C176.727 200.331 177.039 199.234 177.664 198.453C178.289 197.672 179.159 197.281 180.273 197.281C181.435 197.281 182.326 197.703 182.945 198.547H183.047L182.992 197.93L182.961 197.328V193.844H184.258V206H183.203L183.031 204.852ZM180.438 205.07C181.323 205.07 181.964 204.831 182.359 204.352C182.76 203.867 182.961 203.089 182.961 202.016V201.742C182.961 200.529 182.758 199.664 182.352 199.148C181.951 198.628 181.307 198.367 180.422 198.367C179.661 198.367 179.078 198.664 178.672 199.258C178.271 199.846 178.07 200.68 178.07 201.758C178.07 202.852 178.271 203.677 178.672 204.234C179.073 204.792 179.661 205.07 180.438 205.07ZM188.312 206H187.016V193.844H188.312V206ZM192.359 206H191.062V197.438H192.359V206ZM190.953 195.117C190.953 194.82 191.026 194.604 191.172 194.469C191.318 194.328 191.5 194.258 191.719 194.258C191.927 194.258 192.107 194.328 192.258 194.469C192.409 194.609 192.484 194.826 192.484 195.117C192.484 195.409 192.409 195.628 192.258 195.773C192.107 195.914 191.927 195.984 191.719 195.984C191.5 195.984 191.318 195.914 191.172 195.773C191.026 195.628 190.953 195.409 190.953 195.117ZM200.969 206V200.461C200.969 199.763 200.81 199.242 200.492 198.898C200.174 198.555 199.677 198.383 199 198.383C198.104 198.383 197.448 198.625 197.031 199.109C196.615 199.594 196.406 200.393 196.406 201.508V206H195.109V197.438H196.164L196.375 198.609H196.438C196.703 198.188 197.076 197.862 197.555 197.633C198.034 197.398 198.568 197.281 199.156 197.281C200.188 197.281 200.964 197.531 201.484 198.031C202.005 198.526 202.266 199.32 202.266 200.414V206H200.969ZM208.555 206.156C207.289 206.156 206.289 205.771 205.555 205C204.826 204.229 204.461 203.159 204.461 201.789C204.461 200.409 204.799 199.312 205.477 198.5C206.159 197.688 207.073 197.281 208.219 197.281C209.292 197.281 210.141 197.635 210.766 198.344C211.391 199.047 211.703 199.977 211.703 201.133V201.953H205.805C205.831 202.958 206.083 203.721 206.562 204.242C207.047 204.763 207.727 205.023 208.602 205.023C209.523 205.023 210.435 204.831 211.336 204.445V205.602C210.878 205.799 210.443 205.94 210.031 206.023C209.625 206.112 209.133 206.156 208.555 206.156ZM208.203 198.367C207.516 198.367 206.966 198.591 206.555 199.039C206.148 199.487 205.909 200.107 205.836 200.898H210.312C210.312 200.081 210.13 199.456 209.766 199.023C209.401 198.586 208.88 198.367 208.203 198.367ZM219.445 203.664C219.445 204.461 219.148 205.076 218.555 205.508C217.961 205.94 217.128 206.156 216.055 206.156C214.919 206.156 214.034 205.977 213.398 205.617V204.414C213.81 204.622 214.25 204.786 214.719 204.906C215.193 205.026 215.648 205.086 216.086 205.086C216.763 205.086 217.284 204.979 217.648 204.766C218.013 204.547 218.195 204.216 218.195 203.773C218.195 203.44 218.049 203.156 217.758 202.922C217.471 202.682 216.909 202.401 216.07 202.078C215.273 201.781 214.706 201.523 214.367 201.305C214.034 201.081 213.784 200.828 213.617 200.547C213.456 200.266 213.375 199.93 213.375 199.539C213.375 198.841 213.659 198.292 214.227 197.891C214.794 197.484 215.573 197.281 216.562 197.281C217.484 197.281 218.385 197.469 219.266 197.844L218.805 198.898C217.945 198.544 217.167 198.367 216.469 198.367C215.854 198.367 215.391 198.464 215.078 198.656C214.766 198.849 214.609 199.115 214.609 199.453C214.609 199.682 214.667 199.878 214.781 200.039C214.901 200.201 215.091 200.354 215.352 200.5C215.612 200.646 216.112 200.857 216.852 201.133C217.867 201.503 218.552 201.875 218.906 202.25C219.266 202.625 219.445 203.096 219.445 203.664ZM230.984 206L230.727 204.781H230.664C230.237 205.318 229.81 205.682 229.383 205.875C228.961 206.062 228.432 206.156 227.797 206.156C226.948 206.156 226.281 205.938 225.797 205.5C225.318 205.062 225.078 204.44 225.078 203.633C225.078 201.904 226.461 200.997 229.227 200.914L230.68 200.867V200.336C230.68 199.664 230.534 199.169 230.242 198.852C229.956 198.529 229.495 198.367 228.859 198.367C228.146 198.367 227.339 198.586 226.438 199.023L226.039 198.031C226.461 197.802 226.922 197.622 227.422 197.492C227.927 197.362 228.432 197.297 228.938 197.297C229.958 197.297 230.714 197.523 231.203 197.977C231.698 198.43 231.945 199.156 231.945 200.156V206H230.984ZM228.055 205.086C228.862 205.086 229.495 204.865 229.953 204.422C230.417 203.979 230.648 203.359 230.648 202.562V201.789L229.352 201.844C228.32 201.88 227.576 202.042 227.117 202.328C226.664 202.609 226.438 203.049 226.438 203.648C226.438 204.117 226.578 204.474 226.859 204.719C227.146 204.964 227.544 205.086 228.055 205.086ZM9.67969 230.156C9.1224 230.156 8.61198 230.055 8.14844 229.852C7.6901 229.643 7.30469 229.326 6.99219 228.898H6.89844C6.96094 229.398 6.99219 229.872 6.99219 230.32V233.844H5.69531V221.438H6.75L6.92969 222.609H6.99219C7.32552 222.141 7.71354 221.802 8.15625 221.594C8.59896 221.385 9.10677 221.281 9.67969 221.281C10.8151 221.281 11.6901 221.669 12.3047 222.445C12.9245 223.221 13.2344 224.31 13.2344 225.711C13.2344 227.117 12.9193 228.211 12.2891 228.992C11.6641 229.768 10.7943 230.156 9.67969 230.156ZM9.49219 222.383C8.61719 222.383 7.98438 222.625 7.59375 223.109C7.20312 223.594 7.0026 224.365 6.99219 225.422V225.711C6.99219 226.914 7.19271 227.776 7.59375 228.297C7.99479 228.812 8.63802 229.07 9.52344 229.07C10.263 229.07 10.8411 228.771 11.2578 228.172C11.6797 227.573 11.8906 226.747 11.8906 225.695C11.8906 224.628 11.6797 223.81 11.2578 223.242C10.8411 222.669 10.2526 222.383 9.49219 222.383ZM19.125 230.156C17.8594 230.156 16.8594 229.771 16.125 229C15.3958 228.229 15.0312 227.159 15.0312 225.789C15.0312 224.409 15.3698 223.312 16.0469 222.5C16.7292 221.688 17.6432 221.281 18.7891 221.281C19.862 221.281 20.7109 221.635 21.3359 222.344C21.9609 223.047 22.2734 223.977 22.2734 225.133V225.953H16.375C16.401 226.958 16.6536 227.721 17.1328 228.242C17.6172 228.763 18.2969 229.023 19.1719 229.023C20.0938 229.023 21.0052 228.831 21.9062 228.445V229.602C21.4479 229.799 21.013 229.94 20.6016 230.023C20.1953 230.112 19.7031 230.156 19.125 230.156ZM18.7734 222.367C18.0859 222.367 17.5365 222.591 17.125 223.039C16.7188 223.487 16.4792 224.107 16.4062 224.898H20.8828C20.8828 224.081 20.7005 223.456 20.3359 223.023C19.9714 222.586 19.4505 222.367 18.7734 222.367ZM28.3984 221.281C28.7786 221.281 29.1198 221.312 29.4219 221.375L29.2422 222.578C28.888 222.5 28.5755 222.461 28.3047 222.461C27.612 222.461 27.0182 222.742 26.5234 223.305C26.0339 223.867 25.7891 224.568 25.7891 225.406V230H24.4922V221.438H25.5625L25.7109 223.023H25.7734C26.0911 222.466 26.474 222.036 26.9219 221.734C27.3698 221.432 27.862 221.281 28.3984 221.281ZM36.5469 227.664C36.5469 228.461 36.25 229.076 35.6562 229.508C35.0625 229.94 34.2292 230.156 33.1562 230.156C32.0208 230.156 31.1354 229.977 30.5 229.617V228.414C30.9115 228.622 31.3516 228.786 31.8203 228.906C32.2943 229.026 32.75 229.086 33.1875 229.086C33.8646 229.086 34.3854 228.979 34.75 228.766C35.1146 228.547 35.2969 228.216 35.2969 227.773C35.2969 227.44 35.151 227.156 34.8594 226.922C34.5729 226.682 34.0104 226.401 33.1719 226.078C32.375 225.781 31.8073 225.523 31.4688 225.305C31.1354 225.081 30.8854 224.828 30.7188 224.547C30.5573 224.266 30.4766 223.93 30.4766 223.539C30.4766 222.841 30.7604 222.292 31.3281 221.891C31.8958 221.484 32.6745 221.281 33.6641 221.281C34.5859 221.281 35.487 221.469 36.3672 221.844L35.9062 222.898C35.0469 222.544 34.2682 222.367 33.5703 222.367C32.9557 222.367 32.4922 222.464 32.1797 222.656C31.8672 222.849 31.7109 223.115 31.7109 223.453C31.7109 223.682 31.7682 223.878 31.8828 224.039C32.0026 224.201 32.1927 224.354 32.4531 224.5C32.7135 224.646 33.2135 224.857 33.9531 225.133C34.9688 225.503 35.6536 225.875 36.0078 226.25C36.3672 226.625 36.5469 227.096 36.5469 227.664ZM46.0547 225.711C46.0547 227.107 45.7031 228.198 45 228.984C44.2969 229.766 43.3255 230.156 42.0859 230.156C41.3203 230.156 40.6406 229.977 40.0469 229.617C39.4531 229.258 38.9948 228.742 38.6719 228.07C38.349 227.398 38.1875 226.612 38.1875 225.711C38.1875 224.315 38.5365 223.229 39.2344 222.453C39.9323 221.672 40.901 221.281 42.1406 221.281C43.3385 221.281 44.2891 221.68 44.9922 222.477C45.7005 223.273 46.0547 224.352 46.0547 225.711ZM39.5312 225.711C39.5312 226.805 39.75 227.638 40.1875 228.211C40.625 228.784 41.2682 229.07 42.1172 229.07C42.9661 229.07 43.6094 228.786 44.0469 228.219C44.4896 227.646 44.7109 226.81 44.7109 225.711C44.7109 224.622 44.4896 223.797 44.0469 223.234C43.6094 222.667 42.9609 222.383 42.1016 222.383C41.2526 222.383 40.612 222.661 40.1797 223.219C39.7474 223.776 39.5312 224.607 39.5312 225.711ZM54.1953 230V224.461C54.1953 223.763 54.0365 223.242 53.7188 222.898C53.401 222.555 52.9036 222.383 52.2266 222.383C51.3307 222.383 50.6745 222.625 50.2578 223.109C49.8411 223.594 49.6328 224.393 49.6328 225.508V230H48.3359V221.438H49.3906L49.6016 222.609H49.6641C49.9297 222.188 50.3021 221.862 50.7812 221.633C51.2604 221.398 51.7943 221.281 52.3828 221.281C53.4141 221.281 54.1901 221.531 54.7109 222.031C55.2318 222.526 55.4922 223.32 55.4922 224.414V230H54.1953ZM68.1797 230V224.461C68.1797 223.763 68.0208 223.242 67.7031 222.898C67.3854 222.555 66.888 222.383 66.2109 222.383C65.3099 222.383 64.651 222.628 64.2344 223.117C63.8229 223.607 63.6172 224.409 63.6172 225.523V230H62.3203V217.844H63.6172V221.523C63.6172 221.966 63.5964 222.333 63.5547 222.625H63.6328C63.888 222.214 64.25 221.891 64.7188 221.656C65.1927 221.417 65.7318 221.297 66.3359 221.297C67.3828 221.297 68.1667 221.547 68.6875 222.047C69.2135 222.542 69.4766 223.331 69.4766 224.414V230H68.1797ZM77.4141 230L77.1562 228.781H77.0938C76.6667 229.318 76.2396 229.682 75.8125 229.875C75.3906 230.062 74.862 230.156 74.2266 230.156C73.3776 230.156 72.7109 229.938 72.2266 229.5C71.7474 229.062 71.5078 228.44 71.5078 227.633C71.5078 225.904 72.8906 224.997 75.6562 224.914L77.1094 224.867V224.336C77.1094 223.664 76.9635 223.169 76.6719 222.852C76.3854 222.529 75.9245 222.367 75.2891 222.367C74.5755 222.367 73.7682 222.586 72.8672 223.023L72.4688 222.031C72.8906 221.802 73.3516 221.622 73.8516 221.492C74.3568 221.362 74.862 221.297 75.3672 221.297C76.388 221.297 77.1432 221.523 77.6328 221.977C78.1276 222.43 78.375 223.156 78.375 224.156V230H77.4141ZM74.4844 229.086C75.2917 229.086 75.9245 228.865 76.3828 228.422C76.8464 227.979 77.0781 227.359 77.0781 226.562V225.789L75.7812 225.844C74.75 225.88 74.0052 226.042 73.5469 226.328C73.0938 226.609 72.8672 227.049 72.8672 227.648C72.8672 228.117 73.0078 228.474 73.2891 228.719C73.5755 228.964 73.974 229.086 74.4844 229.086ZM86.5781 227.664C86.5781 228.461 86.2812 229.076 85.6875 229.508C85.0938 229.94 84.2604 230.156 83.1875 230.156C82.0521 230.156 81.1667 229.977 80.5312 229.617V228.414C80.9427 228.622 81.3828 228.786 81.8516 228.906C82.3255 229.026 82.7812 229.086 83.2188 229.086C83.8958 229.086 84.4167 228.979 84.7812 228.766C85.1458 228.547 85.3281 228.216 85.3281 227.773C85.3281 227.44 85.1823 227.156 84.8906 226.922C84.6042 226.682 84.0417 226.401 83.2031 226.078C82.4062 225.781 81.8385 225.523 81.5 225.305C81.1667 225.081 80.9167 224.828 80.75 224.547C80.5885 224.266 80.5078 223.93 80.5078 223.539C80.5078 222.841 80.7917 222.292 81.3594 221.891C81.9271 221.484 82.7057 221.281 83.6953 221.281C84.6172 221.281 85.5182 221.469 86.3984 221.844L85.9375 222.898C85.0781 222.544 84.2995 222.367 83.6016 222.367C82.987 222.367 82.5234 222.464 82.2109 222.656C81.8984 222.849 81.7422 223.115 81.7422 223.453C81.7422 223.682 81.7995 223.878 81.9141 224.039C82.0339 224.201 82.224 224.354 82.4844 224.5C82.7448 224.646 83.2448 224.857 83.9844 225.133C85 225.503 85.6849 225.875 86.0391 226.25C86.3984 226.625 86.5781 227.096 86.5781 227.664ZM94.1484 230H92.8516V221.438H94.1484V230ZM92.7422 219.117C92.7422 218.82 92.8151 218.604 92.9609 218.469C93.1068 218.328 93.2891 218.258 93.5078 218.258C93.7161 218.258 93.8958 218.328 94.0469 218.469C94.1979 218.609 94.2734 218.826 94.2734 219.117C94.2734 219.409 94.1979 219.628 94.0469 219.773C93.8958 219.914 93.7161 219.984 93.5078 219.984C93.2891 219.984 93.1068 219.914 92.9609 219.773C92.8151 219.628 92.7422 219.409 92.7422 219.117ZM102.758 230V224.461C102.758 223.763 102.599 223.242 102.281 222.898C101.964 222.555 101.466 222.383 100.789 222.383C99.8932 222.383 99.237 222.625 98.8203 223.109C98.4036 223.594 98.1953 224.393 98.1953 225.508V230H96.8984V221.438H97.9531L98.1641 222.609H98.2266C98.4922 222.188 98.8646 221.862 99.3438 221.633C99.8229 221.398 100.357 221.281 100.945 221.281C101.977 221.281 102.753 221.531 103.273 222.031C103.794 222.526 104.055 223.32 104.055 224.414V230H102.758ZM116.148 230L115.891 228.781H115.828C115.401 229.318 114.974 229.682 114.547 229.875C114.125 230.062 113.596 230.156 112.961 230.156C112.112 230.156 111.445 229.938 110.961 229.5C110.482 229.062 110.242 228.44 110.242 227.633C110.242 225.904 111.625 224.997 114.391 224.914L115.844 224.867V224.336C115.844 223.664 115.698 223.169 115.406 222.852C115.12 222.529 114.659 222.367 114.023 222.367C113.31 222.367 112.503 222.586 111.602 223.023L111.203 222.031C111.625 221.802 112.086 221.622 112.586 221.492C113.091 221.362 113.596 221.297 114.102 221.297C115.122 221.297 115.878 221.523 116.367 221.977C116.862 222.43 117.109 223.156 117.109 224.156V230H116.148ZM113.219 229.086C114.026 229.086 114.659 228.865 115.117 228.422C115.581 227.979 115.812 227.359 115.812 226.562V225.789L114.516 225.844C113.484 225.88 112.74 226.042 112.281 226.328C111.828 226.609 111.602 227.049 111.602 227.648C111.602 228.117 111.742 228.474 112.023 228.719C112.31 228.964 112.708 229.086 113.219 229.086ZM129.773 228.852H129.703C129.104 229.721 128.208 230.156 127.016 230.156C125.896 230.156 125.023 229.773 124.398 229.008C123.779 228.242 123.469 227.154 123.469 225.742C123.469 224.331 123.781 223.234 124.406 222.453C125.031 221.672 125.901 221.281 127.016 221.281C128.177 221.281 129.068 221.703 129.688 222.547H129.789L129.734 221.93L129.703 221.328V217.844H131V230H129.945L129.773 228.852ZM127.18 229.07C128.065 229.07 128.706 228.831 129.102 228.352C129.503 227.867 129.703 227.089 129.703 226.016V225.742C129.703 224.529 129.5 223.664 129.094 223.148C128.693 222.628 128.049 222.367 127.164 222.367C126.404 222.367 125.82 222.664 125.414 223.258C125.013 223.846 124.812 224.68 124.812 225.758C124.812 226.852 125.013 227.677 125.414 228.234C125.815 228.792 126.404 229.07 127.18 229.07ZM139.023 230L138.766 228.781H138.703C138.276 229.318 137.849 229.682 137.422 229.875C137 230.062 136.471 230.156 135.836 230.156C134.987 230.156 134.32 229.938 133.836 229.5C133.357 229.062 133.117 228.44 133.117 227.633C133.117 225.904 134.5 224.997 137.266 224.914L138.719 224.867V224.336C138.719 223.664 138.573 223.169 138.281 222.852C137.995 222.529 137.534 222.367 136.898 222.367C136.185 222.367 135.378 222.586 134.477 223.023L134.078 222.031C134.5 221.802 134.961 221.622 135.461 221.492C135.966 221.362 136.471 221.297 136.977 221.297C137.997 221.297 138.753 221.523 139.242 221.977C139.737 222.43 139.984 223.156 139.984 224.156V230H139.023ZM136.094 229.086C136.901 229.086 137.534 228.865 137.992 228.422C138.456 227.979 138.688 227.359 138.688 226.562V225.789L137.391 225.844C136.359 225.88 135.615 226.042 135.156 226.328C134.703 226.609 134.477 227.049 134.477 227.648C134.477 228.117 134.617 228.474 134.898 228.719C135.185 228.964 135.583 229.086 136.094 229.086ZM141.305 221.438H142.695L144.57 226.32C144.982 227.435 145.237 228.24 145.336 228.734H145.398C145.466 228.469 145.607 228.016 145.82 227.375C146.039 226.729 146.747 224.75 147.945 221.438H149.336L145.656 231.188C145.292 232.151 144.865 232.833 144.375 233.234C143.891 233.641 143.294 233.844 142.586 233.844C142.19 233.844 141.799 233.799 141.414 233.711V232.672C141.701 232.734 142.021 232.766 142.375 232.766C143.266 232.766 143.901 232.266 144.281 231.266L144.758 230.047L141.305 221.438ZM162.273 225.711C162.273 227.107 161.922 228.198 161.219 228.984C160.516 229.766 159.544 230.156 158.305 230.156C157.539 230.156 156.859 229.977 156.266 229.617C155.672 229.258 155.214 228.742 154.891 228.07C154.568 227.398 154.406 226.612 154.406 225.711C154.406 224.315 154.755 223.229 155.453 222.453C156.151 221.672 157.12 221.281 158.359 221.281C159.557 221.281 160.508 221.68 161.211 222.477C161.919 223.273 162.273 224.352 162.273 225.711ZM155.75 225.711C155.75 226.805 155.969 227.638 156.406 228.211C156.844 228.784 157.487 229.07 158.336 229.07C159.185 229.07 159.828 228.786 160.266 228.219C160.708 227.646 160.93 226.81 160.93 225.711C160.93 224.622 160.708 223.797 160.266 223.234C159.828 222.667 159.18 222.383 158.32 222.383C157.471 222.383 156.831 222.661 156.398 223.219C155.966 223.776 155.75 224.607 155.75 225.711ZM168.461 221.281C168.841 221.281 169.182 221.312 169.484 221.375L169.305 222.578C168.951 222.5 168.638 222.461 168.367 222.461C167.674 222.461 167.081 222.742 166.586 223.305C166.096 223.867 165.852 224.568 165.852 225.406V230H164.555V221.438H165.625L165.773 223.023H165.836C166.154 222.466 166.536 222.036 166.984 221.734C167.432 221.432 167.924 221.281 168.461 221.281ZM180.508 230L180.25 228.781H180.188C179.76 229.318 179.333 229.682 178.906 229.875C178.484 230.062 177.956 230.156 177.32 230.156C176.471 230.156 175.805 229.938 175.32 229.5C174.841 229.062 174.602 228.44 174.602 227.633C174.602 225.904 175.984 224.997 178.75 224.914L180.203 224.867V224.336C180.203 223.664 180.057 223.169 179.766 222.852C179.479 222.529 179.018 222.367 178.383 222.367C177.669 222.367 176.862 222.586 175.961 223.023L175.562 222.031C175.984 221.802 176.445 221.622 176.945 221.492C177.451 221.362 177.956 221.297 178.461 221.297C179.482 221.297 180.237 221.523 180.727 221.977C181.221 222.43 181.469 223.156 181.469 224.156V230H180.508ZM177.578 229.086C178.385 229.086 179.018 228.865 179.477 228.422C179.94 227.979 180.172 227.359 180.172 226.562V225.789L178.875 225.844C177.844 225.88 177.099 226.042 176.641 226.328C176.188 226.609 175.961 227.049 175.961 227.648C175.961 228.117 176.102 228.474 176.383 228.719C176.669 228.964 177.068 229.086 177.578 229.086ZM195.297 230L193.727 224.977C193.628 224.669 193.443 223.971 193.172 222.883H193.109C192.901 223.794 192.719 224.497 192.562 224.992L190.945 230H189.445L187.109 221.438H188.469C189.021 223.589 189.44 225.227 189.727 226.352C190.018 227.477 190.185 228.234 190.227 228.625H190.289C190.346 228.328 190.438 227.945 190.562 227.477C190.693 227.003 190.805 226.628 190.898 226.352L192.469 221.438H193.875L195.406 226.352C195.698 227.247 195.896 228 196 228.609H196.062C196.083 228.422 196.138 228.133 196.227 227.742C196.32 227.352 196.865 225.25 197.859 221.438H199.203L196.836 230H195.297ZM204.375 230.156C203.109 230.156 202.109 229.771 201.375 229C200.646 228.229 200.281 227.159 200.281 225.789C200.281 224.409 200.62 223.312 201.297 222.5C201.979 221.688 202.893 221.281 204.039 221.281C205.112 221.281 205.961 221.635 206.586 222.344C207.211 223.047 207.523 223.977 207.523 225.133V225.953H201.625C201.651 226.958 201.904 227.721 202.383 228.242C202.867 228.763 203.547 229.023 204.422 229.023C205.344 229.023 206.255 228.831 207.156 228.445V229.602C206.698 229.799 206.263 229.94 205.852 230.023C205.445 230.112 204.953 230.156 204.375 230.156ZM204.023 222.367C203.336 222.367 202.786 222.591 202.375 223.039C201.969 223.487 201.729 224.107 201.656 224.898H206.133C206.133 224.081 205.951 223.456 205.586 223.023C205.221 222.586 204.701 222.367 204.023 222.367ZM213.359 230.156C212.094 230.156 211.094 229.771 210.359 229C209.63 228.229 209.266 227.159 209.266 225.789C209.266 224.409 209.604 223.312 210.281 222.5C210.964 221.688 211.878 221.281 213.023 221.281C214.096 221.281 214.945 221.635 215.57 222.344C216.195 223.047 216.508 223.977 216.508 225.133V225.953H210.609C210.635 226.958 210.888 227.721 211.367 228.242C211.852 228.763 212.531 229.023 213.406 229.023C214.328 229.023 215.24 228.831 216.141 228.445V229.602C215.682 229.799 215.247 229.94 214.836 230.023C214.43 230.112 213.938 230.156 213.359 230.156ZM213.008 222.367C212.32 222.367 211.771 222.591 211.359 223.039C210.953 223.487 210.714 224.107 210.641 224.898H215.117C215.117 224.081 214.935 223.456 214.57 223.023C214.206 222.586 213.685 222.367 213.008 222.367ZM220.008 225.617C220.232 225.299 220.573 224.883 221.031 224.367L223.797 221.438H225.336L221.867 225.086L225.578 230H224.008L220.984 225.953L220.008 226.797V230H218.727V217.844H220.008V224.289C220.008 224.576 219.987 225.018 219.945 225.617H220.008ZM228.492 228.141L228.609 228.32C228.474 228.841 228.279 229.445 228.023 230.133C227.768 230.826 227.503 231.469 227.227 232.062H226.25C226.391 231.521 226.544 230.852 226.711 230.055C226.883 229.258 227.003 228.62 227.07 228.141H228.492ZM69.625 254L69.3672 252.781H69.3047C68.8776 253.318 68.4505 253.682 68.0234 253.875C67.6016 254.062 67.0729 254.156 66.4375 254.156C65.5885 254.156 64.9219 253.938 64.4375 253.5C63.9583 253.062 63.7188 252.44 63.7188 251.633C63.7188 249.904 65.1016 248.997 67.8672 248.914L69.3203 248.867V248.336C69.3203 247.664 69.1745 247.169 68.8828 246.852C68.5964 246.529 68.1354 246.367 67.5 246.367C66.7865 246.367 65.9792 246.586 65.0781 247.023L64.6797 246.031C65.1016 245.802 65.5625 245.622 66.0625 245.492C66.5677 245.362 67.0729 245.297 67.5781 245.297C68.599 245.297 69.3542 245.523 69.8438 245.977C70.3385 246.43 70.5859 247.156 70.5859 248.156V254H69.625ZM66.6953 253.086C67.5026 253.086 68.1354 252.865 68.5938 252.422C69.0573 251.979 69.2891 251.359 69.2891 250.562V249.789L67.9922 249.844C66.9609 249.88 66.2161 250.042 65.7578 250.328C65.3047 250.609 65.0781 251.049 65.0781 251.648C65.0781 252.117 65.2188 252.474 65.5 252.719C65.7865 252.964 66.1849 253.086 66.6953 253.086ZM79.125 254V248.461C79.125 247.763 78.9661 247.242 78.6484 246.898C78.3307 246.555 77.8333 246.383 77.1562 246.383C76.2604 246.383 75.6042 246.625 75.1875 247.109C74.7708 247.594 74.5625 248.393 74.5625 249.508V254H73.2656V245.438H74.3203L74.5312 246.609H74.5938C74.8594 246.188 75.2318 245.862 75.7109 245.633C76.1901 245.398 76.724 245.281 77.3125 245.281C78.3438 245.281 79.1198 245.531 79.6406 246.031C80.1615 246.526 80.4219 247.32 80.4219 248.414V254H79.125ZM88.9219 252.852H88.8516C88.2526 253.721 87.3568 254.156 86.1641 254.156C85.0443 254.156 84.1719 253.773 83.5469 253.008C82.9271 252.242 82.6172 251.154 82.6172 249.742C82.6172 248.331 82.9297 247.234 83.5547 246.453C84.1797 245.672 85.0495 245.281 86.1641 245.281C87.3255 245.281 88.2161 245.703 88.8359 246.547H88.9375L88.8828 245.93L88.8516 245.328V241.844H90.1484V254H89.0938L88.9219 252.852ZM86.3281 253.07C87.2135 253.07 87.8542 252.831 88.25 252.352C88.651 251.867 88.8516 251.089 88.8516 250.016V249.742C88.8516 248.529 88.6484 247.664 88.2422 247.148C87.8411 246.628 87.1979 246.367 86.3125 246.367C85.5521 246.367 84.9688 246.664 84.5625 247.258C84.1615 247.846 83.9609 248.68 83.9609 249.758C83.9609 250.852 84.1615 251.677 84.5625 252.234C84.9635 252.792 85.5521 253.07 86.3281 253.07ZM99.8281 253.086C100.057 253.086 100.279 253.07 100.492 253.039C100.706 253.003 100.875 252.966 101 252.93V253.922C100.859 253.99 100.651 254.044 100.375 254.086C100.104 254.133 99.8594 254.156 99.6406 254.156C97.9844 254.156 97.1562 253.284 97.1562 251.539V246.445H95.9297V245.82L97.1562 245.281L97.7031 243.453H98.4531V245.438H100.938V246.445H98.4531V251.484C98.4531 252 98.5755 252.396 98.8203 252.672C99.0651 252.948 99.401 253.086 99.8281 253.086ZM108.578 254V248.461C108.578 247.763 108.419 247.242 108.102 246.898C107.784 246.555 107.286 246.383 106.609 246.383C105.708 246.383 105.049 246.628 104.633 247.117C104.221 247.607 104.016 248.409 104.016 249.523V254H102.719V241.844H104.016V245.523C104.016 245.966 103.995 246.333 103.953 246.625H104.031C104.286 246.214 104.648 245.891 105.117 245.656C105.591 245.417 106.13 245.297 106.734 245.297C107.781 245.297 108.565 245.547 109.086 246.047C109.612 246.542 109.875 247.331 109.875 248.414V254H108.578ZM116.164 254.156C114.898 254.156 113.898 253.771 113.164 253C112.435 252.229 112.07 251.159 112.07 249.789C112.07 248.409 112.409 247.312 113.086 246.5C113.768 245.688 114.682 245.281 115.828 245.281C116.901 245.281 117.75 245.635 118.375 246.344C119 247.047 119.312 247.977 119.312 249.133V249.953H113.414C113.44 250.958 113.693 251.721 114.172 252.242C114.656 252.763 115.336 253.023 116.211 253.023C117.133 253.023 118.044 252.831 118.945 252.445V253.602C118.487 253.799 118.052 253.94 117.641 254.023C117.234 254.112 116.742 254.156 116.164 254.156ZM115.812 246.367C115.125 246.367 114.576 246.591 114.164 247.039C113.758 247.487 113.518 248.107 113.445 248.898H117.922C117.922 248.081 117.74 247.456 117.375 247.023C117.01 246.586 116.49 246.367 115.812 246.367ZM127.391 254V248.461C127.391 247.763 127.232 247.242 126.914 246.898C126.596 246.555 126.099 246.383 125.422 246.383C124.526 246.383 123.87 246.625 123.453 247.109C123.036 247.594 122.828 248.393 122.828 249.508V254H121.531V245.438H122.586L122.797 246.609H122.859C123.125 246.188 123.497 245.862 123.977 245.633C124.456 245.398 124.99 245.281 125.578 245.281C126.609 245.281 127.385 245.531 127.906 246.031C128.427 246.526 128.688 247.32 128.688 248.414V254H127.391ZM139.5 254.156C138.943 254.156 138.432 254.055 137.969 253.852C137.51 253.643 137.125 253.326 136.812 252.898H136.719C136.781 253.398 136.812 253.872 136.812 254.32V257.844H135.516V245.438H136.57L136.75 246.609H136.812C137.146 246.141 137.534 245.802 137.977 245.594C138.419 245.385 138.927 245.281 139.5 245.281C140.635 245.281 141.51 245.669 142.125 246.445C142.745 247.221 143.055 248.31 143.055 249.711C143.055 251.117 142.74 252.211 142.109 252.992C141.484 253.768 140.615 254.156 139.5 254.156ZM139.312 246.383C138.438 246.383 137.805 246.625 137.414 247.109C137.023 247.594 136.823 248.365 136.812 249.422V249.711C136.812 250.914 137.013 251.776 137.414 252.297C137.815 252.812 138.458 253.07 139.344 253.07C140.083 253.07 140.661 252.771 141.078 252.172C141.5 251.573 141.711 250.747 141.711 249.695C141.711 248.628 141.5 247.81 141.078 247.242C140.661 246.669 140.073 246.383 139.312 246.383ZM146.625 254H145.328V241.844H146.625V254ZM154.641 254L154.383 252.781H154.32C153.893 253.318 153.466 253.682 153.039 253.875C152.617 254.062 152.089 254.156 151.453 254.156C150.604 254.156 149.938 253.938 149.453 253.5C148.974 253.062 148.734 252.44 148.734 251.633C148.734 249.904 150.117 248.997 152.883 248.914L154.336 248.867V248.336C154.336 247.664 154.19 247.169 153.898 246.852C153.612 246.529 153.151 246.367 152.516 246.367C151.802 246.367 150.995 246.586 150.094 247.023L149.695 246.031C150.117 245.802 150.578 245.622 151.078 245.492C151.583 245.362 152.089 245.297 152.594 245.297C153.615 245.297 154.37 245.523 154.859 245.977C155.354 246.43 155.602 247.156 155.602 248.156V254H154.641ZM151.711 253.086C152.518 253.086 153.151 252.865 153.609 252.422C154.073 251.979 154.305 251.359 154.305 250.562V249.789L153.008 249.844C151.977 249.88 151.232 250.042 150.773 250.328C150.32 250.609 150.094 251.049 150.094 251.648C150.094 252.117 150.234 252.474 150.516 252.719C150.802 252.964 151.201 253.086 151.711 253.086ZM164.141 254V248.461C164.141 247.763 163.982 247.242 163.664 246.898C163.346 246.555 162.849 246.383 162.172 246.383C161.276 246.383 160.62 246.625 160.203 247.109C159.786 247.594 159.578 248.393 159.578 249.508V254H158.281V245.438H159.336L159.547 246.609H159.609C159.875 246.188 160.247 245.862 160.727 245.633C161.206 245.398 161.74 245.281 162.328 245.281C163.359 245.281 164.135 245.531 164.656 246.031C165.177 246.526 165.438 247.32 165.438 248.414V254H164.141ZM169.281 250.852H168.461L168.062 242.578H169.68L169.281 250.852ZM167.922 253.172C167.922 252.464 168.234 252.109 168.859 252.109C169.161 252.109 169.393 252.201 169.555 252.383C169.721 252.565 169.805 252.828 169.805 253.172C169.805 253.505 169.721 253.766 169.555 253.953C169.388 254.135 169.156 254.227 168.859 254.227C168.589 254.227 168.365 254.146 168.188 253.984C168.01 253.818 167.922 253.547 167.922 253.172Z" fill="#414141"/>
<path d="M87.5205 152.008V152.488C87.1685 152.616 86.8005 152.896 86.4165 153.328C86.0325 153.744 85.6965 154.416 85.4085 155.344L81.1845 169.048C81.0565 169.032 80.9205 169.024 80.7765 169.024C80.6325 169.024 80.4885 169.024 80.3445 169.024C80.2005 169.024 80.0565 169.024 79.9125 169.024C79.7685 169.024 79.6325 169.032 79.5045 169.048L74.4645 153.784C74.3045 153.288 74.1045 152.952 73.8645 152.776C73.6405 152.6 73.4005 152.504 73.1445 152.488V152.008C73.5925 152.024 74.1205 152.04 74.7285 152.056C75.3525 152.072 75.9685 152.08 76.5765 152.08C77.2805 152.08 77.9365 152.072 78.5445 152.056C79.1685 152.04 79.6645 152.024 80.0325 152.008V152.488C79.5525 152.504 79.1685 152.56 78.8805 152.656C78.6085 152.752 78.4485 152.936 78.4005 153.208C78.3685 153.48 78.4485 153.912 78.6405 154.504L82.0485 164.92L81.4965 165.904L84.2085 157.288C84.5925 156.072 84.7765 155.12 84.7605 154.432C84.7445 153.744 84.5605 153.256 84.2085 152.968C83.8565 152.664 83.3525 152.504 82.6965 152.488V152.008C83.2405 152.024 83.7525 152.04 84.2325 152.056C84.7125 152.072 85.1925 152.08 85.6725 152.08C86.0405 152.08 86.3765 152.072 86.6805 152.056C87.0005 152.04 87.2805 152.024 87.5205 152.008ZM70.3845 152.008V152.488C70.0645 152.536 69.8405 152.656 69.7125 152.848C69.5845 153.024 69.5285 153.264 69.5445 153.568C69.5765 153.856 69.6485 154.168 69.7605 154.504L73.4325 165.16L72.7845 166.024L75.8565 157.048L76.1925 157.696L72.4245 169.048C72.2965 169.032 72.1605 169.024 72.0165 169.024C71.8725 169.024 71.7285 169.024 71.5845 169.024C71.4405 169.024 71.2965 169.024 71.1525 169.024C71.0085 169.024 70.8725 169.032 70.7445 169.048L65.3685 154.024C65.1605 153.432 64.9125 153.032 64.6245 152.824C64.3525 152.616 64.0965 152.504 63.8565 152.488V152.008C64.3365 152.024 64.9045 152.04 65.5605 152.056C66.2165 152.072 66.8405 152.08 67.4325 152.08C68.0725 152.08 68.6405 152.072 69.1365 152.056C69.6485 152.04 70.0645 152.024 70.3845 152.008ZM92.4516 156.256C93.6196 156.256 94.6436 156.472 95.5236 156.904C96.4036 157.336 97.0916 158.032 97.5876 158.992C98.0836 159.952 98.3316 161.224 98.3316 162.808C98.3316 164.392 98.0836 165.664 97.5876 166.624C97.0916 167.568 96.4036 168.256 95.5236 168.688C94.6436 169.12 93.6196 169.336 92.4516 169.336C91.3156 169.336 90.2996 169.12 89.4036 168.688C88.5236 168.256 87.8276 167.568 87.3156 166.624C86.8196 165.664 86.5716 164.392 86.5716 162.808C86.5716 161.224 86.8196 159.952 87.3156 158.992C87.8276 158.032 88.5236 157.336 89.4036 156.904C90.2996 156.472 91.3156 156.256 92.4516 156.256ZM92.4516 156.736C91.8116 156.736 91.2756 157.216 90.8436 158.176C90.4116 159.12 90.1956 160.664 90.1956 162.808C90.1956 164.952 90.4116 166.496 90.8436 167.44C91.2756 168.384 91.8116 168.856 92.4516 168.856C93.1076 168.856 93.6436 168.384 94.0596 167.44C94.4916 166.496 94.7076 164.952 94.7076 162.808C94.7076 160.664 94.4916 159.12 94.0596 158.176C93.6436 157.216 93.1076 156.736 92.4516 156.736ZM108.086 156.256C108.598 156.256 109.014 156.368 109.334 156.592C109.654 156.8 109.886 157.072 110.03 157.408C110.19 157.744 110.27 158.096 110.27 158.464C110.27 159.056 110.094 159.544 109.742 159.928C109.406 160.296 108.958 160.48 108.398 160.48C107.838 160.48 107.398 160.344 107.078 160.072C106.774 159.784 106.622 159.408 106.622 158.944C106.622 158.496 106.718 158.128 106.91 157.84C107.118 157.536 107.374 157.28 107.678 157.072C107.454 157.008 107.23 157.016 107.006 157.096C106.702 157.144 106.414 157.272 106.142 157.48C105.87 157.672 105.638 157.92 105.446 158.224C105.254 158.512 105.102 158.832 104.99 159.184C104.878 159.52 104.822 159.848 104.822 160.168V166.528C104.822 167.296 105.006 167.816 105.374 168.088C105.758 168.36 106.326 168.496 107.078 168.496V169C106.71 168.984 106.174 168.968 105.47 168.952C104.766 168.92 104.03 168.904 103.262 168.904C102.622 168.904 101.974 168.92 101.318 168.952C100.662 168.968 100.166 168.984 99.8299 169V168.496C100.39 168.496 100.782 168.376 101.006 168.136C101.246 167.896 101.366 167.44 101.366 166.768V159.208C101.366 158.488 101.254 157.96 101.03 157.624C100.822 157.272 100.422 157.096 99.8299 157.096V156.592C100.342 156.64 100.838 156.664 101.318 156.664C101.99 156.664 102.614 156.64 103.19 156.592C103.782 156.528 104.326 156.44 104.822 156.328V158.56C105.014 158.128 105.27 157.736 105.59 157.384C105.91 157.032 106.278 156.76 106.694 156.568C107.11 156.36 107.574 156.256 108.086 156.256ZM115.296 150.208V166.768C115.296 167.44 115.4 167.896 115.608 168.136C115.832 168.376 116.208 168.496 116.736 168.496V169C116.432 168.984 115.984 168.968 115.392 168.952C114.816 168.92 114.224 168.904 113.616 168.904C112.992 168.904 112.36 168.92 111.72 168.952C111.096 168.968 110.624 168.984 110.304 169V168.496C110.864 168.496 111.256 168.376 111.48 168.136C111.72 167.896 111.84 167.44 111.84 166.768V153.088C111.84 152.368 111.728 151.84 111.504 151.504C111.296 151.152 110.896 150.976 110.304 150.976V150.472C110.816 150.52 111.312 150.544 111.792 150.544C112.448 150.544 113.072 150.52 113.664 150.472C114.256 150.408 114.8 150.32 115.296 150.208ZM123.12 156.592V157.072C122.624 157.168 122.128 157.376 121.632 157.696C121.136 158.016 120.632 158.424 120.12 158.92L118.272 160.84L118.512 160.384L122.616 167.248C122.792 167.536 122.976 167.792 123.168 168.016C123.36 168.24 123.592 168.4 123.864 168.496V169C123.624 168.984 123.264 168.968 122.784 168.952C122.304 168.92 121.824 168.904 121.344 168.904C120.752 168.904 120.16 168.92 119.568 168.952C118.976 168.968 118.536 168.984 118.248 169V168.496C118.568 168.496 118.784 168.424 118.896 168.28C119.008 168.12 118.992 167.92 118.848 167.68L116.472 163.384C116.28 163.08 116.088 162.888 115.896 162.808C115.72 162.712 115.48 162.656 115.176 162.64V162.184C115.512 162.152 115.8 162.096 116.04 162.016C116.296 161.936 116.528 161.784 116.736 161.56L118.56 159.784C119.104 159.272 119.376 158.816 119.376 158.416C119.376 158.016 119.2 157.696 118.848 157.456C118.512 157.216 118.064 157.088 117.504 157.072V156.592C117.952 156.608 118.44 156.624 118.968 156.64C119.496 156.656 119.944 156.664 120.312 156.664C120.632 156.664 120.968 156.664 121.32 156.664C121.688 156.648 122.032 156.64 122.352 156.64C122.672 156.624 122.928 156.608 123.12 156.592ZM128.773 150.208V166.768C128.773 167.44 128.885 167.896 129.109 168.136C129.349 168.376 129.749 168.496 130.309 168.496V169C130.005 168.984 129.549 168.968 128.941 168.952C128.333 168.92 127.717 168.904 127.093 168.904C126.469 168.904 125.837 168.92 125.197 168.952C124.573 168.968 124.101 168.984 123.781 169V168.496C124.341 168.496 124.733 168.376 124.957 168.136C125.197 167.896 125.317 167.44 125.317 166.768V153.088C125.317 152.368 125.205 151.84 124.981 151.504C124.773 151.152 124.373 150.976 123.781 150.976V150.472C124.293 150.52 124.789 150.544 125.269 150.544C125.925 150.544 126.549 150.52 127.141 150.472C127.733 150.408 128.277 150.32 128.773 150.208ZM137.288 156.256C138.456 156.256 139.48 156.472 140.36 156.904C141.24 157.336 141.928 158.032 142.424 158.992C142.92 159.952 143.168 161.224 143.168 162.808C143.168 164.392 142.92 165.664 142.424 166.624C141.928 167.568 141.24 168.256 140.36 168.688C139.48 169.12 138.456 169.336 137.288 169.336C136.152 169.336 135.136 169.12 134.24 168.688C133.36 168.256 132.664 167.568 132.152 166.624C131.656 165.664 131.408 164.392 131.408 162.808C131.408 161.224 131.656 159.952 132.152 158.992C132.664 158.032 133.36 157.336 134.24 156.904C135.136 156.472 136.152 156.256 137.288 156.256ZM137.288 156.736C136.648 156.736 136.112 157.216 135.68 158.176C135.248 159.12 135.032 160.664 135.032 162.808C135.032 164.952 135.248 166.496 135.68 167.44C136.112 168.384 136.648 168.856 137.288 168.856C137.944 168.856 138.48 168.384 138.896 167.44C139.328 166.496 139.544 164.952 139.544 162.808C139.544 160.664 139.328 159.12 138.896 158.176C138.48 157.216 137.944 156.736 137.288 156.736ZM147.978 169.168C147.258 169.168 146.658 169.032 146.178 168.76C145.698 168.488 145.346 168.128 145.122 167.68C144.898 167.216 144.786 166.712 144.786 166.168C144.786 165.48 144.938 164.92 145.242 164.488C145.562 164.056 145.97 163.704 146.466 163.432C146.962 163.16 147.482 162.936 148.026 162.76C148.586 162.584 149.114 162.416 149.61 162.256C150.122 162.08 150.53 161.88 150.834 161.656C151.154 161.416 151.314 161.112 151.314 160.744V158.872C151.314 158.456 151.242 158.088 151.098 157.768C150.97 157.432 150.762 157.176 150.474 157C150.202 156.824 149.842 156.736 149.394 156.736C149.074 156.736 148.754 156.784 148.434 156.88C148.114 156.96 147.85 157.104 147.642 157.312C148.09 157.472 148.434 157.72 148.674 158.056C148.93 158.376 149.058 158.744 149.058 159.16C149.058 159.704 148.866 160.136 148.482 160.456C148.114 160.776 147.674 160.936 147.162 160.936C146.586 160.936 146.146 160.76 145.842 160.408C145.554 160.04 145.41 159.6 145.41 159.088C145.41 158.624 145.522 158.24 145.746 157.936C145.986 157.632 146.314 157.344 146.73 157.072C147.178 156.816 147.714 156.616 148.338 156.472C148.978 156.328 149.666 156.256 150.402 156.256C151.138 156.256 151.802 156.336 152.394 156.496C152.986 156.64 153.482 156.912 153.882 157.312C154.25 157.68 154.49 158.136 154.602 158.68C154.714 159.208 154.77 159.88 154.77 160.696V167.224C154.77 167.624 154.81 167.904 154.89 168.064C154.97 168.208 155.106 168.28 155.298 168.28C155.442 168.28 155.578 168.24 155.706 168.16C155.85 168.08 156.002 167.984 156.162 167.872L156.402 168.28C156.066 168.568 155.674 168.792 155.226 168.952C154.794 169.096 154.306 169.168 153.762 169.168C153.17 169.168 152.698 169.088 152.346 168.928C151.994 168.752 151.738 168.52 151.578 168.232C151.434 167.944 151.362 167.608 151.362 167.224C150.978 167.832 150.514 168.312 149.97 168.664C149.426 169 148.762 169.168 147.978 169.168ZM149.682 167.632C150.002 167.632 150.29 167.56 150.546 167.416C150.818 167.256 151.074 167 151.314 166.648V161.728C151.17 161.968 150.97 162.184 150.714 162.376C150.458 162.568 150.186 162.768 149.898 162.976C149.61 163.168 149.33 163.384 149.058 163.624C148.802 163.864 148.594 164.16 148.434 164.512C148.274 164.864 148.194 165.288 148.194 165.784C148.194 166.408 148.33 166.872 148.602 167.176C148.874 167.48 149.234 167.632 149.682 167.632ZM168.896 150.208V166.36C168.896 167.08 169.008 167.616 169.232 167.968C169.456 168.304 169.856 168.472 170.432 168.472V168.976C169.936 168.928 169.44 168.904 168.944 168.904C168.272 168.904 167.64 168.928 167.048 168.976C166.472 169.024 165.936 169.112 165.44 169.24V153.088C165.44 152.368 165.328 151.84 165.104 151.504C164.896 151.152 164.496 150.976 163.904 150.976V150.472C164.416 150.52 164.912 150.544 165.392 150.544C166.048 150.544 166.672 150.52 167.264 150.472C167.856 150.408 168.4 150.32 168.896 150.208ZM162.776 156.256C163.48 156.256 164.096 156.376 164.624 156.616C165.168 156.84 165.592 157.224 165.896 157.768L165.608 158.032C165.4 157.648 165.12 157.376 164.768 157.216C164.432 157.04 164.072 156.952 163.688 156.952C162.872 156.952 162.224 157.432 161.744 158.392C161.264 159.336 161.032 160.8 161.048 162.784C161.048 164.144 161.136 165.232 161.312 166.048C161.504 166.848 161.768 167.424 162.104 167.776C162.456 168.128 162.856 168.304 163.304 168.304C163.848 168.304 164.336 168.088 164.768 167.656C165.2 167.224 165.432 166.64 165.464 165.904L165.584 166.744C165.344 167.592 164.952 168.24 164.408 168.688C163.88 169.12 163.184 169.336 162.32 169.336C161.376 169.336 160.528 169.104 159.776 168.64C159.04 168.176 158.464 167.464 158.048 166.504C157.632 165.528 157.424 164.272 157.424 162.736C157.424 161.28 157.656 160.08 158.12 159.136C158.584 158.176 159.216 157.456 160.016 156.976C160.832 156.496 161.752 156.256 162.776 156.256Z" fill="#414141"/>
<g clip-path="url(#clip0_1_214)">
<path d="M138.787 6.43884C138.564 6.26848 136.49 4.73017 132.794 3.24989C128.034 1.34264 122.572 0.334473 116.999 0.334473C111.426 0.334473 105.964 1.34264 101.203 3.24989C97.5085 4.73017 95.4342 6.26848 95.21 6.43911C94.085 7.29439 93.4246 8.62416 93.4246 10.0346V17.1286L97.96 19.5469L102.496 17.1286V12.595C104.985 11.3287 109.962 9.37735 116.999 9.37735C124.035 9.37735 129.012 11.3287 131.502 12.595V17.1283L136.037 19.5466L140.573 17.1283V10.0346C140.573 8.62391 139.913 7.29412 138.787 6.43884Z" fill="#E8834D"/>
<path d="M93.4249 17.1287V22.1212L97.9606 24.5394L102.496 22.1212V17.1287H93.4249Z" fill="#D66E41"/>
<path d="M140.573 17.1287H131.502V22.1212L136.038 24.5394L140.573 22.1212V17.1287Z" fill="#D66E41"/>
<path d="M51.5704 71.8623V112.031C51.5704 116.8 55.4482 120.666 60.2316 120.666H173.769C178.552 120.666 182.429 116.8 182.429 112.031V71.8623H51.5704Z" fill="#365E7D"/>
<path d="M51.5704 66.8697V71.8625C58.7659 77.5578 77.7829 88.6142 117 88.6142C156.217 88.6142 175.234 77.5578 182.429 71.8622V66.8694H51.5704V66.8697Z" fill="#2B4D66"/>
<path d="M51.1945 63.9945C58.0905 69.5915 77.0811 81.0473 117 81.0473C156.919 81.0473 175.909 69.5915 182.805 63.9945C184.827 62.3538 186 57.4769 186 54.8782V30.7555C186 25.9869 182.122 22.1211 177.339 22.1211H56.6611C51.8777 22.1211 48 25.9869 48 30.7555V54.8782C48 57.4769 49.173 62.3538 51.1945 63.9945Z" fill="#407093"/>
<path d="M182.805 61.5763C175.909 67.1734 156.919 78.6292 117 78.6292C77.0811 78.6292 58.0907 67.1731 51.1945 61.5763C49.173 59.9356 48 57.477 48 54.8784V59.8712C48 62.4698 49.173 64.9284 51.1945 66.5691C58.0905 72.1662 77.0811 83.6219 117 83.6219C156.919 83.6219 175.909 72.1662 182.805 66.5691C184.827 64.9284 186 62.4698 186 59.8712V54.8784C186 57.477 184.827 59.9356 182.805 61.5763Z" fill="#365E7D"/>
<path d="M116.999 91.931C121.48 91.931 125.112 88.6143 125.112 81.4249V76.5211C125.112 74.9316 123.819 73.6431 122.225 73.6431H111.773C110.179 73.6431 108.886 74.9318 108.886 76.5211V81.4258C108.886 88.6143 112.518 91.931 116.999 91.931Z" fill="#FFE27A"/>
<path d="M116.999 89.5127C112.518 89.5127 108.886 85.8919 108.886 81.425V86.4181C108.886 90.8844 112.518 94.5061 116.999 94.5061C121.48 94.5061 125.112 90.8844 125.112 86.4181V81.425C125.112 85.8919 121.48 89.5127 116.999 89.5127Z" fill="#F9CF58"/>
</g>
<defs>
<clipPath id="clip0_1_214">
<rect width="138" height="121" fill="white" transform="translate(48)"/>
</clipPath>
</defs>
</svg>
