<svg width="207" height="225" viewBox="0 0 207 225" fill="none" xmlns="http://www.w3.org/2000/svg">
<path d="M33.0938 167.961C33.0938 168.966 32.7292 169.75 32 170.312C31.2708 170.875 30.2812 171.156 29.0312 171.156C27.6771 171.156 26.6354 170.982 25.9062 170.633V169.352C26.375 169.549 26.8854 169.706 27.4375 169.82C27.9896 169.935 28.5365 169.992 29.0781 169.992C29.9635 169.992 30.6302 169.826 31.0781 169.492C31.526 169.154 31.75 168.685 31.75 168.086C31.75 167.69 31.6693 167.367 31.5078 167.117C31.3516 166.862 31.0859 166.628 30.7109 166.414C30.3411 166.201 29.776 165.958 29.0156 165.688C27.9531 165.307 27.1927 164.857 26.7344 164.336C26.2812 163.815 26.0547 163.135 26.0547 162.297C26.0547 161.417 26.3854 160.716 27.0469 160.195C27.7083 159.674 28.5833 159.414 29.6719 159.414C30.8073 159.414 31.8516 159.622 32.8047 160.039L32.3906 161.195C31.4479 160.799 30.5312 160.602 29.6406 160.602C28.9375 160.602 28.388 160.753 27.9922 161.055C27.5964 161.357 27.3984 161.776 27.3984 162.312C27.3984 162.708 27.4714 163.034 27.6172 163.289C27.763 163.539 28.0078 163.771 28.3516 163.984C28.7005 164.193 29.2318 164.424 29.9453 164.68C31.1432 165.107 31.9661 165.565 32.4141 166.055C32.8672 166.544 33.0938 167.18 33.0938 167.961ZM38.8516 171.156C37.5859 171.156 36.5859 170.771 35.8516 170C35.1224 169.229 34.7578 168.159 34.7578 166.789C34.7578 165.409 35.0964 164.312 35.7734 163.5C36.4557 162.688 37.3698 162.281 38.5156 162.281C39.5885 162.281 40.4375 162.635 41.0625 163.344C41.6875 164.047 42 164.977 42 166.133V166.953H36.1016C36.1276 167.958 36.3802 168.721 36.8594 169.242C37.3438 169.763 38.0234 170.023 38.8984 170.023C39.8203 170.023 40.7318 169.831 41.6328 169.445V170.602C41.1745 170.799 40.7396 170.94 40.3281 171.023C39.9219 171.112 39.4297 171.156 38.8516 171.156ZM38.5 163.367C37.8125 163.367 37.263 163.591 36.8516 164.039C36.4453 164.487 36.2057 165.107 36.1328 165.898H40.6094C40.6094 165.081 40.4271 164.456 40.0625 164.023C39.6979 163.586 39.1771 163.367 38.5 163.367ZM47.8359 171.156C46.5703 171.156 45.5703 170.771 44.8359 170C44.1068 169.229 43.7422 168.159 43.7422 166.789C43.7422 165.409 44.0807 164.312 44.7578 163.5C45.4401 162.688 46.3542 162.281 47.5 162.281C48.5729 162.281 49.4219 162.635 50.0469 163.344C50.6719 164.047 50.9844 164.977 50.9844 166.133V166.953H45.0859C45.112 167.958 45.3646 168.721 45.8438 169.242C46.3281 169.763 47.0078 170.023 47.8828 170.023C48.8047 170.023 49.7161 169.831 50.6172 169.445V170.602C50.1589 170.799 49.724 170.94 49.3125 171.023C48.9062 171.112 48.4141 171.156 47.8359 171.156ZM47.4844 163.367C46.7969 163.367 46.2474 163.591 45.8359 164.039C45.4297 164.487 45.1901 165.107 45.1172 165.898H49.5938C49.5938 165.081 49.4115 164.456 49.0469 164.023C48.6823 163.586 48.1615 163.367 47.4844 163.367ZM63.2188 171V165.461C63.2188 164.763 63.0599 164.242 62.7422 163.898C62.4245 163.555 61.9271 163.383 61.25 163.383C60.349 163.383 59.6901 163.628 59.2734 164.117C58.862 164.607 58.6562 165.409 58.6562 166.523V171H57.3594V158.844H58.6562V162.523C58.6562 162.966 58.6354 163.333 58.5938 163.625H58.6719C58.9271 163.214 59.2891 162.891 59.7578 162.656C60.2318 162.417 60.7708 162.297 61.375 162.297C62.4219 162.297 63.2057 162.547 63.7266 163.047C64.2526 163.542 64.5156 164.331 64.5156 165.414V171H63.2188ZM74.5781 166.711C74.5781 168.107 74.2266 169.198 73.5234 169.984C72.8203 170.766 71.849 171.156 70.6094 171.156C69.8438 171.156 69.1641 170.977 68.5703 170.617C67.9766 170.258 67.5182 169.742 67.1953 169.07C66.8724 168.398 66.7109 167.612 66.7109 166.711C66.7109 165.315 67.0599 164.229 67.7578 163.453C68.4557 162.672 69.4245 162.281 70.6641 162.281C71.862 162.281 72.8125 162.68 73.5156 163.477C74.224 164.273 74.5781 165.352 74.5781 166.711ZM68.0547 166.711C68.0547 167.805 68.2734 168.638 68.7109 169.211C69.1484 169.784 69.7917 170.07 70.6406 170.07C71.4896 170.07 72.1328 169.786 72.5703 169.219C73.013 168.646 73.2344 167.81 73.2344 166.711C73.2344 165.622 73.013 164.797 72.5703 164.234C72.1328 163.667 71.4844 163.383 70.625 163.383C69.776 163.383 69.1354 163.661 68.7031 164.219C68.2708 164.776 68.0547 165.607 68.0547 166.711ZM83.8516 171L82.2812 165.977C82.1823 165.669 81.9974 164.971 81.7266 163.883H81.6641C81.4557 164.794 81.2734 165.497 81.1172 165.992L79.5 171H78L75.6641 162.438H77.0234C77.5755 164.589 77.9948 166.227 78.2812 167.352C78.5729 168.477 78.7396 169.234 78.7812 169.625H78.8438C78.901 169.328 78.9922 168.945 79.1172 168.477C79.2474 168.003 79.3594 167.628 79.4531 167.352L81.0234 162.438H82.4297L83.9609 167.352C84.2526 168.247 84.4505 169 84.5547 169.609H84.6172C84.638 169.422 84.6927 169.133 84.7812 168.742C84.875 168.352 85.4193 166.25 86.4141 162.438H87.7578L85.3906 171H83.8516ZM100.461 171L98.8906 165.977C98.7917 165.669 98.6068 164.971 98.3359 163.883H98.2734C98.0651 164.794 97.8828 165.497 97.7266 165.992L96.1094 171H94.6094L92.2734 162.438H93.6328C94.1849 164.589 94.6042 166.227 94.8906 167.352C95.1823 168.477 95.349 169.234 95.3906 169.625H95.4531C95.5104 169.328 95.6016 168.945 95.7266 168.477C95.8568 168.003 95.9688 167.628 96.0625 167.352L97.6328 162.438H99.0391L100.57 167.352C100.862 168.247 101.06 169 101.164 169.609H101.227C101.247 169.422 101.302 169.133 101.391 168.742C101.484 168.352 102.029 166.25 103.023 162.438H104.367L102 171H100.461ZM109.539 171.156C108.273 171.156 107.273 170.771 106.539 170C105.81 169.229 105.445 168.159 105.445 166.789C105.445 165.409 105.784 164.312 106.461 163.5C107.143 162.688 108.057 162.281 109.203 162.281C110.276 162.281 111.125 162.635 111.75 163.344C112.375 164.047 112.688 164.977 112.688 166.133V166.953H106.789C106.815 167.958 107.068 168.721 107.547 169.242C108.031 169.763 108.711 170.023 109.586 170.023C110.508 170.023 111.419 169.831 112.32 169.445V170.602C111.862 170.799 111.427 170.94 111.016 171.023C110.609 171.112 110.117 171.156 109.539 171.156ZM109.188 163.367C108.5 163.367 107.951 163.591 107.539 164.039C107.133 164.487 106.893 165.107 106.82 165.898H111.297C111.297 165.081 111.115 164.456 110.75 164.023C110.385 163.586 109.865 163.367 109.188 163.367ZM116.203 171H114.906V158.844H116.203V171ZM120.25 171H118.953V158.844H120.25V171ZM125.797 162.438H127.188L129.062 167.32C129.474 168.435 129.729 169.24 129.828 169.734H129.891C129.958 169.469 130.099 169.016 130.312 168.375C130.531 167.729 131.24 165.75 132.438 162.438H133.828L130.148 172.188C129.784 173.151 129.357 173.833 128.867 174.234C128.383 174.641 127.786 174.844 127.078 174.844C126.682 174.844 126.292 174.799 125.906 174.711V173.672C126.193 173.734 126.513 173.766 126.867 173.766C127.758 173.766 128.393 173.266 128.773 172.266L129.25 171.047L125.797 162.438ZM142.609 166.711C142.609 168.107 142.258 169.198 141.555 169.984C140.852 170.766 139.88 171.156 138.641 171.156C137.875 171.156 137.195 170.977 136.602 170.617C136.008 170.258 135.549 169.742 135.227 169.07C134.904 168.398 134.742 167.612 134.742 166.711C134.742 165.315 135.091 164.229 135.789 163.453C136.487 162.672 137.456 162.281 138.695 162.281C139.893 162.281 140.844 162.68 141.547 163.477C142.255 164.273 142.609 165.352 142.609 166.711ZM136.086 166.711C136.086 167.805 136.305 168.638 136.742 169.211C137.18 169.784 137.823 170.07 138.672 170.07C139.521 170.07 140.164 169.786 140.602 169.219C141.044 168.646 141.266 167.81 141.266 166.711C141.266 165.622 141.044 164.797 140.602 164.234C140.164 163.667 139.516 163.383 138.656 163.383C137.807 163.383 137.167 163.661 136.734 164.219C136.302 164.776 136.086 165.607 136.086 166.711ZM146.109 162.438V167.992C146.109 168.69 146.268 169.211 146.586 169.555C146.904 169.898 147.401 170.07 148.078 170.07C148.974 170.07 149.628 169.826 150.039 169.336C150.456 168.846 150.664 168.047 150.664 166.938V162.438H151.961V171H150.891L150.703 169.852H150.633C150.367 170.273 149.997 170.596 149.523 170.82C149.055 171.044 148.518 171.156 147.914 171.156C146.872 171.156 146.091 170.909 145.57 170.414C145.055 169.919 144.797 169.128 144.797 168.039V162.438H146.109ZM164.141 171L163.883 169.781H163.82C163.393 170.318 162.966 170.682 162.539 170.875C162.117 171.062 161.589 171.156 160.953 171.156C160.104 171.156 159.438 170.938 158.953 170.5C158.474 170.062 158.234 169.44 158.234 168.633C158.234 166.904 159.617 165.997 162.383 165.914L163.836 165.867V165.336C163.836 164.664 163.69 164.169 163.398 163.852C163.112 163.529 162.651 163.367 162.016 163.367C161.302 163.367 160.495 163.586 159.594 164.023L159.195 163.031C159.617 162.802 160.078 162.622 160.578 162.492C161.083 162.362 161.589 162.297 162.094 162.297C163.115 162.297 163.87 162.523 164.359 162.977C164.854 163.43 165.102 164.156 165.102 165.156V171H164.141ZM161.211 170.086C162.018 170.086 162.651 169.865 163.109 169.422C163.573 168.979 163.805 168.359 163.805 167.562V166.789L162.508 166.844C161.477 166.88 160.732 167.042 160.273 167.328C159.82 167.609 159.594 168.049 159.594 168.648C159.594 169.117 159.734 169.474 160.016 169.719C160.302 169.964 160.701 170.086 161.211 170.086ZM171.688 162.281C172.068 162.281 172.409 162.312 172.711 162.375L172.531 163.578C172.177 163.5 171.865 163.461 171.594 163.461C170.901 163.461 170.307 163.742 169.812 164.305C169.323 164.867 169.078 165.568 169.078 166.406V171H167.781V162.438H168.852L169 164.023H169.062C169.38 163.466 169.763 163.036 170.211 162.734C170.659 162.432 171.151 162.281 171.688 162.281ZM177.93 171.156C176.664 171.156 175.664 170.771 174.93 170C174.201 169.229 173.836 168.159 173.836 166.789C173.836 165.409 174.174 164.312 174.852 163.5C175.534 162.688 176.448 162.281 177.594 162.281C178.667 162.281 179.516 162.635 180.141 163.344C180.766 164.047 181.078 164.977 181.078 166.133V166.953H175.18C175.206 167.958 175.458 168.721 175.938 169.242C176.422 169.763 177.102 170.023 177.977 170.023C178.898 170.023 179.81 169.831 180.711 169.445V170.602C180.253 170.799 179.818 170.94 179.406 171.023C179 171.112 178.508 171.156 177.93 171.156ZM177.578 163.367C176.891 163.367 176.341 163.591 175.93 164.039C175.523 164.487 175.284 165.107 175.211 165.898H179.688C179.688 165.081 179.505 164.456 179.141 164.023C178.776 163.586 178.255 163.367 177.578 163.367ZM5.90625 195.156C5.34896 195.156 4.83854 195.055 4.375 194.852C3.91667 194.643 3.53125 194.326 3.21875 193.898H3.125C3.1875 194.398 3.21875 194.872 3.21875 195.32V198.844H1.92188V186.438H2.97656L3.15625 187.609H3.21875C3.55208 187.141 3.9401 186.802 4.38281 186.594C4.82552 186.385 5.33333 186.281 5.90625 186.281C7.04167 186.281 7.91667 186.669 8.53125 187.445C9.15104 188.221 9.46094 189.31 9.46094 190.711C9.46094 192.117 9.14583 193.211 8.51562 193.992C7.89062 194.768 7.02083 195.156 5.90625 195.156ZM5.71875 187.383C4.84375 187.383 4.21094 187.625 3.82031 188.109C3.42969 188.594 3.22917 189.365 3.21875 190.422V190.711C3.21875 191.914 3.41927 192.776 3.82031 193.297C4.22135 193.812 4.86458 194.07 5.75 194.07C6.48958 194.07 7.06771 193.771 7.48438 193.172C7.90625 192.573 8.11719 191.747 8.11719 190.695C8.11719 189.628 7.90625 188.81 7.48438 188.242C7.06771 187.669 6.47917 187.383 5.71875 187.383ZM15.3516 195.156C14.0859 195.156 13.0859 194.771 12.3516 194C11.6224 193.229 11.2578 192.159 11.2578 190.789C11.2578 189.409 11.5964 188.312 12.2734 187.5C12.9557 186.688 13.8698 186.281 15.0156 186.281C16.0885 186.281 16.9375 186.635 17.5625 187.344C18.1875 188.047 18.5 188.977 18.5 190.133V190.953H12.6016C12.6276 191.958 12.8802 192.721 13.3594 193.242C13.8438 193.763 14.5234 194.023 15.3984 194.023C16.3203 194.023 17.2318 193.831 18.1328 193.445V194.602C17.6745 194.799 17.2396 194.94 16.8281 195.023C16.4219 195.112 15.9297 195.156 15.3516 195.156ZM15 187.367C14.3125 187.367 13.763 187.591 13.3516 188.039C12.9453 188.487 12.7057 189.107 12.6328 189.898H17.1094C17.1094 189.081 16.9271 188.456 16.5625 188.023C16.1979 187.586 15.6771 187.367 15 187.367ZM24.625 186.281C25.0052 186.281 25.3464 186.312 25.6484 186.375L25.4688 187.578C25.1146 187.5 24.8021 187.461 24.5312 187.461C23.8385 187.461 23.2448 187.742 22.75 188.305C22.2604 188.867 22.0156 189.568 22.0156 190.406V195H20.7188V186.438H21.7891L21.9375 188.023H22C22.3177 187.466 22.7005 187.036 23.1484 186.734C23.5964 186.432 24.0885 186.281 24.625 186.281ZM31.1094 187.445H28.9297V195H27.6328V187.445H26.1016V186.859L27.6328 186.391V185.914C27.6328 183.81 28.5521 182.758 30.3906 182.758C30.8438 182.758 31.375 182.849 31.9844 183.031L31.6484 184.07C31.1484 183.909 30.7214 183.828 30.3672 183.828C29.8776 183.828 29.5156 183.992 29.2812 184.32C29.0469 184.643 28.9297 185.164 28.9297 185.883V186.438H31.1094V187.445ZM40.0625 190.711C40.0625 192.107 39.7109 193.198 39.0078 193.984C38.3047 194.766 37.3333 195.156 36.0938 195.156C35.3281 195.156 34.6484 194.977 34.0547 194.617C33.4609 194.258 33.0026 193.742 32.6797 193.07C32.3568 192.398 32.1953 191.612 32.1953 190.711C32.1953 189.315 32.5443 188.229 33.2422 187.453C33.9401 186.672 34.9089 186.281 36.1484 186.281C37.3464 186.281 38.2969 186.68 39 187.477C39.7083 188.273 40.0625 189.352 40.0625 190.711ZM33.5391 190.711C33.5391 191.805 33.7578 192.638 34.1953 193.211C34.6328 193.784 35.276 194.07 36.125 194.07C36.974 194.07 37.6172 193.786 38.0547 193.219C38.4974 192.646 38.7188 191.81 38.7188 190.711C38.7188 189.622 38.4974 188.797 38.0547 188.234C37.6172 187.667 36.9688 187.383 36.1094 187.383C35.2604 187.383 34.6198 187.661 34.1875 188.219C33.7552 188.776 33.5391 189.607 33.5391 190.711ZM46.25 186.281C46.6302 186.281 46.9714 186.312 47.2734 186.375L47.0938 187.578C46.7396 187.5 46.4271 187.461 46.1562 187.461C45.4635 187.461 44.8698 187.742 44.375 188.305C43.8854 188.867 43.6406 189.568 43.6406 190.406V195H42.3438V186.438H43.4141L43.5625 188.023H43.625C43.9427 187.466 44.3255 187.036 44.7734 186.734C45.2214 186.432 45.7135 186.281 46.25 186.281ZM59.7891 195V189.43C59.7891 188.747 59.6432 188.237 59.3516 187.898C59.0599 187.555 58.6068 187.383 57.9922 187.383C57.1849 187.383 56.5885 187.615 56.2031 188.078C55.8177 188.542 55.625 189.255 55.625 190.219V195H54.3281V189.43C54.3281 188.747 54.1823 188.237 53.8906 187.898C53.599 187.555 53.1432 187.383 52.5234 187.383C51.7109 187.383 51.1146 187.628 50.7344 188.117C50.3594 188.602 50.1719 189.398 50.1719 190.508V195H48.875V186.438H49.9297L50.1406 187.609H50.2031C50.4479 187.193 50.7917 186.867 51.2344 186.633C51.6823 186.398 52.1823 186.281 52.7344 186.281C54.0729 186.281 54.9479 186.766 55.3594 187.734H55.4219C55.6771 187.286 56.0469 186.932 56.5312 186.672C57.0156 186.411 57.5677 186.281 58.1875 186.281C59.1562 186.281 59.8802 186.531 60.3594 187.031C60.8438 187.526 61.0859 188.32 61.0859 189.414V195H59.7891ZM65.0625 195H63.7656V186.438H65.0625V195ZM63.6562 184.117C63.6562 183.82 63.7292 183.604 63.875 183.469C64.0208 183.328 64.2031 183.258 64.4219 183.258C64.6302 183.258 64.8099 183.328 64.9609 183.469C65.112 183.609 65.1875 183.826 65.1875 184.117C65.1875 184.409 65.112 184.628 64.9609 184.773C64.8099 184.914 64.6302 184.984 64.4219 184.984C64.2031 184.984 64.0208 184.914 63.875 184.773C63.7292 184.628 63.6562 184.409 63.6562 184.117ZM73.6719 195V189.461C73.6719 188.763 73.513 188.242 73.1953 187.898C72.8776 187.555 72.3802 187.383 71.7031 187.383C70.8073 187.383 70.151 187.625 69.7344 188.109C69.3177 188.594 69.1094 189.393 69.1094 190.508V195H67.8125V186.438H68.8672L69.0781 187.609H69.1406C69.4062 187.188 69.7786 186.862 70.2578 186.633C70.737 186.398 71.2708 186.281 71.8594 186.281C72.8906 186.281 73.6667 186.531 74.1875 187.031C74.7083 187.526 74.9688 188.32 74.9688 189.414V195H73.6719ZM84.6484 186.438V187.258L83.0625 187.445C83.2083 187.628 83.3385 187.867 83.4531 188.164C83.5677 188.456 83.625 188.786 83.625 189.156C83.625 189.995 83.3385 190.664 82.7656 191.164C82.1927 191.664 81.4062 191.914 80.4062 191.914C80.151 191.914 79.9115 191.893 79.6875 191.852C79.1354 192.143 78.8594 192.51 78.8594 192.953C78.8594 193.188 78.9557 193.362 79.1484 193.477C79.3411 193.586 79.6719 193.641 80.1406 193.641H81.6562C82.5833 193.641 83.2943 193.836 83.7891 194.227C84.2891 194.617 84.5391 195.185 84.5391 195.93C84.5391 196.878 84.1589 197.599 83.3984 198.094C82.638 198.594 81.5286 198.844 80.0703 198.844C78.9505 198.844 78.0859 198.635 77.4766 198.219C76.8724 197.802 76.5703 197.214 76.5703 196.453C76.5703 195.932 76.737 195.482 77.0703 195.102C77.4036 194.721 77.8724 194.464 78.4766 194.328C78.2578 194.229 78.0729 194.076 77.9219 193.867C77.776 193.659 77.7031 193.417 77.7031 193.141C77.7031 192.828 77.7865 192.555 77.9531 192.32C78.1198 192.086 78.3828 191.859 78.7422 191.641C78.2995 191.458 77.9375 191.148 77.6562 190.711C77.3802 190.273 77.2422 189.773 77.2422 189.211C77.2422 188.273 77.5234 187.552 78.0859 187.047C78.6484 186.536 79.4453 186.281 80.4766 186.281C80.9245 186.281 81.3281 186.333 81.6875 186.438H84.6484ZM77.8203 196.438C77.8203 196.901 78.0156 197.253 78.4062 197.492C78.7969 197.732 79.3568 197.852 80.0859 197.852C81.1745 197.852 81.9792 197.688 82.5 197.359C83.026 197.036 83.2891 196.596 83.2891 196.039C83.2891 195.576 83.1458 195.253 82.8594 195.07C82.5729 194.893 82.0339 194.805 81.2422 194.805H79.6875C79.099 194.805 78.6406 194.945 78.3125 195.227C77.9844 195.508 77.8203 195.911 77.8203 196.438ZM78.5234 189.18C78.5234 189.779 78.6927 190.232 79.0312 190.539C79.3698 190.846 79.8411 191 80.4453 191C81.7109 191 82.3438 190.385 82.3438 189.156C82.3438 187.87 81.7031 187.227 80.4219 187.227C79.8125 187.227 79.3438 187.391 79.0156 187.719C78.6875 188.047 78.5234 188.534 78.5234 189.18ZM97.5547 195L95.9844 189.977C95.8854 189.669 95.7005 188.971 95.4297 187.883H95.3672C95.1589 188.794 94.9766 189.497 94.8203 189.992L93.2031 195H91.7031L89.3672 186.438H90.7266C91.2786 188.589 91.6979 190.227 91.9844 191.352C92.276 192.477 92.4427 193.234 92.4844 193.625H92.5469C92.6042 193.328 92.6953 192.945 92.8203 192.477C92.9505 192.003 93.0625 191.628 93.1562 191.352L94.7266 186.438H96.1328L97.6641 191.352C97.9557 192.247 98.1536 193 98.2578 193.609H98.3203C98.3411 193.422 98.3958 193.133 98.4844 192.742C98.5781 192.352 99.1224 190.25 100.117 186.438H101.461L99.0938 195H97.5547ZM104.312 195H103.016V186.438H104.312V195ZM102.906 184.117C102.906 183.82 102.979 183.604 103.125 183.469C103.271 183.328 103.453 183.258 103.672 183.258C103.88 183.258 104.06 183.328 104.211 183.469C104.362 183.609 104.438 183.826 104.438 184.117C104.438 184.409 104.362 184.628 104.211 184.773C104.06 184.914 103.88 184.984 103.672 184.984C103.453 184.984 103.271 184.914 103.125 184.773C102.979 184.628 102.906 184.409 102.906 184.117ZM109.828 194.086C110.057 194.086 110.279 194.07 110.492 194.039C110.706 194.003 110.875 193.966 111 193.93V194.922C110.859 194.99 110.651 195.044 110.375 195.086C110.104 195.133 109.859 195.156 109.641 195.156C107.984 195.156 107.156 194.284 107.156 192.539V187.445H105.93V186.82L107.156 186.281L107.703 184.453H108.453V186.438H110.938V187.445H108.453V192.484C108.453 193 108.576 193.396 108.82 193.672C109.065 193.948 109.401 194.086 109.828 194.086ZM118.578 195V189.461C118.578 188.763 118.419 188.242 118.102 187.898C117.784 187.555 117.286 187.383 116.609 187.383C115.708 187.383 115.049 187.628 114.633 188.117C114.221 188.607 114.016 189.409 114.016 190.523V195H112.719V182.844H114.016V186.523C114.016 186.966 113.995 187.333 113.953 187.625H114.031C114.286 187.214 114.648 186.891 115.117 186.656C115.591 186.417 116.13 186.297 116.734 186.297C117.781 186.297 118.565 186.547 119.086 187.047C119.612 187.542 119.875 188.331 119.875 189.414V195H118.578ZM134.094 190.711C134.094 192.107 133.742 193.198 133.039 193.984C132.336 194.766 131.365 195.156 130.125 195.156C129.359 195.156 128.68 194.977 128.086 194.617C127.492 194.258 127.034 193.742 126.711 193.07C126.388 192.398 126.227 191.612 126.227 190.711C126.227 189.315 126.576 188.229 127.273 187.453C127.971 186.672 128.94 186.281 130.18 186.281C131.378 186.281 132.328 186.68 133.031 187.477C133.74 188.273 134.094 189.352 134.094 190.711ZM127.57 190.711C127.57 191.805 127.789 192.638 128.227 193.211C128.664 193.784 129.307 194.07 130.156 194.07C131.005 194.07 131.648 193.786 132.086 193.219C132.529 192.646 132.75 191.81 132.75 190.711C132.75 189.622 132.529 188.797 132.086 188.234C131.648 187.667 131 187.383 130.141 187.383C129.292 187.383 128.651 187.661 128.219 188.219C127.786 188.776 127.57 189.607 127.57 190.711ZM137.594 186.438V191.992C137.594 192.69 137.753 193.211 138.07 193.555C138.388 193.898 138.885 194.07 139.562 194.07C140.458 194.07 141.112 193.826 141.523 193.336C141.94 192.846 142.148 192.047 142.148 190.938V186.438H143.445V195H142.375L142.188 193.852H142.117C141.852 194.273 141.482 194.596 141.008 194.82C140.539 195.044 140.003 195.156 139.398 195.156C138.357 195.156 137.576 194.909 137.055 194.414C136.539 193.919 136.281 193.128 136.281 192.039V186.438H137.594ZM150.109 186.281C150.49 186.281 150.831 186.312 151.133 186.375L150.953 187.578C150.599 187.5 150.286 187.461 150.016 187.461C149.323 187.461 148.729 187.742 148.234 188.305C147.745 188.867 147.5 189.568 147.5 190.406V195H146.203V186.438H147.273L147.422 188.023H147.484C147.802 187.466 148.185 187.036 148.633 186.734C149.081 186.432 149.573 186.281 150.109 186.281ZM163.883 195L162.312 189.977C162.214 189.669 162.029 188.971 161.758 187.883H161.695C161.487 188.794 161.305 189.497 161.148 189.992L159.531 195H158.031L155.695 186.438H157.055C157.607 188.589 158.026 190.227 158.312 191.352C158.604 192.477 158.771 193.234 158.812 193.625H158.875C158.932 193.328 159.023 192.945 159.148 192.477C159.279 192.003 159.391 191.628 159.484 191.352L161.055 186.438H162.461L163.992 191.352C164.284 192.247 164.482 193 164.586 193.609H164.648C164.669 193.422 164.724 193.133 164.812 192.742C164.906 192.352 165.451 190.25 166.445 186.438H167.789L165.422 195H163.883ZM172.961 195.156C171.695 195.156 170.695 194.771 169.961 194C169.232 193.229 168.867 192.159 168.867 190.789C168.867 189.409 169.206 188.312 169.883 187.5C170.565 186.688 171.479 186.281 172.625 186.281C173.698 186.281 174.547 186.635 175.172 187.344C175.797 188.047 176.109 188.977 176.109 190.133V190.953H170.211C170.237 191.958 170.49 192.721 170.969 193.242C171.453 193.763 172.133 194.023 173.008 194.023C173.93 194.023 174.841 193.831 175.742 193.445V194.602C175.284 194.799 174.849 194.94 174.438 195.023C174.031 195.112 173.539 195.156 172.961 195.156ZM172.609 187.367C171.922 187.367 171.372 187.591 170.961 188.039C170.555 188.487 170.315 189.107 170.242 189.898H174.719C174.719 189.081 174.536 188.456 174.172 188.023C173.807 187.586 173.286 187.367 172.609 187.367ZM181.945 195.156C180.68 195.156 179.68 194.771 178.945 194C178.216 193.229 177.852 192.159 177.852 190.789C177.852 189.409 178.19 188.312 178.867 187.5C179.549 186.688 180.464 186.281 181.609 186.281C182.682 186.281 183.531 186.635 184.156 187.344C184.781 188.047 185.094 188.977 185.094 190.133V190.953H179.195C179.221 191.958 179.474 192.721 179.953 193.242C180.438 193.763 181.117 194.023 181.992 194.023C182.914 194.023 183.826 193.831 184.727 193.445V194.602C184.268 194.799 183.833 194.94 183.422 195.023C183.016 195.112 182.523 195.156 181.945 195.156ZM181.594 187.367C180.906 187.367 180.357 187.591 179.945 188.039C179.539 188.487 179.299 189.107 179.227 189.898H183.703C183.703 189.081 183.521 188.456 183.156 188.023C182.792 187.586 182.271 187.367 181.594 187.367ZM188.594 190.617C188.818 190.299 189.159 189.883 189.617 189.367L192.383 186.438H193.922L190.453 190.086L194.164 195H192.594L189.57 190.953L188.594 191.797V195H187.312V182.844H188.594V189.289C188.594 189.576 188.573 190.018 188.531 190.617H188.594ZM197.016 195H195.719V182.844H197.016V195ZM198.406 186.438H199.797L201.672 191.32C202.083 192.435 202.339 193.24 202.438 193.734H202.5C202.568 193.469 202.708 193.016 202.922 192.375C203.141 191.729 203.849 189.75 205.047 186.438H206.438L202.758 196.188C202.393 197.151 201.966 197.833 201.477 198.234C200.992 198.641 200.396 198.844 199.688 198.844C199.292 198.844 198.901 198.799 198.516 198.711V197.672C198.802 197.734 199.122 197.766 199.477 197.766C200.367 197.766 201.003 197.266 201.383 196.266L201.859 195.047L198.406 186.438ZM30.9531 210.438V215.992C30.9531 216.69 31.112 217.211 31.4297 217.555C31.7474 217.898 32.2448 218.07 32.9219 218.07C33.8177 218.07 34.4714 217.826 34.8828 217.336C35.2995 216.846 35.5078 216.047 35.5078 214.938V210.438H36.8047V219H35.7344L35.5469 217.852H35.4766C35.2109 218.273 34.8411 218.596 34.3672 218.82C33.8984 219.044 33.362 219.156 32.7578 219.156C31.7161 219.156 30.9349 218.909 30.4141 218.414C29.8984 217.919 29.6406 217.128 29.6406 216.039V210.438H30.9531ZM43.5469 219.156C42.9896 219.156 42.4792 219.055 42.0156 218.852C41.5573 218.643 41.1719 218.326 40.8594 217.898H40.7656C40.8281 218.398 40.8594 218.872 40.8594 219.32V222.844H39.5625V210.438H40.6172L40.7969 211.609H40.8594C41.1927 211.141 41.5807 210.802 42.0234 210.594C42.4661 210.385 42.974 210.281 43.5469 210.281C44.6823 210.281 45.5573 210.669 46.1719 211.445C46.7917 212.221 47.1016 213.31 47.1016 214.711C47.1016 216.117 46.7865 217.211 46.1562 217.992C45.5312 218.768 44.6615 219.156 43.5469 219.156ZM43.3594 211.383C42.4844 211.383 41.8516 211.625 41.4609 212.109C41.0703 212.594 40.8698 213.365 40.8594 214.422V214.711C40.8594 215.914 41.0599 216.776 41.4609 217.297C41.862 217.812 42.5052 218.07 43.3906 218.07C44.1302 218.07 44.7083 217.771 45.125 217.172C45.5469 216.573 45.7578 215.747 45.7578 214.695C45.7578 213.628 45.5469 212.81 45.125 212.242C44.7083 211.669 44.1198 211.383 43.3594 211.383ZM55.2031 217.852H55.1328C54.5339 218.721 53.638 219.156 52.4453 219.156C51.3255 219.156 50.4531 218.773 49.8281 218.008C49.2083 217.242 48.8984 216.154 48.8984 214.742C48.8984 213.331 49.2109 212.234 49.8359 211.453C50.4609 210.672 51.3307 210.281 52.4453 210.281C53.6068 210.281 54.4974 210.703 55.1172 211.547H55.2188L55.1641 210.93L55.1328 210.328V206.844H56.4297V219H55.375L55.2031 217.852ZM52.6094 218.07C53.4948 218.07 54.1354 217.831 54.5312 217.352C54.9323 216.867 55.1328 216.089 55.1328 215.016V214.742C55.1328 213.529 54.9297 212.664 54.5234 212.148C54.1224 211.628 53.4792 211.367 52.5938 211.367C51.8333 211.367 51.25 211.664 50.8438 212.258C50.4427 212.846 50.2422 213.68 50.2422 214.758C50.2422 215.852 50.4427 216.677 50.8438 217.234C51.2448 217.792 51.8333 218.07 52.6094 218.07ZM64.4531 219L64.1953 217.781H64.1328C63.7057 218.318 63.2786 218.682 62.8516 218.875C62.4297 219.062 61.901 219.156 61.2656 219.156C60.4167 219.156 59.75 218.938 59.2656 218.5C58.7865 218.062 58.5469 217.44 58.5469 216.633C58.5469 214.904 59.9297 213.997 62.6953 213.914L64.1484 213.867V213.336C64.1484 212.664 64.0026 212.169 63.7109 211.852C63.4245 211.529 62.9635 211.367 62.3281 211.367C61.6146 211.367 60.8073 211.586 59.9062 212.023L59.5078 211.031C59.9297 210.802 60.3906 210.622 60.8906 210.492C61.3958 210.362 61.901 210.297 62.4062 210.297C63.4271 210.297 64.1823 210.523 64.6719 210.977C65.1667 211.43 65.4141 212.156 65.4141 213.156V219H64.4531ZM61.5234 218.086C62.3307 218.086 62.9635 217.865 63.4219 217.422C63.8854 216.979 64.1172 216.359 64.1172 215.562V214.789L62.8203 214.844C61.7891 214.88 61.0443 215.042 60.5859 215.328C60.1328 215.609 59.9062 216.049 59.9062 216.648C59.9062 217.117 60.0469 217.474 60.3281 217.719C60.6146 217.964 61.013 218.086 61.5234 218.086ZM70.8594 218.086C71.0885 218.086 71.3099 218.07 71.5234 218.039C71.737 218.003 71.9062 217.966 72.0312 217.93V218.922C71.8906 218.99 71.6823 219.044 71.4062 219.086C71.1354 219.133 70.8906 219.156 70.6719 219.156C69.0156 219.156 68.1875 218.284 68.1875 216.539V211.445H66.9609V210.82L68.1875 210.281L68.7344 208.453H69.4844V210.438H71.9688V211.445H69.4844V216.484C69.4844 217 69.6068 217.396 69.8516 217.672C70.0964 217.948 70.4323 218.086 70.8594 218.086ZM77.3672 219.156C76.1016 219.156 75.1016 218.771 74.3672 218C73.638 217.229 73.2734 216.159 73.2734 214.789C73.2734 213.409 73.612 212.312 74.2891 211.5C74.9714 210.688 75.8854 210.281 77.0312 210.281C78.1042 210.281 78.9531 210.635 79.5781 211.344C80.2031 212.047 80.5156 212.977 80.5156 214.133V214.953H74.6172C74.6432 215.958 74.8958 216.721 75.375 217.242C75.8594 217.763 76.5391 218.023 77.4141 218.023C78.3359 218.023 79.2474 217.831 80.1484 217.445V218.602C79.6901 218.799 79.2552 218.94 78.8438 219.023C78.4375 219.112 77.9453 219.156 77.3672 219.156ZM77.0156 211.367C76.3281 211.367 75.7786 211.591 75.3672 212.039C74.9609 212.487 74.7214 213.107 74.6484 213.898H79.125C79.125 213.081 78.9427 212.456 78.5781 212.023C78.2135 211.586 77.6927 211.367 77.0156 211.367ZM88.5625 217.852H88.4922C87.8932 218.721 86.9974 219.156 85.8047 219.156C84.6849 219.156 83.8125 218.773 83.1875 218.008C82.5677 217.242 82.2578 216.154 82.2578 214.742C82.2578 213.331 82.5703 212.234 83.1953 211.453C83.8203 210.672 84.6901 210.281 85.8047 210.281C86.9661 210.281 87.8568 210.703 88.4766 211.547H88.5781L88.5234 210.93L88.4922 210.328V206.844H89.7891V219H88.7344L88.5625 217.852ZM85.9688 218.07C86.8542 218.07 87.4948 217.831 87.8906 217.352C88.2917 216.867 88.4922 216.089 88.4922 215.016V214.742C88.4922 213.529 88.2891 212.664 87.8828 212.148C87.4818 211.628 86.8385 211.367 85.9531 211.367C85.1927 211.367 84.6094 211.664 84.2031 212.258C83.8021 212.846 83.6016 213.68 83.6016 214.758C83.6016 215.852 83.8021 216.677 84.2031 217.234C84.6042 217.792 85.1927 218.07 85.9688 218.07ZM104.094 214.711C104.094 216.107 103.742 217.198 103.039 217.984C102.336 218.766 101.365 219.156 100.125 219.156C99.3594 219.156 98.6797 218.977 98.0859 218.617C97.4922 218.258 97.0339 217.742 96.7109 217.07C96.388 216.398 96.2266 215.612 96.2266 214.711C96.2266 213.315 96.5755 212.229 97.2734 211.453C97.9714 210.672 98.9401 210.281 100.18 210.281C101.378 210.281 102.328 210.68 103.031 211.477C103.74 212.273 104.094 213.352 104.094 214.711ZM97.5703 214.711C97.5703 215.805 97.7891 216.638 98.2266 217.211C98.6641 217.784 99.3073 218.07 100.156 218.07C101.005 218.07 101.648 217.786 102.086 217.219C102.529 216.646 102.75 215.81 102.75 214.711C102.75 213.622 102.529 212.797 102.086 212.234C101.648 211.667 101 211.383 100.141 211.383C99.2917 211.383 98.651 211.661 98.2188 212.219C97.7865 212.776 97.5703 213.607 97.5703 214.711ZM112.234 219V213.461C112.234 212.763 112.076 212.242 111.758 211.898C111.44 211.555 110.943 211.383 110.266 211.383C109.37 211.383 108.714 211.625 108.297 212.109C107.88 212.594 107.672 213.393 107.672 214.508V219H106.375V210.438H107.43L107.641 211.609H107.703C107.969 211.188 108.341 210.862 108.82 210.633C109.299 210.398 109.833 210.281 110.422 210.281C111.453 210.281 112.229 210.531 112.75 211.031C113.271 211.526 113.531 212.32 113.531 213.414V219H112.234ZM131.273 219V213.43C131.273 212.747 131.128 212.237 130.836 211.898C130.544 211.555 130.091 211.383 129.477 211.383C128.669 211.383 128.073 211.615 127.688 212.078C127.302 212.542 127.109 213.255 127.109 214.219V219H125.812V213.43C125.812 212.747 125.667 212.237 125.375 211.898C125.083 211.555 124.628 211.383 124.008 211.383C123.195 211.383 122.599 211.628 122.219 212.117C121.844 212.602 121.656 213.398 121.656 214.508V219H120.359V210.438H121.414L121.625 211.609H121.688C121.932 211.193 122.276 210.867 122.719 210.633C123.167 210.398 123.667 210.281 124.219 210.281C125.557 210.281 126.432 210.766 126.844 211.734H126.906C127.161 211.286 127.531 210.932 128.016 210.672C128.5 210.411 129.052 210.281 129.672 210.281C130.641 210.281 131.365 210.531 131.844 211.031C132.328 211.526 132.57 212.32 132.57 213.414V219H131.273ZM138.867 219.156C137.602 219.156 136.602 218.771 135.867 218C135.138 217.229 134.773 216.159 134.773 214.789C134.773 213.409 135.112 212.312 135.789 211.5C136.471 210.688 137.385 210.281 138.531 210.281C139.604 210.281 140.453 210.635 141.078 211.344C141.703 212.047 142.016 212.977 142.016 214.133V214.953H136.117C136.143 215.958 136.396 216.721 136.875 217.242C137.359 217.763 138.039 218.023 138.914 218.023C139.836 218.023 140.747 217.831 141.648 217.445V218.602C141.19 218.799 140.755 218.94 140.344 219.023C139.938 219.112 139.445 219.156 138.867 219.156ZM138.516 211.367C137.828 211.367 137.279 211.591 136.867 212.039C136.461 212.487 136.221 213.107 136.148 213.898H140.625C140.625 213.081 140.443 212.456 140.078 212.023C139.714 211.586 139.193 211.367 138.516 211.367ZM147 218.086C147.229 218.086 147.451 218.07 147.664 218.039C147.878 218.003 148.047 217.966 148.172 217.93V218.922C148.031 218.99 147.823 219.044 147.547 219.086C147.276 219.133 147.031 219.156 146.812 219.156C145.156 219.156 144.328 218.284 144.328 216.539V211.445H143.102V210.82L144.328 210.281L144.875 208.453H145.625V210.438H148.109V211.445H145.625V216.484C145.625 217 145.747 217.396 145.992 217.672C146.237 217.948 146.573 218.086 147 218.086ZM153.797 210.281C154.177 210.281 154.518 210.312 154.82 210.375L154.641 211.578C154.286 211.5 153.974 211.461 153.703 211.461C153.01 211.461 152.417 211.742 151.922 212.305C151.432 212.867 151.188 213.568 151.188 214.406V219H149.891V210.438H150.961L151.109 212.023H151.172C151.49 211.466 151.872 211.036 152.32 210.734C152.768 210.432 153.26 210.281 153.797 210.281ZM157.719 219H156.422V210.438H157.719V219ZM156.312 208.117C156.312 207.82 156.385 207.604 156.531 207.469C156.677 207.328 156.859 207.258 157.078 207.258C157.286 207.258 157.466 207.328 157.617 207.469C157.768 207.609 157.844 207.826 157.844 208.117C157.844 208.409 157.768 208.628 157.617 208.773C157.466 208.914 157.286 208.984 157.078 208.984C156.859 208.984 156.677 208.914 156.531 208.773C156.385 208.628 156.312 208.409 156.312 208.117ZM163.891 219.156C162.651 219.156 161.69 218.776 161.008 218.016C160.331 217.25 159.992 216.169 159.992 214.773C159.992 213.341 160.336 212.234 161.023 211.453C161.716 210.672 162.701 210.281 163.977 210.281C164.388 210.281 164.799 210.326 165.211 210.414C165.622 210.503 165.945 210.607 166.18 210.727L165.781 211.828C165.495 211.714 165.182 211.62 164.844 211.547C164.505 211.469 164.206 211.43 163.945 211.43C162.206 211.43 161.336 212.539 161.336 214.758C161.336 215.81 161.547 216.617 161.969 217.18C162.396 217.742 163.026 218.023 163.859 218.023C164.573 218.023 165.305 217.87 166.055 217.562V218.711C165.482 219.008 164.76 219.156 163.891 219.156ZM173.617 216.664C173.617 217.461 173.32 218.076 172.727 218.508C172.133 218.94 171.299 219.156 170.227 219.156C169.091 219.156 168.206 218.977 167.57 218.617V217.414C167.982 217.622 168.422 217.786 168.891 217.906C169.365 218.026 169.82 218.086 170.258 218.086C170.935 218.086 171.456 217.979 171.82 217.766C172.185 217.547 172.367 217.216 172.367 216.773C172.367 216.44 172.221 216.156 171.93 215.922C171.643 215.682 171.081 215.401 170.242 215.078C169.445 214.781 168.878 214.523 168.539 214.305C168.206 214.081 167.956 213.828 167.789 213.547C167.628 213.266 167.547 212.93 167.547 212.539C167.547 211.841 167.831 211.292 168.398 210.891C168.966 210.484 169.745 210.281 170.734 210.281C171.656 210.281 172.557 210.469 173.438 210.844L172.977 211.898C172.117 211.544 171.339 211.367 170.641 211.367C170.026 211.367 169.562 211.464 169.25 211.656C168.938 211.849 168.781 212.115 168.781 212.453C168.781 212.682 168.839 212.878 168.953 213.039C169.073 213.201 169.263 213.354 169.523 213.5C169.784 213.646 170.284 213.857 171.023 214.133C172.039 214.503 172.724 214.875 173.078 215.25C173.438 215.625 173.617 216.096 173.617 216.664ZM176.906 215.852H176.086L175.688 207.578H177.305L176.906 215.852ZM175.547 218.172C175.547 217.464 175.859 217.109 176.484 217.109C176.786 217.109 177.018 217.201 177.18 217.383C177.346 217.565 177.43 217.828 177.43 218.172C177.43 218.505 177.346 218.766 177.18 218.953C177.013 219.135 176.781 219.227 176.484 219.227C176.214 219.227 175.99 219.146 175.812 218.984C175.635 218.818 175.547 218.547 175.547 218.172Z" fill="#414141"/>
<path d="M32.9566 117.008C33.3566 117.024 33.8926 117.04 34.5646 117.056C35.2526 117.072 35.9326 117.08 36.6046 117.08C37.3726 117.08 38.1166 117.072 38.8366 117.056C39.5566 117.04 40.0686 117.032 40.3726 117.032C42.5966 117.032 44.2606 117.472 45.3646 118.352C46.4686 119.232 47.0206 120.368 47.0206 121.76C47.0206 122.336 46.9086 122.944 46.6846 123.584C46.4606 124.208 46.0766 124.792 45.5326 125.336C45.0046 125.864 44.2766 126.296 43.3486 126.632C42.4206 126.968 41.2526 127.136 39.8446 127.136H37.3966V126.656H39.6046C40.5486 126.656 41.2606 126.44 41.7406 126.008C42.2366 125.576 42.5726 125.008 42.7486 124.304C42.9406 123.6 43.0366 122.84 43.0366 122.024C43.0366 120.504 42.8126 119.368 42.3646 118.616C41.9166 117.864 41.1486 117.488 40.0606 117.488C39.4366 117.488 39.0286 117.624 38.8366 117.896C38.6606 118.168 38.5726 118.72 38.5726 119.552V131.312C38.5726 131.936 38.6366 132.4 38.7646 132.704C38.8926 133.008 39.1406 133.208 39.5086 133.304C39.8766 133.4 40.4206 133.456 41.1406 133.472V134C40.6446 133.984 40.0046 133.968 39.2206 133.952C38.4366 133.936 37.6126 133.928 36.7486 133.928C36.0606 133.928 35.3886 133.936 34.7326 133.952C34.0766 133.968 33.4846 133.984 32.9566 134V133.52C33.4686 133.488 33.8526 133.424 34.1086 133.328C34.3646 133.232 34.5326 133.04 34.6126 132.752C34.7086 132.464 34.7566 132.032 34.7566 131.456V119.552C34.7566 118.96 34.7086 118.528 34.6126 118.256C34.5326 117.968 34.3566 117.776 34.0846 117.68C33.8286 117.568 33.4526 117.504 32.9566 117.488V117.008ZM53.9086 121.256C55.3166 121.256 56.4206 121.672 57.2206 122.504C58.0206 123.336 58.4206 124.696 58.4206 126.584H50.5246L50.4766 126.128H55.3966C55.4126 125.344 55.3646 124.624 55.2526 123.968C55.1406 123.296 54.9646 122.76 54.7246 122.36C54.4846 121.96 54.1646 121.76 53.7646 121.76C53.2046 121.76 52.7246 122.112 52.3246 122.816C51.9406 123.52 51.7086 124.688 51.6286 126.32L51.7006 126.464C51.6846 126.656 51.6686 126.856 51.6526 127.064C51.6526 127.272 51.6526 127.488 51.6526 127.712C51.6526 128.816 51.8046 129.712 52.1086 130.4C52.4286 131.088 52.8286 131.592 53.3086 131.912C53.7886 132.216 54.2766 132.368 54.7726 132.368C55.1086 132.368 55.4526 132.32 55.8046 132.224C56.1726 132.112 56.5406 131.92 56.9086 131.648C57.2766 131.36 57.6206 130.96 57.9406 130.448L58.3726 130.592C58.1806 131.2 57.8766 131.792 57.4606 132.368C57.0446 132.944 56.5166 133.416 55.8766 133.784C55.2366 134.152 54.4686 134.336 53.5726 134.336C52.4846 134.336 51.5246 134.104 50.6926 133.64C49.8606 133.176 49.2046 132.472 48.7246 131.528C48.2606 130.584 48.0286 129.384 48.0286 127.928C48.0286 126.44 48.2766 125.2 48.7726 124.208C49.2846 123.216 49.9806 122.48 50.8606 122C51.7566 121.504 52.7726 121.256 53.9086 121.256ZM67.9258 121.256C68.4378 121.256 68.8538 121.368 69.1738 121.592C69.4938 121.8 69.7258 122.072 69.8698 122.408C70.0298 122.744 70.1098 123.096 70.1098 123.464C70.1098 124.056 69.9338 124.544 69.5818 124.928C69.2458 125.296 68.7978 125.48 68.2378 125.48C67.6778 125.48 67.2378 125.344 66.9178 125.072C66.6138 124.784 66.4618 124.408 66.4618 123.944C66.4618 123.496 66.5578 123.128 66.7498 122.84C66.9578 122.536 67.2138 122.28 67.5178 122.072C67.2938 122.008 67.0698 122.016 66.8458 122.096C66.5418 122.144 66.2538 122.272 65.9818 122.48C65.7098 122.672 65.4778 122.92 65.2858 123.224C65.0938 123.512 64.9418 123.832 64.8298 124.184C64.7178 124.52 64.6618 124.848 64.6618 125.168V131.528C64.6618 132.296 64.8458 132.816 65.2138 133.088C65.5978 133.36 66.1658 133.496 66.9178 133.496V134C66.5498 133.984 66.0138 133.968 65.3098 133.952C64.6058 133.92 63.8698 133.904 63.1018 133.904C62.4618 133.904 61.8138 133.92 61.1578 133.952C60.5018 133.968 60.0058 133.984 59.6698 134V133.496C60.2298 133.496 60.6218 133.376 60.8458 133.136C61.0858 132.896 61.2058 132.44 61.2058 131.768V124.208C61.2058 123.488 61.0938 122.96 60.8698 122.624C60.6618 122.272 60.2618 122.096 59.6698 122.096V121.592C60.1818 121.64 60.6778 121.664 61.1578 121.664C61.8298 121.664 62.4538 121.64 63.0298 121.592C63.6218 121.528 64.1658 121.44 64.6618 121.328V123.56C64.8538 123.128 65.1098 122.736 65.4297 122.384C65.7498 122.032 66.1178 121.76 66.5338 121.568C66.9498 121.36 67.4138 121.256 67.9258 121.256ZM77.0917 115.232C77.6517 115.232 78.1397 115.304 78.5557 115.448C78.9717 115.592 79.3397 115.784 79.6597 116.024C79.8837 116.2 80.0757 116.448 80.2357 116.768C80.3957 117.072 80.4757 117.424 80.4757 117.824C80.4757 118.256 80.3157 118.64 79.9957 118.976C79.6917 119.312 79.2837 119.48 78.7717 119.48C78.2437 119.48 77.8037 119.328 77.4517 119.024C77.1157 118.72 76.9477 118.304 76.9477 117.776C76.9477 117.36 77.0677 116.992 77.3077 116.672C77.5477 116.352 77.8997 116.128 78.3637 116C78.3157 115.904 78.2197 115.824 78.0757 115.76C77.9317 115.696 77.7397 115.664 77.4997 115.664C77.1797 115.664 76.9157 115.72 76.7077 115.832C76.4997 115.944 76.3317 116.096 76.2037 116.288C76.0277 116.528 75.9077 116.88 75.8437 117.344C75.7797 117.792 75.7477 118.488 75.7477 119.432V121.616H78.3157V122.096H75.7477V131.528C75.7477 132.312 75.9477 132.84 76.3477 133.112C76.7477 133.368 77.2997 133.496 78.0037 133.496V134C77.5877 133.984 77.0037 133.968 76.2517 133.952C75.4997 133.92 74.7077 133.904 73.8757 133.904C73.2677 133.904 72.6677 133.92 72.0757 133.952C71.4997 133.968 71.0597 133.984 70.7557 134V133.496C71.3157 133.496 71.7077 133.376 71.9317 133.136C72.1717 132.896 72.2917 132.44 72.2917 131.768V122.096H70.6597V121.616H72.2917C72.2917 120.672 72.3397 119.888 72.4357 119.264C72.5317 118.624 72.6917 118.08 72.9157 117.632C73.1397 117.184 73.4357 116.784 73.8037 116.432C74.1557 116.096 74.6197 115.816 75.1957 115.592C75.7877 115.352 76.4197 115.232 77.0917 115.232ZM84.9633 121.256C86.1313 121.256 87.1553 121.472 88.0353 121.904C88.9153 122.336 89.6033 123.032 90.0993 123.992C90.5953 124.952 90.8433 126.224 90.8433 127.808C90.8433 129.392 90.5953 130.664 90.0993 131.624C89.6033 132.568 88.9153 133.256 88.0353 133.688C87.1553 134.12 86.1313 134.336 84.9633 134.336C83.8273 134.336 82.8113 134.12 81.9153 133.688C81.0353 133.256 80.3393 132.568 79.8273 131.624C79.3313 130.664 79.0833 129.392 79.0833 127.808C79.0833 126.224 79.3313 124.952 79.8273 123.992C80.3393 123.032 81.0353 122.336 81.9153 121.904C82.8113 121.472 83.8273 121.256 84.9633 121.256ZM84.9633 121.736C84.3233 121.736 83.7873 122.216 83.3553 123.176C82.9233 124.12 82.7073 125.664 82.7073 127.808C82.7073 129.952 82.9233 131.496 83.3553 132.44C83.7873 133.384 84.3233 133.856 84.9633 133.856C85.6193 133.856 86.1553 133.384 86.5713 132.44C87.0033 131.496 87.2193 129.952 87.2193 127.808C87.2193 125.664 87.0033 124.12 86.5713 123.176C86.1553 122.216 85.6193 121.736 84.9633 121.736ZM100.598 121.256C101.11 121.256 101.526 121.368 101.846 121.592C102.166 121.8 102.398 122.072 102.542 122.408C102.702 122.744 102.782 123.096 102.782 123.464C102.782 124.056 102.606 124.544 102.254 124.928C101.918 125.296 101.47 125.48 100.91 125.48C100.35 125.48 99.9096 125.344 99.5896 125.072C99.2856 124.784 99.1336 124.408 99.1336 123.944C99.1336 123.496 99.2296 123.128 99.4216 122.84C99.6296 122.536 99.8856 122.28 100.19 122.072C99.9656 122.008 99.7416 122.016 99.5176 122.096C99.2136 122.144 98.9256 122.272 98.6536 122.48C98.3816 122.672 98.1496 122.92 97.9576 123.224C97.7656 123.512 97.6136 123.832 97.5016 124.184C97.3896 124.52 97.3336 124.848 97.3336 125.168V131.528C97.3336 132.296 97.5176 132.816 97.8856 133.088C98.2696 133.36 98.8376 133.496 99.5896 133.496V134C99.2216 133.984 98.6856 133.968 97.9816 133.952C97.2776 133.92 96.5416 133.904 95.7736 133.904C95.1336 133.904 94.4856 133.92 93.8296 133.952C93.1736 133.968 92.6776 133.984 92.3416 134V133.496C92.9016 133.496 93.2936 133.376 93.5176 133.136C93.7576 132.896 93.8776 132.44 93.8776 131.768V124.208C93.8776 123.488 93.7656 122.96 93.5416 122.624C93.3336 122.272 92.9336 122.096 92.3416 122.096V121.592C92.8536 121.64 93.3496 121.664 93.8296 121.664C94.5016 121.664 95.1256 121.64 95.7016 121.592C96.2936 121.528 96.8376 121.44 97.3336 121.328V123.56C97.5256 123.128 97.7816 122.736 98.1016 122.384C98.4216 122.032 98.7896 121.76 99.2056 121.568C99.6216 121.36 100.086 121.256 100.598 121.256ZM112.257 121.256C112.929 121.256 113.473 121.344 113.889 121.52C114.305 121.68 114.641 121.904 114.897 122.192C115.153 122.496 115.337 122.896 115.449 123.392C115.561 123.872 115.617 124.512 115.617 125.312V131.768C115.617 132.44 115.721 132.896 115.929 133.136C116.137 133.376 116.497 133.496 117.009 133.496V134C116.721 133.984 116.281 133.968 115.689 133.952C115.113 133.92 114.545 133.904 113.985 133.904C113.409 133.904 112.841 133.92 112.281 133.952C111.721 133.968 111.297 133.984 111.009 134V133.496C111.441 133.496 111.737 133.376 111.897 133.136C112.073 132.896 112.161 132.44 112.161 131.768V124.304C112.161 123.904 112.129 123.56 112.065 123.272C112.001 122.968 111.873 122.736 111.681 122.576C111.505 122.4 111.233 122.312 110.865 122.312C110.449 122.312 110.065 122.432 109.713 122.672C109.361 122.912 109.073 123.248 108.849 123.68C108.641 124.096 108.537 124.568 108.537 125.096V131.768C108.537 132.44 108.625 132.896 108.801 133.136C108.977 133.376 109.273 133.496 109.689 133.496V134C109.433 133.984 109.033 133.968 108.489 133.952C107.961 133.92 107.417 133.904 106.857 133.904C106.249 133.904 105.625 133.92 104.985 133.952C104.345 133.968 103.865 133.984 103.545 134V133.496C104.105 133.496 104.497 133.376 104.721 133.136C104.961 132.896 105.081 132.44 105.081 131.768V124.208C105.081 123.488 104.969 122.96 104.745 122.624C104.537 122.272 104.137 122.096 103.545 122.096V121.592C104.057 121.64 104.553 121.664 105.033 121.664C105.705 121.664 106.329 121.64 106.905 121.592C107.497 121.528 108.041 121.44 108.537 121.328V123.488C108.921 122.688 109.441 122.12 110.097 121.784C110.753 121.432 111.473 121.256 112.257 121.256ZM119.481 121.256C120.153 121.256 120.697 121.344 121.113 121.52C121.529 121.68 121.865 121.904 122.121 122.192C122.377 122.496 122.561 122.896 122.673 123.392C122.785 123.872 122.841 124.512 122.841 125.312V131.768C122.841 132.44 122.953 132.896 123.177 133.136C123.417 133.376 123.817 133.496 124.377 133.496V134C124.073 133.984 123.617 133.968 123.009 133.952C122.401 133.92 121.801 133.904 121.209 133.904C120.633 133.904 120.065 133.92 119.505 133.952C118.945 133.968 118.521 133.984 118.233 134V133.496C118.665 133.496 118.961 133.376 119.121 133.136C119.297 132.896 119.385 132.44 119.385 131.768V124.304C119.385 123.904 119.345 123.56 119.265 123.272C119.201 122.968 119.065 122.736 118.857 122.576C118.665 122.4 118.361 122.312 117.945 122.312C117.529 122.312 117.145 122.44 116.793 122.696C116.441 122.952 116.153 123.296 115.929 123.728C115.721 124.16 115.609 124.64 115.593 125.168L115.473 123.704C115.905 122.744 116.473 122.096 117.177 121.76C117.897 121.424 118.665 121.256 119.481 121.256ZM128.583 134.168C127.863 134.168 127.263 134.032 126.783 133.76C126.303 133.488 125.951 133.128 125.727 132.68C125.503 132.216 125.391 131.712 125.391 131.168C125.391 130.48 125.543 129.92 125.847 129.488C126.167 129.056 126.575 128.704 127.071 128.432C127.567 128.16 128.087 127.936 128.631 127.76C129.191 127.584 129.719 127.416 130.215 127.256C130.727 127.08 131.135 126.88 131.439 126.656C131.759 126.416 131.919 126.112 131.919 125.744V123.872C131.919 123.456 131.847 123.088 131.703 122.768C131.575 122.432 131.367 122.176 131.079 122C130.807 121.824 130.447 121.736 129.999 121.736C129.679 121.736 129.359 121.784 129.039 121.88C128.719 121.96 128.455 122.104 128.247 122.312C128.695 122.472 129.039 122.72 129.279 123.056C129.535 123.376 129.663 123.744 129.663 124.16C129.663 124.704 129.471 125.136 129.087 125.456C128.719 125.776 128.279 125.936 127.767 125.936C127.191 125.936 126.751 125.76 126.447 125.408C126.159 125.04 126.015 124.6 126.015 124.088C126.015 123.624 126.127 123.24 126.351 122.936C126.591 122.632 126.919 122.344 127.335 122.072C127.783 121.816 128.319 121.616 128.943 121.472C129.583 121.328 130.271 121.256 131.007 121.256C131.743 121.256 132.407 121.336 132.999 121.496C133.591 121.64 134.087 121.912 134.487 122.312C134.855 122.68 135.095 123.136 135.207 123.68C135.319 124.208 135.375 124.88 135.375 125.696V132.224C135.375 132.624 135.415 132.904 135.495 133.064C135.575 133.208 135.711 133.28 135.903 133.28C136.047 133.28 136.183 133.24 136.311 133.16C136.455 133.08 136.607 132.984 136.767 132.872L137.007 133.28C136.671 133.568 136.279 133.792 135.831 133.952C135.399 134.096 134.911 134.168 134.367 134.168C133.775 134.168 133.303 134.088 132.951 133.928C132.599 133.752 132.343 133.52 132.183 133.232C132.039 132.944 131.967 132.608 131.967 132.224C131.583 132.832 131.119 133.312 130.575 133.664C130.031 134 129.367 134.168 128.583 134.168ZM130.287 132.632C130.607 132.632 130.895 132.56 131.151 132.416C131.423 132.256 131.679 132 131.919 131.648V126.728C131.775 126.968 131.575 127.184 131.319 127.376C131.063 127.568 130.791 127.768 130.503 127.976C130.215 128.168 129.935 128.384 129.663 128.624C129.407 128.864 129.199 129.16 129.039 129.512C128.879 129.864 128.799 130.288 128.799 130.784C128.799 131.408 128.935 131.872 129.207 132.176C129.479 132.48 129.839 132.632 130.287 132.632ZM146.621 121.256C147.293 121.256 147.837 121.344 148.253 121.52C148.685 121.68 149.021 121.904 149.261 122.192C149.517 122.496 149.701 122.888 149.813 123.368C149.941 123.848 150.005 124.496 150.005 125.312V131.768C150.005 132.44 150.117 132.896 150.341 133.136C150.581 133.376 150.981 133.496 151.541 133.496V134C151.237 133.984 150.781 133.968 150.173 133.952C149.565 133.92 148.965 133.904 148.373 133.904C147.765 133.904 147.165 133.92 146.573 133.952C145.997 133.968 145.557 133.984 145.253 134V133.496C145.733 133.496 146.069 133.376 146.261 133.136C146.453 132.896 146.549 132.44 146.549 131.768V124.304C146.549 123.904 146.509 123.56 146.429 123.272C146.349 122.968 146.205 122.736 145.997 122.576C145.789 122.4 145.477 122.312 145.061 122.312C144.629 122.312 144.229 122.432 143.861 122.672C143.509 122.912 143.221 123.248 142.997 123.68C142.789 124.096 142.685 124.568 142.685 125.096V131.768C142.685 132.44 142.781 132.896 142.973 133.136C143.181 133.376 143.517 133.496 143.981 133.496V134C143.693 133.984 143.269 133.968 142.709 133.952C142.165 133.92 141.597 133.904 141.005 133.904C140.397 133.904 139.773 133.92 139.133 133.952C138.493 133.968 138.013 133.984 137.693 134V133.496C138.253 133.496 138.645 133.376 138.869 133.136C139.109 132.896 139.229 132.44 139.229 131.768V124.208C139.229 123.488 139.117 122.96 138.893 122.624C138.685 122.272 138.285 122.096 137.693 122.096V121.592C138.205 121.64 138.701 121.664 139.181 121.664C139.853 121.664 140.477 121.64 141.053 121.592C141.645 121.528 142.189 121.44 142.685 121.328V123.488C143.085 122.672 143.629 122.096 144.317 121.76C145.005 121.424 145.773 121.256 146.621 121.256ZM158.675 121.256C159.299 121.256 159.867 121.328 160.379 121.472C160.907 121.6 161.339 121.768 161.675 121.976C162.091 122.232 162.411 122.552 162.635 122.936C162.875 123.304 162.995 123.736 162.995 124.232C162.995 124.792 162.819 125.256 162.467 125.624C162.115 125.976 161.659 126.152 161.099 126.152C160.539 126.152 160.091 125.992 159.755 125.672C159.419 125.352 159.251 124.92 159.251 124.376C159.251 123.864 159.411 123.44 159.731 123.104C160.051 122.752 160.419 122.52 160.835 122.408C160.707 122.248 160.515 122.112 160.259 122C160.003 121.888 159.715 121.832 159.395 121.832C158.899 121.832 158.459 121.976 158.075 122.264C157.707 122.552 157.395 122.952 157.139 123.464C156.883 123.976 156.683 124.576 156.539 125.264C156.411 125.952 156.347 126.704 156.347 127.52C156.347 128.752 156.499 129.72 156.803 130.424C157.123 131.128 157.523 131.624 158.003 131.912C158.499 132.2 159.011 132.344 159.539 132.344C159.843 132.344 160.171 132.296 160.523 132.2C160.891 132.104 161.259 131.912 161.627 131.624C162.011 131.336 162.363 130.928 162.683 130.4L163.091 130.544C162.915 131.136 162.627 131.728 162.227 132.32C161.827 132.912 161.307 133.4 160.667 133.784C160.027 134.152 159.243 134.336 158.315 134.336C157.275 134.336 156.331 134.112 155.483 133.664C154.651 133.2 153.979 132.496 153.467 131.552C152.971 130.592 152.723 129.36 152.723 127.856C152.723 126.416 152.979 125.208 153.491 124.232C154.019 123.24 154.731 122.496 155.627 122C156.523 121.504 157.539 121.256 158.675 121.256ZM170.534 121.256C171.942 121.256 173.046 121.672 173.846 122.504C174.646 123.336 175.046 124.696 175.046 126.584H167.15L167.102 126.128H172.022C172.038 125.344 171.99 124.624 171.878 123.968C171.766 123.296 171.59 122.76 171.35 122.36C171.11 121.96 170.79 121.76 170.39 121.76C169.83 121.76 169.35 122.112 168.95 122.816C168.566 123.52 168.334 124.688 168.254 126.32L168.326 126.464C168.31 126.656 168.294 126.856 168.278 127.064C168.278 127.272 168.278 127.488 168.278 127.712C168.278 128.816 168.43 129.712 168.734 130.4C169.054 131.088 169.454 131.592 169.934 131.912C170.414 132.216 170.902 132.368 171.398 132.368C171.734 132.368 172.078 132.32 172.43 132.224C172.798 132.112 173.166 131.92 173.534 131.648C173.902 131.36 174.246 130.96 174.566 130.448L174.998 130.592C174.806 131.2 174.502 131.792 174.086 132.368C173.67 132.944 173.142 133.416 172.502 133.784C171.862 134.152 171.094 134.336 170.198 134.336C169.11 134.336 168.15 134.104 167.318 133.64C166.486 133.176 165.83 132.472 165.35 131.528C164.886 130.584 164.654 129.384 164.654 127.928C164.654 126.44 164.902 125.2 165.398 124.208C165.91 123.216 166.606 122.48 167.486 122C168.382 121.504 169.398 121.256 170.534 121.256Z" fill="#414141"/>
<g clip-path="url(#clip0_1_237)">
<path d="M151 0H57V72H151V0Z" fill="white"/>
<path d="M151 0H57V72H151V0Z" fill="white"/>
<path d="M100.124 46.7363C100.124 50.5331 99.3224 53.3676 97.7185 55.2397C96.1147 57.1118 93.6868 58.0478 90.435 58.0478C89.2894 58.0478 88.4213 57.9863 87.8309 57.8633V54.5937C88.5711 54.7783 89.3467 54.8705 90.1574 54.8705C91.5233 54.8705 92.6469 54.6728 93.5282 54.2773C94.4094 53.873 95.0836 53.2446 95.5507 52.3921C96.0177 51.5307 96.2865 50.3486 96.357 48.8456H96.1984C95.6872 49.6718 95.0968 50.2519 94.427 50.5859C93.7573 50.9199 92.9201 51.0869 91.9155 51.0869C90.2323 51.0869 88.906 50.5508 87.9367 49.4785C86.9673 48.3974 86.4826 46.8989 86.4826 44.9829C86.4826 42.9174 87.0686 41.2871 88.2407 40.0918C89.4216 38.8877 91.0254 38.2856 93.0523 38.2856C94.4799 38.2856 95.7269 38.6196 96.7932 39.2876C97.8683 39.9555 98.6923 40.9267 99.2651 42.2012C99.8379 43.4668 100.124 44.9785 100.124 46.7363ZM93.1316 41.5551C92.2856 41.5551 91.6247 41.8452 91.1488 42.4253C90.6729 43.0053 90.435 43.8403 90.435 44.9301C90.435 45.8618 90.6509 46.6001 91.0827 47.145C91.5145 47.6899 92.171 47.9624 93.0523 47.9624C93.8807 47.9624 94.5901 47.6943 95.1805 47.1581C95.7709 46.6133 96.0662 45.9892 96.0662 45.2861C96.0662 44.2402 95.7886 43.3569 95.2334 42.6362C94.687 41.9155 93.9864 41.5551 93.1316 41.5551ZM109.192 45.4706C111.061 45.4706 112.546 45.9936 113.647 47.0395C114.758 48.0854 115.313 49.518 115.313 51.3374C115.313 53.4907 114.647 55.1474 113.317 56.3076C111.986 57.4677 110.082 58.0478 107.606 58.0478C105.456 58.0478 103.72 57.7007 102.398 57.0063V53.4863C103.094 53.8554 103.905 54.1586 104.83 54.3959C105.756 54.6245 106.632 54.7388 107.461 54.7388C109.955 54.7388 111.202 53.7192 111.202 51.6801C111.202 49.7378 109.911 48.7666 107.329 48.7666C106.862 48.7666 106.346 48.8149 105.782 48.9116C105.218 48.9995 104.76 49.0961 104.407 49.2017L102.781 48.3315L103.508 38.5097H113.991V41.9639H107.091L106.734 45.7475L107.196 45.6552C107.734 45.5322 108.399 45.4706 109.192 45.4706Z" fill="#504F4F"/>
<path d="M120.077 53.6962C119.523 53.6962 119.074 53.4881 118.729 53.0722C118.392 52.6561 118.224 52.1081 118.224 51.4282C118.224 50.7481 118.392 50.2001 118.729 49.7842C119.074 49.3681 119.523 49.1602 120.077 49.1602C120.63 49.1602 121.079 49.3681 121.424 49.7842C121.769 50.2001 121.942 50.7481 121.942 51.4282C121.942 52.1081 121.769 52.6561 121.424 53.0722C121.079 53.4881 120.63 53.6962 120.077 53.6962ZM125.214 49.2082H125.732L119.98 57.6082H119.463L125.214 49.2082ZM120.077 53.2882C120.502 53.2882 120.843 53.1241 121.099 52.7962C121.356 52.4602 121.484 52.0042 121.484 51.4282C121.484 50.8522 121.356 50.4001 121.099 50.0722C120.843 49.7362 120.502 49.5682 120.077 49.5682C119.66 49.5682 119.323 49.7362 119.066 50.0722C118.809 50.4082 118.681 50.8601 118.681 51.4282C118.681 51.9961 118.809 52.4482 119.066 52.7842C119.323 53.1202 119.66 53.2882 120.077 53.2882ZM125.118 57.6562C124.565 57.6562 124.115 57.4481 123.771 57.0322C123.426 56.6161 123.253 56.0681 123.253 55.3882C123.253 54.7081 123.426 54.1601 123.771 53.7442C124.115 53.3281 124.565 53.1202 125.118 53.1202C125.672 53.1202 126.117 53.3281 126.454 53.7442C126.799 54.1601 126.971 54.7081 126.971 55.3882C126.971 56.0681 126.799 56.6161 126.454 57.0322C126.117 57.4481 125.672 57.6562 125.118 57.6562ZM125.118 57.2482C125.535 57.2482 125.872 57.0802 126.129 56.7442C126.385 56.4082 126.514 55.9561 126.514 55.3882C126.514 54.8201 126.385 54.3682 126.129 54.0322C125.872 53.6962 125.535 53.5282 125.118 53.5282C124.693 53.5282 124.352 53.6962 124.095 54.0322C123.839 54.3601 123.71 54.8122 123.71 55.3882C123.71 55.9642 123.839 56.4202 124.095 56.7562C124.352 57.0841 124.693 57.2482 125.118 57.2482Z" fill="#504F4F"/>
<path d="M67.3159 71.6064C66.1344 72.402 64.5232 72.0951 63.7917 70.8747C59.8802 64.3489 57.617 56.9576 57.2165 49.3392C56.7709 40.8624 58.6483 32.4245 62.6473 24.9312C66.6462 17.4381 72.6157 11.1724 79.915 6.80687C87.2143 2.44132 95.5678 0.140688 104.079 0.151896C112.59 0.163104 120.938 2.48574 128.225 6.87049C135.513 11.2553 141.466 17.5366 145.445 25.0403C149.424 32.544 151.279 40.9868 150.811 49.4625C150.39 57.0798 148.108 64.4651 144.179 70.9806C143.444 72.199 141.832 72.5016 140.652 71.703C139.473 70.9042 139.174 69.3069 139.9 68.0835C143.307 62.3455 145.287 55.8627 145.656 49.1793C146.073 41.6373 144.422 34.1246 140.881 27.4475C137.341 20.7703 132.043 15.1809 125.558 11.2792C119.074 7.37747 111.646 5.3107 104.072 5.30073C96.4986 5.29075 89.0653 7.33795 82.57 11.2226C76.0748 15.1072 70.7629 20.6826 67.2045 27.3504C63.6461 34.0182 61.9755 41.5266 62.372 49.0696C62.7234 55.754 64.6863 62.242 68.0778 67.9889C68.801 69.2142 68.4974 70.8108 67.3159 71.6064Z" fill="#D7D8D7"/>
<path d="M67.3159 71.6064C66.1344 72.402 64.5232 72.0951 63.7918 70.8747C60.4702 65.3332 58.3308 59.1568 57.5196 52.7328C56.6006 45.456 57.4116 38.0658 59.8868 31.1595C62.3621 24.2532 66.4322 18.0248 71.768 12.9779C77.1039 7.93099 83.5557 4.20727 90.6017 2.1078C97.6478 0.00832349 105.09 -0.407958 112.328 0.892613C119.565 2.19319 126.394 5.17411 132.262 9.59434C138.13 14.0145 142.873 19.75 146.107 26.337C148.962 32.152 150.57 38.4866 150.841 44.9372C150.901 46.3578 149.722 47.4958 148.297 47.477C146.871 47.4582 145.739 46.2894 145.67 44.8692C145.395 39.2271 143.969 33.6906 141.471 28.6013C138.593 22.74 134.373 17.6363 129.15 13.703C123.929 9.76969 117.852 7.11715 111.412 5.95985C104.972 4.80254 98.3494 5.17297 92.0795 7.04117C85.8096 8.90936 80.0686 12.2229 75.3205 16.7139C70.5725 21.2048 66.9507 26.7471 64.7481 32.8926C62.5456 39.0381 61.824 45.6143 62.6417 52.0894C63.3517 57.7117 65.2049 63.1208 68.0778 67.9889C68.801 69.2142 68.4974 70.8108 67.3159 71.6064Z" fill="#69A08A"/>
</g>
<defs>
<clipPath id="clip0_1_237">
<rect width="94" height="72" fill="white" transform="translate(57)"/>
</clipPath>
</defs>
</svg>
