<svg width="229" height="234" viewBox="0 0 229 234" fill="none" xmlns="http://www.w3.org/2000/svg">
<path d="M11.375 180H10.0469V174.625H4.03125V180H2.70312V168.578H4.03125V173.438H10.0469V168.578H11.375V180ZM17.9375 180.156C16.6719 180.156 15.6719 179.771 14.9375 179C14.2083 178.229 13.8438 177.159 13.8438 175.789C13.8438 174.409 14.1823 173.312 14.8594 172.5C15.5417 171.688 16.4557 171.281 17.6016 171.281C18.6745 171.281 19.5234 171.635 20.1484 172.344C20.7734 173.047 21.0859 173.977 21.0859 175.133V175.953H15.1875C15.2135 176.958 15.4661 177.721 15.9453 178.242C16.4297 178.763 17.1094 179.023 17.9844 179.023C18.9062 179.023 19.8177 178.831 20.7188 178.445V179.602C20.2604 179.799 19.8255 179.94 19.4141 180.023C19.0078 180.112 18.5156 180.156 17.9375 180.156ZM17.5859 172.367C16.8984 172.367 16.349 172.591 15.9375 173.039C15.5312 173.487 15.2917 174.107 15.2188 174.898H19.6953C19.6953 174.081 19.513 173.456 19.1484 173.023C18.7839 172.586 18.263 172.367 17.5859 172.367ZM24.6016 180H23.3047V167.844H24.6016V180ZM31.3359 180.156C30.7786 180.156 30.2682 180.055 29.8047 179.852C29.3464 179.643 28.9609 179.326 28.6484 178.898H28.5547C28.6172 179.398 28.6484 179.872 28.6484 180.32V183.844H27.3516V171.438H28.4062L28.5859 172.609H28.6484C28.9818 172.141 29.3698 171.802 29.8125 171.594C30.2552 171.385 30.763 171.281 31.3359 171.281C32.4714 171.281 33.3464 171.669 33.9609 172.445C34.5807 173.221 34.8906 174.31 34.8906 175.711C34.8906 177.117 34.5755 178.211 33.9453 178.992C33.3203 179.768 32.4505 180.156 31.3359 180.156ZM31.1484 172.383C30.2734 172.383 29.6406 172.625 29.25 173.109C28.8594 173.594 28.6589 174.365 28.6484 175.422V175.711C28.6484 176.914 28.849 177.776 29.25 178.297C29.651 178.812 30.2943 179.07 31.1797 179.07C31.9193 179.07 32.4974 178.771 32.9141 178.172C33.3359 177.573 33.5469 176.747 33.5469 175.695C33.5469 174.628 33.3359 173.81 32.9141 173.242C32.4974 172.669 31.9089 172.383 31.1484 172.383ZM39.9609 171.438H41.3516L43.2266 176.32C43.638 177.435 43.8932 178.24 43.9922 178.734H44.0547C44.1224 178.469 44.263 178.016 44.4766 177.375C44.6953 176.729 45.4036 174.75 46.6016 171.438H47.9922L44.3125 181.188C43.9479 182.151 43.5208 182.833 43.0312 183.234C42.5469 183.641 41.9505 183.844 41.2422 183.844C40.8464 183.844 40.4557 183.799 40.0703 183.711V182.672C40.3568 182.734 40.6771 182.766 41.0312 182.766C41.9219 182.766 42.5573 182.266 42.9375 181.266L43.4141 180.047L39.9609 171.438ZM56.7734 175.711C56.7734 177.107 56.4219 178.198 55.7188 178.984C55.0156 179.766 54.0443 180.156 52.8047 180.156C52.0391 180.156 51.3594 179.977 50.7656 179.617C50.1719 179.258 49.7135 178.742 49.3906 178.07C49.0677 177.398 48.9062 176.612 48.9062 175.711C48.9062 174.315 49.2552 173.229 49.9531 172.453C50.651 171.672 51.6198 171.281 52.8594 171.281C54.0573 171.281 55.0078 171.68 55.7109 172.477C56.4193 173.273 56.7734 174.352 56.7734 175.711ZM50.25 175.711C50.25 176.805 50.4688 177.638 50.9062 178.211C51.3438 178.784 51.987 179.07 52.8359 179.07C53.6849 179.07 54.3281 178.786 54.7656 178.219C55.2083 177.646 55.4297 176.81 55.4297 175.711C55.4297 174.622 55.2083 173.797 54.7656 173.234C54.3281 172.667 53.6797 172.383 52.8203 172.383C51.9714 172.383 51.3307 172.661 50.8984 173.219C50.4661 173.776 50.25 174.607 50.25 175.711ZM60.2734 171.438V176.992C60.2734 177.69 60.4323 178.211 60.75 178.555C61.0677 178.898 61.5651 179.07 62.2422 179.07C63.138 179.07 63.7917 178.826 64.2031 178.336C64.6198 177.846 64.8281 177.047 64.8281 175.938V171.438H66.125V180H65.0547L64.8672 178.852H64.7969C64.5312 179.273 64.1615 179.596 63.6875 179.82C63.2188 180.044 62.6823 180.156 62.0781 180.156C61.0365 180.156 60.2552 179.909 59.7344 179.414C59.2188 178.919 58.9609 178.128 58.9609 177.039V171.438H60.2734ZM72.7891 171.281C73.1693 171.281 73.5104 171.312 73.8125 171.375L73.6328 172.578C73.2786 172.5 72.9661 172.461 72.6953 172.461C72.0026 172.461 71.4089 172.742 70.9141 173.305C70.4245 173.867 70.1797 174.568 70.1797 175.406V180H68.8828V171.438H69.9531L70.1016 173.023H70.1641C70.4818 172.466 70.8646 172.036 71.3125 171.734C71.7604 171.432 72.2526 171.281 72.7891 171.281ZM82.3359 179.086C82.5651 179.086 82.7865 179.07 83 179.039C83.2135 179.003 83.3828 178.966 83.5078 178.93V179.922C83.3672 179.99 83.1589 180.044 82.8828 180.086C82.612 180.133 82.3672 180.156 82.1484 180.156C80.4922 180.156 79.6641 179.284 79.6641 177.539V172.445H78.4375V171.82L79.6641 171.281L80.2109 169.453H80.9609V171.438H83.4453V172.445H80.9609V177.484C80.9609 178 81.0833 178.396 81.3281 178.672C81.5729 178.948 81.9089 179.086 82.3359 179.086ZM88.8438 180.156C87.5781 180.156 86.5781 179.771 85.8438 179C85.1146 178.229 84.75 177.159 84.75 175.789C84.75 174.409 85.0885 173.312 85.7656 172.5C86.4479 171.688 87.362 171.281 88.5078 171.281C89.5807 171.281 90.4297 171.635 91.0547 172.344C91.6797 173.047 91.9922 173.977 91.9922 175.133V175.953H86.0938C86.1198 176.958 86.3724 177.721 86.8516 178.242C87.3359 178.763 88.0156 179.023 88.8906 179.023C89.8125 179.023 90.724 178.831 91.625 178.445V179.602C91.1667 179.799 90.7318 179.94 90.3203 180.023C89.9141 180.112 89.4219 180.156 88.8438 180.156ZM88.4922 172.367C87.8047 172.367 87.2552 172.591 86.8438 173.039C86.4375 173.487 86.1979 174.107 86.125 174.898H90.6016C90.6016 174.081 90.4193 173.456 90.0547 173.023C89.6901 172.586 89.1693 172.367 88.4922 172.367ZM99.4766 180L99.2188 178.781H99.1562C98.7292 179.318 98.3021 179.682 97.875 179.875C97.4531 180.062 96.9245 180.156 96.2891 180.156C95.4401 180.156 94.7734 179.938 94.2891 179.5C93.8099 179.062 93.5703 178.44 93.5703 177.633C93.5703 175.904 94.9531 174.997 97.7188 174.914L99.1719 174.867V174.336C99.1719 173.664 99.026 173.169 98.7344 172.852C98.4479 172.529 97.987 172.367 97.3516 172.367C96.638 172.367 95.8307 172.586 94.9297 173.023L94.5312 172.031C94.9531 171.802 95.4141 171.622 95.9141 171.492C96.4193 171.362 96.9245 171.297 97.4297 171.297C98.4505 171.297 99.2057 171.523 99.6953 171.977C100.19 172.43 100.438 173.156 100.438 174.156V180H99.4766ZM96.5469 179.086C97.3542 179.086 97.987 178.865 98.4453 178.422C98.9089 177.979 99.1406 177.359 99.1406 176.562V175.789L97.8438 175.844C96.8125 175.88 96.0677 176.042 95.6094 176.328C95.1562 176.609 94.9297 177.049 94.9297 177.648C94.9297 178.117 95.0703 178.474 95.3516 178.719C95.638 178.964 96.0365 179.086 96.5469 179.086ZM114.031 180V174.43C114.031 173.747 113.885 173.237 113.594 172.898C113.302 172.555 112.849 172.383 112.234 172.383C111.427 172.383 110.831 172.615 110.445 173.078C110.06 173.542 109.867 174.255 109.867 175.219V180H108.57V174.43C108.57 173.747 108.424 173.237 108.133 172.898C107.841 172.555 107.385 172.383 106.766 172.383C105.953 172.383 105.357 172.628 104.977 173.117C104.602 173.602 104.414 174.398 104.414 175.508V180H103.117V171.438H104.172L104.383 172.609H104.445C104.69 172.193 105.034 171.867 105.477 171.633C105.924 171.398 106.424 171.281 106.977 171.281C108.315 171.281 109.19 171.766 109.602 172.734H109.664C109.919 172.286 110.289 171.932 110.773 171.672C111.258 171.411 111.81 171.281 112.43 171.281C113.398 171.281 114.122 171.531 114.602 172.031C115.086 172.526 115.328 173.32 115.328 174.414V180H114.031ZM129.172 171.438V172.258L127.586 172.445C127.732 172.628 127.862 172.867 127.977 173.164C128.091 173.456 128.148 173.786 128.148 174.156C128.148 174.995 127.862 175.664 127.289 176.164C126.716 176.664 125.93 176.914 124.93 176.914C124.674 176.914 124.435 176.893 124.211 176.852C123.659 177.143 123.383 177.51 123.383 177.953C123.383 178.188 123.479 178.362 123.672 178.477C123.865 178.586 124.195 178.641 124.664 178.641H126.18C127.107 178.641 127.818 178.836 128.312 179.227C128.812 179.617 129.062 180.185 129.062 180.93C129.062 181.878 128.682 182.599 127.922 183.094C127.161 183.594 126.052 183.844 124.594 183.844C123.474 183.844 122.609 183.635 122 183.219C121.396 182.802 121.094 182.214 121.094 181.453C121.094 180.932 121.26 180.482 121.594 180.102C121.927 179.721 122.396 179.464 123 179.328C122.781 179.229 122.596 179.076 122.445 178.867C122.299 178.659 122.227 178.417 122.227 178.141C122.227 177.828 122.31 177.555 122.477 177.32C122.643 177.086 122.906 176.859 123.266 176.641C122.823 176.458 122.461 176.148 122.18 175.711C121.904 175.273 121.766 174.773 121.766 174.211C121.766 173.273 122.047 172.552 122.609 172.047C123.172 171.536 123.969 171.281 125 171.281C125.448 171.281 125.852 171.333 126.211 171.438H129.172ZM122.344 181.438C122.344 181.901 122.539 182.253 122.93 182.492C123.32 182.732 123.88 182.852 124.609 182.852C125.698 182.852 126.503 182.688 127.023 182.359C127.549 182.036 127.812 181.596 127.812 181.039C127.812 180.576 127.669 180.253 127.383 180.07C127.096 179.893 126.557 179.805 125.766 179.805H124.211C123.622 179.805 123.164 179.945 122.836 180.227C122.508 180.508 122.344 180.911 122.344 181.438ZM123.047 174.18C123.047 174.779 123.216 175.232 123.555 175.539C123.893 175.846 124.365 176 124.969 176C126.234 176 126.867 175.385 126.867 174.156C126.867 172.87 126.227 172.227 124.945 172.227C124.336 172.227 123.867 172.391 123.539 172.719C123.211 173.047 123.047 173.534 123.047 174.18ZM134.836 171.281C135.216 171.281 135.557 171.312 135.859 171.375L135.68 172.578C135.326 172.5 135.013 172.461 134.742 172.461C134.049 172.461 133.456 172.742 132.961 173.305C132.471 173.867 132.227 174.568 132.227 175.406V180H130.93V171.438H132L132.148 173.023H132.211C132.529 172.466 132.911 172.036 133.359 171.734C133.807 171.432 134.299 171.281 134.836 171.281ZM144.852 175.711C144.852 177.107 144.5 178.198 143.797 178.984C143.094 179.766 142.122 180.156 140.883 180.156C140.117 180.156 139.438 179.977 138.844 179.617C138.25 179.258 137.792 178.742 137.469 178.07C137.146 177.398 136.984 176.612 136.984 175.711C136.984 174.315 137.333 173.229 138.031 172.453C138.729 171.672 139.698 171.281 140.938 171.281C142.135 171.281 143.086 171.68 143.789 172.477C144.497 173.273 144.852 174.352 144.852 175.711ZM138.328 175.711C138.328 176.805 138.547 177.638 138.984 178.211C139.422 178.784 140.065 179.07 140.914 179.07C141.763 179.07 142.406 178.786 142.844 178.219C143.286 177.646 143.508 176.81 143.508 175.711C143.508 174.622 143.286 173.797 142.844 173.234C142.406 172.667 141.758 172.383 140.898 172.383C140.049 172.383 139.409 172.661 138.977 173.219C138.544 173.776 138.328 174.607 138.328 175.711ZM154.125 180L152.555 174.977C152.456 174.669 152.271 173.971 152 172.883H151.938C151.729 173.794 151.547 174.497 151.391 174.992L149.773 180H148.273L145.938 171.438H147.297C147.849 173.589 148.268 175.227 148.555 176.352C148.846 177.477 149.013 178.234 149.055 178.625H149.117C149.174 178.328 149.266 177.945 149.391 177.477C149.521 177.003 149.633 176.628 149.727 176.352L151.297 171.438H152.703L154.234 176.352C154.526 177.247 154.724 178 154.828 178.609H154.891C154.911 178.422 154.966 178.133 155.055 177.742C155.148 177.352 155.693 175.25 156.688 171.438H158.031L155.664 180H154.125ZM167.727 171.297C168.852 171.297 169.724 171.682 170.344 172.453C170.969 173.219 171.281 174.305 171.281 175.711C171.281 177.117 170.966 178.211 170.336 178.992C169.711 179.768 168.841 180.156 167.727 180.156C167.169 180.156 166.659 180.055 166.195 179.852C165.737 179.643 165.352 179.326 165.039 178.898H164.945L164.672 180H163.742V167.844H165.039V170.797C165.039 171.458 165.018 172.052 164.977 172.578H165.039C165.643 171.724 166.539 171.297 167.727 171.297ZM167.539 172.383C166.654 172.383 166.016 172.638 165.625 173.148C165.234 173.654 165.039 174.508 165.039 175.711C165.039 176.914 165.24 177.776 165.641 178.297C166.042 178.812 166.685 179.07 167.57 179.07C168.367 179.07 168.961 178.781 169.352 178.203C169.742 177.62 169.938 176.784 169.938 175.695C169.938 174.581 169.742 173.75 169.352 173.203C168.961 172.656 168.357 172.383 167.539 172.383ZM172.195 171.438H173.586L175.461 176.32C175.872 177.435 176.128 178.24 176.227 178.734H176.289C176.357 178.469 176.497 178.016 176.711 177.375C176.93 176.729 177.638 174.75 178.836 171.438H180.227L176.547 181.188C176.182 182.151 175.755 182.833 175.266 183.234C174.781 183.641 174.185 183.844 173.477 183.844C173.081 183.844 172.69 183.799 172.305 183.711V182.672C172.591 182.734 172.911 182.766 173.266 182.766C174.156 182.766 174.792 182.266 175.172 181.266L175.648 180.047L172.195 171.438ZM192.781 171.438V172.258L191.195 172.445C191.341 172.628 191.471 172.867 191.586 173.164C191.701 173.456 191.758 173.786 191.758 174.156C191.758 174.995 191.471 175.664 190.898 176.164C190.326 176.664 189.539 176.914 188.539 176.914C188.284 176.914 188.044 176.893 187.82 176.852C187.268 177.143 186.992 177.51 186.992 177.953C186.992 178.188 187.089 178.362 187.281 178.477C187.474 178.586 187.805 178.641 188.273 178.641H189.789C190.716 178.641 191.427 178.836 191.922 179.227C192.422 179.617 192.672 180.185 192.672 180.93C192.672 181.878 192.292 182.599 191.531 183.094C190.771 183.594 189.661 183.844 188.203 183.844C187.083 183.844 186.219 183.635 185.609 183.219C185.005 182.802 184.703 182.214 184.703 181.453C184.703 180.932 184.87 180.482 185.203 180.102C185.536 179.721 186.005 179.464 186.609 179.328C186.391 179.229 186.206 179.076 186.055 178.867C185.909 178.659 185.836 178.417 185.836 178.141C185.836 177.828 185.919 177.555 186.086 177.32C186.253 177.086 186.516 176.859 186.875 176.641C186.432 176.458 186.07 176.148 185.789 175.711C185.513 175.273 185.375 174.773 185.375 174.211C185.375 173.273 185.656 172.552 186.219 172.047C186.781 171.536 187.578 171.281 188.609 171.281C189.057 171.281 189.461 171.333 189.82 171.438H192.781ZM185.953 181.438C185.953 181.901 186.148 182.253 186.539 182.492C186.93 182.732 187.49 182.852 188.219 182.852C189.307 182.852 190.112 182.688 190.633 182.359C191.159 182.036 191.422 181.596 191.422 181.039C191.422 180.576 191.279 180.253 190.992 180.07C190.706 179.893 190.167 179.805 189.375 179.805H187.82C187.232 179.805 186.773 179.945 186.445 180.227C186.117 180.508 185.953 180.911 185.953 181.438ZM186.656 174.18C186.656 174.779 186.826 175.232 187.164 175.539C187.503 175.846 187.974 176 188.578 176C189.844 176 190.477 175.385 190.477 174.156C190.477 172.87 189.836 172.227 188.555 172.227C187.945 172.227 187.477 172.391 187.148 172.719C186.82 173.047 186.656 173.534 186.656 174.18ZM195.836 180H194.539V171.438H195.836V180ZM194.43 169.117C194.43 168.82 194.503 168.604 194.648 168.469C194.794 168.328 194.977 168.258 195.195 168.258C195.404 168.258 195.583 168.328 195.734 168.469C195.885 168.609 195.961 168.826 195.961 169.117C195.961 169.409 195.885 169.628 195.734 169.773C195.583 169.914 195.404 169.984 195.195 169.984C194.977 169.984 194.794 169.914 194.648 169.773C194.503 169.628 194.43 169.409 194.43 169.117ZM200.461 180L197.211 171.438H198.602L200.445 176.516C200.862 177.703 201.107 178.474 201.18 178.828H201.242C201.299 178.552 201.479 177.982 201.781 177.117C202.089 176.247 202.773 174.354 203.836 171.438H205.227L201.977 180H200.461ZM207.898 180H206.602V171.438H207.898V180ZM206.492 169.117C206.492 168.82 206.565 168.604 206.711 168.469C206.857 168.328 207.039 168.258 207.258 168.258C207.466 168.258 207.646 168.328 207.797 168.469C207.948 168.609 208.023 168.826 208.023 169.117C208.023 169.409 207.948 169.628 207.797 169.773C207.646 169.914 207.466 169.984 207.258 169.984C207.039 169.984 206.857 169.914 206.711 169.773C206.565 169.628 206.492 169.409 206.492 169.117ZM216.508 180V174.461C216.508 173.763 216.349 173.242 216.031 172.898C215.714 172.555 215.216 172.383 214.539 172.383C213.643 172.383 212.987 172.625 212.57 173.109C212.154 173.594 211.945 174.393 211.945 175.508V180H210.648V171.438H211.703L211.914 172.609H211.977C212.242 172.188 212.615 171.862 213.094 171.633C213.573 171.398 214.107 171.281 214.695 171.281C215.727 171.281 216.503 171.531 217.023 172.031C217.544 172.526 217.805 173.32 217.805 174.414V180H216.508ZM227.484 171.438V172.258L225.898 172.445C226.044 172.628 226.174 172.867 226.289 173.164C226.404 173.456 226.461 173.786 226.461 174.156C226.461 174.995 226.174 175.664 225.602 176.164C225.029 176.664 224.242 176.914 223.242 176.914C222.987 176.914 222.747 176.893 222.523 176.852C221.971 177.143 221.695 177.51 221.695 177.953C221.695 178.188 221.792 178.362 221.984 178.477C222.177 178.586 222.508 178.641 222.977 178.641H224.492C225.419 178.641 226.13 178.836 226.625 179.227C227.125 179.617 227.375 180.185 227.375 180.93C227.375 181.878 226.995 182.599 226.234 183.094C225.474 183.594 224.365 183.844 222.906 183.844C221.786 183.844 220.922 183.635 220.312 183.219C219.708 182.802 219.406 182.214 219.406 181.453C219.406 180.932 219.573 180.482 219.906 180.102C220.24 179.721 220.708 179.464 221.312 179.328C221.094 179.229 220.909 179.076 220.758 178.867C220.612 178.659 220.539 178.417 220.539 178.141C220.539 177.828 220.622 177.555 220.789 177.32C220.956 177.086 221.219 176.859 221.578 176.641C221.135 176.458 220.773 176.148 220.492 175.711C220.216 175.273 220.078 174.773 220.078 174.211C220.078 173.273 220.359 172.552 220.922 172.047C221.484 171.536 222.281 171.281 223.312 171.281C223.76 171.281 224.164 171.333 224.523 171.438H227.484ZM220.656 181.438C220.656 181.901 220.852 182.253 221.242 182.492C221.633 182.732 222.193 182.852 222.922 182.852C224.01 182.852 224.815 182.688 225.336 182.359C225.862 182.036 226.125 181.596 226.125 181.039C226.125 180.576 225.982 180.253 225.695 180.07C225.409 179.893 224.87 179.805 224.078 179.805H222.523C221.935 179.805 221.477 179.945 221.148 180.227C220.82 180.508 220.656 180.911 220.656 181.438ZM221.359 174.18C221.359 174.779 221.529 175.232 221.867 175.539C222.206 175.846 222.677 176 223.281 176C224.547 176 225.18 175.385 225.18 174.156C225.18 172.87 224.539 172.227 223.258 172.227C222.648 172.227 222.18 172.391 221.852 172.719C221.523 173.047 221.359 173.534 221.359 174.18ZM15.2734 203.086C15.5026 203.086 15.724 203.07 15.9375 203.039C16.151 203.003 16.3203 202.966 16.4453 202.93V203.922C16.3047 203.99 16.0964 204.044 15.8203 204.086C15.5495 204.133 15.3047 204.156 15.0859 204.156C13.4297 204.156 12.6016 203.284 12.6016 201.539V196.445H11.375V195.82L12.6016 195.281L13.1484 193.453H13.8984V195.438H16.3828V196.445H13.8984V201.484C13.8984 202 14.0208 202.396 14.2656 202.672C14.5104 202.948 14.8464 203.086 15.2734 203.086ZM24.0234 204V198.461C24.0234 197.763 23.8646 197.242 23.5469 196.898C23.2292 196.555 22.7318 196.383 22.0547 196.383C21.1536 196.383 20.4948 196.628 20.0781 197.117C19.6667 197.607 19.4609 198.409 19.4609 199.523V204H18.1641V191.844H19.4609V195.523C19.4609 195.966 19.4401 196.333 19.3984 196.625H19.4766C19.7318 196.214 20.0938 195.891 20.5625 195.656C21.0365 195.417 21.5755 195.297 22.1797 195.297C23.2266 195.297 24.0104 195.547 24.5312 196.047C25.0573 196.542 25.3203 197.331 25.3203 198.414V204H24.0234ZM31.6094 204.156C30.3438 204.156 29.3438 203.771 28.6094 203C27.8802 202.229 27.5156 201.159 27.5156 199.789C27.5156 198.409 27.8542 197.312 28.5312 196.5C29.2135 195.688 30.1276 195.281 31.2734 195.281C32.3464 195.281 33.1953 195.635 33.8203 196.344C34.4453 197.047 34.7578 197.977 34.7578 199.133V199.953H28.8594C28.8854 200.958 29.138 201.721 29.6172 202.242C30.1016 202.763 30.7812 203.023 31.6562 203.023C32.5781 203.023 33.4896 202.831 34.3906 202.445V203.602C33.9323 203.799 33.4974 203.94 33.0859 204.023C32.6797 204.112 32.1875 204.156 31.6094 204.156ZM31.2578 196.367C30.5703 196.367 30.0208 196.591 29.6094 197.039C29.2031 197.487 28.9635 198.107 28.8906 198.898H33.3672C33.3672 198.081 33.1849 197.456 32.8203 197.023C32.4557 196.586 31.9349 196.367 31.2578 196.367ZM47.8906 204V198.43C47.8906 197.747 47.7448 197.237 47.4531 196.898C47.1615 196.555 46.7083 196.383 46.0938 196.383C45.2865 196.383 44.6901 196.615 44.3047 197.078C43.9193 197.542 43.7266 198.255 43.7266 199.219V204H42.4297V198.43C42.4297 197.747 42.2839 197.237 41.9922 196.898C41.7005 196.555 41.2448 196.383 40.625 196.383C39.8125 196.383 39.2161 196.628 38.8359 197.117C38.4609 197.602 38.2734 198.398 38.2734 199.508V204H36.9766V195.438H38.0312L38.2422 196.609H38.3047C38.5495 196.193 38.8932 195.867 39.3359 195.633C39.7839 195.398 40.2839 195.281 40.8359 195.281C42.1745 195.281 43.0495 195.766 43.4609 196.734H43.5234C43.7786 196.286 44.1484 195.932 44.6328 195.672C45.1172 195.411 45.6693 195.281 46.2891 195.281C47.2578 195.281 47.9818 195.531 48.4609 196.031C48.9453 196.526 49.1875 197.32 49.1875 198.414V204H47.8906ZM59.4453 204.156C58.2057 204.156 57.2448 203.776 56.5625 203.016C55.8854 202.25 55.5469 201.169 55.5469 199.773C55.5469 198.341 55.8906 197.234 56.5781 196.453C57.2708 195.672 58.2552 195.281 59.5312 195.281C59.9427 195.281 60.3542 195.326 60.7656 195.414C61.1771 195.503 61.5 195.607 61.7344 195.727L61.3359 196.828C61.0495 196.714 60.737 196.62 60.3984 196.547C60.0599 196.469 59.7604 196.43 59.5 196.43C57.7604 196.43 56.8906 197.539 56.8906 199.758C56.8906 200.81 57.1016 201.617 57.5234 202.18C57.9505 202.742 58.5807 203.023 59.4141 203.023C60.1276 203.023 60.8594 202.87 61.6094 202.562V203.711C61.0365 204.008 60.3151 204.156 59.4453 204.156ZM71.0391 199.711C71.0391 201.107 70.6875 202.198 69.9844 202.984C69.2812 203.766 68.3099 204.156 67.0703 204.156C66.3047 204.156 65.625 203.977 65.0312 203.617C64.4375 203.258 63.9792 202.742 63.6562 202.07C63.3333 201.398 63.1719 200.612 63.1719 199.711C63.1719 198.315 63.5208 197.229 64.2188 196.453C64.9167 195.672 65.8854 195.281 67.125 195.281C68.3229 195.281 69.2734 195.68 69.9766 196.477C70.6849 197.273 71.0391 198.352 71.0391 199.711ZM64.5156 199.711C64.5156 200.805 64.7344 201.638 65.1719 202.211C65.6094 202.784 66.2526 203.07 67.1016 203.07C67.9505 203.07 68.5938 202.786 69.0312 202.219C69.474 201.646 69.6953 200.81 69.6953 199.711C69.6953 198.622 69.474 197.797 69.0312 197.234C68.5938 196.667 67.9453 196.383 67.0859 196.383C66.237 196.383 65.5964 196.661 65.1641 197.219C64.7318 197.776 64.5156 198.607 64.5156 199.711ZM79.1797 204V198.461C79.1797 197.763 79.0208 197.242 78.7031 196.898C78.3854 196.555 77.888 196.383 77.2109 196.383C76.3151 196.383 75.6589 196.625 75.2422 197.109C74.8255 197.594 74.6172 198.393 74.6172 199.508V204H73.3203V195.438H74.375L74.5859 196.609H74.6484C74.9141 196.188 75.2865 195.862 75.7656 195.633C76.2448 195.398 76.7786 195.281 77.3672 195.281C78.3984 195.281 79.1745 195.531 79.6953 196.031C80.2161 196.526 80.4766 197.32 80.4766 198.414V204H79.1797ZM88.6719 201.664C88.6719 202.461 88.375 203.076 87.7812 203.508C87.1875 203.94 86.3542 204.156 85.2812 204.156C84.1458 204.156 83.2604 203.977 82.625 203.617V202.414C83.0365 202.622 83.4766 202.786 83.9453 202.906C84.4193 203.026 84.875 203.086 85.3125 203.086C85.9896 203.086 86.5104 202.979 86.875 202.766C87.2396 202.547 87.4219 202.216 87.4219 201.773C87.4219 201.44 87.276 201.156 86.9844 200.922C86.6979 200.682 86.1354 200.401 85.2969 200.078C84.5 199.781 83.9323 199.523 83.5938 199.305C83.2604 199.081 83.0104 198.828 82.8438 198.547C82.6823 198.266 82.6016 197.93 82.6016 197.539C82.6016 196.841 82.8854 196.292 83.4531 195.891C84.0208 195.484 84.7995 195.281 85.7891 195.281C86.7109 195.281 87.612 195.469 88.4922 195.844L88.0312 196.898C87.1719 196.544 86.3932 196.367 85.6953 196.367C85.0807 196.367 84.6172 196.464 84.3047 196.656C83.9922 196.849 83.8359 197.115 83.8359 197.453C83.8359 197.682 83.8932 197.878 84.0078 198.039C84.1276 198.201 84.3177 198.354 84.5781 198.5C84.8385 198.646 85.3385 198.857 86.0781 199.133C87.0938 199.503 87.7786 199.875 88.1328 200.25C88.4922 200.625 88.6719 201.096 88.6719 201.664ZM93.5547 203.086C93.7839 203.086 94.0052 203.07 94.2188 203.039C94.4323 203.003 94.6016 202.966 94.7266 202.93V203.922C94.5859 203.99 94.3776 204.044 94.1016 204.086C93.8307 204.133 93.5859 204.156 93.3672 204.156C91.7109 204.156 90.8828 203.284 90.8828 201.539V196.445H89.6562V195.82L90.8828 195.281L91.4297 193.453H92.1797V195.438H94.6641V196.445H92.1797V201.484C92.1797 202 92.3021 202.396 92.5469 202.672C92.7917 202.948 93.1276 203.086 93.5547 203.086ZM100.352 195.281C100.732 195.281 101.073 195.312 101.375 195.375L101.195 196.578C100.841 196.5 100.529 196.461 100.258 196.461C99.5651 196.461 98.9714 196.742 98.4766 197.305C97.987 197.867 97.7422 198.568 97.7422 199.406V204H96.4453V195.438H97.5156L97.6641 197.023H97.7266C98.0443 196.466 98.4271 196.036 98.875 195.734C99.3229 195.432 99.8151 195.281 100.352 195.281ZM104.195 195.438V200.992C104.195 201.69 104.354 202.211 104.672 202.555C104.99 202.898 105.487 203.07 106.164 203.07C107.06 203.07 107.714 202.826 108.125 202.336C108.542 201.846 108.75 201.047 108.75 199.938V195.438H110.047V204H108.977L108.789 202.852H108.719C108.453 203.273 108.083 203.596 107.609 203.82C107.141 204.044 106.604 204.156 106 204.156C104.958 204.156 104.177 203.909 103.656 203.414C103.141 202.919 102.883 202.128 102.883 201.039V195.438H104.195ZM116.227 204.156C114.987 204.156 114.026 203.776 113.344 203.016C112.667 202.25 112.328 201.169 112.328 199.773C112.328 198.341 112.672 197.234 113.359 196.453C114.052 195.672 115.036 195.281 116.312 195.281C116.724 195.281 117.135 195.326 117.547 195.414C117.958 195.503 118.281 195.607 118.516 195.727L118.117 196.828C117.831 196.714 117.518 196.62 117.18 196.547C116.841 196.469 116.542 196.43 116.281 196.43C114.542 196.43 113.672 197.539 113.672 199.758C113.672 200.81 113.883 201.617 114.305 202.18C114.732 202.742 115.362 203.023 116.195 203.023C116.909 203.023 117.641 202.87 118.391 202.562V203.711C117.818 204.008 117.096 204.156 116.227 204.156ZM123.195 203.086C123.424 203.086 123.646 203.07 123.859 203.039C124.073 203.003 124.242 202.966 124.367 202.93V203.922C124.227 203.99 124.018 204.044 123.742 204.086C123.471 204.133 123.227 204.156 123.008 204.156C121.352 204.156 120.523 203.284 120.523 201.539V196.445H119.297V195.82L120.523 195.281L121.07 193.453H121.82V195.438H124.305V196.445H121.82V201.484C121.82 202 121.943 202.396 122.188 202.672C122.432 202.948 122.768 203.086 123.195 203.086ZM127.383 204H126.086V195.438H127.383V204ZM125.977 193.117C125.977 192.82 126.049 192.604 126.195 192.469C126.341 192.328 126.523 192.258 126.742 192.258C126.951 192.258 127.13 192.328 127.281 192.469C127.432 192.609 127.508 192.826 127.508 193.117C127.508 193.409 127.432 193.628 127.281 193.773C127.13 193.914 126.951 193.984 126.742 193.984C126.523 193.984 126.341 193.914 126.195 193.773C126.049 193.628 125.977 193.409 125.977 193.117ZM132.008 204L128.758 195.438H130.148L131.992 200.516C132.409 201.703 132.654 202.474 132.727 202.828H132.789C132.846 202.552 133.026 201.982 133.328 201.117C133.635 200.247 134.32 198.354 135.383 195.438H136.773L133.523 204H132.008ZM141.766 204.156C140.5 204.156 139.5 203.771 138.766 203C138.036 202.229 137.672 201.159 137.672 199.789C137.672 198.409 138.01 197.312 138.688 196.5C139.37 195.688 140.284 195.281 141.43 195.281C142.503 195.281 143.352 195.635 143.977 196.344C144.602 197.047 144.914 197.977 144.914 199.133V199.953H139.016C139.042 200.958 139.294 201.721 139.773 202.242C140.258 202.763 140.938 203.023 141.812 203.023C142.734 203.023 143.646 202.831 144.547 202.445V203.602C144.089 203.799 143.654 203.94 143.242 204.023C142.836 204.112 142.344 204.156 141.766 204.156ZM141.414 196.367C140.727 196.367 140.177 196.591 139.766 197.039C139.359 197.487 139.12 198.107 139.047 198.898H143.523C143.523 198.081 143.341 197.456 142.977 197.023C142.612 196.586 142.091 196.367 141.414 196.367ZM155.148 196.445H152.969V204H151.672V196.445H150.141V195.859L151.672 195.391V194.914C151.672 192.81 152.591 191.758 154.43 191.758C154.883 191.758 155.414 191.849 156.023 192.031L155.688 193.07C155.188 192.909 154.76 192.828 154.406 192.828C153.917 192.828 153.555 192.992 153.32 193.32C153.086 193.643 152.969 194.164 152.969 194.883V195.438H155.148V196.445ZM160.328 204.156C159.062 204.156 158.062 203.771 157.328 203C156.599 202.229 156.234 201.159 156.234 199.789C156.234 198.409 156.573 197.312 157.25 196.5C157.932 195.688 158.846 195.281 159.992 195.281C161.065 195.281 161.914 195.635 162.539 196.344C163.164 197.047 163.477 197.977 163.477 199.133V199.953H157.578C157.604 200.958 157.857 201.721 158.336 202.242C158.82 202.763 159.5 203.023 160.375 203.023C161.297 203.023 162.208 202.831 163.109 202.445V203.602C162.651 203.799 162.216 203.94 161.805 204.023C161.398 204.112 160.906 204.156 160.328 204.156ZM159.977 196.367C159.289 196.367 158.74 196.591 158.328 197.039C157.922 197.487 157.682 198.107 157.609 198.898H162.086C162.086 198.081 161.904 197.456 161.539 197.023C161.174 196.586 160.654 196.367 159.977 196.367ZM169.312 204.156C168.047 204.156 167.047 203.771 166.312 203C165.583 202.229 165.219 201.159 165.219 199.789C165.219 198.409 165.557 197.312 166.234 196.5C166.917 195.688 167.831 195.281 168.977 195.281C170.049 195.281 170.898 195.635 171.523 196.344C172.148 197.047 172.461 197.977 172.461 199.133V199.953H166.562C166.589 200.958 166.841 201.721 167.32 202.242C167.805 202.763 168.484 203.023 169.359 203.023C170.281 203.023 171.193 202.831 172.094 202.445V203.602C171.635 203.799 171.201 203.94 170.789 204.023C170.383 204.112 169.891 204.156 169.312 204.156ZM168.961 196.367C168.273 196.367 167.724 196.591 167.312 197.039C166.906 197.487 166.667 198.107 166.594 198.898H171.07C171.07 198.081 170.888 197.456 170.523 197.023C170.159 196.586 169.638 196.367 168.961 196.367ZM180.508 202.852H180.438C179.839 203.721 178.943 204.156 177.75 204.156C176.63 204.156 175.758 203.773 175.133 203.008C174.513 202.242 174.203 201.154 174.203 199.742C174.203 198.331 174.516 197.234 175.141 196.453C175.766 195.672 176.635 195.281 177.75 195.281C178.911 195.281 179.802 195.703 180.422 196.547H180.523L180.469 195.93L180.438 195.328V191.844H181.734V204H180.68L180.508 202.852ZM177.914 203.07C178.799 203.07 179.44 202.831 179.836 202.352C180.237 201.867 180.438 201.089 180.438 200.016V199.742C180.438 198.529 180.234 197.664 179.828 197.148C179.427 196.628 178.784 196.367 177.898 196.367C177.138 196.367 176.555 196.664 176.148 197.258C175.747 197.846 175.547 198.68 175.547 199.758C175.547 200.852 175.747 201.677 176.148 202.234C176.549 202.792 177.138 203.07 177.914 203.07ZM188.477 195.297C189.602 195.297 190.474 195.682 191.094 196.453C191.719 197.219 192.031 198.305 192.031 199.711C192.031 201.117 191.716 202.211 191.086 202.992C190.461 203.768 189.591 204.156 188.477 204.156C187.919 204.156 187.409 204.055 186.945 203.852C186.487 203.643 186.102 203.326 185.789 202.898H185.695L185.422 204H184.492V191.844H185.789V194.797C185.789 195.458 185.768 196.052 185.727 196.578H185.789C186.393 195.724 187.289 195.297 188.477 195.297ZM188.289 196.383C187.404 196.383 186.766 196.638 186.375 197.148C185.984 197.654 185.789 198.508 185.789 199.711C185.789 200.914 185.99 201.776 186.391 202.297C186.792 202.812 187.435 203.07 188.32 203.07C189.117 203.07 189.711 202.781 190.102 202.203C190.492 201.62 190.688 200.784 190.688 199.695C190.688 198.581 190.492 197.75 190.102 197.203C189.711 196.656 189.107 196.383 188.289 196.383ZM199.57 204L199.312 202.781H199.25C198.823 203.318 198.396 203.682 197.969 203.875C197.547 204.062 197.018 204.156 196.383 204.156C195.534 204.156 194.867 203.938 194.383 203.5C193.904 203.062 193.664 202.44 193.664 201.633C193.664 199.904 195.047 198.997 197.812 198.914L199.266 198.867V198.336C199.266 197.664 199.12 197.169 198.828 196.852C198.542 196.529 198.081 196.367 197.445 196.367C196.732 196.367 195.924 196.586 195.023 197.023L194.625 196.031C195.047 195.802 195.508 195.622 196.008 195.492C196.513 195.362 197.018 195.297 197.523 195.297C198.544 195.297 199.299 195.523 199.789 195.977C200.284 196.43 200.531 197.156 200.531 198.156V204H199.57ZM196.641 203.086C197.448 203.086 198.081 202.865 198.539 202.422C199.003 201.979 199.234 201.359 199.234 200.562V199.789L197.938 199.844C196.906 199.88 196.161 200.042 195.703 200.328C195.25 200.609 195.023 201.049 195.023 201.648C195.023 202.117 195.164 202.474 195.445 202.719C195.732 202.964 196.13 203.086 196.641 203.086ZM206.633 204.156C205.393 204.156 204.432 203.776 203.75 203.016C203.073 202.25 202.734 201.169 202.734 199.773C202.734 198.341 203.078 197.234 203.766 196.453C204.458 195.672 205.443 195.281 206.719 195.281C207.13 195.281 207.542 195.326 207.953 195.414C208.365 195.503 208.688 195.607 208.922 195.727L208.523 196.828C208.237 196.714 207.924 196.62 207.586 196.547C207.247 196.469 206.948 196.43 206.688 196.43C204.948 196.43 204.078 197.539 204.078 199.758C204.078 200.81 204.289 201.617 204.711 202.18C205.138 202.742 205.768 203.023 206.602 203.023C207.315 203.023 208.047 202.87 208.797 202.562V203.711C208.224 204.008 207.503 204.156 206.633 204.156ZM212.117 199.617C212.341 199.299 212.682 198.883 213.141 198.367L215.906 195.438H217.445L213.977 199.086L217.688 204H216.117L213.094 199.953L212.117 200.797V204H210.836V191.844H212.117V198.289C212.117 198.576 212.096 199.018 212.055 199.617H212.117ZM62.1719 227.086C62.401 227.086 62.6224 227.07 62.8359 227.039C63.0495 227.003 63.2188 226.966 63.3438 226.93V227.922C63.2031 227.99 62.9948 228.044 62.7188 228.086C62.4479 228.133 62.2031 228.156 61.9844 228.156C60.3281 228.156 59.5 227.284 59.5 225.539V220.445H58.2734V219.82L59.5 219.281L60.0469 217.453H60.7969V219.438H63.2812V220.445H60.7969V225.484C60.7969 226 60.9193 226.396 61.1641 226.672C61.4089 226.948 61.7448 227.086 62.1719 227.086ZM70.9219 228V222.461C70.9219 221.763 70.763 221.242 70.4453 220.898C70.1276 220.555 69.6302 220.383 68.9531 220.383C68.0521 220.383 67.3932 220.628 66.9766 221.117C66.5651 221.607 66.3594 222.409 66.3594 223.523V228H65.0625V215.844H66.3594V219.523C66.3594 219.966 66.3385 220.333 66.2969 220.625H66.375C66.6302 220.214 66.9922 219.891 67.4609 219.656C67.9349 219.417 68.474 219.297 69.0781 219.297C70.125 219.297 70.9089 219.547 71.4297 220.047C71.9557 220.542 72.2188 221.331 72.2188 222.414V228H70.9219ZM78.7969 219.281C79.1771 219.281 79.5182 219.312 79.8203 219.375L79.6406 220.578C79.2865 220.5 78.974 220.461 78.7031 220.461C78.0104 220.461 77.4167 220.742 76.9219 221.305C76.4323 221.867 76.1875 222.568 76.1875 223.406V228H74.8906V219.438H75.9609L76.1094 221.023H76.1719C76.4896 220.466 76.8724 220.036 77.3203 219.734C77.7682 219.432 78.2604 219.281 78.7969 219.281ZM88.8125 223.711C88.8125 225.107 88.4609 226.198 87.7578 226.984C87.0547 227.766 86.0833 228.156 84.8438 228.156C84.0781 228.156 83.3984 227.977 82.8047 227.617C82.2109 227.258 81.7526 226.742 81.4297 226.07C81.1068 225.398 80.9453 224.612 80.9453 223.711C80.9453 222.315 81.2943 221.229 81.9922 220.453C82.6901 219.672 83.6589 219.281 84.8984 219.281C86.0964 219.281 87.0469 219.68 87.75 220.477C88.4583 221.273 88.8125 222.352 88.8125 223.711ZM82.2891 223.711C82.2891 224.805 82.5078 225.638 82.9453 226.211C83.3828 226.784 84.026 227.07 84.875 227.07C85.724 227.07 86.3672 226.786 86.8047 226.219C87.2474 225.646 87.4688 224.81 87.4688 223.711C87.4688 222.622 87.2474 221.797 86.8047 221.234C86.3672 220.667 85.7188 220.383 84.8594 220.383C84.0104 220.383 83.3698 220.661 82.9375 221.219C82.5052 221.776 82.2891 222.607 82.2891 223.711ZM92.3125 219.438V224.992C92.3125 225.69 92.4714 226.211 92.7891 226.555C93.1068 226.898 93.6042 227.07 94.2812 227.07C95.1771 227.07 95.8307 226.826 96.2422 226.336C96.6589 225.846 96.8672 225.047 96.8672 223.938V219.438H98.1641V228H97.0938L96.9062 226.852H96.8359C96.5703 227.273 96.2005 227.596 95.7266 227.82C95.2578 228.044 94.7214 228.156 94.1172 228.156C93.0755 228.156 92.2943 227.909 91.7734 227.414C91.2578 226.919 91 226.128 91 225.039V219.438H92.3125ZM107.93 219.438V220.258L106.344 220.445C106.49 220.628 106.62 220.867 106.734 221.164C106.849 221.456 106.906 221.786 106.906 222.156C106.906 222.995 106.62 223.664 106.047 224.164C105.474 224.664 104.688 224.914 103.688 224.914C103.432 224.914 103.193 224.893 102.969 224.852C102.417 225.143 102.141 225.51 102.141 225.953C102.141 226.188 102.237 226.362 102.43 226.477C102.622 226.586 102.953 226.641 103.422 226.641H104.938C105.865 226.641 106.576 226.836 107.07 227.227C107.57 227.617 107.82 228.185 107.82 228.93C107.82 229.878 107.44 230.599 106.68 231.094C105.919 231.594 104.81 231.844 103.352 231.844C102.232 231.844 101.367 231.635 100.758 231.219C100.154 230.802 99.8516 230.214 99.8516 229.453C99.8516 228.932 100.018 228.482 100.352 228.102C100.685 227.721 101.154 227.464 101.758 227.328C101.539 227.229 101.354 227.076 101.203 226.867C101.057 226.659 100.984 226.417 100.984 226.141C100.984 225.828 101.068 225.555 101.234 225.32C101.401 225.086 101.664 224.859 102.023 224.641C101.581 224.458 101.219 224.148 100.938 223.711C100.661 223.273 100.523 222.773 100.523 222.211C100.523 221.273 100.805 220.552 101.367 220.047C101.93 219.536 102.727 219.281 103.758 219.281C104.206 219.281 104.609 219.333 104.969 219.438H107.93ZM101.102 229.438C101.102 229.901 101.297 230.253 101.688 230.492C102.078 230.732 102.638 230.852 103.367 230.852C104.456 230.852 105.26 230.688 105.781 230.359C106.307 230.036 106.57 229.596 106.57 229.039C106.57 228.576 106.427 228.253 106.141 228.07C105.854 227.893 105.315 227.805 104.523 227.805H102.969C102.38 227.805 101.922 227.945 101.594 228.227C101.266 228.508 101.102 228.911 101.102 229.438ZM101.805 222.18C101.805 222.779 101.974 223.232 102.312 223.539C102.651 223.846 103.122 224 103.727 224C104.992 224 105.625 223.385 105.625 222.156C105.625 220.87 104.984 220.227 103.703 220.227C103.094 220.227 102.625 220.391 102.297 220.719C101.969 221.047 101.805 221.534 101.805 222.18ZM115.547 228V222.461C115.547 221.763 115.388 221.242 115.07 220.898C114.753 220.555 114.255 220.383 113.578 220.383C112.677 220.383 112.018 220.628 111.602 221.117C111.19 221.607 110.984 222.409 110.984 223.523V228H109.688V215.844H110.984V219.523C110.984 219.966 110.964 220.333 110.922 220.625H111C111.255 220.214 111.617 219.891 112.086 219.656C112.56 219.417 113.099 219.297 113.703 219.297C114.75 219.297 115.534 219.547 116.055 220.047C116.581 220.542 116.844 221.331 116.844 222.414V228H115.547ZM123.867 216.578H127.094C128.609 216.578 129.706 216.805 130.383 217.258C131.06 217.711 131.398 218.427 131.398 219.406C131.398 220.083 131.208 220.643 130.828 221.086C130.453 221.523 129.904 221.807 129.18 221.938V222.016C130.914 222.312 131.781 223.224 131.781 224.75C131.781 225.771 131.435 226.568 130.742 227.141C130.055 227.714 129.091 228 127.852 228H123.867V216.578ZM125.195 221.469H127.383C128.32 221.469 128.995 221.323 129.406 221.031C129.818 220.734 130.023 220.237 130.023 219.539C130.023 218.898 129.794 218.438 129.336 218.156C128.878 217.87 128.148 217.727 127.148 217.727H125.195V221.469ZM125.195 222.594V226.867H127.578C128.5 226.867 129.193 226.69 129.656 226.336C130.125 225.977 130.359 225.417 130.359 224.656C130.359 223.948 130.12 223.427 129.641 223.094C129.167 222.76 128.443 222.594 127.469 222.594H125.195ZM141.438 223.711C141.438 225.107 141.086 226.198 140.383 226.984C139.68 227.766 138.708 228.156 137.469 228.156C136.703 228.156 136.023 227.977 135.43 227.617C134.836 227.258 134.378 226.742 134.055 226.07C133.732 225.398 133.57 224.612 133.57 223.711C133.57 222.315 133.919 221.229 134.617 220.453C135.315 219.672 136.284 219.281 137.523 219.281C138.721 219.281 139.672 219.68 140.375 220.477C141.083 221.273 141.438 222.352 141.438 223.711ZM134.914 223.711C134.914 224.805 135.133 225.638 135.57 226.211C136.008 226.784 136.651 227.07 137.5 227.07C138.349 227.07 138.992 226.786 139.43 226.219C139.872 225.646 140.094 224.81 140.094 223.711C140.094 222.622 139.872 221.797 139.43 221.234C138.992 220.667 138.344 220.383 137.484 220.383C136.635 220.383 135.995 220.661 135.562 221.219C135.13 221.776 134.914 222.607 134.914 223.711ZM146.484 227.086C146.714 227.086 146.935 227.07 147.148 227.039C147.362 227.003 147.531 226.966 147.656 226.93V227.922C147.516 227.99 147.307 228.044 147.031 228.086C146.76 228.133 146.516 228.156 146.297 228.156C144.641 228.156 143.812 227.284 143.812 225.539V220.445H142.586V219.82L143.812 219.281L144.359 217.453H145.109V219.438H147.594V220.445H145.109V225.484C145.109 226 145.232 226.396 145.477 226.672C145.721 226.948 146.057 227.086 146.484 227.086ZM152.141 227.086C152.37 227.086 152.591 227.07 152.805 227.039C153.018 227.003 153.188 226.966 153.312 226.93V227.922C153.172 227.99 152.964 228.044 152.688 228.086C152.417 228.133 152.172 228.156 151.953 228.156C150.297 228.156 149.469 227.284 149.469 225.539V220.445H148.242V219.82L149.469 219.281L150.016 217.453H150.766V219.438H153.25V220.445H150.766V225.484C150.766 226 150.888 226.396 151.133 226.672C151.378 226.948 151.714 227.086 152.141 227.086ZM156.328 228H155.031V215.844H156.328V228ZM162.695 228.156C161.43 228.156 160.43 227.771 159.695 227C158.966 226.229 158.602 225.159 158.602 223.789C158.602 222.409 158.94 221.312 159.617 220.5C160.299 219.688 161.214 219.281 162.359 219.281C163.432 219.281 164.281 219.635 164.906 220.344C165.531 221.047 165.844 221.977 165.844 223.133V223.953H159.945C159.971 224.958 160.224 225.721 160.703 226.242C161.188 226.763 161.867 227.023 162.742 227.023C163.664 227.023 164.576 226.831 165.477 226.445V227.602C165.018 227.799 164.583 227.94 164.172 228.023C163.766 228.112 163.273 228.156 162.695 228.156ZM162.344 220.367C161.656 220.367 161.107 220.591 160.695 221.039C160.289 221.487 160.049 222.107 159.977 222.898H164.453C164.453 222.081 164.271 221.456 163.906 221.023C163.542 220.586 163.021 220.367 162.344 220.367ZM169.234 224.852H168.414L168.016 216.578H169.633L169.234 224.852ZM167.875 227.172C167.875 226.464 168.188 226.109 168.812 226.109C169.115 226.109 169.346 226.201 169.508 226.383C169.674 226.565 169.758 226.828 169.758 227.172C169.758 227.505 169.674 227.766 169.508 227.953C169.341 228.135 169.109 228.227 168.812 228.227C168.542 228.227 168.318 228.146 168.141 227.984C167.964 227.818 167.875 227.547 167.875 227.172Z" fill="#414141"/>
<path d="M77.8787 126.008C77.8147 126.728 77.7667 127.424 77.7347 128.096C77.7187 128.768 77.7107 129.288 77.7107 129.656C77.7107 130.008 77.7187 130.344 77.7347 130.664C77.7507 130.984 77.7667 131.256 77.7827 131.48H77.2307C77.0227 130.232 76.7347 129.256 76.3667 128.552C75.9987 127.832 75.5427 127.32 74.9987 127.016C74.4707 126.712 73.8387 126.56 73.1027 126.56H72.3107C71.8467 126.56 71.4947 126.6 71.2547 126.68C71.0147 126.76 70.8547 126.92 70.7747 127.16C70.6947 127.4 70.6547 127.768 70.6547 128.264V140.312C70.6547 140.936 70.7187 141.4 70.8467 141.704C70.9747 142.008 71.2227 142.208 71.5907 142.304C71.9587 142.4 72.5027 142.456 73.2227 142.472V143C72.7267 142.984 72.0867 142.968 71.3027 142.952C70.5187 142.936 69.6947 142.928 68.8307 142.928C68.1427 142.928 67.4707 142.936 66.8147 142.952C66.1587 142.968 65.5667 142.984 65.0387 143V142.52C65.5507 142.488 65.9347 142.424 66.1907 142.328C66.4467 142.232 66.6147 142.04 66.6947 141.752C66.7907 141.464 66.8387 141.032 66.8387 140.456V128.552C66.8387 127.96 66.7907 127.528 66.6947 127.256C66.6147 126.968 66.4387 126.776 66.1667 126.68C65.9107 126.568 65.5347 126.504 65.0387 126.488V126.008C65.6947 126.024 66.3907 126.04 67.1267 126.056C67.8627 126.056 68.5907 126.064 69.3107 126.08C70.0307 126.08 70.7027 126.08 71.3267 126.08C71.9507 126.08 72.4627 126.08 72.8627 126.08C73.5987 126.08 74.4307 126.08 75.3587 126.08C76.3027 126.064 77.1427 126.04 77.8787 126.008ZM74.3027 134.312C74.3027 134.312 74.3027 134.392 74.3027 134.552C74.3027 134.712 74.3027 134.792 74.3027 134.792H69.9347C69.9347 134.792 69.9347 134.712 69.9347 134.552C69.9347 134.392 69.9347 134.312 69.9347 134.312H74.3027ZM74.9027 131.144C74.8387 132.056 74.8067 132.752 74.8067 133.232C74.8227 133.712 74.8307 134.152 74.8307 134.552C74.8307 134.952 74.8387 135.392 74.8547 135.872C74.8707 136.352 74.9107 137.048 74.9747 137.96H74.4227C74.3267 137.4 74.1747 136.88 73.9667 136.4C73.7587 135.92 73.4547 135.536 73.0547 135.248C72.6547 134.944 72.1347 134.792 71.4947 134.792V134.312C71.9747 134.312 72.3747 134.216 72.6947 134.024C73.0307 133.816 73.3107 133.552 73.5347 133.232C73.7587 132.896 73.9347 132.544 74.0627 132.176C74.1907 131.808 74.2867 131.464 74.3507 131.144H74.9027ZM84.5844 130.256C85.9924 130.256 87.0964 130.672 87.8964 131.504C88.6964 132.336 89.0964 133.696 89.0964 135.584H81.2004L81.1524 135.128H86.0724C86.0884 134.344 86.0404 133.624 85.9284 132.968C85.8164 132.296 85.6404 131.76 85.4004 131.36C85.1604 130.96 84.8404 130.76 84.4404 130.76C83.8804 130.76 83.4004 131.112 83.0004 131.816C82.6164 132.52 82.3844 133.688 82.3044 135.32L82.3764 135.464C82.3604 135.656 82.3444 135.856 82.3284 136.064C82.3284 136.272 82.3284 136.488 82.3284 136.712C82.3284 137.816 82.4804 138.712 82.7844 139.4C83.1044 140.088 83.5044 140.592 83.9844 140.912C84.4644 141.216 84.9524 141.368 85.4484 141.368C85.7844 141.368 86.1284 141.32 86.4804 141.224C86.8484 141.112 87.2164 140.92 87.5844 140.648C87.9524 140.36 88.2964 139.96 88.6164 139.448L89.0484 139.592C88.8564 140.2 88.5524 140.792 88.1364 141.368C87.7204 141.944 87.1924 142.416 86.5524 142.784C85.9124 143.152 85.1444 143.336 84.2484 143.336C83.1604 143.336 82.2004 143.104 81.3684 142.64C80.5364 142.176 79.8804 141.472 79.4004 140.528C78.9364 139.584 78.7044 138.384 78.7044 136.928C78.7044 135.44 78.9524 134.2 79.4484 133.208C79.9604 132.216 80.6564 131.48 81.5364 131C82.4324 130.504 83.4484 130.256 84.5844 130.256ZM96.6782 130.256C98.0862 130.256 99.1902 130.672 99.9902 131.504C100.79 132.336 101.19 133.696 101.19 135.584H93.2942L93.2462 135.128H98.1662C98.1822 134.344 98.1342 133.624 98.0222 132.968C97.9102 132.296 97.7342 131.76 97.4942 131.36C97.2542 130.96 96.9342 130.76 96.5342 130.76C95.9742 130.76 95.4942 131.112 95.0942 131.816C94.7102 132.52 94.4782 133.688 94.3982 135.32L94.4702 135.464C94.4542 135.656 94.4382 135.856 94.4222 136.064C94.4222 136.272 94.4222 136.488 94.4222 136.712C94.4222 137.816 94.5742 138.712 94.8782 139.4C95.1982 140.088 95.5982 140.592 96.0782 140.912C96.5582 141.216 97.0462 141.368 97.5422 141.368C97.8782 141.368 98.2222 141.32 98.5742 141.224C98.9422 141.112 99.3102 140.92 99.6782 140.648C100.046 140.36 100.39 139.96 100.71 139.448L101.142 139.592C100.95 140.2 100.646 140.792 100.23 141.368C99.8142 141.944 99.2862 142.416 98.6462 142.784C98.0062 143.152 97.2382 143.336 96.3422 143.336C95.2542 143.336 94.2942 143.104 93.4622 142.64C92.6302 142.176 91.9742 141.472 91.4942 140.528C91.0302 139.584 90.7982 138.384 90.7982 136.928C90.7982 135.44 91.0462 134.2 91.5422 133.208C92.0542 132.216 92.7502 131.48 93.6302 131C94.5262 130.504 95.5422 130.256 96.6782 130.256ZM114.388 124.208V140.36C114.388 141.08 114.5 141.616 114.724 141.968C114.948 142.304 115.348 142.472 115.924 142.472V142.976C115.428 142.928 114.932 142.904 114.436 142.904C113.764 142.904 113.132 142.928 112.54 142.976C111.964 143.024 111.428 143.112 110.932 143.24V127.088C110.932 126.368 110.82 125.84 110.596 125.504C110.388 125.152 109.988 124.976 109.396 124.976V124.472C109.908 124.52 110.404 124.544 110.884 124.544C111.54 124.544 112.164 124.52 112.756 124.472C113.348 124.408 113.892 124.32 114.388 124.208ZM108.268 130.256C108.972 130.256 109.588 130.376 110.116 130.616C110.66 130.84 111.084 131.224 111.388 131.768L111.1 132.032C110.892 131.648 110.612 131.376 110.26 131.216C109.924 131.04 109.564 130.952 109.18 130.952C108.364 130.952 107.716 131.432 107.236 132.392C106.756 133.336 106.524 134.8 106.54 136.784C106.54 138.144 106.628 139.232 106.804 140.048C106.996 140.848 107.26 141.424 107.596 141.776C107.948 142.128 108.348 142.304 108.796 142.304C109.34 142.304 109.828 142.088 110.26 141.656C110.692 141.224 110.924 140.64 110.956 139.904L111.076 140.744C110.836 141.592 110.444 142.24 109.9 142.688C109.372 143.12 108.676 143.336 107.812 143.336C106.868 143.336 106.02 143.104 105.268 142.64C104.532 142.176 103.956 141.464 103.54 140.504C103.124 139.528 102.916 138.272 102.916 136.736C102.916 135.28 103.148 134.08 103.612 133.136C104.076 132.176 104.708 131.456 105.508 130.976C106.324 130.496 107.244 130.256 108.268 130.256ZM125.156 130.256C126.404 130.256 127.436 130.768 128.252 131.792C129.084 132.8 129.5 134.36 129.5 136.472C129.5 138.136 129.244 139.472 128.732 140.48C128.236 141.488 127.572 142.216 126.74 142.664C125.908 143.112 124.996 143.336 124.004 143.336C123.348 143.336 122.74 143.224 122.18 143C121.62 142.776 121.14 142.408 120.74 141.896L121.076 141.776C121.364 142.128 121.7 142.392 122.084 142.568C122.484 142.744 122.876 142.832 123.26 142.832C124.14 142.832 124.796 142.336 125.228 141.344C125.66 140.352 125.876 138.84 125.876 136.808C125.876 135.432 125.788 134.344 125.612 133.544C125.452 132.728 125.212 132.152 124.892 131.816C124.572 131.464 124.188 131.288 123.74 131.288C123.18 131.288 122.668 131.52 122.204 131.984C121.74 132.432 121.476 133.064 121.412 133.88L121.292 133.04C121.58 132.128 122.068 131.44 122.756 130.976C123.444 130.496 124.244 130.256 125.156 130.256ZM121.484 124.232V142.52C121.084 142.456 120.676 142.456 120.26 142.52C119.844 142.584 119.46 142.696 119.108 142.856C118.756 143 118.46 143.176 118.22 143.384L117.86 143.168C117.924 142.944 117.964 142.72 117.98 142.496C118.012 142.272 118.028 142.048 118.028 141.824V127.112C118.028 126.392 117.916 125.864 117.692 125.528C117.484 125.176 117.084 125 116.492 125V124.496C117.004 124.544 117.5 124.568 117.98 124.568C118.636 124.568 119.26 124.544 119.852 124.496C120.444 124.432 120.988 124.344 121.484 124.232ZM134.298 143.168C133.578 143.168 132.978 143.032 132.498 142.76C132.018 142.488 131.666 142.128 131.442 141.68C131.218 141.216 131.106 140.712 131.106 140.168C131.106 139.48 131.258 138.92 131.562 138.488C131.882 138.056 132.29 137.704 132.786 137.432C133.282 137.16 133.802 136.936 134.346 136.76C134.906 136.584 135.434 136.416 135.93 136.256C136.442 136.08 136.85 135.88 137.154 135.656C137.474 135.416 137.634 135.112 137.634 134.744V132.872C137.634 132.456 137.562 132.088 137.418 131.768C137.29 131.432 137.082 131.176 136.794 131C136.522 130.824 136.162 130.736 135.714 130.736C135.394 130.736 135.074 130.784 134.754 130.88C134.434 130.96 134.17 131.104 133.962 131.312C134.41 131.472 134.754 131.72 134.994 132.056C135.25 132.376 135.378 132.744 135.378 133.16C135.378 133.704 135.186 134.136 134.802 134.456C134.434 134.776 133.994 134.936 133.482 134.936C132.906 134.936 132.466 134.76 132.162 134.408C131.874 134.04 131.73 133.6 131.73 133.088C131.73 132.624 131.842 132.24 132.066 131.936C132.306 131.632 132.634 131.344 133.05 131.072C133.498 130.816 134.034 130.616 134.658 130.472C135.298 130.328 135.986 130.256 136.722 130.256C137.458 130.256 138.122 130.336 138.714 130.496C139.306 130.64 139.802 130.912 140.202 131.312C140.57 131.68 140.81 132.136 140.922 132.68C141.034 133.208 141.09 133.88 141.09 134.696V141.224C141.09 141.624 141.13 141.904 141.21 142.064C141.29 142.208 141.426 142.28 141.618 142.28C141.762 142.28 141.898 142.24 142.026 142.16C142.17 142.08 142.322 141.984 142.482 141.872L142.722 142.28C142.386 142.568 141.994 142.792 141.546 142.952C141.114 143.096 140.626 143.168 140.082 143.168C139.49 143.168 139.018 143.088 138.666 142.928C138.314 142.752 138.058 142.52 137.898 142.232C137.754 141.944 137.682 141.608 137.682 141.224C137.298 141.832 136.834 142.312 136.29 142.664C135.746 143 135.082 143.168 134.298 143.168ZM136.002 141.632C136.322 141.632 136.61 141.56 136.866 141.416C137.138 141.256 137.394 141 137.634 140.648V135.728C137.49 135.968 137.29 136.184 137.034 136.376C136.778 136.568 136.506 136.768 136.218 136.976C135.93 137.168 135.65 137.384 135.378 137.624C135.122 137.864 134.914 138.16 134.754 138.512C134.594 138.864 134.514 139.288 134.514 139.784C134.514 140.408 134.65 140.872 134.922 141.176C135.194 141.48 135.554 141.632 136.002 141.632ZM149.648 130.256C150.272 130.256 150.84 130.328 151.352 130.472C151.88 130.6 152.312 130.768 152.648 130.976C153.064 131.232 153.384 131.552 153.608 131.936C153.848 132.304 153.968 132.736 153.968 133.232C153.968 133.792 153.792 134.256 153.44 134.624C153.088 134.976 152.632 135.152 152.072 135.152C151.512 135.152 151.064 134.992 150.728 134.672C150.392 134.352 150.224 133.92 150.224 133.376C150.224 132.864 150.384 132.44 150.704 132.104C151.024 131.752 151.392 131.52 151.808 131.408C151.68 131.248 151.488 131.112 151.232 131C150.976 130.888 150.688 130.832 150.368 130.832C149.872 130.832 149.432 130.976 149.048 131.264C148.68 131.552 148.368 131.952 148.112 132.464C147.856 132.976 147.656 133.576 147.512 134.264C147.384 134.952 147.32 135.704 147.32 136.52C147.32 137.752 147.472 138.72 147.776 139.424C148.096 140.128 148.496 140.624 148.976 140.912C149.472 141.2 149.984 141.344 150.512 141.344C150.816 141.344 151.144 141.296 151.496 141.2C151.864 141.104 152.232 140.912 152.6 140.624C152.984 140.336 153.336 139.928 153.656 139.4L154.064 139.544C153.888 140.136 153.6 140.728 153.2 141.32C152.8 141.912 152.28 142.4 151.64 142.784C151 143.152 150.216 143.336 149.288 143.336C148.248 143.336 147.304 143.112 146.456 142.664C145.624 142.2 144.952 141.496 144.44 140.552C143.944 139.592 143.696 138.36 143.696 136.856C143.696 135.416 143.952 134.208 144.464 133.232C144.992 132.24 145.704 131.496 146.6 131C147.496 130.504 148.512 130.256 149.648 130.256ZM160.186 124.208V140.768C160.186 141.44 160.29 141.896 160.498 142.136C160.722 142.376 161.098 142.496 161.626 142.496V143C161.322 142.984 160.874 142.968 160.282 142.952C159.706 142.92 159.114 142.904 158.506 142.904C157.882 142.904 157.25 142.92 156.61 142.952C155.986 142.968 155.514 142.984 155.194 143V142.496C155.754 142.496 156.146 142.376 156.37 142.136C156.61 141.896 156.73 141.44 156.73 140.768V127.088C156.73 126.368 156.618 125.84 156.394 125.504C156.186 125.152 155.786 124.976 155.194 124.976V124.472C155.706 124.52 156.202 124.544 156.682 124.544C157.338 124.544 157.962 124.52 158.554 124.472C159.146 124.408 159.69 124.32 160.186 124.208ZM168.01 130.592V131.072C167.514 131.168 167.018 131.376 166.522 131.696C166.026 132.016 165.522 132.424 165.01 132.92L163.162 134.84L163.402 134.384L167.506 141.248C167.682 141.536 167.866 141.792 168.058 142.016C168.25 142.24 168.482 142.4 168.754 142.496V143C168.514 142.984 168.154 142.968 167.674 142.952C167.194 142.92 166.714 142.904 166.234 142.904C165.642 142.904 165.05 142.92 164.458 142.952C163.866 142.968 163.426 142.984 163.138 143V142.496C163.458 142.496 163.674 142.424 163.786 142.28C163.898 142.12 163.882 141.92 163.738 141.68L161.362 137.384C161.17 137.08 160.978 136.888 160.786 136.808C160.61 136.712 160.37 136.656 160.066 136.64V136.184C160.402 136.152 160.69 136.096 160.93 136.016C161.186 135.936 161.418 135.784 161.626 135.56L163.45 133.784C163.994 133.272 164.266 132.816 164.266 132.416C164.266 132.016 164.09 131.696 163.738 131.456C163.402 131.216 162.954 131.088 162.394 131.072V130.592C162.842 130.608 163.33 130.624 163.858 130.64C164.386 130.656 164.834 130.664 165.202 130.664C165.522 130.664 165.858 130.664 166.21 130.664C166.578 130.648 166.922 130.64 167.242 130.64C167.562 130.624 167.818 130.608 168.01 130.592Z" fill="#414141"/>
<g clip-path="url(#clip0_1_263)">
<path d="M135.753 24.3804H92.4029C85.1889 24.3804 79.3411 30.2011 79.3411 37.3811V65.6802C79.3411 72.8603 85.1892 78.6809 92.4029 78.6809H98.6241C98.9202 78.6809 99.16 78.9196 99.16 79.2142V93.1738C99.16 94.8241 101.188 95.6245 102.324 94.4214L117.04 78.8488C117.141 78.7416 117.282 78.6809 117.43 78.6809H135.753C142.967 78.6809 148.814 72.8601 148.814 65.6802V37.3811C148.814 30.2011 142.966 24.3804 135.753 24.3804Z" fill="#8AD0DA"/>
<path opacity="0.3" d="M104.655 73.8292C104.655 73.519 104.423 73.2676 104.136 73.2676H98.1136C91.1299 73.2676 85.4685 67.1382 85.4685 59.5772V29.7769C85.4685 28.4974 85.6312 27.2592 85.9343 26.0845C81.9957 28.3236 79.3411 32.5438 79.3411 37.3814V65.6804C79.3411 72.8604 85.1892 78.6811 92.4029 78.6811H98.6241C98.9202 78.6811 99.16 78.92 99.16 79.2145V93.1741C99.16 94.8245 101.188 95.6248 102.324 94.4218L104.655 91.9551V73.8292H104.655Z" fill="#504F4F"/>
<path d="M115.258 0.572907L116.586 4.82591H120.883C121.051 4.82592 121.215 4.88133 121.351 4.9842C121.487 5.08708 121.589 5.23215 121.641 5.39862C121.693 5.56508 121.693 5.74439 121.641 5.91087C121.589 6.07734 121.488 6.22242 121.351 6.32533L117.875 8.95405L119.203 13.207C119.255 13.3735 119.255 13.5528 119.203 13.7193C119.151 13.8858 119.049 14.0309 118.913 14.1338C118.777 14.2366 118.613 14.292 118.445 14.292C118.277 14.292 118.113 14.2366 117.977 14.1336L114.5 11.5049L111.023 14.1336C110.887 14.2366 110.723 14.292 110.555 14.292C110.387 14.292 110.223 14.2366 110.087 14.1338C109.951 14.0309 109.849 13.8858 109.797 13.7193C109.746 13.5528 109.746 13.3735 109.798 13.207L111.126 8.95379L107.649 6.32507C107.513 6.22216 107.411 6.07707 107.359 5.9106C107.307 5.74413 107.307 5.56481 107.359 5.39835C107.411 5.23189 107.513 5.08682 107.649 4.98394C107.785 4.88106 107.949 4.82565 108.117 4.82565H112.414L113.742 0.572641C113.794 0.406166 113.896 0.261099 114.032 0.158229C114.168 0.0553599 114.332 -2.96175e-05 114.5 1.18809e-08C114.668 2.96412e-05 114.832 0.0554769 114.968 0.158394C115.104 0.261311 115.206 0.406415 115.258 0.572907Z" fill="#FFEC83"/>
<path d="M95.2754 3.80385L96.3685 7.05561H99.9075C100.046 7.05568 100.181 7.09807 100.293 7.17672C100.405 7.25536 100.488 7.36624 100.531 7.49345C100.574 7.62067 100.574 7.75771 100.531 7.88495C100.488 8.01219 100.405 8.12311 100.293 8.20182L97.43 10.2109L98.5231 13.4626C98.5659 13.5899 98.5658 13.727 98.523 13.8542C98.4801 13.9815 98.3967 14.0924 98.2846 14.171C98.1726 14.2496 98.0376 14.292 97.8991 14.292C97.7606 14.292 97.6257 14.2496 97.5136 14.171L94.6505 12.1612L91.7873 14.171C91.6753 14.2495 91.5403 14.2919 91.4019 14.2919C91.2634 14.2918 91.1285 14.2495 91.0165 14.1709C90.9044 14.0922 90.821 13.9814 90.7782 13.8542C90.7353 13.727 90.7353 13.5899 90.7779 13.4626L91.8711 10.2109L89.008 8.20182C88.896 8.12312 88.8127 8.01221 88.7699 7.88498C88.7272 7.75775 88.7273 7.62073 88.77 7.49351C88.8128 7.3663 88.8962 7.25543 89.0081 7.17677C89.1201 7.09812 89.255 7.0557 89.3935 7.05561H92.9324L94.0256 3.80385C94.0678 3.67581 94.1512 3.56408 94.2635 3.48481C94.3759 3.40552 94.5113 3.36279 94.6505 3.36279C94.7896 3.36279 94.9251 3.40552 95.0375 3.48481C95.1497 3.56408 95.2331 3.67581 95.2754 3.80385Z" fill="#FFEC83"/>
<path d="M77.5369 9.68574L78.63 12.9381H82.1697C82.3081 12.9382 82.443 12.9806 82.555 13.0592C82.667 13.1379 82.7503 13.2488 82.7931 13.3761C82.8359 13.5033 82.836 13.6403 82.7932 13.7676C82.7505 13.8948 82.6672 14.0058 82.5552 14.0845L79.692 16.0939L80.7851 19.3462C80.8278 19.4735 80.8277 19.6106 80.7849 19.7378C80.7421 19.8651 80.6586 19.976 80.5466 20.0546C80.4346 20.1332 80.2996 20.1756 80.1612 20.1756C80.0227 20.1757 79.8878 20.1333 79.7757 20.0547L76.913 18.0457L74.0497 20.0557C73.9376 20.1344 73.8027 20.1768 73.6642 20.1768C73.5257 20.1768 73.3907 20.1344 73.2786 20.0558C73.1666 19.9771 73.0831 19.8662 73.0403 19.7389C72.9974 19.6117 72.9974 19.4746 73.0401 19.3473L74.1333 16.095L71.27 14.0855C71.1581 14.0068 71.0748 13.8958 71.032 13.7686C70.9893 13.6414 70.9893 13.5043 71.0321 13.377C71.0749 13.2498 71.1583 13.1389 71.2703 13.0603C71.3823 12.9816 71.5172 12.9392 71.6557 12.9391H75.1954L76.2885 9.68683C76.3311 9.55929 76.4144 9.44807 76.5265 9.36913C76.6386 9.29027 76.7736 9.24764 76.9123 9.24756C77.051 9.24747 77.1861 9.28976 77.2983 9.36854C77.4105 9.44723 77.494 9.55828 77.5369 9.68574Z" fill="#FFEC83"/>
<path d="M134.974 3.80178L136.067 7.05385H139.607C139.745 7.05395 139.88 7.09636 139.992 7.17503C140.104 7.2537 140.187 7.36458 140.23 7.49181C140.273 7.61903 140.273 7.75607 140.23 7.88331C140.187 8.01056 140.104 8.12147 139.992 8.20018L137.129 10.2094L138.222 13.4615C138.265 13.5888 138.265 13.7259 138.222 13.8531C138.179 13.9803 138.096 14.0912 137.983 14.1698C137.871 14.2484 137.737 14.2908 137.598 14.2908C137.46 14.2909 137.325 14.2485 137.213 14.1699L134.349 12.16L131.487 14.1709C131.375 14.2496 131.24 14.292 131.101 14.292C130.963 14.292 130.828 14.2496 130.716 14.171C130.603 14.0924 130.52 13.9815 130.477 13.8542C130.434 13.727 130.434 13.5898 130.477 13.4626L131.57 10.2105L128.707 8.20121C128.595 8.1225 128.512 8.01156 128.469 7.88432C128.426 7.75706 128.426 7.62 128.469 7.49277C128.512 7.36555 128.595 7.25467 128.707 7.17601C128.819 7.09735 128.954 7.05496 129.093 7.05489H132.632L133.725 3.8028C133.767 3.6751 133.851 3.56371 133.963 3.48464C134.075 3.40557 134.21 3.36291 134.349 3.36279C134.488 3.36268 134.623 3.40511 134.735 3.484C134.848 3.56288 134.931 3.67414 134.974 3.80178Z" fill="#FFEC83"/>
<path d="M152.712 9.68658L153.805 12.9386H157.345C157.483 12.9387 157.617 12.9811 157.73 13.0598C157.842 13.1384 157.925 13.2493 157.968 13.3766C158.011 13.5038 158.011 13.6408 157.968 13.768C157.925 13.8953 157.842 14.0062 157.73 14.0849L154.867 16.0942L155.96 19.3463C156.002 19.4736 156.002 19.6106 155.959 19.7379C155.917 19.8651 155.833 19.976 155.721 20.0546C155.61 20.1332 155.475 20.1756 155.336 20.1756C155.197 20.1757 155.063 20.1333 154.95 20.0547L152.087 18.0448L149.225 20.0557C149.112 20.1344 148.977 20.1768 148.839 20.1768C148.701 20.1768 148.566 20.1344 148.453 20.0558C148.341 19.9772 148.258 19.8663 148.215 19.739C148.172 19.6117 148.172 19.4746 148.215 19.3473L149.308 16.0953L146.445 14.086C146.333 14.0072 146.25 13.8963 146.207 13.7691C146.164 13.6419 146.164 13.5047 146.207 13.3775C146.25 13.2503 146.333 13.1394 146.445 13.0608C146.557 12.9822 146.692 12.9397 146.831 12.9396H150.37L151.463 9.68759C151.505 9.55988 151.589 9.44849 151.701 9.36938C151.813 9.29035 151.948 9.24764 152.087 9.24756C152.226 9.24747 152.361 9.28985 152.473 9.36879C152.586 9.44765 152.669 9.55887 152.712 9.68658Z" fill="#FFEC83"/>
<path d="M97.1844 45.5581H106.337V61.5009H97.1844V45.5581Z" fill="#FB7560"/>
<path d="M126.931 45.5585H117.778V38.7259C117.778 37.8198 117.417 36.9509 116.773 36.3102C116.129 35.6695 115.256 35.3096 114.346 35.3096H112.058L111.637 38.2394C111.414 39.795 110.815 41.2734 109.892 42.5481C108.969 43.8228 107.749 44.8557 106.337 45.5585V61.5012L107.374 62.1894C108.936 63.2257 110.771 63.7787 112.648 63.7786H125.787C126.394 63.7786 126.976 63.5387 127.405 63.1116C127.834 62.6845 128.075 62.1052 128.075 61.5012C128.075 60.8971 127.834 60.3178 127.405 59.8907C126.976 59.4635 126.394 59.2236 125.787 59.2236C126.394 59.2236 126.976 58.9837 127.405 58.5566C127.834 58.1294 128.075 57.5502 128.075 56.9461C128.075 56.3421 127.834 55.7627 127.405 55.3357C126.976 54.9085 126.394 54.6686 125.787 54.6686C126.394 54.6686 126.976 54.4286 127.405 54.0014C127.834 53.5744 128.075 52.995 128.075 52.391C128.075 51.787 127.834 51.2077 127.405 50.7805C126.976 50.3535 126.394 50.1135 125.787 50.1135H126.931C127.538 50.1135 128.12 49.8736 128.549 49.4464C128.978 49.0193 129.22 48.44 129.22 47.8359C129.22 47.2319 128.978 46.6527 128.549 46.2255C128.12 45.7984 127.538 45.5585 126.931 45.5585Z" fill="#FFD2A8"/>
</g>
<defs>
<clipPath id="clip0_1_263">
<rect width="87" height="95" fill="white" transform="translate(71)"/>
</clipPath>
</defs>
</svg>
