<svg width="122" height="30" viewBox="0 0 122 30" fill="none" xmlns="http://www.w3.org/2000/svg">
<path d="M107 30C115.284 30 122 23.2843 122 15C122 6.71573 115.284 0 107 0C98.7157 0 92 6.71573 92 15C92 23.2843 98.7157 30 107 30Z" fill="#69A08A"/>
<path d="M108.392 13.3756V14.3131C108.457 14.2261 108.512 14.1496 108.571 14.0761C109.053 13.4625 109.815 13.1373 110.591 13.2136C110.999 13.2275 111.398 13.3425 111.75 13.5481C112.312 13.8909 112.71 14.4486 112.85 15.0916C112.938 15.4421 112.981 15.8021 112.98 16.1634C112.98 17.4504 112.98 18.7376 112.98 20.0251C112.98 20.0461 112.98 20.0679 112.98 20.0926H110.75V20.0251C110.75 18.8251 110.75 17.6251 110.75 16.4251C110.755 16.1592 110.711 15.8946 110.62 15.6444C110.486 15.2511 110.117 14.9861 109.701 14.9844C109.361 14.9709 109.03 15.0964 108.784 15.3321C108.538 15.5676 108.398 15.8932 108.396 16.2339C108.402 16.7214 108.396 17.2089 108.396 17.6949C108.396 18.4713 108.396 19.2476 108.396 20.0236V20.0941H106.162V13.3756H108.392Z" fill="#F7F7F4"/>
<path d="M102.52 13.374H104.75V20.0925H102.52V13.374Z" fill="#F7F7F4"/>
<path d="M103.633 12.2072C104.268 12.2072 104.783 11.6925 104.783 11.0575C104.783 10.4225 104.268 9.90771 103.633 9.90771C102.998 9.90771 102.484 10.4225 102.484 11.0575C102.484 11.6925 102.998 12.2072 103.633 12.2072Z" fill="#F7F7F4"/>
<path d="M61 30C69.2843 30 76 23.2843 76 15C76 6.71573 69.2843 0 61 0C52.7157 0 46 6.71573 46 15C46 23.2843 52.7157 30 61 30Z" fill="#69A08A"/>
<path d="M65.4905 12.6165C65.4676 12.0985 65.3839 11.7423 65.2639 11.4337C65.1401 11.1061 64.9496 10.8128 64.7001 10.569C64.4563 10.3214 64.1611 10.129 63.8373 10.0071C63.5269 9.8871 63.1726 9.80332 62.6545 9.78052C62.1326 9.7557 61.9669 9.75 60.6431 9.75C59.3194 9.75 59.1537 9.7557 58.6337 9.77858C58.1157 9.80138 57.7595 9.88522 57.451 10.0052C57.1233 10.129 56.83 10.3195 56.5862 10.569C56.3386 10.8128 56.1463 11.108 56.0243 11.4319C55.9043 11.7423 55.8205 12.0965 55.7977 12.6146C55.7729 13.1365 55.7672 13.3022 55.7672 14.626C55.7672 15.9497 55.7729 16.1154 55.7958 16.6354C55.8186 17.1534 55.9024 17.5096 56.0224 17.8182C56.1463 18.1458 56.3386 18.439 56.5862 18.6829C56.83 18.9305 57.1252 19.1229 57.449 19.2448C57.7595 19.3648 58.1137 19.4486 58.6318 19.4714C59.1518 19.4943 59.3176 19.5 60.6413 19.5C61.9651 19.5 62.1307 19.4943 62.6507 19.4714C63.1687 19.4486 63.5249 19.3648 63.8335 19.2448C64.4887 18.9914 65.0068 18.4734 65.2601 17.8182C65.38 17.5077 65.4639 17.1534 65.4867 16.6354C65.5096 16.1154 65.5153 15.9497 65.5153 14.626C65.5153 13.3022 65.5134 13.1366 65.4905 12.6165ZM64.6125 16.5973C64.5916 17.0734 64.5115 17.3306 64.4449 17.502C64.2811 17.9267 63.9439 18.2638 63.5192 18.4277C63.3478 18.4944 63.0888 18.5743 62.6145 18.5953C62.1002 18.6181 61.946 18.6238 60.6451 18.6238C59.3442 18.6238 59.188 18.6181 58.6756 18.5953C58.1995 18.5743 57.9423 18.4944 57.7709 18.4277C57.5595 18.3496 57.3671 18.2257 57.211 18.0639C57.049 17.9058 56.9253 17.7153 56.8471 17.504C56.7805 17.3325 56.7005 17.0734 56.6796 16.5992C56.6566 16.0849 56.651 15.9307 56.651 14.6297C56.651 13.3289 56.6566 13.1727 56.6796 12.6604C56.7005 12.1842 56.7805 11.927 56.8471 11.7557C56.9253 11.5441 57.049 11.3518 57.2129 11.1956C57.3709 11.0337 57.5614 10.91 57.7729 10.8319C57.9442 10.7652 58.2033 10.6852 58.6775 10.6642C59.1918 10.6414 59.3461 10.6357 60.6469 10.6357C61.9498 10.6357 62.104 10.6414 62.6164 10.6642C63.0925 10.6852 63.3497 10.7652 63.5211 10.8319C63.7325 10.91 63.9249 11.0337 64.081 11.1956C64.243 11.3537 64.3668 11.5441 64.4449 11.7557C64.5115 11.927 64.5916 12.1861 64.6125 12.6604C64.6354 13.1746 64.6411 13.3289 64.6411 14.6297C64.6411 15.9307 64.6354 16.083 64.6125 16.5973Z" fill="#F7F7F4"/>
<path d="M60.6431 12.1216C59.2604 12.1216 58.1384 13.2434 58.1384 14.6262C58.1384 16.009 59.2604 17.1308 60.6431 17.1308C62.0259 17.1308 63.1478 16.009 63.1478 14.6262C63.1478 13.2434 62.0259 12.1216 60.6431 12.1216ZM60.6431 16.2509C59.7461 16.2509 59.0184 15.5234 59.0184 14.6262C59.0184 13.7291 59.7461 13.0015 60.6431 13.0015C61.5402 13.0015 62.2678 13.7291 62.2678 14.6262C62.2678 15.5234 61.5402 16.2509 60.6431 16.2509Z" fill="#F7F7F4"/>
<path d="M63.8315 12.0222C63.8315 12.3452 63.5697 12.607 63.2467 12.607C62.9238 12.607 62.662 12.3452 62.662 12.0222C62.662 11.6993 62.9238 11.4375 63.2467 11.4375C63.5697 11.4375 63.8315 11.6993 63.8315 12.0222Z" fill="#F7F7F4"/>
<path d="M15 30C23.2843 30 30 23.2843 30 15C30 6.71573 23.2843 0 15 0C6.71573 0 0 6.71573 0 15C0 23.2843 6.71573 30 15 30Z" fill="#69A08A"/>
<path d="M16.1858 12.285C16.1858 11.8125 16.233 11.5598 16.947 11.5598H17.9018V9.75H16.374C14.5403 9.75 13.8937 10.6282 13.8937 12.1042V13.1902H12.75V15H13.8937V20.25H16.1828V15H17.7098L17.9123 13.1902H16.1828L16.1858 12.285Z" fill="#F7F7F4"/>
</svg>
